M48
; DRILL file {KiCad (6.0.6)} date Wed Dec 14 10:50:41 2022
; FORMAT={-:-/ absolute / inch / decimal}
; #@! TF.CreationDate,2022-12-14T10:50:41-06:00
; #@! TF.GenerationSoftware,Kicad,Pcbnew,(6.0.6)
; #@! TF.FileFunction,Plated,1,2,PTH
FMAT,2
INCH
; #@! TA.AperFunction,Plated,PTH,ViaDrill
T1C0.0157
; #@! TA.AperFunction,Plated,PTH,ComponentDrill
T2C0.0394
%
G90
G05
T1
X0.0984Y-0.4921
X0.1201Y-0.1575
X0.157Y-1.1216
X0.1595Y-0.1575
X0.1772Y-0.0984
X0.187Y-1.3976
X0.1969Y-0.0591
X0.2362Y-1.3976
X0.2554Y-0.9257
X0.2564Y-0.7279
X0.2948Y-0.9651
X0.2958Y-0.7672
X0.315Y-1.3976
X0.3543Y-1.4075
X0.3548Y-1.3194
X0.3735Y-1.1019
X0.4025Y-0.4528
X0.4424Y-1.033
X0.4528Y-1.1811
X0.4724Y-0.9843
X0.5315Y-0.8858
X0.5315Y-1.2795
X0.5512Y-1.0827
X0.5512Y-1.4665
X0.5906Y-0.315
X0.7677Y-0.374
X0.7677Y-0.4134
X0.7677Y-0.4528
X0.7677Y-0.4921
X1.1619Y-0.1767
X1.2195Y-0.1912
X1.2622Y-0.3038
X1.4349Y-1.378
X1.4349Y-1.4173
X1.5333Y-1.3583
X1.5748Y-1.2008
X1.599Y-0.4347
X1.6535Y-1.2402
X1.6614Y-0.9429
X1.6968Y-0.9882
X1.7007Y-0.9454
X1.7008Y-0.8858
X1.7598Y-0.5709
X1.7825Y-0.9252
X1.7851Y-1.2368
X1.811Y-0.4331
X1.8115Y-0.6304
X1.8395Y-1.0616
X1.8398Y-0.8374
X1.8425Y-0.7953
X1.8504Y-0.689
X1.8898Y-1.122
X1.8898Y-1.2205
X1.9138Y-0.9695
T2
X0.6843Y-0.8811
X0.6843Y-0.9811
X0.6843Y-1.0811
X0.6843Y-1.1811
X0.6843Y-1.2811
X0.6843Y-1.3811
X0.6843Y-1.4811
X1.2843Y-0.8811
X1.2843Y-0.9811
X1.2843Y-1.0811
X1.2843Y-1.1811
X1.2843Y-1.2811
X1.2843Y-1.3811
X1.2843Y-1.4811
T0
M30
