%TF.GenerationSoftware,KiCad,Pcbnew,(6.0.6)*%
%TF.CreationDate,2022-12-14T10:50:40-06:00*%
%TF.ProjectId,Realm Card,5265616c-6d20-4436-9172-642e6b696361,A*%
%TF.SameCoordinates,Original*%
%TF.FileFunction,Legend,Top*%
%TF.FilePolarity,Positive*%
%FSLAX46Y46*%
G04 Gerber Fmt 4.6, Leading zero omitted, Abs format (unit mm)*
G04 Created by KiCad (PCBNEW (6.0.6)) date 2022-12-14 10:50:40*
%MOMM*%
%LPD*%
G01*
G04 APERTURE LIST*
G04 Aperture macros list*
%AMRoundRect*
0 Rectangle with rounded corners*
0 $1 Rounding radius*
0 $2 $3 $4 $5 $6 $7 $8 $9 X,Y pos of 4 corners*
0 Add a 4 corners polygon primitive as box body*
4,1,4,$2,$3,$4,$5,$6,$7,$8,$9,$2,$3,0*
0 Add four circle primitives for the rounded corners*
1,1,$1+$1,$2,$3*
1,1,$1+$1,$4,$5*
1,1,$1+$1,$6,$7*
1,1,$1+$1,$8,$9*
0 Add four rect primitives between the rounded corners*
20,1,$1+$1,$2,$3,$4,$5,0*
20,1,$1+$1,$4,$5,$6,$7,0*
20,1,$1+$1,$6,$7,$8,$9,0*
20,1,$1+$1,$8,$9,$2,$3,0*%
G04 Aperture macros list end*
%ADD10C,0.187500*%
%ADD11C,0.150000*%
%ADD12C,0.300000*%
%ADD13C,0.120000*%
%ADD14RoundRect,0.150000X-0.150000X0.512500X-0.150000X-0.512500X0.150000X-0.512500X0.150000X0.512500X0*%
%ADD15RoundRect,0.250000X-0.262500X-0.450000X0.262500X-0.450000X0.262500X0.450000X-0.262500X0.450000X0*%
%ADD16RoundRect,0.250000X0.262500X0.450000X-0.262500X0.450000X-0.262500X-0.450000X0.262500X-0.450000X0*%
%ADD17RoundRect,0.250000X-0.450000X0.262500X-0.450000X-0.262500X0.450000X-0.262500X0.450000X0.262500X0*%
%ADD18RoundRect,0.250000X-0.250000X-0.475000X0.250000X-0.475000X0.250000X0.475000X-0.250000X0.475000X0*%
%ADD19R,0.900000X1.200000*%
%ADD20RoundRect,0.243750X0.456250X-0.243750X0.456250X0.243750X-0.456250X0.243750X-0.456250X-0.243750X0*%
%ADD21R,0.850000X1.100000*%
%ADD22R,0.750000X1.100000*%
%ADD23R,1.200000X1.000000*%
%ADD24R,1.900000X1.350000*%
%ADD25R,1.170000X1.800000*%
%ADD26R,1.550000X1.350000*%
%ADD27RoundRect,0.250000X0.250000X1.500000X-0.250000X1.500000X-0.250000X-1.500000X0.250000X-1.500000X0*%
%ADD28RoundRect,0.250001X0.499999X1.449999X-0.499999X1.449999X-0.499999X-1.449999X0.499999X-1.449999X0*%
%ADD29C,0.900000*%
%ADD30R,1.250000X2.500000*%
%ADD31R,4.000000X1.700000*%
%ADD32R,0.300000X1.300000*%
%ADD33R,1.800000X2.200000*%
%ADD34RoundRect,0.243750X-0.456250X0.243750X-0.456250X-0.243750X0.456250X-0.243750X0.456250X0.243750X0*%
G04 APERTURE END LIST*
D10*
X48410714Y-39493285D02*
X48410714Y-38743285D01*
X48589285Y-38743285D01*
X48696428Y-38779000D01*
X48767857Y-38850428D01*
X48803571Y-38921857D01*
X48839285Y-39064714D01*
X48839285Y-39171857D01*
X48803571Y-39314714D01*
X48767857Y-39386142D01*
X48696428Y-39457571D01*
X48589285Y-39493285D01*
X48410714Y-39493285D01*
X49160714Y-39493285D02*
X49160714Y-38743285D01*
X49589285Y-39493285D01*
X49589285Y-38743285D01*
D11*
X32035714Y-1089285D02*
X32035714Y-1625000D01*
X32000000Y-1732142D01*
X31928571Y-1803571D01*
X31821428Y-1839285D01*
X31750000Y-1839285D01*
X32750000Y-1839285D02*
X32392857Y-1839285D01*
X32392857Y-1089285D01*
X33428571Y-1767857D02*
X33392857Y-1803571D01*
X33285714Y-1839285D01*
X33214285Y-1839285D01*
X33107142Y-1803571D01*
X33035714Y-1732142D01*
X33000000Y-1660714D01*
X32964285Y-1517857D01*
X32964285Y-1410714D01*
X33000000Y-1267857D01*
X33035714Y-1196428D01*
X33107142Y-1125000D01*
X33214285Y-1089285D01*
X33285714Y-1089285D01*
X33392857Y-1125000D01*
X33428571Y-1160714D01*
X33964285Y-1089285D02*
X33964285Y-1625000D01*
X33928571Y-1732142D01*
X33857142Y-1803571D01*
X33750000Y-1839285D01*
X33678571Y-1839285D01*
X34678571Y-1839285D02*
X34321428Y-1839285D01*
X34321428Y-1089285D01*
X35357142Y-1767857D02*
X35321428Y-1803571D01*
X35214285Y-1839285D01*
X35142857Y-1839285D01*
X35035714Y-1803571D01*
X34964285Y-1732142D01*
X34928571Y-1660714D01*
X34892857Y-1517857D01*
X34892857Y-1410714D01*
X34928571Y-1267857D01*
X34964285Y-1196428D01*
X35035714Y-1125000D01*
X35142857Y-1089285D01*
X35214285Y-1089285D01*
X35321428Y-1125000D01*
X35357142Y-1160714D01*
X35892857Y-1089285D02*
X35892857Y-1625000D01*
X35857142Y-1732142D01*
X35785714Y-1803571D01*
X35678571Y-1839285D01*
X35607142Y-1839285D01*
X36607142Y-1839285D02*
X36250000Y-1839285D01*
X36250000Y-1089285D01*
X37285714Y-1767857D02*
X37250000Y-1803571D01*
X37142857Y-1839285D01*
X37071428Y-1839285D01*
X36964285Y-1803571D01*
X36892857Y-1732142D01*
X36857142Y-1660714D01*
X36821428Y-1517857D01*
X36821428Y-1410714D01*
X36857142Y-1267857D01*
X36892857Y-1196428D01*
X36964285Y-1125000D01*
X37071428Y-1089285D01*
X37142857Y-1089285D01*
X37250000Y-1125000D01*
X37285714Y-1160714D01*
X37821428Y-1089285D02*
X37821428Y-1625000D01*
X37785714Y-1732142D01*
X37714285Y-1803571D01*
X37607142Y-1839285D01*
X37535714Y-1839285D01*
X38535714Y-1839285D02*
X38178571Y-1839285D01*
X38178571Y-1089285D01*
X39214285Y-1767857D02*
X39178571Y-1803571D01*
X39071428Y-1839285D01*
X39000000Y-1839285D01*
X38892857Y-1803571D01*
X38821428Y-1732142D01*
X38785714Y-1660714D01*
X38750000Y-1517857D01*
X38750000Y-1410714D01*
X38785714Y-1267857D01*
X38821428Y-1196428D01*
X38892857Y-1125000D01*
X39000000Y-1089285D01*
X39071428Y-1089285D01*
X39178571Y-1125000D01*
X39214285Y-1160714D01*
D12*
X25321428Y-32964285D02*
X25250000Y-33107142D01*
X25107142Y-33250000D01*
X24892857Y-33464285D01*
X24821428Y-33607142D01*
X24821428Y-33750000D01*
X25178571Y-33678571D02*
X25107142Y-33821428D01*
X24964285Y-33964285D01*
X24678571Y-34035714D01*
X24178571Y-34035714D01*
X23892857Y-33964285D01*
X23750000Y-33821428D01*
X23678571Y-33678571D01*
X23678571Y-33392857D01*
X23750000Y-33250000D01*
X23892857Y-33107142D01*
X24178571Y-33035714D01*
X24678571Y-33035714D01*
X24964285Y-33107142D01*
X25107142Y-33250000D01*
X25178571Y-33392857D01*
X25178571Y-33678571D01*
X23678571Y-32607142D02*
X23678571Y-31750000D01*
X25178571Y-32178571D02*
X23678571Y-32178571D01*
X25178571Y-30107142D02*
X23678571Y-30107142D01*
X23678571Y-29535714D01*
X23750000Y-29392857D01*
X23821428Y-29321428D01*
X23964285Y-29250000D01*
X24178571Y-29250000D01*
X24321428Y-29321428D01*
X24392857Y-29392857D01*
X24464285Y-29535714D01*
X24464285Y-30107142D01*
X24464285Y-28321428D02*
X25178571Y-28321428D01*
X23678571Y-28821428D02*
X24464285Y-28321428D01*
X23678571Y-27821428D01*
D10*
X1485535Y-25089285D02*
X1485535Y-24660714D01*
X2235535Y-24875000D02*
X1485535Y-24875000D01*
X1842678Y-24160714D02*
X1842678Y-24410714D01*
X2235535Y-24410714D02*
X1485535Y-24410714D01*
X1485535Y-24053571D01*
X1485535Y-23875000D02*
X1485535Y-23446428D01*
X2235535Y-23660714D02*
X1485535Y-23660714D01*
X2235535Y-22267857D02*
X2235535Y-22625000D01*
X1485535Y-22625000D01*
X2164107Y-21589285D02*
X2199821Y-21625000D01*
X2235535Y-21732142D01*
X2235535Y-21803571D01*
X2199821Y-21910714D01*
X2128392Y-21982142D01*
X2056964Y-22017857D01*
X1914107Y-22053571D01*
X1806964Y-22053571D01*
X1664107Y-22017857D01*
X1592678Y-21982142D01*
X1521250Y-21910714D01*
X1485535Y-21803571D01*
X1485535Y-21732142D01*
X1521250Y-21625000D01*
X1556964Y-21589285D01*
X2235535Y-21267857D02*
X1485535Y-21267857D01*
X1485535Y-21089285D01*
X1521250Y-20982142D01*
X1592678Y-20910714D01*
X1664107Y-20875000D01*
X1806964Y-20839285D01*
X1914107Y-20839285D01*
X2056964Y-20875000D01*
X2128392Y-20910714D01*
X2199821Y-20982142D01*
X2235535Y-21089285D01*
X2235535Y-21267857D01*
X1449821Y-19982142D02*
X2414107Y-20625000D01*
X2235535Y-19375000D02*
X2235535Y-19732142D01*
X1485535Y-19732142D01*
X2235535Y-19125000D02*
X1485535Y-19125000D01*
X2235535Y-18767857D02*
X1485535Y-18767857D01*
X1485535Y-18482142D01*
X1521250Y-18410714D01*
X1556964Y-18375000D01*
X1628392Y-18339285D01*
X1735535Y-18339285D01*
X1806964Y-18375000D01*
X1842678Y-18410714D01*
X1878392Y-18482142D01*
X1878392Y-18767857D01*
X1485535Y-17875000D02*
X1485535Y-17732142D01*
X1521250Y-17660714D01*
X1592678Y-17589285D01*
X1735535Y-17553571D01*
X1985535Y-17553571D01*
X2128392Y-17589285D01*
X2199821Y-17660714D01*
X2235535Y-17732142D01*
X2235535Y-17875000D01*
X2199821Y-17946428D01*
X2128392Y-18017857D01*
X1985535Y-18053571D01*
X1735535Y-18053571D01*
X1592678Y-18017857D01*
X1521250Y-17946428D01*
X1485535Y-17875000D01*
X3407321Y-23232142D02*
X3443035Y-23303571D01*
X3443035Y-23446428D01*
X3407321Y-23517857D01*
X3371607Y-23553571D01*
X3300178Y-23589285D01*
X3085892Y-23589285D01*
X3014464Y-23553571D01*
X2978750Y-23517857D01*
X2943035Y-23446428D01*
X2943035Y-23303571D01*
X2978750Y-23232142D01*
X3443035Y-22803571D02*
X3407321Y-22875000D01*
X3371607Y-22910714D01*
X3300178Y-22946428D01*
X3085892Y-22946428D01*
X3014464Y-22910714D01*
X2978750Y-22875000D01*
X2943035Y-22803571D01*
X2943035Y-22696428D01*
X2978750Y-22625000D01*
X3014464Y-22589285D01*
X3085892Y-22553571D01*
X3300178Y-22553571D01*
X3371607Y-22589285D01*
X3407321Y-22625000D01*
X3443035Y-22696428D01*
X3443035Y-22803571D01*
X2943035Y-22232142D02*
X3443035Y-22232142D01*
X3014464Y-22232142D02*
X2978750Y-22196428D01*
X2943035Y-22125000D01*
X2943035Y-22017857D01*
X2978750Y-21946428D01*
X3050178Y-21910714D01*
X3443035Y-21910714D01*
X2943035Y-21660714D02*
X2943035Y-21375000D01*
X2693035Y-21553571D02*
X3335892Y-21553571D01*
X3407321Y-21517857D01*
X3443035Y-21446428D01*
X3443035Y-21375000D01*
X3443035Y-21125000D02*
X2943035Y-21125000D01*
X3085892Y-21125000D02*
X3014464Y-21089285D01*
X2978750Y-21053571D01*
X2943035Y-20982142D01*
X2943035Y-20910714D01*
X3443035Y-20553571D02*
X3407321Y-20625000D01*
X3371607Y-20660714D01*
X3300178Y-20696428D01*
X3085892Y-20696428D01*
X3014464Y-20660714D01*
X2978750Y-20625000D01*
X2943035Y-20553571D01*
X2943035Y-20446428D01*
X2978750Y-20375000D01*
X3014464Y-20339285D01*
X3085892Y-20303571D01*
X3300178Y-20303571D01*
X3371607Y-20339285D01*
X3407321Y-20375000D01*
X3443035Y-20446428D01*
X3443035Y-20553571D01*
X3443035Y-19875000D02*
X3407321Y-19946428D01*
X3335892Y-19982142D01*
X2693035Y-19982142D01*
X3443035Y-19482142D02*
X3407321Y-19553571D01*
X3335892Y-19589285D01*
X2693035Y-19589285D01*
X3407321Y-18910714D02*
X3443035Y-18982142D01*
X3443035Y-19125000D01*
X3407321Y-19196428D01*
X3335892Y-19232142D01*
X3050178Y-19232142D01*
X2978750Y-19196428D01*
X2943035Y-19125000D01*
X2943035Y-18982142D01*
X2978750Y-18910714D01*
X3050178Y-18875000D01*
X3121607Y-18875000D01*
X3193035Y-19232142D01*
X3443035Y-18553571D02*
X2943035Y-18553571D01*
X3085892Y-18553571D02*
X3014464Y-18517857D01*
X2978750Y-18482142D01*
X2943035Y-18410714D01*
X2943035Y-18339285D01*
D11*
X4839285Y-24267857D02*
X4482142Y-24517857D01*
X4839285Y-24696428D02*
X4089285Y-24696428D01*
X4089285Y-24410714D01*
X4125000Y-24339285D01*
X4160714Y-24303571D01*
X4232142Y-24267857D01*
X4339285Y-24267857D01*
X4410714Y-24303571D01*
X4446428Y-24339285D01*
X4482142Y-24410714D01*
X4482142Y-24696428D01*
X4446428Y-23946428D02*
X4446428Y-23696428D01*
X4839285Y-23589285D02*
X4839285Y-23946428D01*
X4089285Y-23946428D01*
X4089285Y-23589285D01*
X4089285Y-23375000D02*
X4839285Y-23125000D01*
X4089285Y-22875000D01*
X4767857Y-22625000D02*
X4803571Y-22589285D01*
X4839285Y-22625000D01*
X4803571Y-22660714D01*
X4767857Y-22625000D01*
X4839285Y-22625000D01*
X4446428Y-21446428D02*
X4482142Y-21339285D01*
X4517857Y-21303571D01*
X4589285Y-21267857D01*
X4696428Y-21267857D01*
X4767857Y-21303571D01*
X4803571Y-21339285D01*
X4839285Y-21410714D01*
X4839285Y-21696428D01*
X4089285Y-21696428D01*
X4089285Y-21446428D01*
X4125000Y-21375000D01*
X4160714Y-21339285D01*
X4232142Y-21303571D01*
X4303571Y-21303571D01*
X4375000Y-21339285D01*
X4410714Y-21375000D01*
X4446428Y-21446428D01*
X4446428Y-21696428D01*
D10*
X45984285Y-39421857D02*
X45948571Y-39457571D01*
X45841428Y-39493285D01*
X45770000Y-39493285D01*
X45662857Y-39457571D01*
X45591428Y-39386142D01*
X45555714Y-39314714D01*
X45520000Y-39171857D01*
X45520000Y-39064714D01*
X45555714Y-38921857D01*
X45591428Y-38850428D01*
X45662857Y-38779000D01*
X45770000Y-38743285D01*
X45841428Y-38743285D01*
X45948571Y-38779000D01*
X45984285Y-38814714D01*
X46305714Y-39493285D02*
X46305714Y-38743285D01*
X46305714Y-39100428D02*
X46734285Y-39100428D01*
X46734285Y-39493285D02*
X46734285Y-38743285D01*
X47484285Y-38779000D02*
X47412857Y-38743285D01*
X47305714Y-38743285D01*
X47198571Y-38779000D01*
X47127142Y-38850428D01*
X47091428Y-38921857D01*
X47055714Y-39064714D01*
X47055714Y-39171857D01*
X47091428Y-39314714D01*
X47127142Y-39386142D01*
X47198571Y-39457571D01*
X47305714Y-39493285D01*
X47377142Y-39493285D01*
X47484285Y-39457571D01*
X47520000Y-39421857D01*
X47520000Y-39171857D01*
X47377142Y-39171857D01*
D11*
%TO.C,U1*%
X44452380Y-26261904D02*
X45261904Y-26261904D01*
X45357142Y-26214285D01*
X45404761Y-26166666D01*
X45452380Y-26071428D01*
X45452380Y-25880952D01*
X45404761Y-25785714D01*
X45357142Y-25738095D01*
X45261904Y-25690476D01*
X44452380Y-25690476D01*
X45452380Y-24690476D02*
X45452380Y-25261904D01*
X45452380Y-24976190D02*
X44452380Y-24976190D01*
X44595238Y-25071428D01*
X44690476Y-25166666D01*
X44738095Y-25261904D01*
%TO.C,R3*%
X45333333Y-21572380D02*
X45000000Y-21096190D01*
X44761904Y-21572380D02*
X44761904Y-20572380D01*
X45142857Y-20572380D01*
X45238095Y-20620000D01*
X45285714Y-20667619D01*
X45333333Y-20762857D01*
X45333333Y-20905714D01*
X45285714Y-21000952D01*
X45238095Y-21048571D01*
X45142857Y-21096190D01*
X44761904Y-21096190D01*
X45666666Y-20572380D02*
X46285714Y-20572380D01*
X45952380Y-20953333D01*
X46095238Y-20953333D01*
X46190476Y-21000952D01*
X46238095Y-21048571D01*
X46285714Y-21143809D01*
X46285714Y-21381904D01*
X46238095Y-21477142D01*
X46190476Y-21524761D01*
X46095238Y-21572380D01*
X45809523Y-21572380D01*
X45714285Y-21524761D01*
X45666666Y-21477142D01*
%TO.C,R1*%
X45333333Y-18952380D02*
X45000000Y-18476190D01*
X44761904Y-18952380D02*
X44761904Y-17952380D01*
X45142857Y-17952380D01*
X45238095Y-18000000D01*
X45285714Y-18047619D01*
X45333333Y-18142857D01*
X45333333Y-18285714D01*
X45285714Y-18380952D01*
X45238095Y-18428571D01*
X45142857Y-18476190D01*
X44761904Y-18476190D01*
X46285714Y-18952380D02*
X45714285Y-18952380D01*
X46000000Y-18952380D02*
X46000000Y-17952380D01*
X45904761Y-18095238D01*
X45809523Y-18190476D01*
X45714285Y-18238095D01*
%TO.C,R4*%
X45452380Y-29166666D02*
X44976190Y-29500000D01*
X45452380Y-29738095D02*
X44452380Y-29738095D01*
X44452380Y-29357142D01*
X44500000Y-29261904D01*
X44547619Y-29214285D01*
X44642857Y-29166666D01*
X44785714Y-29166666D01*
X44880952Y-29214285D01*
X44928571Y-29261904D01*
X44976190Y-29357142D01*
X44976190Y-29738095D01*
X44785714Y-28309523D02*
X45452380Y-28309523D01*
X44404761Y-28547619D02*
X45119047Y-28785714D01*
X45119047Y-28166666D01*
%TO.C,R9*%
X1658333Y-8952380D02*
X1325000Y-8476190D01*
X1086904Y-8952380D02*
X1086904Y-7952380D01*
X1467857Y-7952380D01*
X1563095Y-8000000D01*
X1610714Y-8047619D01*
X1658333Y-8142857D01*
X1658333Y-8285714D01*
X1610714Y-8380952D01*
X1563095Y-8428571D01*
X1467857Y-8476190D01*
X1086904Y-8476190D01*
X2134523Y-8952380D02*
X2325000Y-8952380D01*
X2420238Y-8904761D01*
X2467857Y-8857142D01*
X2563095Y-8714285D01*
X2610714Y-8523809D01*
X2610714Y-8142857D01*
X2563095Y-8047619D01*
X2515476Y-8000000D01*
X2420238Y-7952380D01*
X2229761Y-7952380D01*
X2134523Y-8000000D01*
X2086904Y-8047619D01*
X2039285Y-8142857D01*
X2039285Y-8380952D01*
X2086904Y-8476190D01*
X2134523Y-8523809D01*
X2229761Y-8571428D01*
X2420238Y-8571428D01*
X2515476Y-8523809D01*
X2563095Y-8476190D01*
X2610714Y-8380952D01*
%TO.C,C1*%
X39105333Y-29357142D02*
X39057714Y-29404761D01*
X38914857Y-29452380D01*
X38819619Y-29452380D01*
X38676761Y-29404761D01*
X38581523Y-29309523D01*
X38533904Y-29214285D01*
X38486285Y-29023809D01*
X38486285Y-28880952D01*
X38533904Y-28690476D01*
X38581523Y-28595238D01*
X38676761Y-28500000D01*
X38819619Y-28452380D01*
X38914857Y-28452380D01*
X39057714Y-28500000D01*
X39105333Y-28547619D01*
X40057714Y-29452380D02*
X39486285Y-29452380D01*
X39772000Y-29452380D02*
X39772000Y-28452380D01*
X39676761Y-28595238D01*
X39581523Y-28690476D01*
X39486285Y-28738095D01*
%TO.C,R10*%
X1182142Y-6952380D02*
X848809Y-6476190D01*
X610714Y-6952380D02*
X610714Y-5952380D01*
X991666Y-5952380D01*
X1086904Y-6000000D01*
X1134523Y-6047619D01*
X1182142Y-6142857D01*
X1182142Y-6285714D01*
X1134523Y-6380952D01*
X1086904Y-6428571D01*
X991666Y-6476190D01*
X610714Y-6476190D01*
X2134523Y-6952380D02*
X1563095Y-6952380D01*
X1848809Y-6952380D02*
X1848809Y-5952380D01*
X1753571Y-6095238D01*
X1658333Y-6190476D01*
X1563095Y-6238095D01*
X2753571Y-5952380D02*
X2848809Y-5952380D01*
X2944047Y-6000000D01*
X2991666Y-6047619D01*
X3039285Y-6142857D01*
X3086904Y-6333333D01*
X3086904Y-6571428D01*
X3039285Y-6761904D01*
X2991666Y-6857142D01*
X2944047Y-6904761D01*
X2848809Y-6952380D01*
X2753571Y-6952380D01*
X2658333Y-6904761D01*
X2610714Y-6857142D01*
X2563095Y-6761904D01*
X2515476Y-6571428D01*
X2515476Y-6333333D01*
X2563095Y-6142857D01*
X2610714Y-6047619D01*
X2658333Y-6000000D01*
X2753571Y-5952380D01*
%TO.C,D3*%
X37261904Y-31952380D02*
X37261904Y-30952380D01*
X37500000Y-30952380D01*
X37642857Y-31000000D01*
X37738095Y-31095238D01*
X37785714Y-31190476D01*
X37833333Y-31380952D01*
X37833333Y-31523809D01*
X37785714Y-31714285D01*
X37738095Y-31809523D01*
X37642857Y-31904761D01*
X37500000Y-31952380D01*
X37261904Y-31952380D01*
X38166666Y-30952380D02*
X38785714Y-30952380D01*
X38452380Y-31333333D01*
X38595238Y-31333333D01*
X38690476Y-31380952D01*
X38738095Y-31428571D01*
X38785714Y-31523809D01*
X38785714Y-31761904D01*
X38738095Y-31857142D01*
X38690476Y-31904761D01*
X38595238Y-31952380D01*
X38309523Y-31952380D01*
X38214285Y-31904761D01*
X38166666Y-31857142D01*
%TO.C,R7*%
X1658333Y-12952380D02*
X1325000Y-12476190D01*
X1086904Y-12952380D02*
X1086904Y-11952380D01*
X1467857Y-11952380D01*
X1563095Y-12000000D01*
X1610714Y-12047619D01*
X1658333Y-12142857D01*
X1658333Y-12285714D01*
X1610714Y-12380952D01*
X1563095Y-12428571D01*
X1467857Y-12476190D01*
X1086904Y-12476190D01*
X1991666Y-11952380D02*
X2658333Y-11952380D01*
X2229761Y-12952380D01*
%TO.C,J2*%
X11666666Y-24452380D02*
X11666666Y-25166666D01*
X11619047Y-25309523D01*
X11523809Y-25404761D01*
X11380952Y-25452380D01*
X11285714Y-25452380D01*
X12095238Y-24547619D02*
X12142857Y-24500000D01*
X12238095Y-24452380D01*
X12476190Y-24452380D01*
X12571428Y-24500000D01*
X12619047Y-24547619D01*
X12666666Y-24642857D01*
X12666666Y-24738095D01*
X12619047Y-24880952D01*
X12047619Y-25452380D01*
X12666666Y-25452380D01*
%TO.C,R8*%
X1658333Y-10952380D02*
X1325000Y-10476190D01*
X1086904Y-10952380D02*
X1086904Y-9952380D01*
X1467857Y-9952380D01*
X1563095Y-10000000D01*
X1610714Y-10047619D01*
X1658333Y-10142857D01*
X1658333Y-10285714D01*
X1610714Y-10380952D01*
X1563095Y-10428571D01*
X1467857Y-10476190D01*
X1086904Y-10476190D01*
X2229761Y-10380952D02*
X2134523Y-10333333D01*
X2086904Y-10285714D01*
X2039285Y-10190476D01*
X2039285Y-10142857D01*
X2086904Y-10047619D01*
X2134523Y-10000000D01*
X2229761Y-9952380D01*
X2420238Y-9952380D01*
X2515476Y-10000000D01*
X2563095Y-10047619D01*
X2610714Y-10142857D01*
X2610714Y-10190476D01*
X2563095Y-10285714D01*
X2515476Y-10333333D01*
X2420238Y-10380952D01*
X2229761Y-10380952D01*
X2134523Y-10428571D01*
X2086904Y-10476190D01*
X2039285Y-10571428D01*
X2039285Y-10761904D01*
X2086904Y-10857142D01*
X2134523Y-10904761D01*
X2229761Y-10952380D01*
X2420238Y-10952380D01*
X2515476Y-10904761D01*
X2563095Y-10857142D01*
X2610714Y-10761904D01*
X2610714Y-10571428D01*
X2563095Y-10476190D01*
X2515476Y-10428571D01*
X2420238Y-10380952D01*
%TO.C,R5*%
X45452380Y-33224666D02*
X44976190Y-33558000D01*
X45452380Y-33796095D02*
X44452380Y-33796095D01*
X44452380Y-33415142D01*
X44500000Y-33319904D01*
X44547619Y-33272285D01*
X44642857Y-33224666D01*
X44785714Y-33224666D01*
X44880952Y-33272285D01*
X44928571Y-33319904D01*
X44976190Y-33415142D01*
X44976190Y-33796095D01*
X44452380Y-32319904D02*
X44452380Y-32796095D01*
X44928571Y-32843714D01*
X44880952Y-32796095D01*
X44833333Y-32700857D01*
X44833333Y-32462761D01*
X44880952Y-32367523D01*
X44928571Y-32319904D01*
X45023809Y-32272285D01*
X45261904Y-32272285D01*
X45357142Y-32319904D01*
X45404761Y-32367523D01*
X45452380Y-32462761D01*
X45452380Y-32700857D01*
X45404761Y-32796095D01*
X45357142Y-32843714D01*
%TO.C,J3*%
X44666666Y-10752380D02*
X44666666Y-11466666D01*
X44619047Y-11609523D01*
X44523809Y-11704761D01*
X44380952Y-11752380D01*
X44285714Y-11752380D01*
X45047619Y-10752380D02*
X45666666Y-10752380D01*
X45333333Y-11133333D01*
X45476190Y-11133333D01*
X45571428Y-11180952D01*
X45619047Y-11228571D01*
X45666666Y-11323809D01*
X45666666Y-11561904D01*
X45619047Y-11657142D01*
X45571428Y-11704761D01*
X45476190Y-11752380D01*
X45190476Y-11752380D01*
X45095238Y-11704761D01*
X45047619Y-11657142D01*
%TO.C,SW1*%
X36166666Y-33234761D02*
X36309523Y-33282380D01*
X36547619Y-33282380D01*
X36642857Y-33234761D01*
X36690476Y-33187142D01*
X36738095Y-33091904D01*
X36738095Y-32996666D01*
X36690476Y-32901428D01*
X36642857Y-32853809D01*
X36547619Y-32806190D01*
X36357142Y-32758571D01*
X36261904Y-32710952D01*
X36214285Y-32663333D01*
X36166666Y-32568095D01*
X36166666Y-32472857D01*
X36214285Y-32377619D01*
X36261904Y-32330000D01*
X36357142Y-32282380D01*
X36595238Y-32282380D01*
X36738095Y-32330000D01*
X37071428Y-32282380D02*
X37309523Y-33282380D01*
X37500000Y-32568095D01*
X37690476Y-33282380D01*
X37928571Y-32282380D01*
X38833333Y-33282380D02*
X38261904Y-33282380D01*
X38547619Y-33282380D02*
X38547619Y-32282380D01*
X38452380Y-32425238D01*
X38357142Y-32520476D01*
X38261904Y-32568095D01*
%TO.C,J1*%
X24666666Y-25452380D02*
X24666666Y-26166666D01*
X24619047Y-26309523D01*
X24523809Y-26404761D01*
X24380952Y-26452380D01*
X24285714Y-26452380D01*
X25666666Y-26452380D02*
X25095238Y-26452380D01*
X25380952Y-26452380D02*
X25380952Y-25452380D01*
X25285714Y-25595238D01*
X25190476Y-25690476D01*
X25095238Y-25738095D01*
%TO.C,R2*%
X45333333Y-16492380D02*
X45000000Y-16016190D01*
X44761904Y-16492380D02*
X44761904Y-15492380D01*
X45142857Y-15492380D01*
X45238095Y-15540000D01*
X45285714Y-15587619D01*
X45333333Y-15682857D01*
X45333333Y-15825714D01*
X45285714Y-15920952D01*
X45238095Y-15968571D01*
X45142857Y-16016190D01*
X44761904Y-16016190D01*
X45714285Y-15587619D02*
X45761904Y-15540000D01*
X45857142Y-15492380D01*
X46095238Y-15492380D01*
X46190476Y-15540000D01*
X46238095Y-15587619D01*
X46285714Y-15682857D01*
X46285714Y-15778095D01*
X46238095Y-15920952D01*
X45666666Y-16492380D01*
X46285714Y-16492380D01*
%TO.C,C2*%
X39105333Y-26857142D02*
X39057714Y-26904761D01*
X38914857Y-26952380D01*
X38819619Y-26952380D01*
X38676761Y-26904761D01*
X38581523Y-26809523D01*
X38533904Y-26714285D01*
X38486285Y-26523809D01*
X38486285Y-26380952D01*
X38533904Y-26190476D01*
X38581523Y-26095238D01*
X38676761Y-26000000D01*
X38819619Y-25952380D01*
X38914857Y-25952380D01*
X39057714Y-26000000D01*
X39105333Y-26047619D01*
X39486285Y-26047619D02*
X39533904Y-26000000D01*
X39629142Y-25952380D01*
X39867238Y-25952380D01*
X39962476Y-26000000D01*
X40010095Y-26047619D01*
X40057714Y-26142857D01*
X40057714Y-26238095D01*
X40010095Y-26380952D01*
X39438666Y-26952380D01*
X40057714Y-26952380D01*
%TO.C,J4*%
X24666666Y-4092380D02*
X24666666Y-4806666D01*
X24619047Y-4949523D01*
X24523809Y-5044761D01*
X24380952Y-5092380D01*
X24285714Y-5092380D01*
X25571428Y-4425714D02*
X25571428Y-5092380D01*
X25333333Y-4044761D02*
X25095238Y-4759047D01*
X25714285Y-4759047D01*
%TO.C,R6*%
X49452380Y-30626666D02*
X48976190Y-30960000D01*
X49452380Y-31198095D02*
X48452380Y-31198095D01*
X48452380Y-30817142D01*
X48500000Y-30721904D01*
X48547619Y-30674285D01*
X48642857Y-30626666D01*
X48785714Y-30626666D01*
X48880952Y-30674285D01*
X48928571Y-30721904D01*
X48976190Y-30817142D01*
X48976190Y-31198095D01*
X48452380Y-29769523D02*
X48452380Y-29960000D01*
X48500000Y-30055238D01*
X48547619Y-30102857D01*
X48690476Y-30198095D01*
X48880952Y-30245714D01*
X49261904Y-30245714D01*
X49357142Y-30198095D01*
X49404761Y-30150476D01*
X49452380Y-30055238D01*
X49452380Y-29864761D01*
X49404761Y-29769523D01*
X49357142Y-29721904D01*
X49261904Y-29674285D01*
X49023809Y-29674285D01*
X48928571Y-29721904D01*
X48880952Y-29769523D01*
X48833333Y-29864761D01*
X48833333Y-30055238D01*
X48880952Y-30150476D01*
X48928571Y-30198095D01*
X49023809Y-30245714D01*
D13*
%TO.C,U1*%
X45940000Y-24500000D02*
X45940000Y-23700000D01*
X49060000Y-24500000D02*
X49060000Y-25300000D01*
X45940000Y-24500000D02*
X45940000Y-25300000D01*
X49060000Y-24500000D02*
X49060000Y-22700000D01*
%TO.C,R3*%
X42772936Y-20385000D02*
X43227064Y-20385000D01*
X42772936Y-21855000D02*
X43227064Y-21855000D01*
%TO.C,R1*%
X43189564Y-19315000D02*
X42735436Y-19315000D01*
X43189564Y-17845000D02*
X42735436Y-17845000D01*
%TO.C,R4*%
X45765000Y-29020936D02*
X45765000Y-29475064D01*
X47235000Y-29020936D02*
X47235000Y-29475064D01*
%TO.C,R9*%
X4772936Y-9235000D02*
X5227064Y-9235000D01*
X4772936Y-7765000D02*
X5227064Y-7765000D01*
%TO.C,C1*%
X41738748Y-28265000D02*
X42261252Y-28265000D01*
X41738748Y-29735000D02*
X42261252Y-29735000D01*
%TO.C,R10*%
X4772936Y-5765000D02*
X5227064Y-5765000D01*
X4772936Y-7235000D02*
X5227064Y-7235000D01*
%TO.C,D3*%
X43750000Y-30500000D02*
X39850000Y-30500000D01*
X43750000Y-32500000D02*
X39850000Y-32500000D01*
X43750000Y-32500000D02*
X43750000Y-30500000D01*
%TO.C,R7*%
X4772936Y-13235000D02*
X5227064Y-13235000D01*
X4772936Y-11765000D02*
X5227064Y-11765000D01*
%TO.C,D2*%
X48040000Y-38553000D02*
X49960000Y-38553000D01*
X49960000Y-38553000D02*
X49960000Y-35868000D01*
X48040000Y-35868000D02*
X48040000Y-38553000D01*
%TO.C,J2*%
X11590000Y-37320000D02*
X10730000Y-37320000D01*
X890000Y-25680000D02*
X890000Y-35500000D01*
X13070000Y-35950000D02*
X13070000Y-31500000D01*
X13070000Y-30100000D02*
X13070000Y-27800000D01*
X8090000Y-25680000D02*
X4420000Y-25680000D01*
X13070000Y-25680000D02*
X10390000Y-25680000D01*
X13070000Y-26400000D02*
X13070000Y-25680000D01*
X2120000Y-25680000D02*
X890000Y-25680000D01*
%TO.C,R8*%
X4772936Y-11235000D02*
X5227064Y-11235000D01*
X4772936Y-9765000D02*
X5227064Y-9765000D01*
%TO.C,R5*%
X45765000Y-32830936D02*
X45765000Y-33285064D01*
X47235000Y-32830936D02*
X47235000Y-33285064D01*
%TO.C,J3*%
X49060000Y-4560000D02*
X49060000Y-8810000D01*
X49060000Y-8810000D02*
X48040000Y-8810000D01*
X48040000Y-7210000D02*
X46760000Y-7210000D01*
X41960000Y-7210000D02*
X43240000Y-7210000D01*
X48040000Y-8810000D02*
X48040000Y-7210000D01*
X40940000Y-4560000D02*
X40940000Y-8810000D01*
X46760000Y-7210000D02*
X46760000Y-10100000D01*
X47340000Y-990000D02*
X42660000Y-990000D01*
X41960000Y-8810000D02*
X41960000Y-7210000D01*
X40940000Y-8810000D02*
X41960000Y-8810000D01*
%TO.C,SW1*%
X38170000Y-41430000D02*
X38670000Y-41430000D01*
X35570000Y-39530000D02*
X35570000Y-39530000D01*
X38070000Y-39830000D02*
X37270000Y-39830000D01*
X38170000Y-40930000D02*
X38170000Y-40930000D01*
X39770000Y-39830000D02*
X39770000Y-39530000D01*
X44770000Y-39530000D02*
X43070000Y-39530000D01*
X40570000Y-39530000D02*
X40570000Y-39830000D01*
X38170000Y-41430000D02*
X38170000Y-40930000D01*
X39770000Y-39530000D02*
X38070000Y-39530000D01*
X43070000Y-39830000D02*
X42270000Y-39830000D01*
X43370000Y-35730000D02*
X44770000Y-35730000D01*
X42170000Y-41430000D02*
X41670000Y-41430000D01*
X40870000Y-35730000D02*
X40870000Y-35730000D01*
X38670000Y-41430000D02*
X38670000Y-41430000D01*
X38970000Y-41430000D02*
X39470000Y-41430000D01*
X37270000Y-39830000D02*
X37270000Y-39530000D01*
X37270000Y-39530000D02*
X35570000Y-39530000D01*
X42170000Y-40930000D02*
X42170000Y-40930000D01*
X40870000Y-41430000D02*
X40870000Y-41430000D01*
X38170000Y-40630000D02*
X38170000Y-40130000D01*
X38370000Y-35730000D02*
X38370000Y-35730000D01*
X38170000Y-40130000D02*
X38170000Y-40130000D01*
X39770000Y-41430000D02*
X39770000Y-41430000D01*
X41970000Y-35730000D02*
X40870000Y-35730000D01*
X41670000Y-41430000D02*
X41670000Y-41430000D01*
X42270000Y-39830000D02*
X42270000Y-39530000D01*
X41370000Y-41430000D02*
X40870000Y-41430000D01*
X35570000Y-35730000D02*
X36970000Y-35730000D01*
X39470000Y-41430000D02*
X39470000Y-41430000D01*
X42170000Y-40630000D02*
X42170000Y-40130000D01*
X35570000Y-39530000D02*
X35570000Y-35730000D01*
X38070000Y-39530000D02*
X38070000Y-39830000D01*
X43070000Y-39530000D02*
X43070000Y-39830000D01*
X42170000Y-40130000D02*
X42170000Y-40130000D01*
X44770000Y-35730000D02*
X44770000Y-39530000D01*
X39470000Y-35730000D02*
X38370000Y-35730000D01*
X42270000Y-39530000D02*
X40570000Y-39530000D01*
X40570000Y-39830000D02*
X39770000Y-39830000D01*
X40570000Y-41430000D02*
X39770000Y-41430000D01*
X42170000Y-41430000D02*
X42170000Y-40930000D01*
%TO.C,R2*%
X42735436Y-15305000D02*
X43189564Y-15305000D01*
X42735436Y-16775000D02*
X43189564Y-16775000D01*
%TO.C,C2*%
X41738748Y-27235000D02*
X42261252Y-27235000D01*
X41738748Y-25765000D02*
X42261252Y-25765000D01*
%TO.C,J4*%
X12340000Y-7040000D02*
X10850000Y-7040000D01*
X39150000Y-7040000D02*
X39150000Y-8380000D01*
X10850000Y-11100000D02*
X10850000Y-12840000D01*
X10850000Y-7040000D02*
X10850000Y-8380000D01*
X12340000Y-7040000D02*
X12340000Y-5840000D01*
X39150000Y-12840000D02*
X39150000Y-11100000D01*
X37660000Y-7040000D02*
X39150000Y-7040000D01*
X10850000Y-12840000D02*
X39150000Y-12840000D01*
%TO.C,D1*%
X47460000Y-35183000D02*
X45540000Y-35183000D01*
X45540000Y-35183000D02*
X45540000Y-37868000D01*
X47460000Y-37868000D02*
X47460000Y-35183000D01*
%TO.C,R6*%
X48265000Y-32772936D02*
X48265000Y-33227064D01*
X49735000Y-32772936D02*
X49735000Y-33227064D01*
%TD*%
%LPC*%
D14*
%TO.C,U1*%
X48450000Y-23362500D03*
X47500000Y-23362500D03*
X46550000Y-23362500D03*
X46550000Y-25637500D03*
X48450000Y-25637500D03*
%TD*%
D15*
%TO.C,R3*%
X42087500Y-21120000D03*
X43912500Y-21120000D03*
%TD*%
D16*
%TO.C,R1*%
X43875000Y-18580000D03*
X42050000Y-18580000D03*
%TD*%
D17*
%TO.C,R4*%
X46500000Y-28335500D03*
X46500000Y-30160500D03*
%TD*%
D15*
%TO.C,R9*%
X4087500Y-8500000D03*
X5912500Y-8500000D03*
%TD*%
D18*
%TO.C,C1*%
X41050000Y-29000000D03*
X42950000Y-29000000D03*
%TD*%
D15*
%TO.C,R10*%
X4087500Y-6500000D03*
X5912500Y-6500000D03*
%TD*%
D19*
%TO.C,D3*%
X43150000Y-31500000D03*
X39850000Y-31500000D03*
%TD*%
D15*
%TO.C,R7*%
X4087500Y-12500000D03*
X5912500Y-12500000D03*
%TD*%
D20*
%TO.C,D2*%
X49000000Y-37805500D03*
X49000000Y-35930500D03*
%TD*%
D21*
%TO.C,J2*%
X10105000Y-36950000D03*
X9005000Y-36950000D03*
X7905000Y-36950000D03*
X6805000Y-36950000D03*
X5705000Y-36950000D03*
X4605000Y-36950000D03*
X3505000Y-36950000D03*
D22*
X2455000Y-36950000D03*
D23*
X12740000Y-30800000D03*
X12740000Y-27100000D03*
D24*
X3270000Y-26125000D03*
D25*
X1245000Y-36600000D03*
D26*
X12565000Y-36825000D03*
D24*
X9240000Y-26125000D03*
%TD*%
D15*
%TO.C,R8*%
X4087500Y-10500000D03*
X5912500Y-10500000D03*
%TD*%
D17*
%TO.C,R5*%
X46500000Y-32145500D03*
X46500000Y-33970500D03*
%TD*%
D27*
%TO.C,J3*%
X46000000Y-8350000D03*
X44000000Y-8350000D03*
D28*
X48350000Y-2600000D03*
X41650000Y-2600000D03*
%TD*%
D29*
%TO.C,SW1*%
X43570000Y-37630000D03*
X36770000Y-37630000D03*
D30*
X37670000Y-34880000D03*
X40170000Y-34880000D03*
X42670000Y-34880000D03*
%TD*%
D31*
%TO.C,J1*%
X16380000Y-22380000D03*
X16380000Y-24920000D03*
X16380000Y-27460000D03*
X16380000Y-30000000D03*
X16380000Y-32540000D03*
X16380000Y-35080000D03*
X16380000Y-37620000D03*
X33620000Y-22380000D03*
X33620000Y-24920000D03*
X33620000Y-27460000D03*
X33620000Y-30000000D03*
X33620000Y-32540000D03*
X33620000Y-35080000D03*
X33620000Y-37620000D03*
%TD*%
D15*
%TO.C,R2*%
X42050000Y-16040000D03*
X43875000Y-16040000D03*
%TD*%
D18*
%TO.C,C2*%
X41050000Y-26500000D03*
X42950000Y-26500000D03*
%TD*%
D32*
%TO.C,J4*%
X12750000Y-6490000D03*
X13250000Y-6490000D03*
X13750000Y-6490000D03*
X14250000Y-6490000D03*
X14750000Y-6490000D03*
X15250000Y-6490000D03*
X15750000Y-6490000D03*
X16250000Y-6490000D03*
X16750000Y-6490000D03*
X17250000Y-6490000D03*
X17750000Y-6490000D03*
X18250000Y-6490000D03*
X18750000Y-6490000D03*
X19250000Y-6490000D03*
X19750000Y-6490000D03*
X20250000Y-6490000D03*
X20750000Y-6490000D03*
X21250000Y-6490000D03*
X21750000Y-6490000D03*
X22250000Y-6490000D03*
X22750000Y-6490000D03*
X23250000Y-6490000D03*
X23750000Y-6490000D03*
X24250000Y-6490000D03*
X24750000Y-6490000D03*
X25250000Y-6490000D03*
X25750000Y-6490000D03*
X26250000Y-6490000D03*
X26750000Y-6490000D03*
X27250000Y-6490000D03*
X27750000Y-6490000D03*
X28250000Y-6490000D03*
X28750000Y-6490000D03*
X29250000Y-6490000D03*
X29750000Y-6490000D03*
X30250000Y-6490000D03*
X30750000Y-6490000D03*
X31250000Y-6490000D03*
X31750000Y-6490000D03*
X32250000Y-6490000D03*
X32750000Y-6490000D03*
X33250000Y-6490000D03*
X33750000Y-6490000D03*
X34250000Y-6490000D03*
X34750000Y-6490000D03*
X35250000Y-6490000D03*
X35750000Y-6490000D03*
X36250000Y-6490000D03*
X36750000Y-6490000D03*
X37250000Y-6490000D03*
D33*
X39150000Y-9740000D03*
X10850000Y-9740000D03*
%TD*%
D34*
%TO.C,D1*%
X46500000Y-35930500D03*
X46500000Y-37805500D03*
%TD*%
D17*
%TO.C,R6*%
X49000000Y-32087500D03*
X49000000Y-33912500D03*
%TD*%
M02*
