%TF.GenerationSoftware,KiCad,Pcbnew,(6.0.6)*%
%TF.CreationDate,2022-12-14T10:50:40-06:00*%
%TF.ProjectId,Realm Card,5265616c-6d20-4436-9172-642e6b696361,A*%
%TF.SameCoordinates,Original*%
%TF.FileFunction,Copper,L2,Bot*%
%TF.FilePolarity,Positive*%
%FSLAX46Y46*%
G04 Gerber Fmt 4.6, Leading zero omitted, Abs format (unit mm)*
G04 Created by KiCad (PCBNEW (6.0.6)) date 2022-12-14 10:50:40*
%MOMM*%
%LPD*%
G01*
G04 APERTURE LIST*
%TA.AperFunction,ComponentPad*%
%ADD10R,4.000000X1.700000*%
%TD*%
%TA.AperFunction,ViaPad*%
%ADD11C,0.800000*%
%TD*%
%TA.AperFunction,Conductor*%
%ADD12C,0.250000*%
%TD*%
%TA.AperFunction,Conductor*%
%ADD13C,0.200000*%
%TD*%
G04 APERTURE END LIST*
D10*
%TO.P,J1,1,Pin_1*%
%TO.N,WR*%
X16380000Y-22380000D03*
%TO.P,J1,2,Pin_2*%
%TO.N,SCK*%
X16380000Y-24920000D03*
%TO.P,J1,3,Pin_3*%
%TO.N,MISO*%
X16380000Y-27460000D03*
%TO.P,J1,4,Pin_4*%
%TO.N,MOSI*%
X16380000Y-30000000D03*
%TO.P,J1,5,Pin_5*%
%TO.N,+3.3V*%
X16380000Y-32540000D03*
%TO.P,J1,6,Pin_6*%
%TO.N,GND*%
X16380000Y-35080000D03*
%TO.P,J1,7,Pin_7*%
%TO.N,+5V*%
X16380000Y-37620000D03*
%TO.P,J1,8,Pin_8*%
%TO.N,BAT CHG*%
X33620000Y-22380000D03*
%TO.P,J1,9,Pin_9*%
%TO.N,LCD_CS*%
X33620000Y-24920000D03*
%TO.P,J1,10,Pin_10*%
%TO.N,SD_CS*%
X33620000Y-27460000D03*
%TO.P,J1,11,Pin_11*%
%TO.N,X+*%
X33620000Y-30000000D03*
%TO.P,J1,12,Pin_12*%
%TO.N,X-*%
X33620000Y-32540000D03*
%TO.P,J1,13,Pin_13*%
%TO.N,Y+*%
X33620000Y-35080000D03*
%TO.P,J1,14,Pin_14*%
%TO.N,Y-*%
X33620000Y-37620000D03*
%TD*%
D11*
%TO.N,+5V*%
X46012299Y-16012299D03*
X14000000Y-37250000D03*
X47000000Y-17500000D03*
X42000000Y-31500000D03*
X46724500Y-26963529D03*
X45341779Y-31413878D03*
X6487701Y-23512299D03*
X6512299Y-18487701D03*
%TO.N,VBAT*%
X40000000Y-30500000D03*
X43099346Y-25099346D03*
%TO.N,+3.3V*%
X15000000Y-8000000D03*
X10224500Y-11500000D03*
X32060453Y-7717631D03*
X3987701Y-28487701D03*
X9012299Y-33512299D03*
X2500000Y-12500000D03*
X13500000Y-32500000D03*
%TO.N,SD_CS*%
X46730546Y-21268747D03*
X7487701Y-24512299D03*
X7512299Y-19487701D03*
X9000000Y-35750000D03*
%TO.N,MOSI*%
X11500000Y-30000000D03*
X3050997Y-4000000D03*
X9487701Y-27987701D03*
X8000000Y-35500000D03*
%TO.N,SCK*%
X29512299Y-4487701D03*
X30974500Y-4855758D03*
X12000000Y-25000000D03*
X6000000Y-35500000D03*
X4500000Y-2500000D03*
%TO.N,MISO*%
X14000000Y-27500000D03*
X11237700Y-26237700D03*
X4050500Y-4000000D03*
X4750000Y-35500000D03*
%TO.N,Net-(J3-Pad1)*%
X46000000Y-11000000D03*
X38945498Y-34500000D03*
%TO.N,Y+*%
X19500000Y-12500000D03*
X36445498Y-35000000D03*
%TO.N,X+*%
X19500000Y-11500000D03*
X42199500Y-23949500D03*
%TO.N,Y-*%
X36445498Y-36000000D03*
X19500000Y-9500000D03*
%TO.N,X-*%
X19500000Y-10500000D03*
X43197019Y-24012429D03*
%TO.N,WR*%
X13500000Y-22500000D03*
X5000000Y-1500000D03*
%TO.N,LCD_CS*%
X43199500Y-22500000D03*
X40614859Y-11040839D03*
%TO.N,Net-(R4-Pad1)*%
X48000000Y-28500000D03*
X48000000Y-31000000D03*
%TO.N,Net-(R3-Pad2)*%
X48610874Y-24624422D03*
X46800000Y-20200000D03*
%TO.N,BAT CHG*%
X45276000Y-23500000D03*
X44699500Y-14500000D03*
%TD*%
D12*
%TO.N,+5V*%
X6500000Y-14199195D02*
X13706564Y-6992631D01*
X14000000Y-37250000D02*
X3750000Y-37250000D01*
X33368127Y-8000000D02*
X45636396Y-8000000D01*
X45471795Y-29028205D02*
X46724500Y-27775500D01*
X46724500Y-26963529D02*
X46724500Y-22287299D01*
X45450000Y-21012799D02*
X45450000Y-16574598D01*
X46724500Y-27775500D02*
X46724500Y-26963529D01*
X13706564Y-6992631D02*
X32360758Y-6992631D01*
X45636396Y-8000000D02*
X47187299Y-9550903D01*
X6500000Y-18475402D02*
X6500000Y-14199195D01*
X46724500Y-22287299D02*
X45450000Y-21012799D01*
X45341779Y-31413878D02*
X42086122Y-31413878D01*
X2775000Y-30725000D02*
X6487701Y-27012299D01*
X47187299Y-17312701D02*
X47000000Y-17500000D01*
X45471795Y-31283862D02*
X45471795Y-29028205D01*
X3750000Y-37250000D02*
X2775000Y-36275000D01*
X42086122Y-31413878D02*
X42000000Y-31500000D01*
X45450000Y-16574598D02*
X46012299Y-16012299D01*
X6512299Y-18487701D02*
X6500000Y-18475402D01*
X45341779Y-31413878D02*
X45471795Y-31283862D01*
X6487701Y-27012299D02*
X6487701Y-23512299D01*
X47187299Y-9550903D02*
X47187299Y-17312701D01*
X32360758Y-6992631D02*
X33368127Y-8000000D01*
X2775000Y-36275000D02*
X2775000Y-30725000D01*
%TO.N,VBAT*%
X43099346Y-27400654D02*
X40000000Y-30500000D01*
X43099346Y-25099346D02*
X43099346Y-27400654D01*
%TO.N,+3.3V*%
X13500000Y-32500000D02*
X10024598Y-32500000D01*
X3987701Y-28487701D02*
X2500000Y-27000000D01*
X10224500Y-11500000D02*
X11500000Y-11500000D01*
X10024598Y-32500000D02*
X9012299Y-33512299D01*
X2500000Y-27000000D02*
X2500000Y-12500000D01*
X32060453Y-7717631D02*
X31778084Y-8000000D01*
X11500000Y-11500000D02*
X15000000Y-8000000D01*
X31778084Y-8000000D02*
X15000000Y-8000000D01*
%TO.N,SD_CS*%
X45900000Y-17149903D02*
X46737299Y-16312604D01*
X45500000Y-8500000D02*
X16000000Y-8500000D01*
X7487701Y-27012299D02*
X3500000Y-31000000D01*
X46737299Y-16312604D02*
X46737299Y-9737299D01*
X7512299Y-14987701D02*
X7512299Y-19487701D01*
X12000000Y-12500000D02*
X10000000Y-12500000D01*
X46730546Y-21268747D02*
X45900000Y-20438201D01*
X46737299Y-9737299D02*
X45500000Y-8500000D01*
X4250000Y-36750000D02*
X8000000Y-36750000D01*
X8000000Y-36750000D02*
X9000000Y-35750000D01*
X16000000Y-8500000D02*
X12000000Y-12500000D01*
X7487701Y-24512299D02*
X7487701Y-27012299D01*
X45900000Y-20438201D02*
X45900000Y-17149903D01*
X10000000Y-12500000D02*
X7512299Y-14987701D01*
X3500000Y-31000000D02*
X3500000Y-36000000D01*
X3500000Y-36000000D02*
X4250000Y-36750000D01*
%TO.N,MOSI*%
X3225000Y-4174003D02*
X3225000Y-19225000D01*
X8000000Y-33500000D02*
X11500000Y-30000000D01*
X8000000Y-35500000D02*
X8000000Y-33500000D01*
X3225000Y-19225000D02*
X9500000Y-25500000D01*
X3050997Y-4000000D02*
X3225000Y-4174003D01*
X9500000Y-25500000D02*
X9500000Y-28000000D01*
%TO.N,SCK*%
X11000000Y-25000000D02*
X4775000Y-18775000D01*
X30606443Y-4487701D02*
X30974500Y-4855758D01*
X4775000Y-2775000D02*
X4500000Y-2500000D01*
X12000000Y-25000000D02*
X11000000Y-25000000D01*
X11962700Y-26537300D02*
X6000000Y-32500000D01*
X12000000Y-25000000D02*
X11962700Y-25037300D01*
X6000000Y-32500000D02*
X6000000Y-35500000D01*
X4775000Y-18775000D02*
X4775000Y-2775000D01*
X11962700Y-25037300D02*
X11962700Y-26537300D01*
X29512299Y-4487701D02*
X30606443Y-4487701D01*
%TO.N,MISO*%
X4000000Y-4050500D02*
X4000000Y-19000000D01*
X14000000Y-27500000D02*
X12974695Y-27500000D01*
X7000000Y-33474695D02*
X7000000Y-35525305D01*
X6300305Y-36225000D02*
X5475000Y-36225000D01*
X4000000Y-19000000D02*
X11237700Y-26237700D01*
X5475000Y-36225000D02*
X4750000Y-35500000D01*
X4050500Y-4000000D02*
X4000000Y-4050500D01*
X7000000Y-35525305D02*
X6300305Y-36225000D01*
X12974695Y-27500000D02*
X7000000Y-33474695D01*
%TO.N,Net-(J3-Pad1)*%
X46000500Y-22199695D02*
X46000500Y-26090490D01*
X46000500Y-26090490D02*
X40925000Y-31165990D01*
X45000000Y-21199195D02*
X46000500Y-22199695D01*
X40925000Y-31165990D02*
X40925000Y-32520498D01*
X45000000Y-16000000D02*
X45000000Y-21199195D01*
X46000000Y-15000000D02*
X45000000Y-16000000D01*
X46000000Y-11000000D02*
X46000000Y-15000000D01*
X40925000Y-32520498D02*
X38945498Y-34500000D01*
D13*
%TO.N,Y+*%
X36445498Y-35000000D02*
X36445498Y-33064552D01*
X41500000Y-28010050D02*
X41500000Y-14500000D01*
X36445498Y-33064552D02*
X41500000Y-28010050D01*
X41500000Y-14500000D02*
X39500000Y-12500000D01*
X39500000Y-12500000D02*
X19500000Y-12500000D01*
%TO.N,X+*%
X42199500Y-23949500D02*
X42000000Y-23750000D01*
X39065686Y-11500000D02*
X19500000Y-11500000D01*
X42000000Y-23750000D02*
X42000000Y-14434314D01*
X42000000Y-14434314D02*
X39065686Y-11500000D01*
%TO.N,Y-*%
X40500000Y-30989950D02*
X44000000Y-27489950D01*
X38500000Y-33500000D02*
X40500000Y-31500000D01*
X44000000Y-13000000D02*
X40500000Y-9500000D01*
X38500000Y-33945498D02*
X38500000Y-33500000D01*
X36445498Y-36000000D02*
X38500000Y-33945498D01*
X44000000Y-27489950D02*
X44000000Y-13000000D01*
X40500000Y-9500000D02*
X19500000Y-9500000D01*
X40500000Y-31500000D02*
X40500000Y-30989950D01*
%TO.N,X-*%
X42500000Y-23260050D02*
X42500000Y-14368628D01*
X43197019Y-23957069D02*
X42500000Y-23260050D01*
X42500000Y-14368628D02*
X38631372Y-10500000D01*
X43197019Y-24012429D02*
X43197019Y-23957069D01*
X38631372Y-10500000D02*
X19500000Y-10500000D01*
D12*
%TO.N,WR*%
X9500000Y-22500000D02*
X13500000Y-22500000D01*
X5225000Y-18225000D02*
X9500000Y-22500000D01*
X5225000Y-1725000D02*
X5225000Y-18225000D01*
X5000000Y-1500000D02*
X5225000Y-1725000D01*
%TO.N,LCD_CS*%
X43250000Y-13750000D02*
X43250000Y-22449500D01*
X40614859Y-11040839D02*
X40614859Y-11114859D01*
X43250000Y-22449500D02*
X43199500Y-22500000D01*
X40614859Y-11114859D02*
X43250000Y-13750000D01*
%TO.N,Net-(R4-Pad1)*%
X48000000Y-28500000D02*
X48000000Y-31000000D01*
%TO.N,Net-(R3-Pad2)*%
X48500000Y-24513548D02*
X48610874Y-24624422D01*
X46800000Y-20200000D02*
X48500000Y-21900000D01*
X48500000Y-21900000D02*
X48500000Y-24513548D01*
%TO.N,BAT CHG*%
X44500000Y-22724000D02*
X44500000Y-14699500D01*
X45276000Y-23500000D02*
X44500000Y-22724000D01*
X44500000Y-14699500D02*
X44699500Y-14500000D01*
%TD*%
M02*
