%TF.GenerationSoftware,KiCad,Pcbnew,(6.0.6)*%
%TF.CreationDate,2022-12-29T17:59:43-06:00*%
%TF.ProjectId,Realm Card,5265616c-6d20-4436-9172-642e6b696361,A*%
%TF.SameCoordinates,Original*%
%TF.FileFunction,Paste,Top*%
%TF.FilePolarity,Positive*%
%FSLAX46Y46*%
G04 Gerber Fmt 4.6, Leading zero omitted, Abs format (unit mm)*
G04 Created by KiCad (PCBNEW (6.0.6)) date 2022-12-29 17:59:43*
%MOMM*%
%LPD*%
G01*
G04 APERTURE LIST*
G04 Aperture macros list*
%AMRoundRect*
0 Rectangle with rounded corners*
0 $1 Rounding radius*
0 $2 $3 $4 $5 $6 $7 $8 $9 X,Y pos of 4 corners*
0 Add a 4 corners polygon primitive as box body*
4,1,4,$2,$3,$4,$5,$6,$7,$8,$9,$2,$3,0*
0 Add four circle primitives for the rounded corners*
1,1,$1+$1,$2,$3*
1,1,$1+$1,$4,$5*
1,1,$1+$1,$6,$7*
1,1,$1+$1,$8,$9*
0 Add four rect primitives between the rounded corners*
20,1,$1+$1,$2,$3,$4,$5,0*
20,1,$1+$1,$4,$5,$6,$7,0*
20,1,$1+$1,$6,$7,$8,$9,0*
20,1,$1+$1,$8,$9,$2,$3,0*%
G04 Aperture macros list end*
%ADD10RoundRect,0.150000X-0.150000X0.512500X-0.150000X-0.512500X0.150000X-0.512500X0.150000X0.512500X0*%
%ADD11RoundRect,0.250000X-0.262500X-0.450000X0.262500X-0.450000X0.262500X0.450000X-0.262500X0.450000X0*%
%ADD12RoundRect,0.250000X0.262500X0.450000X-0.262500X0.450000X-0.262500X-0.450000X0.262500X-0.450000X0*%
%ADD13RoundRect,0.250000X-0.250000X-0.475000X0.250000X-0.475000X0.250000X0.475000X-0.250000X0.475000X0*%
%ADD14R,0.900000X1.200000*%
%ADD15R,0.850000X1.100000*%
%ADD16R,0.750000X1.100000*%
%ADD17R,1.200000X1.000000*%
%ADD18R,1.900000X1.350000*%
%ADD19R,1.170000X1.800000*%
%ADD20R,1.550000X1.350000*%
%ADD21RoundRect,0.250000X-0.450000X0.262500X-0.450000X-0.262500X0.450000X-0.262500X0.450000X0.262500X0*%
%ADD22RoundRect,0.250000X0.250000X1.500000X-0.250000X1.500000X-0.250000X-1.500000X0.250000X-1.500000X0*%
%ADD23RoundRect,0.250001X0.499999X1.449999X-0.499999X1.449999X-0.499999X-1.449999X0.499999X-1.449999X0*%
%ADD24R,1.250000X2.500000*%
%ADD25R,0.300000X1.300000*%
%ADD26R,1.800000X2.200000*%
%ADD27RoundRect,0.243750X-0.456250X0.243750X-0.456250X-0.243750X0.456250X-0.243750X0.456250X0.243750X0*%
G04 APERTURE END LIST*
D10*
%TO.C,U1*%
X48950000Y-25862500D03*
X48000000Y-25862500D03*
X47050000Y-25862500D03*
X47050000Y-28137500D03*
X48950000Y-28137500D03*
%TD*%
D11*
%TO.C,R5*%
X42050000Y-21000000D03*
X43875000Y-21000000D03*
%TD*%
D12*
%TO.C,R3*%
X43875000Y-19000000D03*
X42050000Y-19000000D03*
%TD*%
D11*
%TO.C,R2*%
X4087500Y-21500000D03*
X5912500Y-21500000D03*
%TD*%
%TO.C,R10*%
X4087500Y-15500000D03*
X5912500Y-15500000D03*
%TD*%
D13*
%TO.C,C1*%
X41050000Y-29500000D03*
X42950000Y-29500000D03*
%TD*%
D11*
%TO.C,R11*%
X4087500Y-13500000D03*
X5912500Y-13500000D03*
%TD*%
D14*
%TO.C,D3*%
X43150000Y-32000000D03*
X39850000Y-32000000D03*
%TD*%
D11*
%TO.C,R9*%
X4087500Y-19500000D03*
X5912500Y-19500000D03*
%TD*%
D15*
%TO.C,J2*%
X10105000Y-36950000D03*
X9005000Y-36950000D03*
X7905000Y-36950000D03*
X6805000Y-36950000D03*
X5705000Y-36950000D03*
X4605000Y-36950000D03*
X3505000Y-36950000D03*
D16*
X2455000Y-36950000D03*
D17*
X12740000Y-30800000D03*
X12740000Y-27100000D03*
D18*
X3270000Y-26125000D03*
D19*
X1245000Y-36600000D03*
D20*
X12565000Y-36825000D03*
D18*
X9240000Y-26125000D03*
%TD*%
D11*
%TO.C,R8*%
X4087500Y-17500000D03*
X5912500Y-17500000D03*
%TD*%
D21*
%TO.C,R6*%
X46500000Y-32145500D03*
X46500000Y-33970500D03*
%TD*%
D12*
%TO.C,R12*%
X5912500Y-11500000D03*
X4087500Y-11500000D03*
%TD*%
%TO.C,R1*%
X43875000Y-15000000D03*
X42050000Y-15000000D03*
%TD*%
D13*
%TO.C,C2*%
X41050000Y-25500000D03*
X42950000Y-25500000D03*
%TD*%
D22*
%TO.C,J3*%
X46000000Y-8350000D03*
X44000000Y-8350000D03*
D23*
X48350000Y-2600000D03*
X41650000Y-2600000D03*
%TD*%
D24*
%TO.C,SW1*%
X37670000Y-34880000D03*
X40170000Y-34880000D03*
X42670000Y-34880000D03*
%TD*%
D11*
%TO.C,R4*%
X42050000Y-17000000D03*
X43875000Y-17000000D03*
%TD*%
D13*
%TO.C,C3*%
X41050000Y-27500000D03*
X42950000Y-27500000D03*
%TD*%
D25*
%TO.C,J4*%
X12750000Y-6490000D03*
X13250000Y-6490000D03*
X13750000Y-6490000D03*
X14250000Y-6490000D03*
X14750000Y-6490000D03*
X15250000Y-6490000D03*
X15750000Y-6490000D03*
X16250000Y-6490000D03*
X16750000Y-6490000D03*
X17250000Y-6490000D03*
X17750000Y-6490000D03*
X18250000Y-6490000D03*
X18750000Y-6490000D03*
X19250000Y-6490000D03*
X19750000Y-6490000D03*
X20250000Y-6490000D03*
X20750000Y-6490000D03*
X21250000Y-6490000D03*
X21750000Y-6490000D03*
X22250000Y-6490000D03*
X22750000Y-6490000D03*
X23250000Y-6490000D03*
X23750000Y-6490000D03*
X24250000Y-6490000D03*
X24750000Y-6490000D03*
X25250000Y-6490000D03*
X25750000Y-6490000D03*
X26250000Y-6490000D03*
X26750000Y-6490000D03*
X27250000Y-6490000D03*
X27750000Y-6490000D03*
X28250000Y-6490000D03*
X28750000Y-6490000D03*
X29250000Y-6490000D03*
X29750000Y-6490000D03*
X30250000Y-6490000D03*
X30750000Y-6490000D03*
X31250000Y-6490000D03*
X31750000Y-6490000D03*
X32250000Y-6490000D03*
X32750000Y-6490000D03*
X33250000Y-6490000D03*
X33750000Y-6490000D03*
X34250000Y-6490000D03*
X34750000Y-6490000D03*
X35250000Y-6490000D03*
X35750000Y-6490000D03*
X36250000Y-6490000D03*
X36750000Y-6490000D03*
X37250000Y-6490000D03*
D26*
X39150000Y-9740000D03*
X10850000Y-9740000D03*
%TD*%
D27*
%TO.C,D1*%
X46500000Y-35930500D03*
X46500000Y-37805500D03*
%TD*%
M02*
