%TF.GenerationSoftware,KiCad,Pcbnew,(6.0.6)*%
%TF.CreationDate,2022-12-29T17:59:43-06:00*%
%TF.ProjectId,Realm Card,5265616c-6d20-4436-9172-642e6b696361,A*%
%TF.SameCoordinates,Original*%
%TF.FileFunction,Copper,L1,Top*%
%TF.FilePolarity,Positive*%
%FSLAX46Y46*%
G04 Gerber Fmt 4.6, Leading zero omitted, Abs format (unit mm)*
G04 Created by KiCad (PCBNEW (6.0.6)) date 2022-12-29 17:59:43*
%MOMM*%
%LPD*%
G01*
G04 APERTURE LIST*
G04 Aperture macros list*
%AMRoundRect*
0 Rectangle with rounded corners*
0 $1 Rounding radius*
0 $2 $3 $4 $5 $6 $7 $8 $9 X,Y pos of 4 corners*
0 Add a 4 corners polygon primitive as box body*
4,1,4,$2,$3,$4,$5,$6,$7,$8,$9,$2,$3,0*
0 Add four circle primitives for the rounded corners*
1,1,$1+$1,$2,$3*
1,1,$1+$1,$4,$5*
1,1,$1+$1,$6,$7*
1,1,$1+$1,$8,$9*
0 Add four rect primitives between the rounded corners*
20,1,$1+$1,$2,$3,$4,$5,0*
20,1,$1+$1,$4,$5,$6,$7,0*
20,1,$1+$1,$6,$7,$8,$9,0*
20,1,$1+$1,$8,$9,$2,$3,0*%
G04 Aperture macros list end*
%TA.AperFunction,SMDPad,CuDef*%
%ADD10RoundRect,0.150000X-0.150000X0.512500X-0.150000X-0.512500X0.150000X-0.512500X0.150000X0.512500X0*%
%TD*%
%TA.AperFunction,SMDPad,CuDef*%
%ADD11RoundRect,0.250000X-0.262500X-0.450000X0.262500X-0.450000X0.262500X0.450000X-0.262500X0.450000X0*%
%TD*%
%TA.AperFunction,SMDPad,CuDef*%
%ADD12RoundRect,0.250000X0.262500X0.450000X-0.262500X0.450000X-0.262500X-0.450000X0.262500X-0.450000X0*%
%TD*%
%TA.AperFunction,SMDPad,CuDef*%
%ADD13RoundRect,0.250000X-0.250000X-0.475000X0.250000X-0.475000X0.250000X0.475000X-0.250000X0.475000X0*%
%TD*%
%TA.AperFunction,SMDPad,CuDef*%
%ADD14R,0.900000X1.200000*%
%TD*%
%TA.AperFunction,SMDPad,CuDef*%
%ADD15R,0.850000X1.100000*%
%TD*%
%TA.AperFunction,SMDPad,CuDef*%
%ADD16R,0.750000X1.100000*%
%TD*%
%TA.AperFunction,SMDPad,CuDef*%
%ADD17R,1.200000X1.000000*%
%TD*%
%TA.AperFunction,SMDPad,CuDef*%
%ADD18R,1.900000X1.350000*%
%TD*%
%TA.AperFunction,SMDPad,CuDef*%
%ADD19R,1.170000X1.800000*%
%TD*%
%TA.AperFunction,SMDPad,CuDef*%
%ADD20R,1.550000X1.350000*%
%TD*%
%TA.AperFunction,SMDPad,CuDef*%
%ADD21RoundRect,0.250000X-0.450000X0.262500X-0.450000X-0.262500X0.450000X-0.262500X0.450000X0.262500X0*%
%TD*%
%TA.AperFunction,SMDPad,CuDef*%
%ADD22RoundRect,0.250000X0.250000X1.500000X-0.250000X1.500000X-0.250000X-1.500000X0.250000X-1.500000X0*%
%TD*%
%TA.AperFunction,SMDPad,CuDef*%
%ADD23RoundRect,0.250001X0.499999X1.449999X-0.499999X1.449999X-0.499999X-1.449999X0.499999X-1.449999X0*%
%TD*%
%TA.AperFunction,SMDPad,CuDef*%
%ADD24R,1.250000X2.500000*%
%TD*%
%TA.AperFunction,ComponentPad*%
%ADD25R,4.000000X1.700000*%
%TD*%
%TA.AperFunction,SMDPad,CuDef*%
%ADD26R,0.300000X1.300000*%
%TD*%
%TA.AperFunction,SMDPad,CuDef*%
%ADD27R,1.800000X2.200000*%
%TD*%
%TA.AperFunction,SMDPad,CuDef*%
%ADD28RoundRect,0.243750X-0.456250X0.243750X-0.456250X-0.243750X0.456250X-0.243750X0.456250X0.243750X0*%
%TD*%
%TA.AperFunction,ViaPad*%
%ADD29C,0.800000*%
%TD*%
%TA.AperFunction,Conductor*%
%ADD30C,0.250000*%
%TD*%
G04 APERTURE END LIST*
D10*
%TO.P,U1,1,STAT*%
%TO.N,Net-(R6-Pad1)*%
X48950000Y-25862500D03*
%TO.P,U1,2,VSS*%
%TO.N,GND*%
X48000000Y-25862500D03*
%TO.P,U1,3,VBAT*%
%TO.N,BAT CHG*%
X47050000Y-25862500D03*
%TO.P,U1,4,VDD*%
%TO.N,+5V*%
X47050000Y-28137500D03*
%TO.P,U1,5,PROG*%
%TO.N,Net-(R5-Pad2)*%
X48950000Y-28137500D03*
%TD*%
D11*
%TO.P,R5,1*%
%TO.N,GND*%
X42050000Y-21000000D03*
%TO.P,R5,2*%
%TO.N,Net-(R5-Pad2)*%
X43875000Y-21000000D03*
%TD*%
D12*
%TO.P,R3,1*%
%TO.N,GND*%
X43875000Y-19000000D03*
%TO.P,R3,2*%
%TO.N,BAT CHG*%
X42050000Y-19000000D03*
%TD*%
D11*
%TO.P,R2,1*%
%TO.N,+3.3V*%
X4087500Y-21500000D03*
%TO.P,R2,2*%
%TO.N,SD_CS*%
X5912500Y-21500000D03*
%TD*%
%TO.P,R10,1*%
%TO.N,+3.3V*%
X4087500Y-15500000D03*
%TO.P,R10,2*%
%TO.N,/LEDA*%
X5912500Y-15500000D03*
%TD*%
D13*
%TO.P,C1,1*%
%TO.N,GND*%
X41050000Y-29500000D03*
%TO.P,C1,2*%
%TO.N,+5V*%
X42950000Y-29500000D03*
%TD*%
D11*
%TO.P,R11,1*%
%TO.N,+3.3V*%
X4087500Y-13500000D03*
%TO.P,R11,2*%
%TO.N,/LEDA*%
X5912500Y-13500000D03*
%TD*%
D14*
%TO.P,D3,1,K*%
%TO.N,+5V*%
X43150000Y-32000000D03*
%TO.P,D3,2,A*%
%TO.N,VBAT*%
X39850000Y-32000000D03*
%TD*%
D11*
%TO.P,R9,1*%
%TO.N,+3.3V*%
X4087500Y-19500000D03*
%TO.P,R9,2*%
%TO.N,/LEDA*%
X5912500Y-19500000D03*
%TD*%
D15*
%TO.P,J2,1,DAT2*%
%TO.N,unconnected-(J2-Pad1)*%
X10105000Y-36950000D03*
%TO.P,J2,2,DAT3/CD*%
%TO.N,SD_CS*%
X9005000Y-36950000D03*
%TO.P,J2,3,CMD*%
%TO.N,MOSI*%
X7905000Y-36950000D03*
%TO.P,J2,4,VDD*%
%TO.N,+3.3V*%
X6805000Y-36950000D03*
%TO.P,J2,5,CLK*%
%TO.N,SCK*%
X5705000Y-36950000D03*
%TO.P,J2,6,VSS*%
%TO.N,GND*%
X4605000Y-36950000D03*
%TO.P,J2,7,DAT0*%
%TO.N,MISO*%
X3505000Y-36950000D03*
D16*
%TO.P,J2,8,DAT1*%
%TO.N,unconnected-(J2-Pad8)*%
X2455000Y-36950000D03*
D17*
%TO.P,J2,9,SHIELD*%
%TO.N,unconnected-(J2-Pad9)*%
X12740000Y-30800000D03*
%TO.P,J2,10*%
%TO.N,N/C*%
X12740000Y-27100000D03*
D18*
%TO.P,J2,11*%
X3270000Y-26125000D03*
D19*
X1245000Y-36600000D03*
D20*
X12565000Y-36825000D03*
D18*
X9240000Y-26125000D03*
%TD*%
D11*
%TO.P,R8,1*%
%TO.N,+3.3V*%
X4087500Y-17500000D03*
%TO.P,R8,2*%
%TO.N,/LEDA*%
X5912500Y-17500000D03*
%TD*%
D21*
%TO.P,R6,1*%
%TO.N,Net-(R6-Pad1)*%
X46500000Y-32145500D03*
%TO.P,R6,2*%
%TO.N,Net-(D1-Pad1)*%
X46500000Y-33970500D03*
%TD*%
D12*
%TO.P,R12,1*%
%TO.N,/reset*%
X5912500Y-11500000D03*
%TO.P,R12,2*%
%TO.N,+3.3V*%
X4087500Y-11500000D03*
%TD*%
%TO.P,R1,1*%
%TO.N,LCD_CS*%
X43875000Y-15000000D03*
%TO.P,R1,2*%
%TO.N,+3.3V*%
X42050000Y-15000000D03*
%TD*%
D13*
%TO.P,C2,1*%
%TO.N,GND*%
X41050000Y-25500000D03*
%TO.P,C2,2*%
%TO.N,VBAT*%
X42950000Y-25500000D03*
%TD*%
D22*
%TO.P,J3,1,Pin_1*%
%TO.N,Net-(J3-Pad1)*%
X46000000Y-8350000D03*
%TO.P,J3,2,Pin_2*%
%TO.N,GND*%
X44000000Y-8350000D03*
D23*
%TO.P,J3,MP*%
%TO.N,N/C*%
X48350000Y-2600000D03*
X41650000Y-2600000D03*
%TD*%
D24*
%TO.P,SW1,1,A*%
%TO.N,Net-(J3-Pad1)*%
X37670000Y-34880000D03*
%TO.P,SW1,2,B*%
%TO.N,VBAT*%
X40170000Y-34880000D03*
%TO.P,SW1,3,C*%
%TO.N,unconnected-(SW1-Pad3)*%
X42670000Y-34880000D03*
%TD*%
D25*
%TO.P,J1,1,Pin_1*%
%TO.N,WR*%
X16380000Y-22380000D03*
%TO.P,J1,2,Pin_2*%
%TO.N,SCK*%
X16380000Y-24920000D03*
%TO.P,J1,3,Pin_3*%
%TO.N,MISO*%
X16380000Y-27460000D03*
%TO.P,J1,4,Pin_4*%
%TO.N,MOSI*%
X16380000Y-30000000D03*
%TO.P,J1,5,Pin_5*%
%TO.N,+3.3V*%
X16380000Y-32540000D03*
%TO.P,J1,6,Pin_6*%
%TO.N,GND*%
X16380000Y-35080000D03*
%TO.P,J1,7,Pin_7*%
%TO.N,+5V*%
X16380000Y-37620000D03*
%TO.P,J1,8,Pin_8*%
%TO.N,BAT CHG*%
X33620000Y-22380000D03*
%TO.P,J1,9,Pin_9*%
%TO.N,LCD_CS*%
X33620000Y-24920000D03*
%TO.P,J1,10,Pin_10*%
%TO.N,SD_CS*%
X33620000Y-27460000D03*
%TO.P,J1,11,Pin_11*%
%TO.N,X+*%
X33620000Y-30000000D03*
%TO.P,J1,12,Pin_12*%
%TO.N,X-*%
X33620000Y-32540000D03*
%TO.P,J1,13,Pin_13*%
%TO.N,Y+*%
X33620000Y-35080000D03*
%TO.P,J1,14,Pin_14*%
%TO.N,Y-*%
X33620000Y-37620000D03*
%TD*%
D11*
%TO.P,R4,1*%
%TO.N,BAT CHG*%
X42050000Y-17000000D03*
%TO.P,R4,2*%
%TO.N,+5V*%
X43875000Y-17000000D03*
%TD*%
D13*
%TO.P,C3,1*%
%TO.N,GND*%
X41050000Y-27500000D03*
%TO.P,C3,2*%
%TO.N,VBAT*%
X42950000Y-27500000D03*
%TD*%
D26*
%TO.P,J4,1,Pin_1*%
%TO.N,GND*%
X12750000Y-6490000D03*
%TO.P,J4,2,Pin_2*%
%TO.N,/LEDA*%
X13250000Y-6490000D03*
%TO.P,J4,3,Pin_3*%
X13750000Y-6490000D03*
%TO.P,J4,4,Pin_4*%
X14250000Y-6490000D03*
%TO.P,J4,5,Pin_5*%
X14750000Y-6490000D03*
%TO.P,J4,6,Pin_6*%
%TO.N,GND*%
X15250000Y-6490000D03*
%TO.P,J4,7,Pin_7*%
%TO.N,+3.3V*%
X15750000Y-6490000D03*
%TO.P,J4,8,Pin_8*%
X16250000Y-6490000D03*
%TO.P,J4,9,Pin_9*%
X16750000Y-6490000D03*
%TO.P,J4,10,Pin_10*%
%TO.N,/reset*%
X17250000Y-6490000D03*
%TO.P,J4,11,Pin_11*%
%TO.N,unconnected-(J4-Pad11)*%
X17750000Y-6490000D03*
%TO.P,J4,12,Pin_12*%
%TO.N,unconnected-(J4-Pad12)*%
X18250000Y-6490000D03*
%TO.P,J4,13,Pin_13*%
%TO.N,unconnected-(J4-Pad13)*%
X18750000Y-6490000D03*
%TO.P,J4,14,Pin_14*%
%TO.N,unconnected-(J4-Pad14)*%
X19250000Y-6490000D03*
%TO.P,J4,15,Pin_15*%
%TO.N,unconnected-(J4-Pad15)*%
X19750000Y-6490000D03*
%TO.P,J4,16,Pin_16*%
%TO.N,unconnected-(J4-Pad16)*%
X20250000Y-6490000D03*
%TO.P,J4,17,Pin_17*%
%TO.N,unconnected-(J4-Pad17)*%
X20750000Y-6490000D03*
%TO.P,J4,18,Pin_18*%
%TO.N,unconnected-(J4-Pad18)*%
X21250000Y-6490000D03*
%TO.P,J4,19,Pin_19*%
%TO.N,unconnected-(J4-Pad19)*%
X21750000Y-6490000D03*
%TO.P,J4,20,Pin_20*%
%TO.N,unconnected-(J4-Pad20)*%
X22250000Y-6490000D03*
%TO.P,J4,21,Pin_21*%
%TO.N,unconnected-(J4-Pad21)*%
X22750000Y-6490000D03*
%TO.P,J4,22,Pin_22*%
%TO.N,unconnected-(J4-Pad22)*%
X23250000Y-6490000D03*
%TO.P,J4,23,Pin_23*%
%TO.N,unconnected-(J4-Pad23)*%
X23750000Y-6490000D03*
%TO.P,J4,24,Pin_24*%
%TO.N,unconnected-(J4-Pad24)*%
X24250000Y-6490000D03*
%TO.P,J4,25,Pin_25*%
%TO.N,unconnected-(J4-Pad25)*%
X24750000Y-6490000D03*
%TO.P,J4,26,Pin_26*%
%TO.N,unconnected-(J4-Pad26)*%
X25250000Y-6490000D03*
%TO.P,J4,27,Pin_27*%
%TO.N,unconnected-(J4-Pad27)*%
X25750000Y-6490000D03*
%TO.P,J4,28,Pin_28*%
%TO.N,unconnected-(J4-Pad28)*%
X26250000Y-6490000D03*
%TO.P,J4,29,Pin_29*%
%TO.N,unconnected-(J4-Pad29)*%
X26750000Y-6490000D03*
%TO.P,J4,30,Pin_30*%
%TO.N,unconnected-(J4-Pad30)*%
X27250000Y-6490000D03*
%TO.P,J4,31,Pin_31*%
%TO.N,unconnected-(J4-Pad31)*%
X27750000Y-6490000D03*
%TO.P,J4,32,Pin_32*%
%TO.N,unconnected-(J4-Pad32)*%
X28250000Y-6490000D03*
%TO.P,J4,33,Pin_33*%
%TO.N,MISO*%
X28750000Y-6490000D03*
%TO.P,J4,34,Pin_34*%
%TO.N,MOSI*%
X29250000Y-6490000D03*
%TO.P,J4,35,Pin_35*%
%TO.N,unconnected-(J4-Pad35)*%
X29750000Y-6490000D03*
%TO.P,J4,36,Pin_36*%
%TO.N,WR*%
X30250000Y-6490000D03*
%TO.P,J4,37,Pin_37*%
%TO.N,SCK*%
X30750000Y-6490000D03*
%TO.P,J4,38,Pin_38*%
%TO.N,LCD_CS*%
X31250000Y-6490000D03*
%TO.P,J4,39,Pin_39*%
%TO.N,unconnected-(J4-Pad39)*%
X31750000Y-6490000D03*
%TO.P,J4,40,Pin_40*%
%TO.N,+3.3V*%
X32250000Y-6490000D03*
%TO.P,J4,41,Pin_41*%
X32750000Y-6490000D03*
%TO.P,J4,42,Pin_42*%
X33250000Y-6490000D03*
%TO.P,J4,43,Pin_43*%
%TO.N,GND*%
X33750000Y-6490000D03*
%TO.P,J4,44,Pin_44*%
%TO.N,X-*%
X34250000Y-6490000D03*
%TO.P,J4,45,Pin_45*%
%TO.N,Y-*%
X34750000Y-6490000D03*
%TO.P,J4,46,Pin_46*%
%TO.N,X+*%
X35250000Y-6490000D03*
%TO.P,J4,47,Pin_47*%
%TO.N,Y+*%
X35750000Y-6490000D03*
%TO.P,J4,48,Pin_48*%
%TO.N,GND*%
X36250000Y-6490000D03*
%TO.P,J4,49,Pin_49*%
X36750000Y-6490000D03*
%TO.P,J4,50,Pin_50*%
X37250000Y-6490000D03*
D27*
%TO.P,J4,MP*%
%TO.N,N/C*%
X39150000Y-9740000D03*
X10850000Y-9740000D03*
%TD*%
D28*
%TO.P,D1,1,K*%
%TO.N,Net-(D1-Pad1)*%
X46500000Y-35930500D03*
%TO.P,D1,2,A*%
%TO.N,+5V*%
X46500000Y-37805500D03*
%TD*%
D29*
%TO.N,GND*%
X6000000Y-3000000D03*
X10500000Y-6500000D03*
%TO.N,+5V*%
X13939502Y-37250000D03*
X45074500Y-17000000D03*
X42000000Y-32000000D03*
X45341779Y-31413878D03*
X6487701Y-23512299D03*
X7512299Y-19487701D03*
%TO.N,VBAT*%
X40000000Y-30500000D03*
X44000000Y-25500000D03*
%TO.N,+3.3V*%
X17369027Y-8869027D03*
X32500000Y-9500000D03*
X31000000Y-8275500D03*
X5619301Y-26856100D03*
X9012299Y-33512299D03*
X40775500Y-15000000D03*
X16263175Y-7924975D03*
X5000000Y-23000000D03*
X3000000Y-11500000D03*
X13500000Y-32500000D03*
%TO.N,SD_CS*%
X46162702Y-21337298D03*
X7487701Y-24512299D03*
X8219055Y-20194456D03*
X9000000Y-35750000D03*
%TO.N,MOSI*%
X11500000Y-30000000D03*
X3000497Y-6000000D03*
X11238200Y-27406850D03*
X8000000Y-35500000D03*
%TO.N,SCK*%
X29512299Y-4487701D03*
X30537251Y-3462749D03*
X12000000Y-25000000D03*
X6000000Y-35500000D03*
X4119302Y-4550500D03*
%TO.N,MISO*%
X13939502Y-27500000D03*
X11237700Y-26237700D03*
X4000000Y-6000000D03*
X4750000Y-35500000D03*
%TO.N,Net-(J3-Pad1)*%
X46000000Y-11000000D03*
X37980271Y-33085274D03*
%TO.N,Net-(R5-Pad2)*%
X47112299Y-20087701D03*
X48500000Y-29500000D03*
%TO.N,Y+*%
X36037625Y-10199500D03*
X36445498Y-35000000D03*
%TO.N,X+*%
X35050500Y-9849165D03*
X39986662Y-24537937D03*
%TO.N,Y-*%
X36445498Y-36000000D03*
X34500000Y-8500000D03*
%TO.N,X-*%
X33500000Y-8500000D03*
X39673788Y-25487206D03*
%TO.N,WR*%
X13500000Y-22500000D03*
X5093150Y-4325500D03*
%TO.N,LCD_CS*%
X42579639Y-12245459D03*
X38500000Y-6268131D03*
X31474500Y-4500000D03*
X43188482Y-23275500D03*
X40622438Y-8461908D03*
X43305041Y-13694959D03*
%TO.N,BAT CHG*%
X44289571Y-22474719D03*
X46275500Y-25750000D03*
%TD*%
D30*
%TO.N,Net-(R6-Pad1)*%
X46500000Y-31937500D02*
X47675000Y-30762500D01*
X46500000Y-32145500D02*
X46500000Y-31937500D01*
%TO.N,GND*%
X42050000Y-20825000D02*
X43875000Y-19000000D01*
X42050000Y-21000000D02*
X42050000Y-20825000D01*
%TO.N,+5V*%
X45074500Y-17000000D02*
X43875000Y-17000000D01*
X14309502Y-37620000D02*
X17380000Y-37620000D01*
X45471795Y-31543894D02*
X45341779Y-31413878D01*
X13939502Y-37250000D02*
X14309502Y-37620000D01*
X43150000Y-29200000D02*
X42950000Y-29000000D01*
X45475000Y-36780500D02*
X45475000Y-32975000D01*
X43150000Y-29700000D02*
X42950000Y-29500000D01*
X43150000Y-32000000D02*
X42000000Y-32000000D01*
X7000000Y-23000000D02*
X6487701Y-23512299D01*
X7000000Y-20000000D02*
X7000000Y-23000000D01*
X42950000Y-29000000D02*
X43187500Y-29000000D01*
X45471795Y-32971795D02*
X45471795Y-31543894D01*
X46500000Y-37805500D02*
X45475000Y-36780500D01*
X43150000Y-32000000D02*
X43150000Y-29700000D01*
X7512299Y-19487701D02*
X7000000Y-20000000D01*
X47050000Y-29705657D02*
X45341779Y-31413878D01*
X47050000Y-28137500D02*
X47050000Y-29705657D01*
%TO.N,VBAT*%
X42950000Y-25500000D02*
X42950000Y-27500000D01*
X39850000Y-32000000D02*
X39850000Y-34560000D01*
X39850000Y-34560000D02*
X40170000Y-34880000D01*
X39850000Y-30650000D02*
X40000000Y-30500000D01*
X39850000Y-32000000D02*
X39850000Y-30650000D01*
X42950000Y-25500000D02*
X44000000Y-25500000D01*
%TO.N,Net-(D1-Pad1)*%
X46500000Y-33970500D02*
X46500000Y-35930500D01*
%TO.N,+3.3V*%
X4087500Y-11500000D02*
X3000000Y-11500000D01*
X31000000Y-8275500D02*
X31275500Y-8275500D01*
X32250000Y-7440000D02*
X32250000Y-6490000D01*
X16424975Y-7924975D02*
X17369027Y-8869027D01*
X5619301Y-30119301D02*
X9012299Y-33512299D01*
X32750000Y-6490000D02*
X32250000Y-6490000D01*
X16263175Y-7924975D02*
X16424975Y-7924975D01*
X17369027Y-8869027D02*
X16750000Y-8250000D01*
X4087500Y-22087500D02*
X4087500Y-19500000D01*
X33250000Y-6490000D02*
X32750000Y-6490000D01*
X5619301Y-26856100D02*
X5619301Y-30119301D01*
X6805000Y-36950000D02*
X6805000Y-35669695D01*
X31414500Y-8275500D02*
X32250000Y-7440000D01*
X16263175Y-6503175D02*
X16250000Y-6490000D01*
X16250000Y-6490000D02*
X15750000Y-6490000D01*
X31000000Y-8275500D02*
X31414500Y-8275500D01*
X31275500Y-8275500D02*
X32500000Y-9500000D01*
X8962396Y-33512299D02*
X9012299Y-33512299D01*
X5000000Y-23000000D02*
X4087500Y-22087500D01*
X13540000Y-32540000D02*
X13500000Y-32500000D01*
X4087500Y-19500000D02*
X4087500Y-11500000D01*
X16263175Y-7924975D02*
X16263175Y-6503175D01*
X6805000Y-35669695D02*
X8962396Y-33512299D01*
X40775500Y-15000000D02*
X42050000Y-15000000D01*
X17380000Y-32540000D02*
X13540000Y-32540000D01*
X16750000Y-6490000D02*
X16250000Y-6490000D01*
%TO.N,SD_CS*%
X6462396Y-24512299D02*
X7487701Y-24512299D01*
X44000000Y-24000000D02*
X40474030Y-24000000D01*
X8219055Y-20194456D02*
X7487701Y-20925810D01*
X9000000Y-35750000D02*
X9000000Y-36945000D01*
X36040000Y-27460000D02*
X32620000Y-27460000D01*
X39686357Y-23812937D02*
X39261662Y-24237632D01*
X39261662Y-24237632D02*
X39261662Y-24238338D01*
X5762701Y-23812604D02*
X6462396Y-24512299D01*
X5912500Y-21500000D02*
X5762701Y-21649799D01*
X40286967Y-23812937D02*
X39686357Y-23812937D01*
X7487701Y-20925810D02*
X7487701Y-24512299D01*
X46162702Y-21337298D02*
X46162702Y-21837298D01*
X40474030Y-24000000D02*
X40286967Y-23812937D01*
X46162702Y-21837298D02*
X44000000Y-24000000D01*
X9000000Y-36945000D02*
X9005000Y-36950000D01*
X5762701Y-21649799D02*
X5762701Y-23812604D01*
X39261662Y-24238338D02*
X36040000Y-27460000D01*
%TO.N,MOSI*%
X9031624Y-2650000D02*
X26650000Y-2650000D01*
X4525305Y-5500000D02*
X6181624Y-5500000D01*
X17355000Y-29975000D02*
X17380000Y-30000000D01*
X3000497Y-6000000D02*
X3000497Y-5974198D01*
X3000497Y-5974198D02*
X3699695Y-5275000D01*
X6181624Y-5500000D02*
X9031624Y-2650000D01*
X11238200Y-29738200D02*
X11238200Y-27406850D01*
X4300305Y-5275000D02*
X4525305Y-5500000D01*
X29250000Y-5250000D02*
X29250000Y-6490000D01*
X7905000Y-35595000D02*
X8000000Y-35500000D01*
X11525000Y-29975000D02*
X17355000Y-29975000D01*
X3699695Y-5275000D02*
X4300305Y-5275000D01*
X11500000Y-30000000D02*
X11238200Y-29738200D01*
X11500000Y-30000000D02*
X11525000Y-29975000D01*
X7905000Y-36950000D02*
X7905000Y-35595000D01*
X26650000Y-2650000D02*
X29250000Y-5250000D01*
%TO.N,SCK*%
X17300000Y-25000000D02*
X17380000Y-24920000D01*
X8845228Y-2200000D02*
X27224598Y-2200000D01*
X4711701Y-5050000D02*
X5995228Y-5050000D01*
X4486701Y-4825000D02*
X4711701Y-5050000D01*
X5705000Y-36950000D02*
X5705000Y-35795000D01*
X12000000Y-25000000D02*
X17300000Y-25000000D01*
X30750000Y-3675498D02*
X30750000Y-6490000D01*
X27224598Y-2200000D02*
X29512299Y-4487701D01*
X5995228Y-5050000D02*
X8845228Y-2200000D01*
X30537251Y-3462749D02*
X30750000Y-3675498D01*
X4119302Y-4550500D02*
X4393802Y-4825000D01*
X5705000Y-35795000D02*
X6000000Y-35500000D01*
X4393802Y-4825000D02*
X4486701Y-4825000D01*
%TO.N,MISO*%
X3505000Y-36425000D02*
X3505000Y-36950000D01*
X13939502Y-27500000D02*
X13939502Y-26549502D01*
X9218020Y-3100000D02*
X26310000Y-3100000D01*
X13627700Y-26237700D02*
X11237700Y-26237700D01*
X4430000Y-35500000D02*
X3505000Y-36425000D01*
X13939502Y-26549502D02*
X13627700Y-26237700D01*
X26310000Y-3100000D02*
X28750000Y-5540000D01*
X6318020Y-6000000D02*
X4000000Y-6000000D01*
X13939502Y-27500000D02*
X13979502Y-27460000D01*
X6318020Y-6000000D02*
X9218020Y-3100000D01*
X14850000Y-27460000D02*
X17380000Y-27460000D01*
X4750000Y-35500000D02*
X4430000Y-35500000D01*
X13979502Y-27460000D02*
X17380000Y-27460000D01*
X28750000Y-5540000D02*
X28750000Y-6490000D01*
%TO.N,Net-(J3-Pad1)*%
X37980271Y-34569729D02*
X37670000Y-34880000D01*
X37980271Y-33085274D02*
X37980271Y-34569729D01*
X46000000Y-8350000D02*
X46000000Y-11000000D01*
%TO.N,/LEDA*%
X9000000Y-5863604D02*
X9000000Y-8018198D01*
X14250000Y-5267208D02*
X13482792Y-4500000D01*
X13346396Y-5000000D02*
X9863604Y-5000000D01*
X13250000Y-5540000D02*
X13250000Y-6490000D01*
X9727208Y-4500000D02*
X8500000Y-5727208D01*
X8577297Y-9077297D02*
X9500000Y-8154594D01*
X8577297Y-16835203D02*
X8577297Y-9077297D01*
X13619188Y-4000000D02*
X14750000Y-5130812D01*
X8500000Y-7636396D02*
X7568198Y-8568198D01*
X5912500Y-17500000D02*
X8018198Y-15394302D01*
X13482792Y-4500000D02*
X9727208Y-4500000D01*
X9500000Y-8154594D02*
X9500000Y-6000000D01*
X8000000Y-5590812D02*
X9590812Y-4000000D01*
X7000000Y-12412500D02*
X5912500Y-13500000D01*
X8000000Y-7500000D02*
X7000000Y-8500000D01*
X9500000Y-6000000D02*
X9985000Y-5515000D01*
X7000000Y-8500000D02*
X7000000Y-12412500D01*
X13225000Y-5515000D02*
X13250000Y-5540000D01*
X9863604Y-5000000D02*
X9000000Y-5863604D01*
X9000000Y-8018198D02*
X8018198Y-9000000D01*
X14250000Y-6490000D02*
X14250000Y-5267208D01*
X13750000Y-5403604D02*
X13346396Y-5000000D01*
X8000000Y-5590812D02*
X8000000Y-7500000D01*
X14750000Y-5130812D02*
X14750000Y-6490000D01*
X8018198Y-15394302D02*
X8018198Y-9000000D01*
X7568198Y-13844302D02*
X5912500Y-15500000D01*
X13750000Y-6490000D02*
X13750000Y-5403604D01*
X7568198Y-8568198D02*
X7568198Y-13844302D01*
X9985000Y-5515000D02*
X13225000Y-5515000D01*
X9590812Y-4000000D02*
X13619188Y-4000000D01*
X8500000Y-5727208D02*
X8500000Y-7636396D01*
X5912500Y-19500000D02*
X8577297Y-16835203D01*
%TO.N,Net-(R5-Pad2)*%
X47000000Y-20200000D02*
X44675000Y-20200000D01*
X48500000Y-29500000D02*
X48500000Y-28587500D01*
X44675000Y-20200000D02*
X43875000Y-21000000D01*
X47112299Y-20087701D02*
X47000000Y-20200000D01*
X48500000Y-28587500D02*
X48950000Y-28137500D01*
%TO.N,Net-(R6-Pad1)*%
X48950000Y-26246751D02*
X48950000Y-25862500D01*
X46500000Y-32145500D02*
X46558000Y-32087500D01*
X47675000Y-27521751D02*
X48950000Y-26246751D01*
X47675000Y-30762500D02*
X47675000Y-27521751D01*
%TO.N,Y+*%
X35750000Y-9911875D02*
X35750000Y-6490000D01*
X32700000Y-35500000D02*
X32620000Y-35580000D01*
X36445498Y-35000000D02*
X36365498Y-35080000D01*
X36365498Y-35080000D02*
X32620000Y-35080000D01*
X36037625Y-10199500D02*
X35750000Y-9911875D01*
%TO.N,X+*%
X38500000Y-25636396D02*
X38500000Y-27000000D01*
X35500000Y-30000000D02*
X32620000Y-30000000D01*
X39598459Y-24537937D02*
X38500000Y-25636396D01*
X39986662Y-24537937D02*
X39598459Y-24537937D01*
X35250000Y-9649665D02*
X35250000Y-6490000D01*
X35050500Y-9849165D02*
X35250000Y-9649665D01*
X38500000Y-27000000D02*
X35500000Y-30000000D01*
%TO.N,Y-*%
X34750000Y-8250000D02*
X34750000Y-6490000D01*
X34825498Y-37620000D02*
X32620000Y-37620000D01*
X36445498Y-36000000D02*
X34825498Y-37620000D01*
X34500000Y-8500000D02*
X34750000Y-8250000D01*
%TO.N,X-*%
X39000000Y-26160994D02*
X39673788Y-25487206D01*
X39000000Y-29000000D02*
X35460000Y-32540000D01*
X33500000Y-8500000D02*
X34250000Y-7750000D01*
X35460000Y-32540000D02*
X32620000Y-32540000D01*
X39000000Y-29000000D02*
X39000000Y-26160994D01*
X34250000Y-7750000D02*
X34250000Y-6490000D01*
%TO.N,WR*%
X6083332Y-4325500D02*
X8758832Y-1650000D01*
X29812604Y-3762701D02*
X30250000Y-4200097D01*
X30250000Y-4200097D02*
X30250000Y-6490000D01*
X8758832Y-1650000D02*
X27310994Y-1650000D01*
X13620000Y-22380000D02*
X13500000Y-22500000D01*
X5093150Y-4325500D02*
X6083332Y-4325500D01*
X29423695Y-3762701D02*
X29812604Y-3762701D01*
X27310994Y-1650000D02*
X29423695Y-3762701D01*
X17380000Y-22380000D02*
X13620000Y-22380000D01*
%TO.N,LCD_CS*%
X38500000Y-6268131D02*
X38500000Y-6339470D01*
X43305041Y-13694959D02*
X43875000Y-14264918D01*
X37580000Y-24920000D02*
X32620000Y-24920000D01*
X31250000Y-4724500D02*
X31474500Y-4500000D01*
X43875000Y-14264918D02*
X43875000Y-15000000D01*
X39224500Y-23275500D02*
X37580000Y-24920000D01*
X34820000Y-25420000D02*
X32620000Y-25420000D01*
X31250000Y-6490000D02*
X31250000Y-4724500D01*
X43188482Y-23275500D02*
X39224500Y-23275500D01*
X42579639Y-12969557D02*
X43305041Y-13694959D01*
X38500000Y-6339470D02*
X40622438Y-8461908D01*
X42579639Y-12245459D02*
X42579639Y-12969557D01*
%TO.N,BAT CHG*%
X46937500Y-25750000D02*
X47050000Y-25862500D01*
X41974719Y-22474719D02*
X41000000Y-21500000D01*
X44289571Y-22474719D02*
X32714719Y-22474719D01*
X46275500Y-25750000D02*
X46937500Y-25750000D01*
X44289571Y-22474719D02*
X41974719Y-22474719D01*
X42050000Y-19000000D02*
X42050000Y-19450000D01*
X46854436Y-25862500D02*
X47050000Y-25862500D01*
X41000000Y-20500000D02*
X42050000Y-19450000D01*
X41000000Y-21500000D02*
X41000000Y-20500000D01*
X42050000Y-19000000D02*
X42050000Y-17000000D01*
X32714719Y-22474719D02*
X32620000Y-22380000D01*
X42050000Y-19450000D02*
X42050000Y-18580000D01*
%TO.N,/reset*%
X6862500Y-7550000D02*
X7500000Y-6912500D01*
X6437500Y-10975000D02*
X6437500Y-7975000D01*
X7500000Y-6912500D02*
X7500000Y-5500000D01*
X17250000Y-6490000D02*
X17250000Y-5540000D01*
X5912500Y-11500000D02*
X6437500Y-10975000D01*
X17250000Y-5540000D02*
X15260000Y-3550000D01*
X8391916Y-4562500D02*
X7500000Y-5454416D01*
X9404416Y-3550000D02*
X8391916Y-4562500D01*
X15260000Y-3550000D02*
X9404416Y-3550000D01*
X6437500Y-7975000D02*
X6862500Y-7550000D01*
%TD*%
%TA.AperFunction,Conductor*%
%TO.N,GND*%
G36*
X49731148Y-268852D02*
G01*
X49745500Y-303500D01*
X49745500Y-39696500D01*
X49731148Y-39731148D01*
X49696500Y-39745500D01*
X32053500Y-39745500D01*
X32018852Y-39731148D01*
X32004500Y-39696500D01*
X32004500Y-38773500D01*
X32018852Y-38738852D01*
X32053500Y-38724500D01*
X35474876Y-38724499D01*
X35645066Y-38724499D01*
X35647418Y-38724031D01*
X35647420Y-38724031D01*
X35683403Y-38716874D01*
X35719301Y-38709734D01*
X35723312Y-38707054D01*
X35723314Y-38707053D01*
X35799473Y-38656164D01*
X35803484Y-38653484D01*
X35859734Y-38569301D01*
X35874500Y-38495067D01*
X35874499Y-37711568D01*
X36065029Y-37711568D01*
X36065718Y-37714437D01*
X36065718Y-37714439D01*
X36080045Y-37774114D01*
X36104835Y-37877373D01*
X36183042Y-38028896D01*
X36295135Y-38157391D01*
X36297550Y-38159089D01*
X36297552Y-38159090D01*
X36364889Y-38206415D01*
X36434643Y-38255438D01*
X36437391Y-38256509D01*
X36437394Y-38256511D01*
X36517434Y-38287717D01*
X36593511Y-38317378D01*
X36723564Y-38334500D01*
X36812756Y-38334500D01*
X36939281Y-38319189D01*
X37013929Y-38290982D01*
X37096024Y-38259961D01*
X37096025Y-38259960D01*
X37098789Y-38258916D01*
X37239316Y-38162334D01*
X37241281Y-38160129D01*
X37241284Y-38160126D01*
X37350780Y-38037230D01*
X37350781Y-38037229D01*
X37352748Y-38035021D01*
X37432538Y-37884324D01*
X37437393Y-37864998D01*
X37465266Y-37754029D01*
X37474078Y-37718946D01*
X37474117Y-37711568D01*
X42865029Y-37711568D01*
X42865718Y-37714437D01*
X42865718Y-37714439D01*
X42880045Y-37774114D01*
X42904835Y-37877373D01*
X42983042Y-38028896D01*
X43095135Y-38157391D01*
X43097550Y-38159089D01*
X43097552Y-38159090D01*
X43164889Y-38206415D01*
X43234643Y-38255438D01*
X43237391Y-38256509D01*
X43237394Y-38256511D01*
X43317434Y-38287717D01*
X43393511Y-38317378D01*
X43523564Y-38334500D01*
X43612756Y-38334500D01*
X43739281Y-38319189D01*
X43813929Y-38290982D01*
X43896024Y-38259961D01*
X43896025Y-38259960D01*
X43898789Y-38258916D01*
X44039316Y-38162334D01*
X44041281Y-38160129D01*
X44041284Y-38160126D01*
X44150780Y-38037230D01*
X44150781Y-38037229D01*
X44152748Y-38035021D01*
X44232538Y-37884324D01*
X44237393Y-37864998D01*
X44265266Y-37754029D01*
X44274078Y-37718946D01*
X44274705Y-37599301D01*
X44274956Y-37551385D01*
X44274956Y-37551381D01*
X44274971Y-37548432D01*
X44273910Y-37544010D01*
X44235855Y-37385501D01*
X44235165Y-37382627D01*
X44156958Y-37231104D01*
X44044865Y-37102609D01*
X44040974Y-37099874D01*
X43925991Y-37019064D01*
X43905357Y-37004562D01*
X43902609Y-37003491D01*
X43902606Y-37003489D01*
X43772720Y-36952849D01*
X43746489Y-36942622D01*
X43616436Y-36925500D01*
X43527244Y-36925500D01*
X43400719Y-36940811D01*
X43397956Y-36941855D01*
X43243976Y-37000039D01*
X43243975Y-37000040D01*
X43241211Y-37001084D01*
X43219051Y-37016314D01*
X43164319Y-37053931D01*
X43100684Y-37097666D01*
X43098719Y-37099871D01*
X43098716Y-37099874D01*
X43073667Y-37127989D01*
X42987252Y-37224979D01*
X42907462Y-37375676D01*
X42906744Y-37378534D01*
X42906743Y-37378537D01*
X42898716Y-37410494D01*
X42865922Y-37541054D01*
X42865029Y-37711568D01*
X37474117Y-37711568D01*
X37474705Y-37599301D01*
X37474956Y-37551385D01*
X37474956Y-37551381D01*
X37474971Y-37548432D01*
X37473910Y-37544010D01*
X37435855Y-37385501D01*
X37435165Y-37382627D01*
X37356958Y-37231104D01*
X37244865Y-37102609D01*
X37240974Y-37099874D01*
X37125991Y-37019064D01*
X37105357Y-37004562D01*
X37102609Y-37003491D01*
X37102606Y-37003489D01*
X36972720Y-36952849D01*
X36946489Y-36942622D01*
X36816436Y-36925500D01*
X36727244Y-36925500D01*
X36600719Y-36940811D01*
X36597956Y-36941855D01*
X36443976Y-37000039D01*
X36443975Y-37000040D01*
X36441211Y-37001084D01*
X36419051Y-37016314D01*
X36364319Y-37053931D01*
X36300684Y-37097666D01*
X36298719Y-37099871D01*
X36298716Y-37099874D01*
X36273667Y-37127989D01*
X36187252Y-37224979D01*
X36107462Y-37375676D01*
X36106744Y-37378534D01*
X36106743Y-37378537D01*
X36098716Y-37410494D01*
X36065922Y-37541054D01*
X36065029Y-37711568D01*
X35874499Y-37711568D01*
X35874499Y-37127989D01*
X35888851Y-37093341D01*
X36315357Y-36666835D01*
X36350005Y-36652483D01*
X36354403Y-36652783D01*
X36356020Y-36653207D01*
X36431669Y-36654395D01*
X36511463Y-36655649D01*
X36511466Y-36655649D01*
X36514414Y-36655695D01*
X36517291Y-36655036D01*
X36517292Y-36655036D01*
X36665949Y-36620989D01*
X36665950Y-36620989D01*
X36668830Y-36620329D01*
X36671469Y-36619002D01*
X36671471Y-36619001D01*
X36807709Y-36550481D01*
X36807710Y-36550480D01*
X36810353Y-36549151D01*
X36866557Y-36501148D01*
X36928568Y-36448186D01*
X36928570Y-36448184D01*
X36930812Y-36446269D01*
X36962383Y-36402334D01*
X36994255Y-36382571D01*
X37011734Y-36382869D01*
X37019933Y-36384500D01*
X37022343Y-36384500D01*
X37670945Y-36384499D01*
X38320066Y-36384499D01*
X38322418Y-36384031D01*
X38322420Y-36384031D01*
X38359207Y-36376714D01*
X38394301Y-36369734D01*
X38398312Y-36367054D01*
X38398314Y-36367053D01*
X38474473Y-36316164D01*
X38478484Y-36313484D01*
X38534734Y-36229301D01*
X38549500Y-36155067D01*
X38549499Y-33604934D01*
X38547265Y-33593699D01*
X38535675Y-33535431D01*
X38534734Y-33530699D01*
X38530590Y-33524496D01*
X38520576Y-33509510D01*
X38513260Y-33472728D01*
X38521526Y-33453694D01*
X38545205Y-33420740D01*
X38558026Y-33402898D01*
X38568852Y-33375969D01*
X38616012Y-33258654D01*
X38616012Y-33258653D01*
X38617113Y-33255915D01*
X38639433Y-33099081D01*
X38639578Y-33085274D01*
X38620547Y-32928007D01*
X38612155Y-32905798D01*
X38565596Y-32782585D01*
X38565595Y-32782584D01*
X38564551Y-32779820D01*
X38479211Y-32655649D01*
X38476499Y-32651703D01*
X38476499Y-32651702D01*
X38474824Y-32649266D01*
X38472619Y-32647302D01*
X38472616Y-32647298D01*
X38358756Y-32545854D01*
X38356546Y-32543885D01*
X38216545Y-32469758D01*
X38062904Y-32431166D01*
X37982448Y-32430744D01*
X37907445Y-32430351D01*
X37907441Y-32430351D01*
X37904492Y-32430336D01*
X37901623Y-32431025D01*
X37901621Y-32431025D01*
X37753329Y-32466627D01*
X37750455Y-32467317D01*
X37747827Y-32468673D01*
X37747828Y-32468673D01*
X37612547Y-32538497D01*
X37609685Y-32539974D01*
X37607465Y-32541911D01*
X37607463Y-32541912D01*
X37599165Y-32549151D01*
X37490310Y-32644112D01*
X37488612Y-32646527D01*
X37488611Y-32646529D01*
X37463337Y-32682490D01*
X37399221Y-32773718D01*
X37398150Y-32776466D01*
X37398148Y-32776469D01*
X37373115Y-32840676D01*
X37341677Y-32921311D01*
X37321000Y-33078370D01*
X37338384Y-33235827D01*
X37347121Y-33259702D01*
X37365404Y-33309662D01*
X37363833Y-33347132D01*
X37336227Y-33372517D01*
X37319388Y-33375501D01*
X37019934Y-33375501D01*
X37017582Y-33375969D01*
X37017580Y-33375969D01*
X36982638Y-33382919D01*
X36945699Y-33390266D01*
X36941688Y-33392946D01*
X36941686Y-33392947D01*
X36905041Y-33417433D01*
X36861516Y-33446516D01*
X36838292Y-33481273D01*
X36830246Y-33493315D01*
X36805266Y-33530699D01*
X36790500Y-33604933D01*
X36790500Y-34360664D01*
X36776148Y-34395312D01*
X36741500Y-34409664D01*
X36718572Y-34403969D01*
X36702222Y-34395312D01*
X36681772Y-34384484D01*
X36528131Y-34345892D01*
X36447675Y-34345470D01*
X36372672Y-34345077D01*
X36372668Y-34345077D01*
X36369719Y-34345062D01*
X36366850Y-34345751D01*
X36366848Y-34345751D01*
X36218556Y-34381353D01*
X36215682Y-34382043D01*
X36074912Y-34454700D01*
X36072692Y-34456637D01*
X36072690Y-34456638D01*
X35955710Y-34558687D01*
X35920166Y-34570649D01*
X35886574Y-34553973D01*
X35874499Y-34521762D01*
X35874499Y-34204934D01*
X35859734Y-34130699D01*
X35850527Y-34116919D01*
X35806164Y-34050527D01*
X35803484Y-34046516D01*
X35719301Y-33990266D01*
X35645067Y-33975500D01*
X35474404Y-33975500D01*
X32053500Y-33975501D01*
X32018852Y-33961149D01*
X32004500Y-33926501D01*
X32004500Y-33693500D01*
X32018852Y-33658852D01*
X32053500Y-33644500D01*
X35474876Y-33644499D01*
X35645066Y-33644499D01*
X35647418Y-33644031D01*
X35647420Y-33644031D01*
X35701226Y-33633329D01*
X35719301Y-33629734D01*
X35723312Y-33627054D01*
X35723314Y-33627053D01*
X35799473Y-33576164D01*
X35803484Y-33573484D01*
X35834754Y-33526686D01*
X35857052Y-33493315D01*
X35859734Y-33489301D01*
X35874500Y-33415067D01*
X35874500Y-32682490D01*
X35888852Y-32647842D01*
X37161761Y-31374933D01*
X39145500Y-31374933D01*
X39145501Y-32625066D01*
X39160266Y-32699301D01*
X39216516Y-32783484D01*
X39300699Y-32839734D01*
X39374933Y-32854500D01*
X39421500Y-32854500D01*
X39456148Y-32868852D01*
X39470500Y-32903500D01*
X39470500Y-33348271D01*
X39456148Y-33382919D01*
X39445531Y-33390014D01*
X39445699Y-33390266D01*
X39361516Y-33446516D01*
X39338292Y-33481273D01*
X39330246Y-33493315D01*
X39305266Y-33530699D01*
X39290500Y-33604933D01*
X39290501Y-36155066D01*
X39290969Y-36157418D01*
X39290969Y-36157420D01*
X39293418Y-36169734D01*
X39305266Y-36229301D01*
X39307946Y-36233312D01*
X39307947Y-36233314D01*
X39331222Y-36268147D01*
X39361516Y-36313484D01*
X39445699Y-36369734D01*
X39519933Y-36384500D01*
X39522343Y-36384500D01*
X40170945Y-36384499D01*
X40820066Y-36384499D01*
X40822418Y-36384031D01*
X40822420Y-36384031D01*
X40859207Y-36376714D01*
X40894301Y-36369734D01*
X40898312Y-36367054D01*
X40898314Y-36367053D01*
X40974473Y-36316164D01*
X40978484Y-36313484D01*
X41034734Y-36229301D01*
X41049500Y-36155067D01*
X41049499Y-33604934D01*
X41049499Y-33604933D01*
X41790500Y-33604933D01*
X41790501Y-36155066D01*
X41790969Y-36157418D01*
X41790969Y-36157420D01*
X41793418Y-36169734D01*
X41805266Y-36229301D01*
X41807946Y-36233312D01*
X41807947Y-36233314D01*
X41831222Y-36268147D01*
X41861516Y-36313484D01*
X41945699Y-36369734D01*
X42019933Y-36384500D01*
X42022343Y-36384500D01*
X42670945Y-36384499D01*
X43320066Y-36384499D01*
X43322418Y-36384031D01*
X43322420Y-36384031D01*
X43359207Y-36376714D01*
X43394301Y-36369734D01*
X43398312Y-36367054D01*
X43398314Y-36367053D01*
X43474473Y-36316164D01*
X43478484Y-36313484D01*
X43534734Y-36229301D01*
X43549500Y-36155067D01*
X43549499Y-33604934D01*
X43547265Y-33593699D01*
X43535675Y-33535431D01*
X43534734Y-33530699D01*
X43530590Y-33524496D01*
X43481164Y-33450527D01*
X43478484Y-33446516D01*
X43416804Y-33405302D01*
X43398315Y-33392948D01*
X43398313Y-33392947D01*
X43394301Y-33390266D01*
X43320067Y-33375500D01*
X43317657Y-33375500D01*
X42669055Y-33375501D01*
X42019934Y-33375501D01*
X42017582Y-33375969D01*
X42017580Y-33375969D01*
X41982638Y-33382919D01*
X41945699Y-33390266D01*
X41941688Y-33392946D01*
X41941686Y-33392947D01*
X41905041Y-33417433D01*
X41861516Y-33446516D01*
X41838292Y-33481273D01*
X41830246Y-33493315D01*
X41805266Y-33530699D01*
X41790500Y-33604933D01*
X41049499Y-33604933D01*
X41047265Y-33593699D01*
X41035675Y-33535431D01*
X41034734Y-33530699D01*
X41030590Y-33524496D01*
X40981164Y-33450527D01*
X40978484Y-33446516D01*
X40916804Y-33405302D01*
X40898315Y-33392948D01*
X40898313Y-33392947D01*
X40894301Y-33390266D01*
X40820067Y-33375500D01*
X40278500Y-33375500D01*
X40243852Y-33361148D01*
X40229500Y-33326500D01*
X40229500Y-32903499D01*
X40243852Y-32868851D01*
X40278500Y-32854499D01*
X40325066Y-32854499D01*
X40327418Y-32854031D01*
X40327420Y-32854031D01*
X40366902Y-32846178D01*
X40399301Y-32839734D01*
X40403312Y-32837054D01*
X40403314Y-32837053D01*
X40479473Y-32786164D01*
X40483484Y-32783484D01*
X40539734Y-32699301D01*
X40554500Y-32625067D01*
X40554499Y-31993096D01*
X41340729Y-31993096D01*
X41358113Y-32150553D01*
X41412553Y-32299319D01*
X41414198Y-32301767D01*
X41499261Y-32428355D01*
X41499264Y-32428358D01*
X41500908Y-32430805D01*
X41503095Y-32432795D01*
X41599287Y-32520322D01*
X41618076Y-32537419D01*
X41757293Y-32613008D01*
X41910522Y-32653207D01*
X41998694Y-32654592D01*
X42065965Y-32655649D01*
X42065968Y-32655649D01*
X42068916Y-32655695D01*
X42071793Y-32655036D01*
X42071794Y-32655036D01*
X42220451Y-32620989D01*
X42220452Y-32620989D01*
X42223332Y-32620329D01*
X42225971Y-32619002D01*
X42225973Y-32619001D01*
X42344445Y-32559416D01*
X42364855Y-32549151D01*
X42367099Y-32547235D01*
X42369388Y-32545714D01*
X42406190Y-32538497D01*
X42437316Y-32559416D01*
X42445501Y-32586529D01*
X42445501Y-32625066D01*
X42460266Y-32699301D01*
X42516516Y-32783484D01*
X42600699Y-32839734D01*
X42674933Y-32854500D01*
X42677343Y-32854500D01*
X43150690Y-32854499D01*
X43625066Y-32854499D01*
X43627418Y-32854031D01*
X43627420Y-32854031D01*
X43666902Y-32846178D01*
X43699301Y-32839734D01*
X43703312Y-32837054D01*
X43703314Y-32837053D01*
X43779473Y-32786164D01*
X43783484Y-32783484D01*
X43839734Y-32699301D01*
X43854500Y-32625067D01*
X43854499Y-31406974D01*
X44682508Y-31406974D01*
X44699892Y-31564431D01*
X44754332Y-31713197D01*
X44755977Y-31715645D01*
X44841040Y-31842233D01*
X44841043Y-31842236D01*
X44842687Y-31844683D01*
X44844874Y-31846673D01*
X44885236Y-31883399D01*
X44959855Y-31951297D01*
X45031452Y-31990171D01*
X45066676Y-32009296D01*
X45090277Y-32038441D01*
X45092295Y-32052358D01*
X45092295Y-33003319D01*
X45092626Y-33005306D01*
X45092626Y-33005309D01*
X45094835Y-33018580D01*
X45095500Y-33026625D01*
X45095500Y-36734775D01*
X45094402Y-36745089D01*
X45090680Y-36762376D01*
X45091157Y-36766402D01*
X45095160Y-36800225D01*
X45095500Y-36805985D01*
X45095500Y-36812024D01*
X45095831Y-36814012D01*
X45098969Y-36832864D01*
X45099294Y-36835151D01*
X45105530Y-36887841D01*
X45107284Y-36891493D01*
X45108414Y-36895383D01*
X45108253Y-36895430D01*
X45108861Y-36897353D01*
X45109020Y-36897299D01*
X45110331Y-36901128D01*
X45110996Y-36905126D01*
X45136210Y-36951856D01*
X45137228Y-36953853D01*
X45160219Y-37001732D01*
X45162199Y-37004088D01*
X45162201Y-37004090D01*
X45163139Y-37005206D01*
X45163148Y-37005215D01*
X45163705Y-37005878D01*
X45163814Y-37006008D01*
X45163804Y-37006017D01*
X45166414Y-37009683D01*
X45166585Y-37009550D01*
X45169066Y-37012749D01*
X45170990Y-37016314D01*
X45173965Y-37019064D01*
X45211684Y-37053931D01*
X45213071Y-37055265D01*
X45545992Y-37388186D01*
X45560344Y-37422834D01*
X45557226Y-37440033D01*
X45553197Y-37450780D01*
X45553195Y-37450786D01*
X45552119Y-37453658D01*
X45551788Y-37456708D01*
X45551787Y-37456711D01*
X45548944Y-37482880D01*
X45545500Y-37514585D01*
X45545501Y-38096414D01*
X45552119Y-38157342D01*
X45602217Y-38290982D01*
X45687811Y-38405189D01*
X45802018Y-38490783D01*
X45935658Y-38540881D01*
X45938708Y-38541212D01*
X45938711Y-38541213D01*
X45964880Y-38544056D01*
X45996585Y-38547500D01*
X46499810Y-38547500D01*
X47003414Y-38547499D01*
X47064342Y-38540881D01*
X47197982Y-38490783D01*
X47312189Y-38405189D01*
X47397783Y-38290982D01*
X47447881Y-38157342D01*
X47448214Y-38154282D01*
X47454356Y-38097737D01*
X47454500Y-38096415D01*
X47454499Y-37514586D01*
X47447881Y-37453658D01*
X47397783Y-37320018D01*
X47312189Y-37205811D01*
X47197982Y-37120217D01*
X47064342Y-37070119D01*
X47061292Y-37069788D01*
X47061289Y-37069787D01*
X47035120Y-37066944D01*
X47003415Y-37063500D01*
X46959952Y-37063500D01*
X46314991Y-37063501D01*
X46280343Y-37049149D01*
X45987342Y-36756148D01*
X45972990Y-36721500D01*
X45987342Y-36686852D01*
X46021990Y-36672500D01*
X46953434Y-36672499D01*
X47003414Y-36672499D01*
X47064342Y-36665881D01*
X47197982Y-36615783D01*
X47312189Y-36530189D01*
X47397783Y-36415982D01*
X47447881Y-36282342D01*
X47454500Y-36221415D01*
X47454499Y-35639586D01*
X47447881Y-35578658D01*
X47397783Y-35445018D01*
X47312189Y-35330811D01*
X47197982Y-35245217D01*
X47064342Y-35195119D01*
X47061292Y-35194788D01*
X47061289Y-35194787D01*
X47035120Y-35191944D01*
X47003415Y-35188500D01*
X46928500Y-35188500D01*
X46893852Y-35174148D01*
X46879500Y-35139500D01*
X46879500Y-34786500D01*
X46893852Y-34751852D01*
X46928500Y-34737500D01*
X46997756Y-34737500D01*
X47029727Y-34734027D01*
X47056395Y-34731130D01*
X47056398Y-34731129D01*
X47059448Y-34730798D01*
X47145500Y-34698539D01*
X47191492Y-34681298D01*
X47191494Y-34681297D01*
X47194764Y-34680071D01*
X47310404Y-34593404D01*
X47339956Y-34553973D01*
X47394975Y-34480561D01*
X47394976Y-34480560D01*
X47397071Y-34477764D01*
X47406225Y-34453347D01*
X47431521Y-34385867D01*
X47447798Y-34342448D01*
X47454500Y-34280756D01*
X47454500Y-33660244D01*
X47448753Y-33607343D01*
X47448130Y-33601605D01*
X47448129Y-33601602D01*
X47447798Y-33598552D01*
X47413975Y-33508329D01*
X47398298Y-33466508D01*
X47398297Y-33466506D01*
X47397071Y-33463236D01*
X47360971Y-33415067D01*
X47312498Y-33350390D01*
X47310404Y-33347596D01*
X47194764Y-33260929D01*
X47191494Y-33259703D01*
X47191492Y-33259702D01*
X47135206Y-33238602D01*
X47059448Y-33210202D01*
X47056398Y-33209871D01*
X47056395Y-33209870D01*
X47028547Y-33206845D01*
X46997756Y-33203500D01*
X46002244Y-33203500D01*
X45971453Y-33206845D01*
X45943605Y-33209870D01*
X45943602Y-33209871D01*
X45940552Y-33210202D01*
X45920700Y-33217644D01*
X45883219Y-33216368D01*
X45857618Y-33188962D01*
X45854500Y-33171762D01*
X45854500Y-32944238D01*
X45868852Y-32909590D01*
X45903500Y-32895238D01*
X45920700Y-32898356D01*
X45940552Y-32905798D01*
X45943602Y-32906129D01*
X45943605Y-32906130D01*
X45970273Y-32909027D01*
X46002244Y-32912500D01*
X46997756Y-32912500D01*
X47029727Y-32909027D01*
X47056395Y-32906130D01*
X47056398Y-32906129D01*
X47059448Y-32905798D01*
X47158003Y-32868852D01*
X47191492Y-32856298D01*
X47191494Y-32856297D01*
X47194764Y-32855071D01*
X47213972Y-32840676D01*
X47307610Y-32770498D01*
X47310404Y-32768404D01*
X47390004Y-32662194D01*
X47394975Y-32655561D01*
X47394976Y-32655560D01*
X47397071Y-32652764D01*
X47398383Y-32649266D01*
X47432065Y-32559416D01*
X47447798Y-32517448D01*
X47454500Y-32455756D01*
X47454500Y-31835244D01*
X47447798Y-31773552D01*
X47407983Y-31667343D01*
X47398296Y-31641503D01*
X47398295Y-31641501D01*
X47397071Y-31638236D01*
X47394980Y-31635446D01*
X47393301Y-31632379D01*
X47394882Y-31631513D01*
X47387077Y-31600940D01*
X47400931Y-31573263D01*
X47911011Y-31063183D01*
X47919076Y-31056669D01*
X47933940Y-31047071D01*
X47957541Y-31017133D01*
X47961373Y-31012821D01*
X47965638Y-31008556D01*
X47977919Y-30991371D01*
X47979304Y-30989527D01*
X48009647Y-30951036D01*
X48009648Y-30951035D01*
X48012156Y-30947853D01*
X48013499Y-30944028D01*
X48015448Y-30940483D01*
X48015596Y-30940564D01*
X48016528Y-30938771D01*
X48016378Y-30938697D01*
X48018159Y-30935061D01*
X48020514Y-30931766D01*
X48035729Y-30880890D01*
X48036443Y-30878696D01*
X48052997Y-30831556D01*
X48054018Y-30828649D01*
X48054500Y-30823084D01*
X48054513Y-30823085D01*
X48055261Y-30818648D01*
X48055045Y-30818621D01*
X48055553Y-30814602D01*
X48056713Y-30810722D01*
X48056132Y-30795921D01*
X48054538Y-30755363D01*
X48054500Y-30753439D01*
X48054500Y-30085262D01*
X48068852Y-30050614D01*
X48103500Y-30036262D01*
X48126881Y-30042200D01*
X48204692Y-30084448D01*
X48257293Y-30113008D01*
X48410522Y-30153207D01*
X48498694Y-30154592D01*
X48565965Y-30155649D01*
X48565968Y-30155649D01*
X48568916Y-30155695D01*
X48571793Y-30155036D01*
X48571794Y-30155036D01*
X48720451Y-30120989D01*
X48720452Y-30120989D01*
X48723332Y-30120329D01*
X48725971Y-30119002D01*
X48725973Y-30119001D01*
X48862211Y-30050481D01*
X48862212Y-30050480D01*
X48864855Y-30049151D01*
X48966770Y-29962107D01*
X48983072Y-29948184D01*
X48983073Y-29948183D01*
X48985314Y-29946269D01*
X49031961Y-29881353D01*
X49076030Y-29820025D01*
X49076031Y-29820023D01*
X49077755Y-29817624D01*
X49136842Y-29670641D01*
X49159162Y-29513807D01*
X49159307Y-29500000D01*
X49140276Y-29342733D01*
X49124386Y-29300683D01*
X49085325Y-29197311D01*
X49085324Y-29197310D01*
X49084280Y-29194546D01*
X49040781Y-29131254D01*
X49032984Y-29094570D01*
X49053409Y-29063118D01*
X49081163Y-29054500D01*
X49131834Y-29054500D01*
X49197038Y-29044173D01*
X49222749Y-29040101D01*
X49222750Y-29040101D01*
X49226555Y-29039498D01*
X49318081Y-28992863D01*
X49337289Y-28983076D01*
X49337290Y-28983075D01*
X49340723Y-28981326D01*
X49431326Y-28890723D01*
X49440406Y-28872904D01*
X49487748Y-28779989D01*
X49489498Y-28776555D01*
X49504500Y-28681834D01*
X49504500Y-27593166D01*
X49489498Y-27498445D01*
X49447589Y-27416194D01*
X49433076Y-27387711D01*
X49433075Y-27387710D01*
X49431326Y-27384277D01*
X49340723Y-27293674D01*
X49337290Y-27291925D01*
X49337289Y-27291924D01*
X49241555Y-27243145D01*
X49226555Y-27235502D01*
X49222750Y-27234899D01*
X49222749Y-27234899D01*
X49192510Y-27230110D01*
X49131834Y-27220500D01*
X48768166Y-27220500D01*
X48707490Y-27230110D01*
X48677251Y-27234899D01*
X48677250Y-27234899D01*
X48673445Y-27235502D01*
X48658445Y-27243145D01*
X48591277Y-27277369D01*
X48553889Y-27280312D01*
X48525372Y-27255956D01*
X48522429Y-27218568D01*
X48534383Y-27199062D01*
X48939593Y-26793852D01*
X48974241Y-26779500D01*
X49131834Y-26779500D01*
X49192510Y-26769890D01*
X49222749Y-26765101D01*
X49222750Y-26765101D01*
X49226555Y-26764498D01*
X49283639Y-26735412D01*
X49337289Y-26708076D01*
X49337290Y-26708075D01*
X49340723Y-26706326D01*
X49431326Y-26615723D01*
X49447015Y-26584933D01*
X49472611Y-26534697D01*
X49489498Y-26501555D01*
X49493077Y-26478961D01*
X49497498Y-26451044D01*
X49504500Y-26406834D01*
X49504500Y-25318166D01*
X49489498Y-25223445D01*
X49442926Y-25132043D01*
X49433076Y-25112711D01*
X49433075Y-25112710D01*
X49431326Y-25109277D01*
X49340723Y-25018674D01*
X49337290Y-25016925D01*
X49337289Y-25016924D01*
X49251829Y-24973380D01*
X49226555Y-24960502D01*
X49222750Y-24959899D01*
X49222749Y-24959899D01*
X49186695Y-24954189D01*
X49131834Y-24945500D01*
X48768166Y-24945500D01*
X48713305Y-24954189D01*
X48676840Y-24945434D01*
X48670993Y-24940440D01*
X48558683Y-24828130D01*
X48553838Y-24824372D01*
X48416058Y-24742890D01*
X48410435Y-24740457D01*
X48263360Y-24697726D01*
X48255945Y-24698545D01*
X48254000Y-24700973D01*
X48254000Y-26067500D01*
X48239648Y-26102148D01*
X48205000Y-26116500D01*
X47795000Y-26116500D01*
X47760352Y-26102148D01*
X47746000Y-26067500D01*
X47746000Y-24704754D01*
X47743145Y-24697862D01*
X47740271Y-24696671D01*
X47589565Y-24740457D01*
X47583942Y-24742890D01*
X47446162Y-24824372D01*
X47441317Y-24828130D01*
X47329007Y-24940440D01*
X47294359Y-24954792D01*
X47286697Y-24954189D01*
X47231834Y-24945500D01*
X46868166Y-24945500D01*
X46813305Y-24954189D01*
X46777251Y-24959899D01*
X46777250Y-24959899D01*
X46773445Y-24960502D01*
X46748171Y-24973380D01*
X46662711Y-25016924D01*
X46662710Y-25016925D01*
X46659277Y-25018674D01*
X46568674Y-25109277D01*
X46566922Y-25112715D01*
X46564657Y-25115833D01*
X46562820Y-25114499D01*
X46539913Y-25134012D01*
X46512079Y-25133268D01*
X46511774Y-25134484D01*
X46358133Y-25095892D01*
X46277677Y-25095470D01*
X46202674Y-25095077D01*
X46202670Y-25095077D01*
X46199721Y-25095062D01*
X46196852Y-25095751D01*
X46196850Y-25095751D01*
X46048779Y-25131300D01*
X46045684Y-25132043D01*
X46043056Y-25133399D01*
X46043057Y-25133399D01*
X45922737Y-25195501D01*
X45904914Y-25204700D01*
X45902694Y-25206637D01*
X45902692Y-25206638D01*
X45883426Y-25223445D01*
X45785539Y-25308838D01*
X45783841Y-25311253D01*
X45783840Y-25311255D01*
X45758939Y-25346686D01*
X45694450Y-25438444D01*
X45693379Y-25441192D01*
X45693377Y-25441195D01*
X45671072Y-25498406D01*
X45636906Y-25586037D01*
X45627735Y-25655695D01*
X45622571Y-25694927D01*
X45616229Y-25743096D01*
X45633613Y-25900553D01*
X45688053Y-26049319D01*
X45689698Y-26051767D01*
X45774761Y-26178355D01*
X45774764Y-26178358D01*
X45776408Y-26180805D01*
X45778595Y-26182795D01*
X45881105Y-26276071D01*
X45893576Y-26287419D01*
X46032793Y-26363008D01*
X46186022Y-26403207D01*
X46274194Y-26404592D01*
X46341465Y-26405649D01*
X46341468Y-26405649D01*
X46344416Y-26405695D01*
X46347293Y-26405036D01*
X46347294Y-26405036D01*
X46438907Y-26384054D01*
X46475885Y-26390308D01*
X46498243Y-26424152D01*
X46506924Y-26478961D01*
X46510502Y-26501555D01*
X46527389Y-26534697D01*
X46552986Y-26584933D01*
X46568674Y-26615723D01*
X46659277Y-26706326D01*
X46662710Y-26708075D01*
X46662711Y-26708076D01*
X46716361Y-26735412D01*
X46773445Y-26764498D01*
X46777250Y-26765101D01*
X46777251Y-26765101D01*
X46807490Y-26769890D01*
X46868166Y-26779500D01*
X47231834Y-26779500D01*
X47286695Y-26770811D01*
X47323160Y-26779566D01*
X47329007Y-26784560D01*
X47441317Y-26896870D01*
X47446162Y-26900628D01*
X47586600Y-26983682D01*
X47586045Y-26984620D01*
X47609478Y-27008790D01*
X47608897Y-27046288D01*
X47598571Y-27061486D01*
X47438989Y-27221068D01*
X47430924Y-27227582D01*
X47416060Y-27237180D01*
X47413553Y-27240361D01*
X47410796Y-27242869D01*
X47375511Y-27255574D01*
X47355572Y-27250287D01*
X47341555Y-27243145D01*
X47326555Y-27235502D01*
X47322750Y-27234899D01*
X47322749Y-27234899D01*
X47292510Y-27230110D01*
X47231834Y-27220500D01*
X46868166Y-27220500D01*
X46807490Y-27230110D01*
X46777251Y-27234899D01*
X46777250Y-27234899D01*
X46773445Y-27235502D01*
X46758445Y-27243145D01*
X46662711Y-27291924D01*
X46662710Y-27291925D01*
X46659277Y-27293674D01*
X46568674Y-27384277D01*
X46566925Y-27387710D01*
X46566924Y-27387711D01*
X46552411Y-27416194D01*
X46510502Y-27498445D01*
X46495500Y-27593166D01*
X46495500Y-28681834D01*
X46510502Y-28776555D01*
X46512252Y-28779989D01*
X46559595Y-28872904D01*
X46568674Y-28890723D01*
X46656148Y-28978197D01*
X46670500Y-29012845D01*
X46670500Y-29528167D01*
X46656148Y-29562815D01*
X45471853Y-30747110D01*
X45437205Y-30761462D01*
X45430240Y-30760600D01*
X45430207Y-30760860D01*
X45427279Y-30760490D01*
X45424412Y-30759770D01*
X45344785Y-30759353D01*
X45268953Y-30758955D01*
X45268949Y-30758955D01*
X45266000Y-30758940D01*
X45263131Y-30759629D01*
X45263129Y-30759629D01*
X45114837Y-30795231D01*
X45111963Y-30795921D01*
X44971193Y-30868578D01*
X44968973Y-30870515D01*
X44968971Y-30870516D01*
X44880319Y-30947853D01*
X44851818Y-30972716D01*
X44850120Y-30975131D01*
X44850119Y-30975133D01*
X44822194Y-31014866D01*
X44760729Y-31102322D01*
X44759658Y-31105070D01*
X44759656Y-31105073D01*
X44737092Y-31162947D01*
X44703185Y-31249915D01*
X44702800Y-31252840D01*
X44690550Y-31345892D01*
X44682508Y-31406974D01*
X43854499Y-31406974D01*
X43854499Y-31374934D01*
X43839734Y-31300699D01*
X43831008Y-31287639D01*
X43786164Y-31220527D01*
X43783484Y-31216516D01*
X43699301Y-31160266D01*
X43625067Y-31145500D01*
X43578500Y-31145500D01*
X43543852Y-31131148D01*
X43529500Y-31096500D01*
X43529500Y-30383075D01*
X43543852Y-30348427D01*
X43549103Y-30343873D01*
X43560404Y-30335404D01*
X43562498Y-30332610D01*
X43644975Y-30222561D01*
X43644976Y-30222560D01*
X43647071Y-30219764D01*
X43697798Y-30084448D01*
X43704500Y-30022756D01*
X43704500Y-28977244D01*
X43697798Y-28915552D01*
X43647071Y-28780236D01*
X43560404Y-28664596D01*
X43557610Y-28662502D01*
X43447561Y-28580025D01*
X43447560Y-28580024D01*
X43444764Y-28577929D01*
X43441494Y-28576703D01*
X43441492Y-28576702D01*
X43359278Y-28545882D01*
X43331872Y-28520281D01*
X43330596Y-28482800D01*
X43359278Y-28454118D01*
X43441492Y-28423298D01*
X43441494Y-28423297D01*
X43444764Y-28422071D01*
X43450593Y-28417703D01*
X43557610Y-28337498D01*
X43560404Y-28335404D01*
X43647071Y-28219764D01*
X43697798Y-28084448D01*
X43704500Y-28022756D01*
X43704500Y-26977244D01*
X43697798Y-26915552D01*
X43654113Y-26799020D01*
X43648298Y-26783508D01*
X43648297Y-26783506D01*
X43647071Y-26780236D01*
X43640008Y-26770811D01*
X43562498Y-26667390D01*
X43560404Y-26664596D01*
X43498023Y-26617844D01*
X43447561Y-26580025D01*
X43447560Y-26580024D01*
X43444764Y-26577929D01*
X43441494Y-26576703D01*
X43441492Y-26576702D01*
X43361300Y-26546640D01*
X43333894Y-26521039D01*
X43329500Y-26500758D01*
X43329500Y-26499242D01*
X43343852Y-26464594D01*
X43361300Y-26453360D01*
X43441492Y-26423298D01*
X43441494Y-26423297D01*
X43444764Y-26422071D01*
X43450031Y-26418124D01*
X43557610Y-26337498D01*
X43560404Y-26335404D01*
X43568359Y-26324790D01*
X43644975Y-26222561D01*
X43644976Y-26222560D01*
X43647071Y-26219764D01*
X43653464Y-26202712D01*
X43679195Y-26134073D01*
X43704796Y-26106667D01*
X43742277Y-26105391D01*
X43748459Y-26108211D01*
X43757293Y-26113008D01*
X43910522Y-26153207D01*
X43998694Y-26154592D01*
X44065965Y-26155649D01*
X44065968Y-26155649D01*
X44068916Y-26155695D01*
X44071793Y-26155036D01*
X44071794Y-26155036D01*
X44220451Y-26120989D01*
X44220452Y-26120989D01*
X44223332Y-26120329D01*
X44225971Y-26119002D01*
X44225973Y-26119001D01*
X44362211Y-26050481D01*
X44362212Y-26050480D01*
X44364855Y-26049151D01*
X44450210Y-25976251D01*
X44483072Y-25948184D01*
X44483073Y-25948183D01*
X44485314Y-25946269D01*
X44548598Y-25858200D01*
X44576030Y-25820025D01*
X44576031Y-25820023D01*
X44577755Y-25817624D01*
X44636842Y-25670641D01*
X44659162Y-25513807D01*
X44659307Y-25500000D01*
X44640276Y-25342733D01*
X44639232Y-25339970D01*
X44585325Y-25197311D01*
X44585324Y-25197310D01*
X44584280Y-25194546D01*
X44494553Y-25063992D01*
X44492348Y-25062028D01*
X44492345Y-25062024D01*
X44378485Y-24960580D01*
X44376275Y-24958611D01*
X44236274Y-24884484D01*
X44082633Y-24845892D01*
X44002177Y-24845470D01*
X43927174Y-24845077D01*
X43927170Y-24845077D01*
X43924221Y-24845062D01*
X43921352Y-24845751D01*
X43921350Y-24845751D01*
X43807776Y-24873018D01*
X43770184Y-24882043D01*
X43767556Y-24883399D01*
X43767557Y-24883399D01*
X43748008Y-24893489D01*
X43710637Y-24896627D01*
X43681992Y-24872421D01*
X43679652Y-24867147D01*
X43648298Y-24783508D01*
X43648297Y-24783506D01*
X43647071Y-24780236D01*
X43629191Y-24756378D01*
X43562498Y-24667390D01*
X43560404Y-24664596D01*
X43444764Y-24577929D01*
X43441494Y-24576703D01*
X43441492Y-24576702D01*
X43379300Y-24553388D01*
X43309448Y-24527202D01*
X43306398Y-24526871D01*
X43306395Y-24526870D01*
X43279727Y-24523973D01*
X43247756Y-24520500D01*
X42652244Y-24520500D01*
X42620273Y-24523973D01*
X42593605Y-24526870D01*
X42593602Y-24526871D01*
X42590552Y-24527202D01*
X42520700Y-24553388D01*
X42458508Y-24576702D01*
X42458506Y-24576703D01*
X42455236Y-24577929D01*
X42339596Y-24664596D01*
X42337502Y-24667390D01*
X42270810Y-24756378D01*
X42252929Y-24780236D01*
X42251703Y-24783506D01*
X42251702Y-24783508D01*
X42239294Y-24816608D01*
X42202202Y-24915552D01*
X42201871Y-24918602D01*
X42201870Y-24918605D01*
X42199498Y-24940440D01*
X42195500Y-24977244D01*
X42195500Y-26022756D01*
X42198386Y-26049319D01*
X42201013Y-26073500D01*
X42202202Y-26084448D01*
X42228291Y-26154041D01*
X42246537Y-26202712D01*
X42252929Y-26219764D01*
X42255024Y-26222560D01*
X42255025Y-26222561D01*
X42331641Y-26324790D01*
X42339596Y-26335404D01*
X42342390Y-26337498D01*
X42449970Y-26418124D01*
X42455236Y-26422071D01*
X42458506Y-26423297D01*
X42458508Y-26423298D01*
X42538700Y-26453360D01*
X42566106Y-26478961D01*
X42570500Y-26499242D01*
X42570500Y-26500758D01*
X42556148Y-26535406D01*
X42538700Y-26546640D01*
X42458508Y-26576702D01*
X42458506Y-26576703D01*
X42455236Y-26577929D01*
X42452440Y-26580024D01*
X42452439Y-26580025D01*
X42401977Y-26617844D01*
X42339596Y-26664596D01*
X42337502Y-26667390D01*
X42259993Y-26770811D01*
X42252929Y-26780236D01*
X42251703Y-26783506D01*
X42251702Y-26783508D01*
X42245887Y-26799020D01*
X42202202Y-26915552D01*
X42195500Y-26977244D01*
X42195500Y-28022756D01*
X42202202Y-28084448D01*
X42252929Y-28219764D01*
X42339596Y-28335404D01*
X42342390Y-28337498D01*
X42449408Y-28417703D01*
X42455236Y-28422071D01*
X42458506Y-28423297D01*
X42458508Y-28423298D01*
X42540722Y-28454118D01*
X42568128Y-28479719D01*
X42569404Y-28517200D01*
X42540722Y-28545882D01*
X42458508Y-28576702D01*
X42458506Y-28576703D01*
X42455236Y-28577929D01*
X42452440Y-28580024D01*
X42452439Y-28580025D01*
X42342390Y-28662502D01*
X42339596Y-28664596D01*
X42252929Y-28780236D01*
X42202202Y-28915552D01*
X42195500Y-28977244D01*
X42195500Y-30022756D01*
X42202202Y-30084448D01*
X42252929Y-30219764D01*
X42255024Y-30222560D01*
X42255025Y-30222561D01*
X42337502Y-30332610D01*
X42339596Y-30335404D01*
X42342390Y-30337498D01*
X42430457Y-30403500D01*
X42455236Y-30422071D01*
X42458506Y-30423297D01*
X42458508Y-30423298D01*
X42510074Y-30442628D01*
X42590552Y-30472798D01*
X42593602Y-30473129D01*
X42593605Y-30473130D01*
X42620273Y-30476027D01*
X42652244Y-30479500D01*
X42721500Y-30479500D01*
X42756148Y-30493852D01*
X42770500Y-30528500D01*
X42770500Y-31096501D01*
X42756148Y-31131149D01*
X42721500Y-31145501D01*
X42674934Y-31145501D01*
X42672582Y-31145969D01*
X42672580Y-31145969D01*
X42643933Y-31151667D01*
X42600699Y-31160266D01*
X42596688Y-31162946D01*
X42596686Y-31162947D01*
X42596685Y-31162948D01*
X42516516Y-31216516D01*
X42513836Y-31220527D01*
X42468993Y-31287639D01*
X42460266Y-31300699D01*
X42445500Y-31374933D01*
X42445500Y-31413875D01*
X42431148Y-31448523D01*
X42396500Y-31462875D01*
X42373573Y-31457181D01*
X42236274Y-31384484D01*
X42082633Y-31345892D01*
X42002177Y-31345470D01*
X41927174Y-31345077D01*
X41927170Y-31345077D01*
X41924221Y-31345062D01*
X41921352Y-31345751D01*
X41921350Y-31345751D01*
X41809654Y-31372567D01*
X41770184Y-31382043D01*
X41767556Y-31383399D01*
X41767557Y-31383399D01*
X41638005Y-31450266D01*
X41629414Y-31454700D01*
X41627194Y-31456637D01*
X41627192Y-31456638D01*
X41530858Y-31540676D01*
X41510039Y-31558838D01*
X41508341Y-31561253D01*
X41508340Y-31561255D01*
X41478788Y-31603303D01*
X41418950Y-31688444D01*
X41417879Y-31691192D01*
X41417877Y-31691195D01*
X41380698Y-31786554D01*
X41361406Y-31836037D01*
X41361021Y-31838962D01*
X41346047Y-31952705D01*
X41340729Y-31993096D01*
X40554499Y-31993096D01*
X40554499Y-31374934D01*
X40539734Y-31300699D01*
X40531008Y-31287639D01*
X40486164Y-31220527D01*
X40483484Y-31216516D01*
X40399301Y-31160266D01*
X40356071Y-31151667D01*
X40324889Y-31130832D01*
X40317573Y-31094049D01*
X40338408Y-31062867D01*
X40343615Y-31059834D01*
X40362215Y-31050479D01*
X40362216Y-31050478D01*
X40364855Y-31049151D01*
X40477064Y-30953315D01*
X40483072Y-30948184D01*
X40483073Y-30948183D01*
X40485314Y-30946269D01*
X40577755Y-30817624D01*
X40603467Y-30753663D01*
X40629706Y-30726868D01*
X40653925Y-30723194D01*
X40748399Y-30732873D01*
X40750883Y-30733000D01*
X40786253Y-30733000D01*
X40793145Y-30730145D01*
X40796000Y-30723253D01*
X40796000Y-30723252D01*
X41304000Y-30723252D01*
X41306855Y-30730144D01*
X41313747Y-30732999D01*
X41349101Y-30732999D01*
X41351620Y-30732868D01*
X41453389Y-30722309D01*
X41458614Y-30721181D01*
X41621026Y-30666997D01*
X41626156Y-30664594D01*
X41771612Y-30574582D01*
X41776049Y-30571065D01*
X41896899Y-30450005D01*
X41900403Y-30445569D01*
X41990162Y-30299952D01*
X41992556Y-30294818D01*
X42046460Y-30132302D01*
X42047577Y-30127096D01*
X42057873Y-30026601D01*
X42058000Y-30024117D01*
X42058000Y-29763747D01*
X42055145Y-29756855D01*
X42048253Y-29754000D01*
X41313747Y-29754000D01*
X41306855Y-29756855D01*
X41304000Y-29763747D01*
X41304000Y-30723252D01*
X40796000Y-30723252D01*
X40796000Y-29763747D01*
X40793145Y-29756855D01*
X40786253Y-29754000D01*
X40051748Y-29754000D01*
X40044856Y-29756855D01*
X40042001Y-29763747D01*
X40042001Y-29796422D01*
X40027649Y-29831070D01*
X39992744Y-29845421D01*
X39927174Y-29845077D01*
X39927170Y-29845077D01*
X39924221Y-29845062D01*
X39921352Y-29845751D01*
X39921350Y-29845751D01*
X39773058Y-29881353D01*
X39770184Y-29882043D01*
X39767556Y-29883399D01*
X39767557Y-29883399D01*
X39645749Y-29946269D01*
X39629414Y-29954700D01*
X39627194Y-29956637D01*
X39627192Y-29956638D01*
X39620923Y-29962107D01*
X39510039Y-30058838D01*
X39508341Y-30061253D01*
X39508340Y-30061255D01*
X39471441Y-30113757D01*
X39418950Y-30188444D01*
X39417879Y-30191192D01*
X39417877Y-30191195D01*
X39397318Y-30243927D01*
X39361406Y-30336037D01*
X39360504Y-30342891D01*
X39343358Y-30473130D01*
X39340729Y-30493096D01*
X39358113Y-30650553D01*
X39412553Y-30799319D01*
X39428523Y-30823084D01*
X39462171Y-30873158D01*
X39470500Y-30900488D01*
X39470500Y-31096501D01*
X39456148Y-31131149D01*
X39421500Y-31145501D01*
X39374934Y-31145501D01*
X39372582Y-31145969D01*
X39372580Y-31145969D01*
X39343933Y-31151667D01*
X39300699Y-31160266D01*
X39296688Y-31162946D01*
X39296686Y-31162947D01*
X39296685Y-31162948D01*
X39216516Y-31216516D01*
X39213836Y-31220527D01*
X39168993Y-31287639D01*
X39160266Y-31300699D01*
X39145500Y-31374933D01*
X37161761Y-31374933D01*
X39236011Y-29300683D01*
X39244076Y-29294169D01*
X39258940Y-29284571D01*
X39282541Y-29254633D01*
X39286373Y-29250321D01*
X39290638Y-29246056D01*
X39297644Y-29236253D01*
X40042000Y-29236253D01*
X40044855Y-29243145D01*
X40051747Y-29246000D01*
X40786253Y-29246000D01*
X40793145Y-29243145D01*
X40796000Y-29236253D01*
X41304000Y-29236253D01*
X41306855Y-29243145D01*
X41313747Y-29246000D01*
X42048252Y-29246000D01*
X42055144Y-29243145D01*
X42057999Y-29236253D01*
X42057999Y-28975899D01*
X42057868Y-28973380D01*
X42047309Y-28871611D01*
X42046181Y-28866386D01*
X41991997Y-28703974D01*
X41989594Y-28698844D01*
X41899582Y-28553388D01*
X41896069Y-28548956D01*
X41881688Y-28534600D01*
X41867306Y-28499964D01*
X41881628Y-28465303D01*
X41896899Y-28450005D01*
X41900403Y-28445569D01*
X41990162Y-28299952D01*
X41992556Y-28294818D01*
X42046460Y-28132302D01*
X42047577Y-28127096D01*
X42057873Y-28026601D01*
X42058000Y-28024117D01*
X42058000Y-27763747D01*
X42055145Y-27756855D01*
X42048253Y-27754000D01*
X41313747Y-27754000D01*
X41306855Y-27756855D01*
X41304000Y-27763747D01*
X41304000Y-29236253D01*
X40796000Y-29236253D01*
X40796000Y-27763747D01*
X40793145Y-27756855D01*
X40786253Y-27754000D01*
X40051748Y-27754000D01*
X40044856Y-27756855D01*
X40042001Y-27763747D01*
X40042001Y-28024101D01*
X40042132Y-28026620D01*
X40052691Y-28128389D01*
X40053819Y-28133614D01*
X40108003Y-28296026D01*
X40110406Y-28301156D01*
X40200418Y-28446612D01*
X40203931Y-28451044D01*
X40218312Y-28465400D01*
X40232694Y-28500036D01*
X40218372Y-28534697D01*
X40203101Y-28549995D01*
X40199597Y-28554431D01*
X40109838Y-28700048D01*
X40107444Y-28705182D01*
X40053540Y-28867698D01*
X40052423Y-28872904D01*
X40042127Y-28973399D01*
X40042000Y-28975883D01*
X40042000Y-29236253D01*
X39297644Y-29236253D01*
X39302919Y-29228871D01*
X39304304Y-29227027D01*
X39334647Y-29188536D01*
X39334648Y-29188535D01*
X39337156Y-29185353D01*
X39338499Y-29181528D01*
X39340448Y-29177983D01*
X39340596Y-29178064D01*
X39341528Y-29176271D01*
X39341378Y-29176197D01*
X39343159Y-29172561D01*
X39345514Y-29169266D01*
X39360729Y-29118390D01*
X39361443Y-29116196D01*
X39377997Y-29069056D01*
X39379018Y-29066149D01*
X39379500Y-29060584D01*
X39379513Y-29060585D01*
X39380261Y-29056148D01*
X39380045Y-29056121D01*
X39380553Y-29052102D01*
X39381713Y-29048222D01*
X39381302Y-29037748D01*
X39379538Y-28992863D01*
X39379500Y-28990939D01*
X39379500Y-26338484D01*
X39393852Y-26303836D01*
X39543647Y-26154041D01*
X39578295Y-26139689D01*
X39582693Y-26139989D01*
X39584310Y-26140413D01*
X39659959Y-26141601D01*
X39739753Y-26142855D01*
X39739756Y-26142855D01*
X39742704Y-26142901D01*
X39745581Y-26142242D01*
X39745582Y-26142242D01*
X39894239Y-26108195D01*
X39894240Y-26108195D01*
X39897120Y-26107535D01*
X39899759Y-26106208D01*
X39899761Y-26106207D01*
X39979492Y-26066107D01*
X40016894Y-26063360D01*
X40045283Y-26087866D01*
X40050246Y-26104826D01*
X40052690Y-26128388D01*
X40053819Y-26133614D01*
X40108003Y-26296026D01*
X40110406Y-26301156D01*
X40200418Y-26446612D01*
X40203931Y-26451044D01*
X40218312Y-26465400D01*
X40232694Y-26500036D01*
X40218372Y-26534697D01*
X40203101Y-26549995D01*
X40199597Y-26554431D01*
X40109838Y-26700048D01*
X40107444Y-26705182D01*
X40053540Y-26867698D01*
X40052423Y-26872904D01*
X40042127Y-26973399D01*
X40042000Y-26975883D01*
X40042000Y-27236253D01*
X40044855Y-27243145D01*
X40051747Y-27246000D01*
X40786253Y-27246000D01*
X40793145Y-27243145D01*
X40796000Y-27236253D01*
X41304000Y-27236253D01*
X41306855Y-27243145D01*
X41313747Y-27246000D01*
X42048252Y-27246000D01*
X42055144Y-27243145D01*
X42057999Y-27236253D01*
X42057999Y-26975899D01*
X42057868Y-26973380D01*
X42047309Y-26871611D01*
X42046181Y-26866386D01*
X41991997Y-26703974D01*
X41989594Y-26698844D01*
X41899582Y-26553388D01*
X41896069Y-26548956D01*
X41881688Y-26534600D01*
X41867306Y-26499964D01*
X41881628Y-26465303D01*
X41896899Y-26450005D01*
X41900403Y-26445569D01*
X41990162Y-26299952D01*
X41992556Y-26294818D01*
X42046460Y-26132302D01*
X42047577Y-26127096D01*
X42057873Y-26026601D01*
X42058000Y-26024117D01*
X42058000Y-25763747D01*
X42055145Y-25756855D01*
X42048253Y-25754000D01*
X41313747Y-25754000D01*
X41306855Y-25756855D01*
X41304000Y-25763747D01*
X41304000Y-27236253D01*
X40796000Y-27236253D01*
X40796000Y-25295000D01*
X40810352Y-25260352D01*
X40845000Y-25246000D01*
X42048252Y-25246000D01*
X42055144Y-25243145D01*
X42057999Y-25236253D01*
X42057999Y-24975899D01*
X42057868Y-24973380D01*
X42047309Y-24871611D01*
X42046181Y-24866386D01*
X41991997Y-24703974D01*
X41989594Y-24698844D01*
X41899582Y-24553388D01*
X41896065Y-24548951D01*
X41810143Y-24463178D01*
X41795761Y-24428543D01*
X41810083Y-24393882D01*
X41844761Y-24379500D01*
X43954275Y-24379500D01*
X43964589Y-24380598D01*
X43977913Y-24383467D01*
X43977914Y-24383467D01*
X43981876Y-24384320D01*
X44019728Y-24379840D01*
X44025485Y-24379500D01*
X44031524Y-24379500D01*
X44052361Y-24376031D01*
X44054651Y-24375706D01*
X44071727Y-24373685D01*
X44107341Y-24369470D01*
X44110993Y-24367716D01*
X44114883Y-24366586D01*
X44114930Y-24366747D01*
X44116853Y-24366139D01*
X44116799Y-24365980D01*
X44120628Y-24364669D01*
X44124626Y-24364004D01*
X44171356Y-24338790D01*
X44173353Y-24337772D01*
X44221232Y-24314781D01*
X44223588Y-24312801D01*
X44223590Y-24312799D01*
X44224706Y-24311861D01*
X44224715Y-24311852D01*
X44225508Y-24311186D01*
X44225517Y-24311196D01*
X44229183Y-24308586D01*
X44229050Y-24308415D01*
X44232249Y-24305934D01*
X44235814Y-24304010D01*
X44273431Y-24263316D01*
X44274765Y-24261929D01*
X46398716Y-22137979D01*
X46406781Y-22131465D01*
X46421642Y-22121869D01*
X46445239Y-22091936D01*
X46449071Y-22087624D01*
X46453340Y-22083355D01*
X46459744Y-22074394D01*
X46465623Y-22066166D01*
X46467009Y-22064320D01*
X46497349Y-22025834D01*
X46497350Y-22025833D01*
X46499858Y-22022651D01*
X46501201Y-22018827D01*
X46503150Y-22015281D01*
X46503298Y-22015362D01*
X46504229Y-22013571D01*
X46504078Y-22013497D01*
X46505860Y-22009859D01*
X46508215Y-22006564D01*
X46523421Y-21955719D01*
X46524134Y-21953525D01*
X46540699Y-21906354D01*
X46541720Y-21903447D01*
X46542202Y-21897882D01*
X46542215Y-21897883D01*
X46542963Y-21893446D01*
X46542747Y-21893419D01*
X46543195Y-21889872D01*
X46543733Y-21888874D01*
X46544149Y-21886408D01*
X46544420Y-21885503D01*
X46545395Y-21885795D01*
X46559986Y-21858752D01*
X46645774Y-21785482D01*
X46645775Y-21785481D01*
X46648016Y-21783567D01*
X46727185Y-21673392D01*
X46738732Y-21657323D01*
X46738733Y-21657321D01*
X46740457Y-21654922D01*
X46799544Y-21507939D01*
X46821864Y-21351105D01*
X46822009Y-21337298D01*
X46802978Y-21180031D01*
X46746982Y-21031844D01*
X46657255Y-20901290D01*
X46655050Y-20899326D01*
X46655047Y-20899322D01*
X46541187Y-20797878D01*
X46538977Y-20795909D01*
X46398976Y-20721782D01*
X46245335Y-20683190D01*
X46164879Y-20682768D01*
X46089876Y-20682375D01*
X46089872Y-20682375D01*
X46086923Y-20682360D01*
X46084054Y-20683049D01*
X46084052Y-20683049D01*
X45935760Y-20718651D01*
X45932886Y-20719341D01*
X45930258Y-20720697D01*
X45930259Y-20720697D01*
X45863136Y-20755342D01*
X45792116Y-20791998D01*
X45789896Y-20793935D01*
X45789894Y-20793936D01*
X45726210Y-20849492D01*
X45672741Y-20896136D01*
X45671043Y-20898551D01*
X45671042Y-20898553D01*
X45667406Y-20903727D01*
X45581652Y-21025742D01*
X45580581Y-21028490D01*
X45580579Y-21028493D01*
X45551413Y-21103300D01*
X45524108Y-21173335D01*
X45503431Y-21330394D01*
X45520815Y-21487851D01*
X45575255Y-21636617D01*
X45637368Y-21729050D01*
X45653819Y-21753532D01*
X45661231Y-21790295D01*
X45647796Y-21815510D01*
X45024362Y-22438944D01*
X44989714Y-22453296D01*
X44955066Y-22438944D01*
X44941069Y-22410183D01*
X44930202Y-22320386D01*
X44929847Y-22317452D01*
X44885761Y-22200784D01*
X44874896Y-22172030D01*
X44874895Y-22172029D01*
X44873851Y-22169265D01*
X44784124Y-22038711D01*
X44781919Y-22036747D01*
X44781916Y-22036743D01*
X44668056Y-21935299D01*
X44665846Y-21933330D01*
X44663234Y-21931947D01*
X44663231Y-21931945D01*
X44530316Y-21861570D01*
X44506411Y-21832674D01*
X44509941Y-21795337D01*
X44514035Y-21788880D01*
X44524474Y-21774952D01*
X44562967Y-21723590D01*
X44582475Y-21697561D01*
X44582476Y-21697560D01*
X44584571Y-21694764D01*
X44590304Y-21679473D01*
X44614499Y-21614930D01*
X44635298Y-21559448D01*
X44642000Y-21497756D01*
X44642000Y-20789990D01*
X44656352Y-20755342D01*
X44817842Y-20593852D01*
X44852490Y-20579500D01*
X46661282Y-20579500D01*
X46694260Y-20592258D01*
X46730375Y-20625120D01*
X46732968Y-20626528D01*
X46732971Y-20626530D01*
X46837326Y-20683190D01*
X46869592Y-20700709D01*
X47022821Y-20740908D01*
X47110993Y-20742293D01*
X47178264Y-20743350D01*
X47178267Y-20743350D01*
X47181215Y-20743396D01*
X47184092Y-20742737D01*
X47184093Y-20742737D01*
X47332750Y-20708690D01*
X47332751Y-20708690D01*
X47335631Y-20708030D01*
X47338270Y-20706703D01*
X47338272Y-20706702D01*
X47474510Y-20638182D01*
X47474511Y-20638181D01*
X47477154Y-20636852D01*
X47572147Y-20555720D01*
X47595371Y-20535885D01*
X47595372Y-20535884D01*
X47597613Y-20533970D01*
X47657027Y-20451287D01*
X47688329Y-20407726D01*
X47688330Y-20407724D01*
X47690054Y-20405325D01*
X47749141Y-20258342D01*
X47771461Y-20101508D01*
X47771606Y-20087701D01*
X47752575Y-19930434D01*
X47739560Y-19895990D01*
X47697624Y-19785012D01*
X47697623Y-19785011D01*
X47696579Y-19782247D01*
X47606852Y-19651693D01*
X47604647Y-19649729D01*
X47604644Y-19649725D01*
X47490784Y-19548281D01*
X47488574Y-19546312D01*
X47348573Y-19472185D01*
X47194932Y-19433593D01*
X47114476Y-19433171D01*
X47039473Y-19432778D01*
X47039469Y-19432778D01*
X47036520Y-19432763D01*
X47033651Y-19433452D01*
X47033649Y-19433452D01*
X46885357Y-19469054D01*
X46882483Y-19469744D01*
X46834091Y-19494721D01*
X46745691Y-19540348D01*
X46741713Y-19542401D01*
X46739493Y-19544338D01*
X46739491Y-19544339D01*
X46698241Y-19580324D01*
X46622338Y-19646539D01*
X46620640Y-19648954D01*
X46620639Y-19648956D01*
X46617750Y-19653067D01*
X46531249Y-19776145D01*
X46530177Y-19778893D01*
X46530175Y-19778898D01*
X46526121Y-19789298D01*
X46500165Y-19816367D01*
X46480468Y-19820500D01*
X44881123Y-19820500D01*
X44846475Y-19806148D01*
X44832123Y-19771500D01*
X44834615Y-19756074D01*
X44883960Y-19607303D01*
X44885077Y-19602096D01*
X44895373Y-19501601D01*
X44895500Y-19499117D01*
X44895500Y-19263747D01*
X44892645Y-19256855D01*
X44885753Y-19254000D01*
X43670000Y-19254000D01*
X43635352Y-19239648D01*
X43621000Y-19205000D01*
X43621000Y-18795000D01*
X43635352Y-18760352D01*
X43670000Y-18746000D01*
X44885752Y-18746000D01*
X44892644Y-18743145D01*
X44895499Y-18736253D01*
X44895499Y-18500899D01*
X44895368Y-18498380D01*
X44884809Y-18396611D01*
X44883681Y-18391386D01*
X44829497Y-18228974D01*
X44827094Y-18223844D01*
X44737082Y-18078388D01*
X44733565Y-18073951D01*
X44612505Y-17953101D01*
X44608069Y-17949597D01*
X44506138Y-17886766D01*
X44484174Y-17856368D01*
X44490138Y-17819342D01*
X44496185Y-17811692D01*
X44497904Y-17810404D01*
X44584571Y-17694764D01*
X44599235Y-17655649D01*
X44632077Y-17568040D01*
X44657678Y-17540634D01*
X44695159Y-17539358D01*
X44701340Y-17542178D01*
X44806766Y-17599419D01*
X44831793Y-17613008D01*
X44985022Y-17653207D01*
X45073194Y-17654592D01*
X45140465Y-17655649D01*
X45140468Y-17655649D01*
X45143416Y-17655695D01*
X45146293Y-17655036D01*
X45146294Y-17655036D01*
X45294951Y-17620989D01*
X45294952Y-17620989D01*
X45297832Y-17620329D01*
X45300471Y-17619002D01*
X45300473Y-17619001D01*
X45436711Y-17550481D01*
X45436712Y-17550480D01*
X45439355Y-17549151D01*
X45559814Y-17446269D01*
X45652255Y-17317624D01*
X45711342Y-17170641D01*
X45733662Y-17013807D01*
X45733807Y-17000000D01*
X45714776Y-16842733D01*
X45658780Y-16694546D01*
X45569053Y-16563992D01*
X45566848Y-16562028D01*
X45566845Y-16562024D01*
X45452985Y-16460580D01*
X45450775Y-16458611D01*
X45310774Y-16384484D01*
X45157133Y-16345892D01*
X45076677Y-16345470D01*
X45001674Y-16345077D01*
X45001670Y-16345077D01*
X44998721Y-16345062D01*
X44995852Y-16345751D01*
X44995850Y-16345751D01*
X44847558Y-16381353D01*
X44844684Y-16382043D01*
X44704393Y-16454453D01*
X44704392Y-16454453D01*
X44703914Y-16454700D01*
X44703845Y-16454566D01*
X44668413Y-16461908D01*
X44637066Y-16441321D01*
X44631708Y-16430975D01*
X44585798Y-16308508D01*
X44585797Y-16308506D01*
X44584571Y-16305236D01*
X44497904Y-16189596D01*
X44382264Y-16102929D01*
X44378994Y-16101703D01*
X44378992Y-16101702D01*
X44313991Y-16077335D01*
X44246948Y-16052202D01*
X44243898Y-16051871D01*
X44243895Y-16051870D01*
X44214832Y-16048713D01*
X44181936Y-16030703D01*
X44171411Y-15994708D01*
X44189421Y-15961812D01*
X44214832Y-15951287D01*
X44243895Y-15948130D01*
X44243898Y-15948129D01*
X44246948Y-15947798D01*
X44327426Y-15917628D01*
X44378992Y-15898298D01*
X44378994Y-15898297D01*
X44382264Y-15897071D01*
X44465026Y-15835045D01*
X44495110Y-15812498D01*
X44497904Y-15810404D01*
X44584571Y-15694764D01*
X44635298Y-15559448D01*
X44636626Y-15547230D01*
X44641856Y-15499078D01*
X44642000Y-15497756D01*
X44642000Y-14502244D01*
X44636464Y-14451287D01*
X44635630Y-14443605D01*
X44635629Y-14443602D01*
X44635298Y-14440552D01*
X44599812Y-14345892D01*
X44585798Y-14308508D01*
X44585797Y-14308506D01*
X44584571Y-14305236D01*
X44531023Y-14233786D01*
X44499998Y-14192390D01*
X44497904Y-14189596D01*
X44382264Y-14102929D01*
X44378994Y-14101703D01*
X44378992Y-14101702D01*
X44313991Y-14077335D01*
X44246948Y-14052202D01*
X44243897Y-14051871D01*
X44243895Y-14051870D01*
X44212082Y-14048414D01*
X44179649Y-14030288D01*
X44179010Y-14029104D01*
X44138316Y-13991487D01*
X44136929Y-13990153D01*
X43967978Y-13821202D01*
X43953626Y-13786554D01*
X43954115Y-13779650D01*
X43963976Y-13710360D01*
X43964203Y-13708766D01*
X43964348Y-13694959D01*
X43945317Y-13537692D01*
X43889321Y-13389505D01*
X43844457Y-13324228D01*
X43801269Y-13261388D01*
X43801269Y-13261387D01*
X43799594Y-13258951D01*
X43797389Y-13256987D01*
X43797386Y-13256983D01*
X43683526Y-13155539D01*
X43681316Y-13153570D01*
X43541315Y-13079443D01*
X43387674Y-13040851D01*
X43307639Y-13040432D01*
X43232216Y-13040036D01*
X43232212Y-13040036D01*
X43229262Y-13040021D01*
X43221698Y-13041837D01*
X43184657Y-13035968D01*
X43175614Y-13028838D01*
X42980300Y-12833524D01*
X42965948Y-12798876D01*
X42983125Y-12761616D01*
X43062711Y-12693643D01*
X43062712Y-12693642D01*
X43064953Y-12691728D01*
X43128762Y-12602929D01*
X43155669Y-12565484D01*
X43155670Y-12565482D01*
X43157394Y-12563083D01*
X43216481Y-12416100D01*
X43238801Y-12259266D01*
X43238946Y-12245459D01*
X43219915Y-12088192D01*
X43163919Y-11940005D01*
X43074192Y-11809451D01*
X43071987Y-11807487D01*
X43071984Y-11807483D01*
X42958124Y-11706039D01*
X42955914Y-11704070D01*
X42815913Y-11629943D01*
X42662272Y-11591351D01*
X42581816Y-11590929D01*
X42506813Y-11590536D01*
X42506809Y-11590536D01*
X42503860Y-11590521D01*
X42500991Y-11591210D01*
X42500989Y-11591210D01*
X42352697Y-11626812D01*
X42349823Y-11627502D01*
X42209053Y-11700159D01*
X42206833Y-11702096D01*
X42206831Y-11702097D01*
X42098561Y-11796548D01*
X42089678Y-11804297D01*
X42087980Y-11806712D01*
X42087979Y-11806714D01*
X42084343Y-11811888D01*
X41998589Y-11933903D01*
X41941045Y-12081496D01*
X41920368Y-12238555D01*
X41937752Y-12396012D01*
X41992192Y-12544778D01*
X41993837Y-12547226D01*
X42078900Y-12673814D01*
X42078903Y-12673817D01*
X42080547Y-12676264D01*
X42184118Y-12770505D01*
X42200139Y-12806746D01*
X42200139Y-12923832D01*
X42199041Y-12934146D01*
X42195319Y-12951433D01*
X42195796Y-12955459D01*
X42199799Y-12989282D01*
X42200139Y-12995042D01*
X42200139Y-13001081D01*
X42200470Y-13003069D01*
X42203608Y-13021921D01*
X42203933Y-13024208D01*
X42210169Y-13076898D01*
X42211923Y-13080550D01*
X42213053Y-13084440D01*
X42212892Y-13084487D01*
X42213500Y-13086410D01*
X42213659Y-13086356D01*
X42214970Y-13090185D01*
X42215635Y-13094183D01*
X42240849Y-13140913D01*
X42241867Y-13142910D01*
X42264858Y-13190789D01*
X42266838Y-13193145D01*
X42266840Y-13193147D01*
X42267778Y-13194263D01*
X42267787Y-13194272D01*
X42268344Y-13194935D01*
X42268453Y-13195065D01*
X42268443Y-13195074D01*
X42271053Y-13198740D01*
X42271224Y-13198607D01*
X42273705Y-13201806D01*
X42275629Y-13205371D01*
X42278604Y-13208121D01*
X42316323Y-13242988D01*
X42317710Y-13244322D01*
X42642140Y-13568752D01*
X42656492Y-13603400D01*
X42656073Y-13609796D01*
X42645770Y-13688055D01*
X42663154Y-13845512D01*
X42717594Y-13994278D01*
X42719239Y-13996726D01*
X42804302Y-14123314D01*
X42804305Y-14123317D01*
X42805949Y-14125764D01*
X42808136Y-14127754D01*
X42878184Y-14191492D01*
X42923117Y-14232378D01*
X43062334Y-14307967D01*
X43065189Y-14308716D01*
X43102765Y-14318574D01*
X43132637Y-14341248D01*
X43137727Y-14378404D01*
X43136213Y-14383170D01*
X43131002Y-14397071D01*
X43114702Y-14440552D01*
X43114371Y-14443602D01*
X43114370Y-14443605D01*
X43113536Y-14451287D01*
X43108000Y-14502244D01*
X43108000Y-15497756D01*
X43108144Y-15499078D01*
X43113375Y-15547230D01*
X43114702Y-15559448D01*
X43165429Y-15694764D01*
X43252096Y-15810404D01*
X43254890Y-15812498D01*
X43284975Y-15835045D01*
X43367736Y-15897071D01*
X43371006Y-15898297D01*
X43371008Y-15898298D01*
X43422574Y-15917628D01*
X43503052Y-15947798D01*
X43506102Y-15948129D01*
X43506105Y-15948130D01*
X43535168Y-15951287D01*
X43568064Y-15969297D01*
X43578589Y-16005292D01*
X43560579Y-16038188D01*
X43535168Y-16048713D01*
X43506105Y-16051870D01*
X43506102Y-16051871D01*
X43503052Y-16052202D01*
X43436009Y-16077335D01*
X43371008Y-16101702D01*
X43371006Y-16101703D01*
X43367736Y-16102929D01*
X43252096Y-16189596D01*
X43165429Y-16305236D01*
X43164203Y-16308506D01*
X43164202Y-16308508D01*
X43150188Y-16345892D01*
X43114702Y-16440552D01*
X43114371Y-16443602D01*
X43114370Y-16443605D01*
X43113165Y-16454700D01*
X43108000Y-16502244D01*
X43108000Y-17497756D01*
X43108144Y-17499078D01*
X43113375Y-17547230D01*
X43114702Y-17559448D01*
X43165429Y-17694764D01*
X43252096Y-17810404D01*
X43253075Y-17811138D01*
X43267106Y-17845010D01*
X43252754Y-17879658D01*
X43243891Y-17886677D01*
X43140888Y-17950418D01*
X43136451Y-17953935D01*
X43015601Y-18074995D01*
X43012097Y-18079431D01*
X42922338Y-18225048D01*
X42919944Y-18230182D01*
X42875134Y-18365278D01*
X42850604Y-18393646D01*
X42813200Y-18396360D01*
X42784832Y-18371830D01*
X42782744Y-18367052D01*
X42760798Y-18308508D01*
X42760797Y-18308506D01*
X42759571Y-18305236D01*
X42672904Y-18189596D01*
X42557264Y-18102929D01*
X42553994Y-18101703D01*
X42553992Y-18101702D01*
X42461300Y-18066954D01*
X42433894Y-18041353D01*
X42429500Y-18021072D01*
X42429500Y-17978928D01*
X42443852Y-17944280D01*
X42461300Y-17933046D01*
X42553992Y-17898298D01*
X42553994Y-17898297D01*
X42557264Y-17897071D01*
X42672904Y-17810404D01*
X42759571Y-17694764D01*
X42810298Y-17559448D01*
X42811626Y-17547230D01*
X42816856Y-17499078D01*
X42817000Y-17497756D01*
X42817000Y-16502244D01*
X42811835Y-16454700D01*
X42810630Y-16443605D01*
X42810629Y-16443602D01*
X42810298Y-16440552D01*
X42774812Y-16345892D01*
X42760798Y-16308508D01*
X42760797Y-16308506D01*
X42759571Y-16305236D01*
X42672904Y-16189596D01*
X42557264Y-16102929D01*
X42553994Y-16101703D01*
X42553992Y-16101702D01*
X42488991Y-16077335D01*
X42421948Y-16052202D01*
X42418898Y-16051871D01*
X42418895Y-16051870D01*
X42389832Y-16048713D01*
X42356936Y-16030703D01*
X42346411Y-15994708D01*
X42364421Y-15961812D01*
X42389832Y-15951287D01*
X42418895Y-15948130D01*
X42418898Y-15948129D01*
X42421948Y-15947798D01*
X42502426Y-15917628D01*
X42553992Y-15898298D01*
X42553994Y-15898297D01*
X42557264Y-15897071D01*
X42640026Y-15835045D01*
X42670110Y-15812498D01*
X42672904Y-15810404D01*
X42759571Y-15694764D01*
X42810298Y-15559448D01*
X42811626Y-15547230D01*
X42816856Y-15499078D01*
X42817000Y-15497756D01*
X42817000Y-14502244D01*
X42811464Y-14451287D01*
X42810630Y-14443605D01*
X42810629Y-14443602D01*
X42810298Y-14440552D01*
X42774812Y-14345892D01*
X42760798Y-14308508D01*
X42760797Y-14308506D01*
X42759571Y-14305236D01*
X42706023Y-14233786D01*
X42674998Y-14192390D01*
X42672904Y-14189596D01*
X42557264Y-14102929D01*
X42553994Y-14101703D01*
X42553992Y-14101702D01*
X42488991Y-14077335D01*
X42421948Y-14052202D01*
X42418898Y-14051871D01*
X42418895Y-14051870D01*
X42387079Y-14048414D01*
X42360256Y-14045500D01*
X41739744Y-14045500D01*
X41712921Y-14048414D01*
X41681105Y-14051870D01*
X41681102Y-14051871D01*
X41678052Y-14052202D01*
X41611009Y-14077335D01*
X41546008Y-14101702D01*
X41546006Y-14101703D01*
X41542736Y-14102929D01*
X41427096Y-14189596D01*
X41425002Y-14192390D01*
X41393978Y-14233786D01*
X41340429Y-14305236D01*
X41339203Y-14308506D01*
X41339202Y-14308508D01*
X41325188Y-14345892D01*
X41289702Y-14440552D01*
X41289371Y-14443602D01*
X41289370Y-14443605D01*
X41286016Y-14474479D01*
X41268006Y-14507375D01*
X41232011Y-14517900D01*
X41204709Y-14505773D01*
X41151775Y-14458611D01*
X41011774Y-14384484D01*
X40858133Y-14345892D01*
X40777677Y-14345470D01*
X40702674Y-14345077D01*
X40702670Y-14345077D01*
X40699721Y-14345062D01*
X40696852Y-14345751D01*
X40696850Y-14345751D01*
X40555060Y-14379792D01*
X40545684Y-14382043D01*
X40543056Y-14383399D01*
X40543057Y-14383399D01*
X40411527Y-14451287D01*
X40404914Y-14454700D01*
X40402692Y-14456638D01*
X40402691Y-14456639D01*
X40337075Y-14513880D01*
X40301530Y-14525843D01*
X40267939Y-14509168D01*
X40256804Y-14486515D01*
X40249103Y-14447798D01*
X40247090Y-14437678D01*
X40239734Y-14400699D01*
X40235910Y-14394975D01*
X40186164Y-14320527D01*
X40183484Y-14316516D01*
X40099301Y-14260266D01*
X40000000Y-14240514D01*
X39995269Y-14241455D01*
X39995268Y-14241455D01*
X39979664Y-14244559D01*
X39970105Y-14245500D01*
X10029895Y-14245500D01*
X10020336Y-14244559D01*
X10004732Y-14241455D01*
X10004731Y-14241455D01*
X10000000Y-14240514D01*
X9900699Y-14260266D01*
X9816516Y-14316516D01*
X9813836Y-14320527D01*
X9764091Y-14394975D01*
X9760266Y-14400699D01*
X9750898Y-14447798D01*
X9740514Y-14500000D01*
X9741455Y-14504731D01*
X9744559Y-14520336D01*
X9745500Y-14529895D01*
X9745500Y-21470105D01*
X9744559Y-21479664D01*
X9740514Y-21500000D01*
X9745500Y-21525067D01*
X9760266Y-21599301D01*
X9762946Y-21603312D01*
X9762947Y-21603314D01*
X9804425Y-21665389D01*
X9816516Y-21683484D01*
X9857746Y-21711033D01*
X9884909Y-21729183D01*
X9900699Y-21739734D01*
X10000000Y-21759486D01*
X10004731Y-21758545D01*
X10004732Y-21758545D01*
X10020336Y-21755441D01*
X10029895Y-21754500D01*
X13387440Y-21754500D01*
X13422088Y-21768852D01*
X13436440Y-21803500D01*
X13422088Y-21838148D01*
X13398879Y-21851146D01*
X13270184Y-21882043D01*
X13248091Y-21893446D01*
X13167003Y-21935299D01*
X13129414Y-21954700D01*
X13127194Y-21956637D01*
X13127192Y-21956638D01*
X13062014Y-22013497D01*
X13010039Y-22058838D01*
X13008341Y-22061253D01*
X13008340Y-22061255D01*
X12984983Y-22094489D01*
X12918950Y-22188444D01*
X12917879Y-22191192D01*
X12917877Y-22191195D01*
X12903660Y-22227660D01*
X12861406Y-22336037D01*
X12860502Y-22342904D01*
X12846693Y-22447798D01*
X12840729Y-22493096D01*
X12858113Y-22650553D01*
X12912553Y-22799319D01*
X12914198Y-22801767D01*
X12999261Y-22928355D01*
X12999264Y-22928358D01*
X13000908Y-22930805D01*
X13003095Y-22932795D01*
X13077595Y-23000584D01*
X13118076Y-23037419D01*
X13257293Y-23113008D01*
X13410522Y-23153207D01*
X13498694Y-23154592D01*
X13565965Y-23155649D01*
X13565968Y-23155649D01*
X13568916Y-23155695D01*
X13571793Y-23155036D01*
X13571794Y-23155036D01*
X13720451Y-23120989D01*
X13720452Y-23120989D01*
X13723332Y-23120329D01*
X13725971Y-23119002D01*
X13725973Y-23119001D01*
X13862211Y-23050481D01*
X13862212Y-23050480D01*
X13864855Y-23049151D01*
X13964529Y-22964021D01*
X13983072Y-22948184D01*
X13983073Y-22948183D01*
X13985314Y-22946269D01*
X13987034Y-22943875D01*
X13987038Y-22943871D01*
X14036709Y-22874746D01*
X14068582Y-22854983D01*
X14105094Y-22863547D01*
X14124857Y-22895420D01*
X14125501Y-22903339D01*
X14125501Y-23255066D01*
X14140266Y-23329301D01*
X14142946Y-23333312D01*
X14142947Y-23333314D01*
X14169848Y-23373573D01*
X14196516Y-23413484D01*
X14200527Y-23416164D01*
X14241016Y-23443218D01*
X14280699Y-23469734D01*
X14354933Y-23484500D01*
X14525596Y-23484500D01*
X17946500Y-23484499D01*
X17981148Y-23498851D01*
X17995500Y-23533499D01*
X17995500Y-23766500D01*
X17981148Y-23801148D01*
X17946500Y-23815500D01*
X14525124Y-23815501D01*
X14354934Y-23815501D01*
X14352582Y-23815969D01*
X14352580Y-23815969D01*
X14316874Y-23823071D01*
X14280699Y-23830266D01*
X14276688Y-23832946D01*
X14276686Y-23832947D01*
X14259953Y-23844128D01*
X14196516Y-23886516D01*
X14140266Y-23970699D01*
X14125500Y-24044933D01*
X14125500Y-24571500D01*
X14111148Y-24606148D01*
X14076500Y-24620500D01*
X12559170Y-24620500D01*
X12524522Y-24606148D01*
X12518788Y-24599254D01*
X12496228Y-24566429D01*
X12494553Y-24563992D01*
X12492348Y-24562028D01*
X12492345Y-24562024D01*
X12378485Y-24460580D01*
X12376275Y-24458611D01*
X12236274Y-24384484D01*
X12082633Y-24345892D01*
X12002177Y-24345470D01*
X11927174Y-24345077D01*
X11927170Y-24345077D01*
X11924221Y-24345062D01*
X11921352Y-24345751D01*
X11921350Y-24345751D01*
X11796009Y-24375843D01*
X11770184Y-24382043D01*
X11721792Y-24407020D01*
X11645875Y-24446204D01*
X11629414Y-24454700D01*
X11627194Y-24456637D01*
X11627192Y-24456638D01*
X11563387Y-24512299D01*
X11510039Y-24558838D01*
X11508341Y-24561253D01*
X11508340Y-24561255D01*
X11495148Y-24580025D01*
X11418950Y-24688444D01*
X11417879Y-24691192D01*
X11417877Y-24691195D01*
X11414895Y-24698844D01*
X11361406Y-24836037D01*
X11357411Y-24866386D01*
X11345023Y-24960483D01*
X11340729Y-24993096D01*
X11358113Y-25150553D01*
X11412553Y-25299319D01*
X11414198Y-25301767D01*
X11499261Y-25428355D01*
X11499264Y-25428358D01*
X11500908Y-25430805D01*
X11503095Y-25432795D01*
X11592127Y-25513807D01*
X11618076Y-25537419D01*
X11757293Y-25613008D01*
X11910522Y-25653207D01*
X11998694Y-25654592D01*
X12065965Y-25655649D01*
X12065968Y-25655649D01*
X12068916Y-25655695D01*
X12071793Y-25655036D01*
X12071794Y-25655036D01*
X12220451Y-25620989D01*
X12220452Y-25620989D01*
X12223332Y-25620329D01*
X12225971Y-25619002D01*
X12225973Y-25619001D01*
X12362211Y-25550481D01*
X12362212Y-25550480D01*
X12364855Y-25549151D01*
X12406237Y-25513807D01*
X12483070Y-25448186D01*
X12483072Y-25448184D01*
X12485314Y-25446269D01*
X12518628Y-25399907D01*
X12550501Y-25380144D01*
X12558420Y-25379500D01*
X14076501Y-25379500D01*
X14111149Y-25393852D01*
X14125501Y-25428500D01*
X14125501Y-25795066D01*
X14125969Y-25797418D01*
X14125969Y-25797420D01*
X14127443Y-25804830D01*
X14140266Y-25869301D01*
X14142946Y-25873312D01*
X14142947Y-25873314D01*
X14163002Y-25903328D01*
X14196516Y-25953484D01*
X14280699Y-26009734D01*
X14354933Y-26024500D01*
X14525596Y-26024500D01*
X17946500Y-26024499D01*
X17981148Y-26038851D01*
X17995500Y-26073499D01*
X17995500Y-26306500D01*
X17981148Y-26341148D01*
X17946500Y-26355500D01*
X14525124Y-26355501D01*
X14354934Y-26355501D01*
X14349067Y-26356668D01*
X14312271Y-26363986D01*
X14275489Y-26356668D01*
X14258542Y-26337138D01*
X14255618Y-26331049D01*
X14255616Y-26331046D01*
X14254283Y-26328270D01*
X14250689Y-26323995D01*
X14250698Y-26323987D01*
X14248087Y-26320320D01*
X14247917Y-26320452D01*
X14245436Y-26317253D01*
X14243512Y-26313688D01*
X14202818Y-26276071D01*
X14201431Y-26274737D01*
X13928383Y-26001689D01*
X13921869Y-25993624D01*
X13912271Y-25978760D01*
X13882333Y-25955159D01*
X13878021Y-25951327D01*
X13873756Y-25947062D01*
X13856571Y-25934781D01*
X13854727Y-25933396D01*
X13816236Y-25903053D01*
X13816235Y-25903052D01*
X13813053Y-25900544D01*
X13809228Y-25899201D01*
X13805683Y-25897252D01*
X13805764Y-25897104D01*
X13803971Y-25896172D01*
X13803897Y-25896322D01*
X13800261Y-25894541D01*
X13796966Y-25892186D01*
X13746090Y-25876971D01*
X13743896Y-25876257D01*
X13735518Y-25873315D01*
X13693849Y-25858682D01*
X13690780Y-25858416D01*
X13690779Y-25858416D01*
X13689336Y-25858291D01*
X13689333Y-25858291D01*
X13688284Y-25858200D01*
X13688285Y-25858187D01*
X13683848Y-25857439D01*
X13683821Y-25857655D01*
X13679802Y-25857147D01*
X13675922Y-25855987D01*
X13671873Y-25856146D01*
X13620563Y-25858162D01*
X13618639Y-25858200D01*
X11796870Y-25858200D01*
X11762222Y-25843848D01*
X11756488Y-25836954D01*
X11733928Y-25804129D01*
X11732253Y-25801692D01*
X11730048Y-25799728D01*
X11730045Y-25799724D01*
X11616185Y-25698280D01*
X11613975Y-25696311D01*
X11473974Y-25622184D01*
X11320333Y-25583592D01*
X11239877Y-25583170D01*
X11164874Y-25582777D01*
X11164870Y-25582777D01*
X11161921Y-25582762D01*
X11159052Y-25583451D01*
X11159050Y-25583451D01*
X11041802Y-25611600D01*
X11007884Y-25619743D01*
X11005256Y-25621099D01*
X11005257Y-25621099D01*
X10938318Y-25655649D01*
X10867114Y-25692400D01*
X10864894Y-25694337D01*
X10864892Y-25694338D01*
X10812353Y-25740171D01*
X10747739Y-25796538D01*
X10746041Y-25798953D01*
X10746040Y-25798955D01*
X10732919Y-25817624D01*
X10656650Y-25926144D01*
X10655579Y-25928892D01*
X10655577Y-25928895D01*
X10627916Y-25999842D01*
X10599106Y-26073737D01*
X10578429Y-26230796D01*
X10595813Y-26388253D01*
X10650253Y-26537019D01*
X10651898Y-26539467D01*
X10736961Y-26666055D01*
X10736964Y-26666058D01*
X10738608Y-26668505D01*
X10740795Y-26670495D01*
X10851042Y-26770811D01*
X10855776Y-26775119D01*
X10858367Y-26776526D01*
X10858373Y-26776530D01*
X10862720Y-26778890D01*
X10886321Y-26808036D01*
X10882399Y-26845333D01*
X10867813Y-26861447D01*
X10867614Y-26861550D01*
X10865389Y-26863491D01*
X10865386Y-26863493D01*
X10802211Y-26918605D01*
X10748239Y-26965688D01*
X10746541Y-26968103D01*
X10746540Y-26968105D01*
X10734933Y-26984620D01*
X10657150Y-27095294D01*
X10656079Y-27098042D01*
X10656077Y-27098045D01*
X10633708Y-27155419D01*
X10599606Y-27242887D01*
X10578929Y-27399946D01*
X10596313Y-27557403D01*
X10650753Y-27706169D01*
X10652398Y-27708617D01*
X10737461Y-27835205D01*
X10737464Y-27835208D01*
X10739108Y-27837655D01*
X10842679Y-27931896D01*
X10858700Y-27968137D01*
X10858700Y-29692475D01*
X10857602Y-29702789D01*
X10853880Y-29720076D01*
X10854357Y-29724102D01*
X10858360Y-29757925D01*
X10858700Y-29763685D01*
X10858700Y-29769724D01*
X10859031Y-29771711D01*
X10862166Y-29790545D01*
X10862492Y-29792833D01*
X10864723Y-29811688D01*
X10862360Y-29830208D01*
X10863213Y-29830427D01*
X10862480Y-29833282D01*
X10861406Y-29836037D01*
X10840729Y-29993096D01*
X10858113Y-30150553D01*
X10912553Y-30299319D01*
X10914198Y-30301767D01*
X10999261Y-30428355D01*
X10999264Y-30428358D01*
X11000908Y-30430805D01*
X11003095Y-30432795D01*
X11092127Y-30513807D01*
X11118076Y-30537419D01*
X11257293Y-30613008D01*
X11410522Y-30653207D01*
X11498694Y-30654592D01*
X11565965Y-30655649D01*
X11565968Y-30655649D01*
X11568916Y-30655695D01*
X11571793Y-30655036D01*
X11571794Y-30655036D01*
X11720451Y-30620989D01*
X11720452Y-30620989D01*
X11723332Y-30620329D01*
X11725971Y-30619002D01*
X11725973Y-30619001D01*
X11814484Y-30574485D01*
X11851886Y-30571738D01*
X11880275Y-30596244D01*
X11885500Y-30618260D01*
X11885501Y-30970775D01*
X11885501Y-31325066D01*
X11885969Y-31327418D01*
X11885969Y-31327420D01*
X11889478Y-31345062D01*
X11900266Y-31399301D01*
X11902946Y-31403312D01*
X11902947Y-31403314D01*
X11936112Y-31452948D01*
X11956516Y-31483484D01*
X12040699Y-31539734D01*
X12114933Y-31554500D01*
X12117343Y-31554500D01*
X12740909Y-31554499D01*
X13365066Y-31554499D01*
X13367418Y-31554031D01*
X13367420Y-31554031D01*
X13403403Y-31546874D01*
X13439301Y-31539734D01*
X13443312Y-31537054D01*
X13443314Y-31537053D01*
X13519473Y-31486164D01*
X13523484Y-31483484D01*
X13555546Y-31435500D01*
X13577052Y-31403315D01*
X13579734Y-31399301D01*
X13594500Y-31325067D01*
X13594499Y-30403500D01*
X13608851Y-30368852D01*
X13643499Y-30354500D01*
X14076501Y-30354500D01*
X14111149Y-30368852D01*
X14125501Y-30403500D01*
X14125501Y-30875066D01*
X14125969Y-30877418D01*
X14125969Y-30877420D01*
X14127587Y-30885553D01*
X14140266Y-30949301D01*
X14142946Y-30953312D01*
X14142947Y-30953314D01*
X14178762Y-31006914D01*
X14196516Y-31033484D01*
X14280699Y-31089734D01*
X14354933Y-31104500D01*
X14525596Y-31104500D01*
X17946500Y-31104499D01*
X17981148Y-31118851D01*
X17995500Y-31153499D01*
X17995500Y-31386500D01*
X17981148Y-31421148D01*
X17946500Y-31435500D01*
X14525124Y-31435501D01*
X14354934Y-31435501D01*
X14352582Y-31435969D01*
X14352580Y-31435969D01*
X14316597Y-31443126D01*
X14280699Y-31450266D01*
X14276688Y-31452946D01*
X14276686Y-31452947D01*
X14214611Y-31494425D01*
X14196516Y-31506516D01*
X14193836Y-31510527D01*
X14151917Y-31573263D01*
X14140266Y-31590699D01*
X14125500Y-31664933D01*
X14125500Y-32096716D01*
X14111148Y-32131364D01*
X14076500Y-32145716D01*
X14041852Y-32131364D01*
X14036118Y-32124470D01*
X13996228Y-32066428D01*
X13996224Y-32066424D01*
X13994553Y-32063992D01*
X13992348Y-32062028D01*
X13992345Y-32062024D01*
X13878485Y-31960580D01*
X13876275Y-31958611D01*
X13736274Y-31884484D01*
X13582633Y-31845892D01*
X13502177Y-31845470D01*
X13427174Y-31845077D01*
X13427170Y-31845077D01*
X13424221Y-31845062D01*
X13421352Y-31845751D01*
X13421350Y-31845751D01*
X13273058Y-31881353D01*
X13270184Y-31882043D01*
X13129414Y-31954700D01*
X13127194Y-31956637D01*
X13127192Y-31956638D01*
X13033420Y-32038441D01*
X13010039Y-32058838D01*
X13008341Y-32061253D01*
X13008340Y-32061255D01*
X12983418Y-32096716D01*
X12918950Y-32188444D01*
X12861406Y-32336037D01*
X12840729Y-32493096D01*
X12858113Y-32650553D01*
X12912553Y-32799319D01*
X12914198Y-32801767D01*
X12999261Y-32928355D01*
X12999264Y-32928358D01*
X13000908Y-32930805D01*
X13003095Y-32932795D01*
X13101763Y-33022575D01*
X13118076Y-33037419D01*
X13257293Y-33113008D01*
X13410522Y-33153207D01*
X13498694Y-33154592D01*
X13565965Y-33155649D01*
X13565968Y-33155649D01*
X13568916Y-33155695D01*
X13571793Y-33155036D01*
X13571794Y-33155036D01*
X13720451Y-33120989D01*
X13720452Y-33120989D01*
X13723332Y-33120329D01*
X13725971Y-33119002D01*
X13725973Y-33119001D01*
X13862211Y-33050481D01*
X13862212Y-33050480D01*
X13864855Y-33049151D01*
X13985314Y-32946269D01*
X13989885Y-32939908D01*
X14021758Y-32920144D01*
X14029678Y-32919500D01*
X14076501Y-32919500D01*
X14111149Y-32933852D01*
X14125501Y-32968500D01*
X14125501Y-33415066D01*
X14125969Y-33417418D01*
X14125969Y-33417420D01*
X14127902Y-33427136D01*
X14140266Y-33489301D01*
X14142946Y-33493312D01*
X14142947Y-33493314D01*
X14171089Y-33535431D01*
X14196516Y-33573484D01*
X14280699Y-33629734D01*
X14285647Y-33630718D01*
X14285827Y-33630838D01*
X14289890Y-33632521D01*
X14289555Y-33633329D01*
X14316829Y-33651554D01*
X14324144Y-33688337D01*
X14303308Y-33719519D01*
X14281376Y-33727490D01*
X14272847Y-33728416D01*
X14266915Y-33729827D01*
X14136810Y-33778601D01*
X14130741Y-33781924D01*
X14019890Y-33865002D01*
X14015002Y-33869890D01*
X13931924Y-33980741D01*
X13928601Y-33986810D01*
X13879825Y-34116919D01*
X13878416Y-34122846D01*
X13872144Y-34180589D01*
X13872000Y-34183237D01*
X13872000Y-34816253D01*
X13874855Y-34823145D01*
X13881747Y-34826000D01*
X16585000Y-34826000D01*
X16619648Y-34840352D01*
X16634000Y-34875000D01*
X16634000Y-35285000D01*
X16619648Y-35319648D01*
X16585000Y-35334000D01*
X13881748Y-35334000D01*
X13874856Y-35336855D01*
X13872001Y-35343747D01*
X13872001Y-35976757D01*
X13872144Y-35979407D01*
X13878416Y-36037153D01*
X13879827Y-36043085D01*
X13928601Y-36173190D01*
X13931924Y-36179259D01*
X14015002Y-36290110D01*
X14019890Y-36294998D01*
X14130741Y-36378076D01*
X14136810Y-36381399D01*
X14266919Y-36430175D01*
X14272839Y-36431582D01*
X14281375Y-36432509D01*
X14314271Y-36450518D01*
X14324799Y-36486513D01*
X14306790Y-36519409D01*
X14289830Y-36527328D01*
X14289892Y-36527477D01*
X14286521Y-36528873D01*
X14285648Y-36529281D01*
X14285434Y-36529324D01*
X14285433Y-36529324D01*
X14280699Y-36530266D01*
X14276688Y-36532946D01*
X14276686Y-36532947D01*
X14214611Y-36574425D01*
X14196516Y-36586516D01*
X14193836Y-36590527D01*
X14193834Y-36590529D01*
X14185275Y-36603338D01*
X14154092Y-36624173D01*
X14132597Y-36623638D01*
X14082533Y-36611063D01*
X14022135Y-36595892D01*
X13941679Y-36595470D01*
X13866676Y-36595077D01*
X13866672Y-36595077D01*
X13863723Y-36595062D01*
X13860854Y-36595751D01*
X13860852Y-36595751D01*
X13758478Y-36620329D01*
X13709686Y-36632043D01*
X13668682Y-36653207D01*
X13665973Y-36654605D01*
X13628601Y-36657743D01*
X13599957Y-36633537D01*
X13594499Y-36611063D01*
X13594499Y-36124934D01*
X13579734Y-36050699D01*
X13574647Y-36043085D01*
X13526164Y-35970527D01*
X13523484Y-35966516D01*
X13439301Y-35910266D01*
X13365067Y-35895500D01*
X13362657Y-35895500D01*
X12563837Y-35895501D01*
X11764934Y-35895501D01*
X11762582Y-35895969D01*
X11762580Y-35895969D01*
X11726597Y-35903126D01*
X11690699Y-35910266D01*
X11686688Y-35912946D01*
X11686686Y-35912947D01*
X11656985Y-35932793D01*
X11606516Y-35966516D01*
X11603836Y-35970527D01*
X11555354Y-36043085D01*
X11550266Y-36050699D01*
X11535500Y-36124933D01*
X11535501Y-37525066D01*
X11550266Y-37599301D01*
X11606516Y-37683484D01*
X11690699Y-37739734D01*
X11764933Y-37754500D01*
X11767343Y-37754500D01*
X12566163Y-37754499D01*
X13365066Y-37754499D01*
X13367418Y-37754031D01*
X13367420Y-37754031D01*
X13403403Y-37746874D01*
X13439301Y-37739734D01*
X13443315Y-37737052D01*
X13445426Y-37735642D01*
X13482209Y-37728328D01*
X13505623Y-37740144D01*
X13557578Y-37787419D01*
X13696795Y-37863008D01*
X13850024Y-37903207D01*
X13939901Y-37904619D01*
X14005468Y-37905649D01*
X14005471Y-37905649D01*
X14008418Y-37905695D01*
X14023441Y-37902254D01*
X14060419Y-37908508D01*
X14063408Y-37910695D01*
X14063448Y-37910639D01*
X14063526Y-37910695D01*
X14080631Y-37922919D01*
X14082475Y-37924304D01*
X14106836Y-37943508D01*
X14125161Y-37976229D01*
X14125501Y-37981989D01*
X14125501Y-38495066D01*
X14140266Y-38569301D01*
X14196516Y-38653484D01*
X14280699Y-38709734D01*
X14354933Y-38724500D01*
X14525596Y-38724500D01*
X17946500Y-38724499D01*
X17981148Y-38738851D01*
X17995500Y-38773499D01*
X17995500Y-39696500D01*
X17981148Y-39731148D01*
X17946500Y-39745500D01*
X303500Y-39745500D01*
X268852Y-39731148D01*
X254500Y-39696500D01*
X254500Y-35674933D01*
X405500Y-35674933D01*
X405501Y-37525066D01*
X420266Y-37599301D01*
X476516Y-37683484D01*
X560699Y-37739734D01*
X634933Y-37754500D01*
X637343Y-37754500D01*
X1245887Y-37754499D01*
X1855066Y-37754499D01*
X1857418Y-37754031D01*
X1857420Y-37754031D01*
X1924566Y-37740676D01*
X1924567Y-37740676D01*
X1929301Y-37739734D01*
X1933316Y-37737051D01*
X1936247Y-37735837D01*
X1973751Y-37735836D01*
X1976683Y-37737050D01*
X1980699Y-37739734D01*
X1985436Y-37740676D01*
X1985438Y-37740677D01*
X2018220Y-37747197D01*
X2054933Y-37754500D01*
X2057343Y-37754500D01*
X2455581Y-37754499D01*
X2855066Y-37754499D01*
X2857418Y-37754031D01*
X2857420Y-37754031D01*
X2924566Y-37740676D01*
X2924567Y-37740676D01*
X2929301Y-37739734D01*
X2933316Y-37737051D01*
X2936247Y-37735837D01*
X2973751Y-37735836D01*
X2976683Y-37737050D01*
X2980699Y-37739734D01*
X2985436Y-37740676D01*
X2985438Y-37740677D01*
X3018220Y-37747197D01*
X3054933Y-37754500D01*
X3063747Y-37754500D01*
X3711343Y-37754499D01*
X3745990Y-37768851D01*
X3750552Y-37774113D01*
X3815002Y-37860110D01*
X3819890Y-37864998D01*
X3930741Y-37948076D01*
X3936810Y-37951399D01*
X4066919Y-38000175D01*
X4072846Y-38001584D01*
X4130589Y-38007856D01*
X4133237Y-38008000D01*
X4341253Y-38008000D01*
X4348145Y-38005145D01*
X4351000Y-37998253D01*
X4351000Y-36745000D01*
X4365352Y-36710352D01*
X4400000Y-36696000D01*
X4810000Y-36696000D01*
X4844648Y-36710352D01*
X4859000Y-36745000D01*
X4859000Y-37998252D01*
X4861855Y-38005144D01*
X4868747Y-38007999D01*
X5076757Y-38007999D01*
X5079407Y-38007856D01*
X5137153Y-38001584D01*
X5143085Y-38000173D01*
X5273190Y-37951399D01*
X5279259Y-37948076D01*
X5390110Y-37864998D01*
X5394998Y-37860110D01*
X5459448Y-37774114D01*
X5491711Y-37754995D01*
X5498658Y-37754500D01*
X6146278Y-37754499D01*
X6155066Y-37754499D01*
X6157418Y-37754031D01*
X6157420Y-37754031D01*
X6224566Y-37740676D01*
X6224567Y-37740676D01*
X6229301Y-37739734D01*
X6233316Y-37737051D01*
X6236247Y-37735837D01*
X6273751Y-37735836D01*
X6276683Y-37737050D01*
X6280699Y-37739734D01*
X6285436Y-37740676D01*
X6285438Y-37740677D01*
X6318220Y-37747197D01*
X6354933Y-37754500D01*
X6357343Y-37754500D01*
X6805654Y-37754499D01*
X7255066Y-37754499D01*
X7257418Y-37754031D01*
X7257420Y-37754031D01*
X7324566Y-37740676D01*
X7324567Y-37740676D01*
X7329301Y-37739734D01*
X7333316Y-37737051D01*
X7336247Y-37735837D01*
X7373751Y-37735836D01*
X7376683Y-37737050D01*
X7380699Y-37739734D01*
X7385436Y-37740676D01*
X7385438Y-37740677D01*
X7418220Y-37747197D01*
X7454933Y-37754500D01*
X7457343Y-37754500D01*
X7905654Y-37754499D01*
X8355066Y-37754499D01*
X8357418Y-37754031D01*
X8357420Y-37754031D01*
X8424566Y-37740676D01*
X8424567Y-37740676D01*
X8429301Y-37739734D01*
X8433316Y-37737051D01*
X8436247Y-37735837D01*
X8473751Y-37735836D01*
X8476683Y-37737050D01*
X8480699Y-37739734D01*
X8485436Y-37740676D01*
X8485438Y-37740677D01*
X8518220Y-37747197D01*
X8554933Y-37754500D01*
X8557343Y-37754500D01*
X9005654Y-37754499D01*
X9455066Y-37754499D01*
X9457418Y-37754031D01*
X9457420Y-37754031D01*
X9524566Y-37740676D01*
X9524567Y-37740676D01*
X9529301Y-37739734D01*
X9533316Y-37737051D01*
X9536247Y-37735837D01*
X9573751Y-37735836D01*
X9576683Y-37737050D01*
X9580699Y-37739734D01*
X9585436Y-37740676D01*
X9585438Y-37740677D01*
X9618220Y-37747197D01*
X9654933Y-37754500D01*
X9657343Y-37754500D01*
X10105654Y-37754499D01*
X10555066Y-37754499D01*
X10557418Y-37754031D01*
X10557420Y-37754031D01*
X10593403Y-37746874D01*
X10629301Y-37739734D01*
X10633312Y-37737054D01*
X10633314Y-37737053D01*
X10709473Y-37686164D01*
X10713484Y-37683484D01*
X10769734Y-37599301D01*
X10784500Y-37525067D01*
X10784499Y-36374934D01*
X10769734Y-36300699D01*
X10759389Y-36285216D01*
X10718865Y-36224569D01*
X10713484Y-36216516D01*
X10629301Y-36160266D01*
X10555067Y-36145500D01*
X10552657Y-36145500D01*
X10104346Y-36145501D01*
X9654934Y-36145501D01*
X9652582Y-36145969D01*
X9652580Y-36145969D01*
X9621439Y-36152163D01*
X9584656Y-36144846D01*
X9563821Y-36113663D01*
X9572089Y-36075509D01*
X9576029Y-36070026D01*
X9577755Y-36067624D01*
X9636842Y-35920641D01*
X9659162Y-35763807D01*
X9659307Y-35750000D01*
X9640276Y-35592733D01*
X9584280Y-35444546D01*
X9494553Y-35313992D01*
X9492348Y-35312028D01*
X9492345Y-35312024D01*
X9378485Y-35210580D01*
X9376275Y-35208611D01*
X9236274Y-35134484D01*
X9082633Y-35095892D01*
X9002177Y-35095470D01*
X8927174Y-35095077D01*
X8927170Y-35095077D01*
X8924221Y-35095062D01*
X8921352Y-35095751D01*
X8921350Y-35095751D01*
X8773058Y-35131353D01*
X8770184Y-35132043D01*
X8746205Y-35144419D01*
X8639637Y-35199423D01*
X8602265Y-35202561D01*
X8576781Y-35183635D01*
X8570262Y-35174149D01*
X8494553Y-35063992D01*
X8492348Y-35062028D01*
X8492345Y-35062024D01*
X8378485Y-34960580D01*
X8376275Y-34958611D01*
X8236274Y-34884484D01*
X8233408Y-34883764D01*
X8233400Y-34883761D01*
X8232683Y-34883581D01*
X8232418Y-34883384D01*
X8230649Y-34882705D01*
X8230839Y-34882211D01*
X8202577Y-34861217D01*
X8197104Y-34824116D01*
X8209978Y-34801411D01*
X8841989Y-34169400D01*
X8876637Y-34155048D01*
X8889071Y-34156652D01*
X8912897Y-34162902D01*
X8922821Y-34165506D01*
X9009647Y-34166870D01*
X9078264Y-34167948D01*
X9078267Y-34167948D01*
X9081215Y-34167994D01*
X9084092Y-34167335D01*
X9084093Y-34167335D01*
X9232750Y-34133288D01*
X9232751Y-34133288D01*
X9235631Y-34132628D01*
X9238270Y-34131301D01*
X9238272Y-34131300D01*
X9374510Y-34062780D01*
X9374511Y-34062779D01*
X9377154Y-34061450D01*
X9460500Y-33990266D01*
X9495371Y-33960483D01*
X9495372Y-33960482D01*
X9497613Y-33958568D01*
X9590054Y-33829923D01*
X9649141Y-33682940D01*
X9671461Y-33526106D01*
X9671606Y-33512299D01*
X9652575Y-33355032D01*
X9614017Y-33252992D01*
X9597624Y-33209610D01*
X9597623Y-33209609D01*
X9596579Y-33206845D01*
X9506852Y-33076291D01*
X9504647Y-33074327D01*
X9504644Y-33074323D01*
X9390784Y-32972879D01*
X9388574Y-32970910D01*
X9248573Y-32896783D01*
X9094932Y-32858191D01*
X9014476Y-32857769D01*
X8939473Y-32857376D01*
X8939469Y-32857376D01*
X8936520Y-32857361D01*
X8933651Y-32858050D01*
X8933649Y-32858050D01*
X8928960Y-32859176D01*
X8891919Y-32853309D01*
X8882873Y-32846178D01*
X6013153Y-29976459D01*
X5998801Y-29941811D01*
X5998801Y-27415332D01*
X6013153Y-27380684D01*
X6015978Y-27378072D01*
X6102373Y-27304284D01*
X6102374Y-27304283D01*
X6104615Y-27302369D01*
X6197056Y-27173724D01*
X6256143Y-27026741D01*
X6278463Y-26869907D01*
X6278608Y-26856100D01*
X6259577Y-26698833D01*
X6246640Y-26664596D01*
X6204626Y-26553411D01*
X6204625Y-26553410D01*
X6203581Y-26550646D01*
X6116427Y-26423836D01*
X6115529Y-26422529D01*
X6115529Y-26422528D01*
X6113854Y-26420092D01*
X6111649Y-26418128D01*
X6111646Y-26418124D01*
X5997786Y-26316680D01*
X5995576Y-26314711D01*
X5855575Y-26240584D01*
X5701934Y-26201992D01*
X5621478Y-26201570D01*
X5546475Y-26201177D01*
X5546471Y-26201177D01*
X5543522Y-26201162D01*
X5540653Y-26201851D01*
X5540651Y-26201851D01*
X5432271Y-26227871D01*
X5389485Y-26238143D01*
X5386857Y-26239499D01*
X5386858Y-26239499D01*
X5269733Y-26299952D01*
X5248715Y-26310800D01*
X5246495Y-26312737D01*
X5246493Y-26312738D01*
X5159929Y-26388253D01*
X5129340Y-26414938D01*
X5127642Y-26417353D01*
X5127641Y-26417355D01*
X5084344Y-26478961D01*
X5038251Y-26544544D01*
X5037180Y-26547292D01*
X5037178Y-26547295D01*
X5009437Y-26618449D01*
X4980707Y-26692137D01*
X4979824Y-26698844D01*
X4960539Y-26845333D01*
X4960030Y-26849196D01*
X4977414Y-27006653D01*
X5031854Y-27155419D01*
X5033499Y-27157867D01*
X5118562Y-27284455D01*
X5118565Y-27284458D01*
X5120209Y-27286905D01*
X5223780Y-27381146D01*
X5239801Y-27417387D01*
X5239801Y-30073576D01*
X5238703Y-30083890D01*
X5234981Y-30101177D01*
X5237091Y-30119001D01*
X5239461Y-30139026D01*
X5239801Y-30144786D01*
X5239801Y-30150825D01*
X5240132Y-30152813D01*
X5243270Y-30171665D01*
X5243595Y-30173952D01*
X5249831Y-30226642D01*
X5251585Y-30230294D01*
X5252715Y-30234184D01*
X5252554Y-30234231D01*
X5253162Y-30236154D01*
X5253321Y-30236100D01*
X5254632Y-30239929D01*
X5255297Y-30243927D01*
X5280511Y-30290657D01*
X5281529Y-30292654D01*
X5304520Y-30340533D01*
X5306500Y-30342889D01*
X5306502Y-30342891D01*
X5307440Y-30344007D01*
X5307449Y-30344016D01*
X5308006Y-30344679D01*
X5308115Y-30344809D01*
X5308105Y-30344818D01*
X5310715Y-30348484D01*
X5310886Y-30348351D01*
X5313367Y-30351550D01*
X5315291Y-30355115D01*
X5318266Y-30357865D01*
X5355985Y-30392732D01*
X5357372Y-30394066D01*
X8349398Y-33386092D01*
X8363750Y-33420740D01*
X8363331Y-33427136D01*
X8360252Y-33450527D01*
X8353028Y-33505395D01*
X8355822Y-33530699D01*
X8358358Y-33553674D01*
X8347895Y-33589688D01*
X8344302Y-33593699D01*
X6681594Y-35256407D01*
X6646946Y-35270759D01*
X6612298Y-35256407D01*
X6601110Y-35239080D01*
X6585328Y-35197316D01*
X6585323Y-35197307D01*
X6584280Y-35194546D01*
X6580225Y-35188645D01*
X6496228Y-35066429D01*
X6496228Y-35066428D01*
X6494553Y-35063992D01*
X6492348Y-35062028D01*
X6492345Y-35062024D01*
X6378485Y-34960580D01*
X6376275Y-34958611D01*
X6236274Y-34884484D01*
X6082633Y-34845892D01*
X6002177Y-34845470D01*
X5927174Y-34845077D01*
X5927170Y-34845077D01*
X5924221Y-34845062D01*
X5921352Y-34845751D01*
X5921350Y-34845751D01*
X5799520Y-34875000D01*
X5770184Y-34882043D01*
X5629414Y-34954700D01*
X5627194Y-34956637D01*
X5627192Y-34956638D01*
X5512701Y-35056516D01*
X5510039Y-35058838D01*
X5508341Y-35061253D01*
X5508340Y-35061255D01*
X5504704Y-35066429D01*
X5418950Y-35188444D01*
X5418065Y-35190714D01*
X5389168Y-35214363D01*
X5351851Y-35210637D01*
X5335262Y-35193871D01*
X5334280Y-35194546D01*
X5246228Y-35066429D01*
X5246228Y-35066428D01*
X5244553Y-35063992D01*
X5242348Y-35062028D01*
X5242345Y-35062024D01*
X5128485Y-34960580D01*
X5126275Y-34958611D01*
X4986274Y-34884484D01*
X4832633Y-34845892D01*
X4752177Y-34845470D01*
X4677174Y-34845077D01*
X4677170Y-34845077D01*
X4674221Y-34845062D01*
X4671352Y-34845751D01*
X4671350Y-34845751D01*
X4549520Y-34875000D01*
X4520184Y-34882043D01*
X4379414Y-34954700D01*
X4377194Y-34956637D01*
X4377192Y-34956638D01*
X4262701Y-35056516D01*
X4260039Y-35058838D01*
X4258341Y-35061253D01*
X4258340Y-35061255D01*
X4254704Y-35066429D01*
X4168950Y-35188444D01*
X4167879Y-35191192D01*
X4167877Y-35191195D01*
X4149736Y-35237726D01*
X4138731Y-35254575D01*
X3268989Y-36124317D01*
X3260920Y-36130834D01*
X3250339Y-36137666D01*
X3223760Y-36145501D01*
X3054934Y-36145501D01*
X3052582Y-36145969D01*
X3052580Y-36145969D01*
X2985434Y-36159324D01*
X2985433Y-36159324D01*
X2980699Y-36160266D01*
X2976684Y-36162949D01*
X2973753Y-36164163D01*
X2936249Y-36164164D01*
X2933317Y-36162950D01*
X2929301Y-36160266D01*
X2924564Y-36159324D01*
X2924562Y-36159323D01*
X2888564Y-36152163D01*
X2855067Y-36145500D01*
X2818944Y-36145500D01*
X2133499Y-36145501D01*
X2098851Y-36131149D01*
X2084499Y-36096501D01*
X2084499Y-35674934D01*
X2069734Y-35600699D01*
X2064412Y-35592733D01*
X2016164Y-35520527D01*
X2013484Y-35516516D01*
X1929301Y-35460266D01*
X1855067Y-35445500D01*
X1852657Y-35445500D01*
X1244113Y-35445501D01*
X634934Y-35445501D01*
X632582Y-35445969D01*
X632580Y-35445969D01*
X596597Y-35453126D01*
X560699Y-35460266D01*
X556688Y-35462946D01*
X556686Y-35462947D01*
X556685Y-35462948D01*
X476516Y-35516516D01*
X473836Y-35520527D01*
X434994Y-35578658D01*
X420266Y-35600699D01*
X405500Y-35674933D01*
X254500Y-35674933D01*
X254500Y-25424933D01*
X2065500Y-25424933D01*
X2065501Y-26825066D01*
X2065969Y-26827418D01*
X2065969Y-26827420D01*
X2071884Y-26857158D01*
X2080266Y-26899301D01*
X2082946Y-26903312D01*
X2082947Y-26903314D01*
X2123328Y-26963747D01*
X2136516Y-26983484D01*
X2140527Y-26986164D01*
X2190434Y-27019511D01*
X2220699Y-27039734D01*
X2294933Y-27054500D01*
X2297343Y-27054500D01*
X3271418Y-27054499D01*
X4245066Y-27054499D01*
X4247418Y-27054031D01*
X4247420Y-27054031D01*
X4286349Y-27046288D01*
X4319301Y-27039734D01*
X4323312Y-27037054D01*
X4323314Y-27037053D01*
X4399473Y-26986164D01*
X4403484Y-26983484D01*
X4459734Y-26899301D01*
X4474500Y-26825067D01*
X4474499Y-25424934D01*
X4474499Y-25424933D01*
X8035500Y-25424933D01*
X8035501Y-26825066D01*
X8035969Y-26827418D01*
X8035969Y-26827420D01*
X8041884Y-26857158D01*
X8050266Y-26899301D01*
X8052946Y-26903312D01*
X8052947Y-26903314D01*
X8093328Y-26963747D01*
X8106516Y-26983484D01*
X8110527Y-26986164D01*
X8160434Y-27019511D01*
X8190699Y-27039734D01*
X8264933Y-27054500D01*
X8267343Y-27054500D01*
X9241418Y-27054499D01*
X10215066Y-27054499D01*
X10217418Y-27054031D01*
X10217420Y-27054031D01*
X10256349Y-27046288D01*
X10289301Y-27039734D01*
X10293312Y-27037054D01*
X10293314Y-27037053D01*
X10369473Y-26986164D01*
X10373484Y-26983484D01*
X10429734Y-26899301D01*
X10444500Y-26825067D01*
X10444499Y-25424934D01*
X10429734Y-25350699D01*
X10424412Y-25342733D01*
X10376164Y-25270527D01*
X10373484Y-25266516D01*
X10289301Y-25210266D01*
X10215067Y-25195500D01*
X10212657Y-25195500D01*
X9238582Y-25195501D01*
X8264934Y-25195501D01*
X8262582Y-25195969D01*
X8262580Y-25195969D01*
X8226597Y-25203126D01*
X8190699Y-25210266D01*
X8186688Y-25212946D01*
X8186686Y-25212947D01*
X8170975Y-25223445D01*
X8106516Y-25266516D01*
X8050266Y-25350699D01*
X8035500Y-25424933D01*
X4474499Y-25424933D01*
X4459734Y-25350699D01*
X4454412Y-25342733D01*
X4406164Y-25270527D01*
X4403484Y-25266516D01*
X4319301Y-25210266D01*
X4245067Y-25195500D01*
X4242657Y-25195500D01*
X3268582Y-25195501D01*
X2294934Y-25195501D01*
X2292582Y-25195969D01*
X2292580Y-25195969D01*
X2256597Y-25203126D01*
X2220699Y-25210266D01*
X2216688Y-25212946D01*
X2216686Y-25212947D01*
X2200975Y-25223445D01*
X2136516Y-25266516D01*
X2080266Y-25350699D01*
X2065500Y-25424933D01*
X254500Y-25424933D01*
X254500Y-23652000D01*
X1012925Y-23652000D01*
X1031173Y-23825622D01*
X1085121Y-23991656D01*
X1086405Y-23993881D01*
X1086406Y-23993882D01*
X1129889Y-24069196D01*
X1172410Y-24142845D01*
X1289226Y-24272582D01*
X1291306Y-24274093D01*
X1291308Y-24274095D01*
X1417126Y-24365507D01*
X1430462Y-24375196D01*
X1432809Y-24376241D01*
X1587600Y-24445159D01*
X1587603Y-24445160D01*
X1589948Y-24446204D01*
X1592465Y-24446739D01*
X1758201Y-24481967D01*
X1758206Y-24481967D01*
X1760711Y-24482500D01*
X1935289Y-24482500D01*
X1937794Y-24481967D01*
X1937799Y-24481967D01*
X2103535Y-24446739D01*
X2106052Y-24446204D01*
X2108397Y-24445160D01*
X2108400Y-24445159D01*
X2263191Y-24376241D01*
X2265538Y-24375196D01*
X2278874Y-24365507D01*
X2404692Y-24274095D01*
X2404694Y-24274093D01*
X2406774Y-24272582D01*
X2523590Y-24142845D01*
X2566111Y-24069196D01*
X2609594Y-23993882D01*
X2609595Y-23993881D01*
X2610879Y-23991656D01*
X2664827Y-23825622D01*
X2683075Y-23652000D01*
X2664827Y-23478378D01*
X2610879Y-23312344D01*
X2604773Y-23301767D01*
X2524877Y-23163384D01*
X2524877Y-23163383D01*
X2523590Y-23161155D01*
X2518633Y-23155649D01*
X2413445Y-23038827D01*
X2406774Y-23031418D01*
X2382176Y-23013546D01*
X2267618Y-22930315D01*
X2267617Y-22930314D01*
X2265538Y-22928804D01*
X2214387Y-22906030D01*
X2108400Y-22858841D01*
X2108397Y-22858840D01*
X2106052Y-22857796D01*
X2089223Y-22854219D01*
X1937799Y-22822033D01*
X1937794Y-22822033D01*
X1935289Y-22821500D01*
X1760711Y-22821500D01*
X1758206Y-22822033D01*
X1758201Y-22822033D01*
X1606777Y-22854219D01*
X1589948Y-22857796D01*
X1587603Y-22858840D01*
X1587600Y-22858841D01*
X1551878Y-22874746D01*
X1430463Y-22928804D01*
X1428384Y-22930314D01*
X1428383Y-22930315D01*
X1313825Y-23013546D01*
X1289226Y-23031418D01*
X1282555Y-23038827D01*
X1177368Y-23155649D01*
X1172410Y-23161155D01*
X1171123Y-23163383D01*
X1171123Y-23163384D01*
X1091228Y-23301767D01*
X1085121Y-23312344D01*
X1031173Y-23478378D01*
X1012925Y-23652000D01*
X254500Y-23652000D01*
X254500Y-11493096D01*
X2340729Y-11493096D01*
X2358113Y-11650553D01*
X2412553Y-11799319D01*
X2414198Y-11801767D01*
X2499261Y-11928355D01*
X2499264Y-11928358D01*
X2500908Y-11930805D01*
X2503095Y-11932795D01*
X2575940Y-11999078D01*
X2618076Y-12037419D01*
X2757293Y-12113008D01*
X2910522Y-12153207D01*
X2998694Y-12154592D01*
X3065965Y-12155649D01*
X3065968Y-12155649D01*
X3068916Y-12155695D01*
X3071793Y-12155036D01*
X3071794Y-12155036D01*
X3220451Y-12120989D01*
X3220452Y-12120989D01*
X3223332Y-12120329D01*
X3225971Y-12119002D01*
X3225973Y-12119001D01*
X3281182Y-12091234D01*
X3318584Y-12088487D01*
X3346973Y-12112993D01*
X3349080Y-12117809D01*
X3363266Y-12155649D01*
X3377929Y-12194764D01*
X3380024Y-12197560D01*
X3380025Y-12197561D01*
X3425064Y-12257656D01*
X3464596Y-12310404D01*
X3580236Y-12397071D01*
X3583506Y-12398297D01*
X3583508Y-12398298D01*
X3676200Y-12433046D01*
X3703606Y-12458647D01*
X3708000Y-12478928D01*
X3708000Y-12521072D01*
X3693648Y-12555720D01*
X3676200Y-12566954D01*
X3583508Y-12601702D01*
X3583506Y-12601703D01*
X3580236Y-12602929D01*
X3464596Y-12689596D01*
X3462502Y-12692390D01*
X3382696Y-12798876D01*
X3377929Y-12805236D01*
X3327202Y-12940552D01*
X3326871Y-12943602D01*
X3326870Y-12943605D01*
X3323973Y-12970273D01*
X3320500Y-13002244D01*
X3320500Y-13997756D01*
X3320644Y-13999078D01*
X3326379Y-14051870D01*
X3327202Y-14059448D01*
X3357372Y-14139926D01*
X3375992Y-14189596D01*
X3377929Y-14194764D01*
X3380024Y-14197560D01*
X3380025Y-14197561D01*
X3415248Y-14244559D01*
X3464596Y-14310404D01*
X3467390Y-14312498D01*
X3557181Y-14379792D01*
X3580236Y-14397071D01*
X3583506Y-14398297D01*
X3583508Y-14398298D01*
X3676200Y-14433046D01*
X3703606Y-14458647D01*
X3708000Y-14478928D01*
X3708000Y-14521072D01*
X3693648Y-14555720D01*
X3676200Y-14566954D01*
X3583508Y-14601702D01*
X3583506Y-14601703D01*
X3580236Y-14602929D01*
X3464596Y-14689596D01*
X3377929Y-14805236D01*
X3327202Y-14940552D01*
X3320500Y-15002244D01*
X3320500Y-15997756D01*
X3320644Y-15999078D01*
X3326379Y-16051870D01*
X3327202Y-16059448D01*
X3357372Y-16139926D01*
X3375992Y-16189596D01*
X3377929Y-16194764D01*
X3464596Y-16310404D01*
X3467390Y-16312498D01*
X3511760Y-16345751D01*
X3580236Y-16397071D01*
X3583506Y-16398297D01*
X3583508Y-16398298D01*
X3676200Y-16433046D01*
X3703606Y-16458647D01*
X3708000Y-16478928D01*
X3708000Y-16521072D01*
X3693648Y-16555720D01*
X3676200Y-16566954D01*
X3583508Y-16601702D01*
X3583506Y-16601703D01*
X3580236Y-16602929D01*
X3577440Y-16605024D01*
X3577439Y-16605025D01*
X3480057Y-16678009D01*
X3464596Y-16689596D01*
X3377929Y-16805236D01*
X3376703Y-16808506D01*
X3376702Y-16808508D01*
X3364908Y-16839970D01*
X3327202Y-16940552D01*
X3326871Y-16943602D01*
X3326870Y-16943605D01*
X3325785Y-16953594D01*
X3320500Y-17002244D01*
X3320500Y-17997756D01*
X3327202Y-18059448D01*
X3357372Y-18139926D01*
X3375992Y-18189596D01*
X3377929Y-18194764D01*
X3380024Y-18197560D01*
X3380025Y-18197561D01*
X3403568Y-18228974D01*
X3464596Y-18310404D01*
X3467390Y-18312498D01*
X3540182Y-18367052D01*
X3580236Y-18397071D01*
X3583506Y-18398297D01*
X3583508Y-18398298D01*
X3676200Y-18433046D01*
X3703606Y-18458647D01*
X3708000Y-18478928D01*
X3708000Y-18521072D01*
X3693648Y-18555720D01*
X3676200Y-18566954D01*
X3583508Y-18601702D01*
X3583506Y-18601703D01*
X3580236Y-18602929D01*
X3464596Y-18689596D01*
X3462502Y-18692390D01*
X3411568Y-18760352D01*
X3377929Y-18805236D01*
X3376703Y-18808506D01*
X3376702Y-18808508D01*
X3357372Y-18860074D01*
X3327202Y-18940552D01*
X3326871Y-18943602D01*
X3326870Y-18943605D01*
X3326576Y-18946312D01*
X3320500Y-19002244D01*
X3320500Y-19997756D01*
X3320644Y-19999078D01*
X3325103Y-20040123D01*
X3327202Y-20059448D01*
X3343502Y-20102929D01*
X3375992Y-20189596D01*
X3377929Y-20194764D01*
X3380024Y-20197560D01*
X3380025Y-20197561D01*
X3393416Y-20215429D01*
X3464596Y-20310404D01*
X3467390Y-20312498D01*
X3576551Y-20394309D01*
X3580236Y-20397071D01*
X3583506Y-20398297D01*
X3583508Y-20398298D01*
X3676200Y-20433046D01*
X3703606Y-20458647D01*
X3708000Y-20478928D01*
X3708000Y-20521072D01*
X3693648Y-20555720D01*
X3676200Y-20566954D01*
X3583508Y-20601702D01*
X3583506Y-20601703D01*
X3580236Y-20602929D01*
X3577440Y-20605024D01*
X3577439Y-20605025D01*
X3472183Y-20683910D01*
X3464596Y-20689596D01*
X3462502Y-20692390D01*
X3450781Y-20708030D01*
X3377929Y-20805236D01*
X3327202Y-20940552D01*
X3320500Y-21002244D01*
X3320500Y-21997756D01*
X3327202Y-22059448D01*
X3355259Y-22134290D01*
X3375560Y-22188444D01*
X3377929Y-22194764D01*
X3464596Y-22310404D01*
X3467390Y-22312498D01*
X3521810Y-22353283D01*
X3580236Y-22397071D01*
X3583506Y-22398297D01*
X3583508Y-22398298D01*
X3635074Y-22417628D01*
X3715552Y-22447798D01*
X3718602Y-22448129D01*
X3718605Y-22448130D01*
X3745273Y-22451027D01*
X3777244Y-22454500D01*
X3897510Y-22454500D01*
X3932158Y-22468852D01*
X4337099Y-22873793D01*
X4351451Y-22908441D01*
X4351032Y-22914837D01*
X4340729Y-22993096D01*
X4358113Y-23150553D01*
X4412553Y-23299319D01*
X4414198Y-23301767D01*
X4499261Y-23428355D01*
X4499264Y-23428358D01*
X4500908Y-23430805D01*
X4618076Y-23537419D01*
X4757293Y-23613008D01*
X4910522Y-23653207D01*
X4998694Y-23654592D01*
X5065965Y-23655649D01*
X5065968Y-23655649D01*
X5068916Y-23655695D01*
X5071793Y-23655036D01*
X5071794Y-23655036D01*
X5220451Y-23620989D01*
X5220452Y-23620989D01*
X5223332Y-23620329D01*
X5225971Y-23619002D01*
X5225973Y-23619001D01*
X5312185Y-23575641D01*
X5349587Y-23572894D01*
X5377976Y-23597400D01*
X5383201Y-23619416D01*
X5383201Y-23766879D01*
X5382103Y-23777193D01*
X5378381Y-23794480D01*
X5380925Y-23815971D01*
X5382861Y-23832329D01*
X5383201Y-23838089D01*
X5383201Y-23844128D01*
X5383532Y-23846116D01*
X5386670Y-23864968D01*
X5386995Y-23867255D01*
X5393231Y-23919945D01*
X5394985Y-23923597D01*
X5396115Y-23927487D01*
X5395954Y-23927534D01*
X5396562Y-23929457D01*
X5396721Y-23929403D01*
X5398032Y-23933232D01*
X5398697Y-23937230D01*
X5423911Y-23983960D01*
X5424929Y-23985957D01*
X5447920Y-24033836D01*
X5449900Y-24036192D01*
X5449902Y-24036194D01*
X5450840Y-24037310D01*
X5450849Y-24037319D01*
X5451406Y-24037982D01*
X5451515Y-24038112D01*
X5451505Y-24038121D01*
X5454115Y-24041787D01*
X5454286Y-24041654D01*
X5456767Y-24044853D01*
X5458691Y-24048418D01*
X5461666Y-24051168D01*
X5499385Y-24086035D01*
X5500772Y-24087369D01*
X6161713Y-24748310D01*
X6168227Y-24756375D01*
X6177825Y-24771239D01*
X6207762Y-24794839D01*
X6212075Y-24798672D01*
X6216340Y-24802937D01*
X6217985Y-24804112D01*
X6217989Y-24804116D01*
X6233530Y-24815222D01*
X6235376Y-24816608D01*
X6273437Y-24846612D01*
X6277043Y-24849455D01*
X6280867Y-24850798D01*
X6284413Y-24852747D01*
X6284332Y-24852895D01*
X6286123Y-24853826D01*
X6286197Y-24853675D01*
X6289835Y-24855457D01*
X6293130Y-24857812D01*
X6297009Y-24858972D01*
X6297011Y-24858973D01*
X6343974Y-24873018D01*
X6346168Y-24873731D01*
X6396247Y-24891317D01*
X6399316Y-24891583D01*
X6399317Y-24891583D01*
X6400760Y-24891708D01*
X6400763Y-24891708D01*
X6401812Y-24891799D01*
X6401811Y-24891812D01*
X6406248Y-24892560D01*
X6406275Y-24892344D01*
X6410294Y-24892852D01*
X6414174Y-24894012D01*
X6418223Y-24893853D01*
X6469533Y-24891837D01*
X6471457Y-24891799D01*
X6928025Y-24891799D01*
X6962673Y-24906151D01*
X6968690Y-24913461D01*
X6988609Y-24943104D01*
X7024676Y-24975922D01*
X7069737Y-25016924D01*
X7105777Y-25049718D01*
X7244994Y-25125307D01*
X7398223Y-25165506D01*
X7486395Y-25166891D01*
X7553666Y-25167948D01*
X7553669Y-25167948D01*
X7556617Y-25167994D01*
X7559494Y-25167335D01*
X7559495Y-25167335D01*
X7708152Y-25133288D01*
X7708153Y-25133288D01*
X7711033Y-25132628D01*
X7713672Y-25131301D01*
X7713674Y-25131300D01*
X7849912Y-25062780D01*
X7849913Y-25062779D01*
X7852556Y-25061450D01*
X7952723Y-24975899D01*
X7970773Y-24960483D01*
X7970774Y-24960482D01*
X7973015Y-24958568D01*
X8020984Y-24891812D01*
X8063731Y-24832324D01*
X8063732Y-24832322D01*
X8065456Y-24829923D01*
X8119023Y-24696671D01*
X8123442Y-24685679D01*
X8123442Y-24685678D01*
X8124543Y-24682940D01*
X8146863Y-24526106D01*
X8147008Y-24512299D01*
X8127977Y-24355032D01*
X8096821Y-24272582D01*
X8073026Y-24209610D01*
X8073025Y-24209609D01*
X8071981Y-24206845D01*
X7982254Y-24076291D01*
X7980049Y-24074327D01*
X7980046Y-24074323D01*
X7883605Y-23988398D01*
X7867201Y-23951813D01*
X7867201Y-21103300D01*
X7881553Y-21068652D01*
X8088914Y-20861291D01*
X8123562Y-20846939D01*
X8127960Y-20847239D01*
X8129577Y-20847663D01*
X8205226Y-20848851D01*
X8285020Y-20850105D01*
X8285023Y-20850105D01*
X8287971Y-20850151D01*
X8290848Y-20849492D01*
X8290849Y-20849492D01*
X8439506Y-20815445D01*
X8439507Y-20815445D01*
X8442387Y-20814785D01*
X8445026Y-20813458D01*
X8445028Y-20813457D01*
X8581266Y-20744937D01*
X8581267Y-20744936D01*
X8583910Y-20743607D01*
X8704369Y-20640725D01*
X8757379Y-20566954D01*
X8795085Y-20514481D01*
X8795086Y-20514479D01*
X8796810Y-20512080D01*
X8855897Y-20365097D01*
X8878217Y-20208263D01*
X8878362Y-20194456D01*
X8859331Y-20037189D01*
X8826232Y-19949597D01*
X8804380Y-19891767D01*
X8804379Y-19891766D01*
X8803335Y-19889002D01*
X8713608Y-19758448D01*
X8711403Y-19756484D01*
X8711400Y-19756480D01*
X8597540Y-19655036D01*
X8595330Y-19653067D01*
X8455329Y-19578940D01*
X8301688Y-19540348D01*
X8220317Y-19539922D01*
X8185746Y-19525389D01*
X8171774Y-19490901D01*
X8171677Y-19490906D01*
X8171661Y-19490622D01*
X8171578Y-19490416D01*
X8171589Y-19489313D01*
X8171606Y-19487701D01*
X8152575Y-19330434D01*
X8127376Y-19263747D01*
X8097624Y-19185012D01*
X8097623Y-19185011D01*
X8096579Y-19182247D01*
X8006852Y-19051693D01*
X8004647Y-19049729D01*
X8004644Y-19049725D01*
X7890784Y-18948281D01*
X7888574Y-18946312D01*
X7748573Y-18872185D01*
X7594932Y-18833593D01*
X7514476Y-18833171D01*
X7439473Y-18832778D01*
X7439469Y-18832778D01*
X7436520Y-18832763D01*
X7433651Y-18833452D01*
X7433649Y-18833452D01*
X7285357Y-18869054D01*
X7282483Y-18869744D01*
X7142523Y-18941983D01*
X7105151Y-18945121D01*
X7076507Y-18920915D01*
X7073369Y-18883543D01*
X7085401Y-18863793D01*
X8813308Y-17135886D01*
X8821373Y-17129372D01*
X8836237Y-17119774D01*
X8859838Y-17089836D01*
X8863670Y-17085524D01*
X8867935Y-17081259D01*
X8880216Y-17064074D01*
X8881601Y-17062230D01*
X8911944Y-17023739D01*
X8911945Y-17023738D01*
X8914453Y-17020556D01*
X8915796Y-17016731D01*
X8917745Y-17013186D01*
X8917893Y-17013267D01*
X8918825Y-17011474D01*
X8918675Y-17011400D01*
X8920456Y-17007764D01*
X8922811Y-17004469D01*
X8938026Y-16953593D01*
X8938740Y-16951399D01*
X8955294Y-16904259D01*
X8956315Y-16901352D01*
X8956797Y-16895787D01*
X8956810Y-16895788D01*
X8957558Y-16891351D01*
X8957342Y-16891324D01*
X8957850Y-16887305D01*
X8959010Y-16883425D01*
X8956835Y-16828066D01*
X8956797Y-16826142D01*
X8956797Y-9254787D01*
X8971149Y-9220139D01*
X9611945Y-8579343D01*
X9646593Y-8564991D01*
X9681241Y-8579343D01*
X9695593Y-8613991D01*
X9695562Y-8614622D01*
X9695500Y-8614933D01*
X9695501Y-10865066D01*
X9710266Y-10939301D01*
X9712946Y-10943312D01*
X9712947Y-10943314D01*
X9719651Y-10953347D01*
X9766516Y-11023484D01*
X9850699Y-11079734D01*
X9924933Y-11094500D01*
X9927343Y-11094500D01*
X10851345Y-11094499D01*
X11775066Y-11094499D01*
X11777418Y-11094031D01*
X11777420Y-11094031D01*
X11813403Y-11086874D01*
X11849301Y-11079734D01*
X11853312Y-11077054D01*
X11853314Y-11077053D01*
X11929473Y-11026164D01*
X11933484Y-11023484D01*
X11989734Y-10939301D01*
X12004500Y-10865067D01*
X12004499Y-8614934D01*
X11989734Y-8540699D01*
X11986979Y-8536575D01*
X11936164Y-8460527D01*
X11933484Y-8456516D01*
X11849301Y-8400266D01*
X11775067Y-8385500D01*
X11772657Y-8385500D01*
X10848655Y-8385501D01*
X9924934Y-8385501D01*
X9915248Y-8387427D01*
X9899793Y-8390501D01*
X9863011Y-8383183D01*
X9842176Y-8352000D01*
X9845831Y-8323955D01*
X9845514Y-8323860D01*
X9846098Y-8321908D01*
X9846098Y-8321907D01*
X9860729Y-8272984D01*
X9861443Y-8270790D01*
X9879018Y-8220743D01*
X9879500Y-8215178D01*
X9879513Y-8215179D01*
X9880261Y-8210742D01*
X9880045Y-8210715D01*
X9880553Y-8206696D01*
X9881713Y-8202816D01*
X9879538Y-8147457D01*
X9879500Y-8145533D01*
X9879500Y-7186757D01*
X12092001Y-7186757D01*
X12092144Y-7189407D01*
X12098416Y-7247153D01*
X12099827Y-7253085D01*
X12148601Y-7383190D01*
X12151924Y-7389259D01*
X12235002Y-7500110D01*
X12239890Y-7504998D01*
X12350741Y-7588076D01*
X12356810Y-7591399D01*
X12486919Y-7640175D01*
X12492846Y-7641584D01*
X12550589Y-7647856D01*
X12553237Y-7648000D01*
X12590253Y-7648000D01*
X12597145Y-7645145D01*
X12600000Y-7638253D01*
X12600000Y-6649747D01*
X12597145Y-6642855D01*
X12590253Y-6640000D01*
X12101748Y-6640000D01*
X12094856Y-6642855D01*
X12092001Y-6649747D01*
X12092001Y-7186757D01*
X9879500Y-7186757D01*
X9879500Y-6177490D01*
X9893852Y-6142842D01*
X10127842Y-5908852D01*
X10162490Y-5894500D01*
X12043000Y-5894500D01*
X12077648Y-5908852D01*
X12092000Y-5943500D01*
X12092000Y-6330253D01*
X12094855Y-6337145D01*
X12101747Y-6340000D01*
X12796500Y-6340000D01*
X12831148Y-6354352D01*
X12845500Y-6389000D01*
X12845501Y-6798380D01*
X12845501Y-7165066D01*
X12860266Y-7239301D01*
X12862946Y-7243312D01*
X12862947Y-7243314D01*
X12891742Y-7286407D01*
X12900000Y-7313630D01*
X12900000Y-7638252D01*
X12902855Y-7645144D01*
X12909747Y-7647999D01*
X12946757Y-7647999D01*
X12949407Y-7647856D01*
X13007153Y-7641584D01*
X13013085Y-7640173D01*
X13143190Y-7591399D01*
X13149259Y-7588076D01*
X13260110Y-7504998D01*
X13264998Y-7500110D01*
X13329448Y-7414113D01*
X13361711Y-7394994D01*
X13368656Y-7394499D01*
X13425066Y-7394499D01*
X13427417Y-7394031D01*
X13427421Y-7394031D01*
X13490443Y-7381496D01*
X13509557Y-7381496D01*
X13574933Y-7394500D01*
X13577343Y-7394500D01*
X13750254Y-7394499D01*
X13925066Y-7394499D01*
X13927417Y-7394031D01*
X13927421Y-7394031D01*
X13990443Y-7381496D01*
X14009557Y-7381496D01*
X14074933Y-7394500D01*
X14077343Y-7394500D01*
X14250254Y-7394499D01*
X14425066Y-7394499D01*
X14427417Y-7394031D01*
X14427421Y-7394031D01*
X14490443Y-7381496D01*
X14509557Y-7381496D01*
X14574933Y-7394500D01*
X14631342Y-7394500D01*
X14665990Y-7408852D01*
X14670552Y-7414114D01*
X14735002Y-7500110D01*
X14739890Y-7504998D01*
X14850741Y-7588076D01*
X14856810Y-7591399D01*
X14986919Y-7640175D01*
X14992846Y-7641584D01*
X15050589Y-7647856D01*
X15053237Y-7648000D01*
X15090253Y-7648000D01*
X15097145Y-7645145D01*
X15100000Y-7638253D01*
X15100000Y-7313630D01*
X15108258Y-7286407D01*
X15137052Y-7243315D01*
X15139734Y-7239301D01*
X15154500Y-7165067D01*
X15154499Y-5814934D01*
X15139734Y-5740699D01*
X15137052Y-5736685D01*
X15135206Y-5732228D01*
X15135987Y-5731904D01*
X15129500Y-5710519D01*
X15129500Y-5176541D01*
X15130598Y-5166227D01*
X15133468Y-5152899D01*
X15133468Y-5152897D01*
X15134321Y-5148936D01*
X15129840Y-5111079D01*
X15129500Y-5105319D01*
X15129500Y-5099288D01*
X15126032Y-5078449D01*
X15125709Y-5076180D01*
X15122667Y-5050481D01*
X15119470Y-5023471D01*
X15117715Y-5019818D01*
X15116586Y-5015930D01*
X15116748Y-5015883D01*
X15116139Y-5013959D01*
X15115980Y-5014013D01*
X15114669Y-5010184D01*
X15114004Y-5006186D01*
X15088790Y-4959456D01*
X15087772Y-4957459D01*
X15064781Y-4909580D01*
X15061187Y-4905305D01*
X15061196Y-4905297D01*
X15058585Y-4901630D01*
X15058415Y-4901762D01*
X15055934Y-4898563D01*
X15054010Y-4894998D01*
X15013316Y-4857381D01*
X15011929Y-4856047D01*
X14169030Y-4013148D01*
X14154678Y-3978500D01*
X14169030Y-3943852D01*
X14203678Y-3929500D01*
X15082510Y-3929500D01*
X15117158Y-3943852D01*
X16675159Y-5501853D01*
X16689511Y-5536501D01*
X16675159Y-5571149D01*
X16640512Y-5585501D01*
X16574934Y-5585501D01*
X16572583Y-5585969D01*
X16572579Y-5585969D01*
X16509557Y-5598504D01*
X16490443Y-5598504D01*
X16425067Y-5585500D01*
X16422657Y-5585500D01*
X16249746Y-5585501D01*
X16074934Y-5585501D01*
X16072583Y-5585969D01*
X16072579Y-5585969D01*
X16009557Y-5598504D01*
X15990443Y-5598504D01*
X15925067Y-5585500D01*
X15868658Y-5585500D01*
X15834010Y-5571148D01*
X15829448Y-5565886D01*
X15764998Y-5479890D01*
X15760110Y-5475002D01*
X15649259Y-5391924D01*
X15643190Y-5388601D01*
X15513081Y-5339825D01*
X15507154Y-5338416D01*
X15449411Y-5332144D01*
X15446763Y-5332000D01*
X15409747Y-5332000D01*
X15402855Y-5334855D01*
X15400000Y-5341747D01*
X15400000Y-5666370D01*
X15391742Y-5693592D01*
X15360266Y-5740699D01*
X15345500Y-5814933D01*
X15345501Y-7165066D01*
X15360266Y-7239301D01*
X15362946Y-7243312D01*
X15362947Y-7243314D01*
X15391742Y-7286407D01*
X15400000Y-7313630D01*
X15400000Y-7638252D01*
X15402855Y-7645144D01*
X15409747Y-7647999D01*
X15446757Y-7647999D01*
X15449407Y-7647856D01*
X15507153Y-7641584D01*
X15513085Y-7640173D01*
X15596154Y-7609032D01*
X15633635Y-7610308D01*
X15659236Y-7637714D01*
X15659007Y-7672713D01*
X15625653Y-7758262D01*
X15624581Y-7761012D01*
X15618183Y-7809613D01*
X15605501Y-7905944D01*
X15603904Y-7918071D01*
X15621288Y-8075528D01*
X15675728Y-8224294D01*
X15677373Y-8226742D01*
X15762436Y-8353330D01*
X15762439Y-8353333D01*
X15764083Y-8355780D01*
X15766270Y-8357770D01*
X15855723Y-8439165D01*
X15881251Y-8462394D01*
X16020468Y-8537983D01*
X16173697Y-8578182D01*
X16261869Y-8579567D01*
X16329140Y-8580624D01*
X16329143Y-8580624D01*
X16332091Y-8580670D01*
X16334968Y-8580011D01*
X16334969Y-8580011D01*
X16406740Y-8563573D01*
X16478071Y-8547236D01*
X16515047Y-8553490D01*
X16523657Y-8560351D01*
X16706126Y-8742820D01*
X16720478Y-8777468D01*
X16720059Y-8783864D01*
X16709756Y-8862123D01*
X16727140Y-9019580D01*
X16781580Y-9168346D01*
X16783225Y-9170794D01*
X16868288Y-9297382D01*
X16868291Y-9297385D01*
X16869935Y-9299832D01*
X16872122Y-9301822D01*
X16951218Y-9373793D01*
X16987103Y-9406446D01*
X17126320Y-9482035D01*
X17279549Y-9522234D01*
X17367721Y-9523619D01*
X17434992Y-9524676D01*
X17434995Y-9524676D01*
X17437943Y-9524722D01*
X17440820Y-9524063D01*
X17440821Y-9524063D01*
X17589478Y-9490016D01*
X17589479Y-9490016D01*
X17592359Y-9489356D01*
X17594998Y-9488029D01*
X17595000Y-9488028D01*
X17731238Y-9419508D01*
X17731239Y-9419507D01*
X17733882Y-9418178D01*
X17818781Y-9345667D01*
X17852099Y-9317211D01*
X17852100Y-9317210D01*
X17854341Y-9315296D01*
X17913790Y-9232564D01*
X17945057Y-9189052D01*
X17945058Y-9189050D01*
X17946782Y-9186651D01*
X18005869Y-9039668D01*
X18028189Y-8882834D01*
X18028334Y-8869027D01*
X18009303Y-8711760D01*
X17987223Y-8653328D01*
X17954352Y-8566338D01*
X17954351Y-8566337D01*
X17953307Y-8563573D01*
X17863580Y-8433019D01*
X17861375Y-8431055D01*
X17861372Y-8431051D01*
X17747512Y-8329607D01*
X17745302Y-8327638D01*
X17605301Y-8253511D01*
X17451660Y-8214919D01*
X17371625Y-8214500D01*
X17296202Y-8214104D01*
X17296198Y-8214104D01*
X17293248Y-8214089D01*
X17285684Y-8215905D01*
X17248643Y-8210036D01*
X17239600Y-8202906D01*
X16929051Y-7892357D01*
X16915054Y-7863595D01*
X16914475Y-7858804D01*
X16903451Y-7767708D01*
X16889971Y-7732034D01*
X16848500Y-7622286D01*
X16848499Y-7622285D01*
X16847455Y-7619521D01*
X16765712Y-7500584D01*
X16759399Y-7491398D01*
X16759398Y-7491397D01*
X16757728Y-7488967D01*
X16747760Y-7480086D01*
X16731437Y-7446321D01*
X16743770Y-7410904D01*
X16780356Y-7394500D01*
X16920054Y-7394499D01*
X16925066Y-7394499D01*
X16927417Y-7394031D01*
X16927421Y-7394031D01*
X16990443Y-7381496D01*
X17009557Y-7381496D01*
X17074933Y-7394500D01*
X17077343Y-7394500D01*
X17250254Y-7394499D01*
X17425066Y-7394499D01*
X17427417Y-7394031D01*
X17427421Y-7394031D01*
X17490443Y-7381496D01*
X17509557Y-7381496D01*
X17574933Y-7394500D01*
X17577343Y-7394500D01*
X17750254Y-7394499D01*
X17925066Y-7394499D01*
X17927417Y-7394031D01*
X17927421Y-7394031D01*
X17990443Y-7381496D01*
X18009557Y-7381496D01*
X18074933Y-7394500D01*
X18077343Y-7394500D01*
X18250254Y-7394499D01*
X18425066Y-7394499D01*
X18427417Y-7394031D01*
X18427421Y-7394031D01*
X18490443Y-7381496D01*
X18509557Y-7381496D01*
X18574933Y-7394500D01*
X18577343Y-7394500D01*
X18750254Y-7394499D01*
X18925066Y-7394499D01*
X18927417Y-7394031D01*
X18927421Y-7394031D01*
X18990443Y-7381496D01*
X19009557Y-7381496D01*
X19074933Y-7394500D01*
X19077343Y-7394500D01*
X19250254Y-7394499D01*
X19425066Y-7394499D01*
X19427417Y-7394031D01*
X19427421Y-7394031D01*
X19490443Y-7381496D01*
X19509557Y-7381496D01*
X19574933Y-7394500D01*
X19577343Y-7394500D01*
X19750254Y-7394499D01*
X19925066Y-7394499D01*
X19927417Y-7394031D01*
X19927421Y-7394031D01*
X19990443Y-7381496D01*
X20009557Y-7381496D01*
X20074933Y-7394500D01*
X20077343Y-7394500D01*
X20250254Y-7394499D01*
X20425066Y-7394499D01*
X20427417Y-7394031D01*
X20427421Y-7394031D01*
X20490443Y-7381496D01*
X20509557Y-7381496D01*
X20574933Y-7394500D01*
X20577343Y-7394500D01*
X20750254Y-7394499D01*
X20925066Y-7394499D01*
X20927417Y-7394031D01*
X20927421Y-7394031D01*
X20990443Y-7381496D01*
X21009557Y-7381496D01*
X21074933Y-7394500D01*
X21077343Y-7394500D01*
X21250254Y-7394499D01*
X21425066Y-7394499D01*
X21427417Y-7394031D01*
X21427421Y-7394031D01*
X21490443Y-7381496D01*
X21509557Y-7381496D01*
X21574933Y-7394500D01*
X21577343Y-7394500D01*
X21750254Y-7394499D01*
X21925066Y-7394499D01*
X21927417Y-7394031D01*
X21927421Y-7394031D01*
X21990443Y-7381496D01*
X22009557Y-7381496D01*
X22074933Y-7394500D01*
X22077343Y-7394500D01*
X22250254Y-7394499D01*
X22425066Y-7394499D01*
X22427417Y-7394031D01*
X22427421Y-7394031D01*
X22490443Y-7381496D01*
X22509557Y-7381496D01*
X22574933Y-7394500D01*
X22577343Y-7394500D01*
X22750254Y-7394499D01*
X22925066Y-7394499D01*
X22927417Y-7394031D01*
X22927421Y-7394031D01*
X22990443Y-7381496D01*
X23009557Y-7381496D01*
X23074933Y-7394500D01*
X23077343Y-7394500D01*
X23250254Y-7394499D01*
X23425066Y-7394499D01*
X23427417Y-7394031D01*
X23427421Y-7394031D01*
X23490443Y-7381496D01*
X23509557Y-7381496D01*
X23574933Y-7394500D01*
X23577343Y-7394500D01*
X23750254Y-7394499D01*
X23925066Y-7394499D01*
X23927417Y-7394031D01*
X23927421Y-7394031D01*
X23990443Y-7381496D01*
X24009557Y-7381496D01*
X24074933Y-7394500D01*
X24077343Y-7394500D01*
X24250254Y-7394499D01*
X24425066Y-7394499D01*
X24427417Y-7394031D01*
X24427421Y-7394031D01*
X24490443Y-7381496D01*
X24509557Y-7381496D01*
X24574933Y-7394500D01*
X24577343Y-7394500D01*
X24750254Y-7394499D01*
X24925066Y-7394499D01*
X24927417Y-7394031D01*
X24927421Y-7394031D01*
X24990443Y-7381496D01*
X25009557Y-7381496D01*
X25074933Y-7394500D01*
X25077343Y-7394500D01*
X25250254Y-7394499D01*
X25425066Y-7394499D01*
X25427417Y-7394031D01*
X25427421Y-7394031D01*
X25490443Y-7381496D01*
X25509557Y-7381496D01*
X25574933Y-7394500D01*
X25577343Y-7394500D01*
X25750254Y-7394499D01*
X25925066Y-7394499D01*
X25927417Y-7394031D01*
X25927421Y-7394031D01*
X25990443Y-7381496D01*
X26009557Y-7381496D01*
X26074933Y-7394500D01*
X26077343Y-7394500D01*
X26250254Y-7394499D01*
X26425066Y-7394499D01*
X26427417Y-7394031D01*
X26427421Y-7394031D01*
X26490443Y-7381496D01*
X26509557Y-7381496D01*
X26574933Y-7394500D01*
X26577343Y-7394500D01*
X26750254Y-7394499D01*
X26925066Y-7394499D01*
X26927417Y-7394031D01*
X26927421Y-7394031D01*
X26990443Y-7381496D01*
X27009557Y-7381496D01*
X27074933Y-7394500D01*
X27077343Y-7394500D01*
X27250254Y-7394499D01*
X27425066Y-7394499D01*
X27427417Y-7394031D01*
X27427421Y-7394031D01*
X27490443Y-7381496D01*
X27509557Y-7381496D01*
X27574933Y-7394500D01*
X27577343Y-7394500D01*
X27750254Y-7394499D01*
X27925066Y-7394499D01*
X27927417Y-7394031D01*
X27927421Y-7394031D01*
X27990443Y-7381496D01*
X28009557Y-7381496D01*
X28074933Y-7394500D01*
X28077343Y-7394500D01*
X28250254Y-7394499D01*
X28425066Y-7394499D01*
X28427417Y-7394031D01*
X28427421Y-7394031D01*
X28490443Y-7381496D01*
X28509557Y-7381496D01*
X28574933Y-7394500D01*
X28577343Y-7394500D01*
X28750254Y-7394499D01*
X28925066Y-7394499D01*
X28927417Y-7394031D01*
X28927421Y-7394031D01*
X28990443Y-7381496D01*
X29009557Y-7381496D01*
X29074933Y-7394500D01*
X29077343Y-7394500D01*
X29250254Y-7394499D01*
X29425066Y-7394499D01*
X29427417Y-7394031D01*
X29427421Y-7394031D01*
X29490443Y-7381496D01*
X29509557Y-7381496D01*
X29574933Y-7394500D01*
X29577343Y-7394500D01*
X29750254Y-7394499D01*
X29925066Y-7394499D01*
X29927417Y-7394031D01*
X29927421Y-7394031D01*
X29990443Y-7381496D01*
X30009557Y-7381496D01*
X30074933Y-7394500D01*
X30077343Y-7394500D01*
X30250254Y-7394499D01*
X30425066Y-7394499D01*
X30427417Y-7394031D01*
X30427421Y-7394031D01*
X30490443Y-7381496D01*
X30509557Y-7381496D01*
X30574933Y-7394500D01*
X30577343Y-7394500D01*
X30750254Y-7394499D01*
X30925066Y-7394499D01*
X30927417Y-7394031D01*
X30927421Y-7394031D01*
X30990443Y-7381496D01*
X31009557Y-7381496D01*
X31074933Y-7394500D01*
X31077343Y-7394500D01*
X31250254Y-7394499D01*
X31425066Y-7394499D01*
X31427417Y-7394031D01*
X31427421Y-7394031D01*
X31490443Y-7381496D01*
X31509557Y-7381496D01*
X31574933Y-7394500D01*
X31640510Y-7394500D01*
X31675158Y-7408852D01*
X31689510Y-7443500D01*
X31675158Y-7478148D01*
X31429928Y-7723378D01*
X31395280Y-7737730D01*
X31372353Y-7732035D01*
X31247790Y-7666081D01*
X31238888Y-7661368D01*
X31236274Y-7659984D01*
X31082633Y-7621392D01*
X31002177Y-7620970D01*
X30927174Y-7620577D01*
X30927170Y-7620577D01*
X30924221Y-7620562D01*
X30921352Y-7621251D01*
X30921350Y-7621251D01*
X30809933Y-7648000D01*
X30770184Y-7657543D01*
X30767556Y-7658899D01*
X30767557Y-7658899D01*
X30640111Y-7724679D01*
X30629414Y-7730200D01*
X30627194Y-7732137D01*
X30627192Y-7732138D01*
X30512701Y-7832016D01*
X30510039Y-7834338D01*
X30508341Y-7836753D01*
X30508340Y-7836755D01*
X30492844Y-7858804D01*
X30418950Y-7963944D01*
X30417879Y-7966692D01*
X30417877Y-7966695D01*
X30395562Y-8023932D01*
X30361406Y-8111537D01*
X30340729Y-8268596D01*
X30358113Y-8426053D01*
X30412553Y-8574819D01*
X30414198Y-8577267D01*
X30499261Y-8703855D01*
X30499264Y-8703858D01*
X30500908Y-8706305D01*
X30503095Y-8708295D01*
X30603130Y-8799319D01*
X30618076Y-8812919D01*
X30757293Y-8888508D01*
X30910522Y-8928707D01*
X30998694Y-8930092D01*
X31065965Y-8931149D01*
X31065968Y-8931149D01*
X31068916Y-8931195D01*
X31071793Y-8930536D01*
X31071794Y-8930536D01*
X31220451Y-8896489D01*
X31220452Y-8896489D01*
X31223332Y-8895829D01*
X31225971Y-8894502D01*
X31225973Y-8894501D01*
X31282061Y-8866292D01*
X31319463Y-8863545D01*
X31338725Y-8875419D01*
X31837099Y-9373793D01*
X31851451Y-9408441D01*
X31851032Y-9414837D01*
X31840729Y-9493096D01*
X31858113Y-9650553D01*
X31912553Y-9799319D01*
X31914198Y-9801767D01*
X31999261Y-9928355D01*
X31999264Y-9928358D01*
X32000908Y-9930805D01*
X32003095Y-9932795D01*
X32086420Y-10008614D01*
X32118076Y-10037419D01*
X32257293Y-10113008D01*
X32410522Y-10153207D01*
X32498694Y-10154592D01*
X32565965Y-10155649D01*
X32565968Y-10155649D01*
X32568916Y-10155695D01*
X32571793Y-10155036D01*
X32571794Y-10155036D01*
X32720451Y-10120989D01*
X32720452Y-10120989D01*
X32723332Y-10120329D01*
X32725971Y-10119002D01*
X32725973Y-10119001D01*
X32862211Y-10050481D01*
X32862212Y-10050480D01*
X32864855Y-10049151D01*
X32929060Y-9994314D01*
X32983072Y-9948184D01*
X32983073Y-9948183D01*
X32985314Y-9946269D01*
X33057943Y-9845195D01*
X33076030Y-9820025D01*
X33076031Y-9820023D01*
X33077755Y-9817624D01*
X33129813Y-9688127D01*
X33135741Y-9673380D01*
X33135741Y-9673379D01*
X33136842Y-9670641D01*
X33159162Y-9513807D01*
X33159307Y-9500000D01*
X33140276Y-9342733D01*
X33084280Y-9194546D01*
X33007092Y-9082237D01*
X32996228Y-9066429D01*
X32996228Y-9066428D01*
X32994553Y-9063992D01*
X32992348Y-9062028D01*
X32992345Y-9062024D01*
X32878485Y-8960580D01*
X32876275Y-8958611D01*
X32736274Y-8884484D01*
X32582633Y-8845892D01*
X32502598Y-8845473D01*
X32427175Y-8845077D01*
X32427171Y-8845077D01*
X32424221Y-8845062D01*
X32416657Y-8846878D01*
X32379616Y-8841009D01*
X32370573Y-8833879D01*
X31916342Y-8379648D01*
X31901990Y-8345000D01*
X31916342Y-8310352D01*
X32486011Y-7740683D01*
X32494076Y-7734169D01*
X32508940Y-7724571D01*
X32532541Y-7694633D01*
X32536373Y-7690321D01*
X32540638Y-7686056D01*
X32541813Y-7684411D01*
X32541817Y-7684407D01*
X32552923Y-7668866D01*
X32554309Y-7667020D01*
X32584647Y-7628536D01*
X32584648Y-7628535D01*
X32587156Y-7625353D01*
X32588499Y-7621529D01*
X32590448Y-7617983D01*
X32590596Y-7618064D01*
X32591527Y-7616273D01*
X32591376Y-7616199D01*
X32593158Y-7612561D01*
X32595513Y-7609266D01*
X32601851Y-7588076D01*
X32610719Y-7558422D01*
X32611432Y-7556227D01*
X32627997Y-7509056D01*
X32629018Y-7506149D01*
X32629500Y-7500584D01*
X32629513Y-7500585D01*
X32630261Y-7496148D01*
X32630045Y-7496121D01*
X32630553Y-7492102D01*
X32631713Y-7488222D01*
X32630031Y-7445423D01*
X32643011Y-7410239D01*
X32678993Y-7394500D01*
X32911380Y-7394499D01*
X32925066Y-7394499D01*
X32927417Y-7394031D01*
X32927421Y-7394031D01*
X32990443Y-7381496D01*
X33009557Y-7381496D01*
X33074933Y-7394500D01*
X33131342Y-7394500D01*
X33165990Y-7408852D01*
X33170552Y-7414114D01*
X33235002Y-7500110D01*
X33239890Y-7504998D01*
X33350741Y-7588076D01*
X33356810Y-7591399D01*
X33486919Y-7640175D01*
X33492846Y-7641584D01*
X33550589Y-7647856D01*
X33553237Y-7648000D01*
X33697011Y-7647999D01*
X33731659Y-7662351D01*
X33746011Y-7696999D01*
X33731659Y-7731647D01*
X33630074Y-7833232D01*
X33595426Y-7847584D01*
X33588461Y-7846722D01*
X33588428Y-7846982D01*
X33585500Y-7846612D01*
X33582633Y-7845892D01*
X33503006Y-7845475D01*
X33427174Y-7845077D01*
X33427170Y-7845077D01*
X33424221Y-7845062D01*
X33421352Y-7845751D01*
X33421350Y-7845751D01*
X33366981Y-7858804D01*
X33270184Y-7882043D01*
X33267556Y-7883399D01*
X33267557Y-7883399D01*
X33207465Y-7914415D01*
X33129414Y-7954700D01*
X33127194Y-7956637D01*
X33127192Y-7956638D01*
X33096854Y-7983104D01*
X33010039Y-8058838D01*
X33008341Y-8061253D01*
X33008340Y-8061255D01*
X32983921Y-8096000D01*
X32918950Y-8188444D01*
X32917879Y-8191192D01*
X32917877Y-8191195D01*
X32887700Y-8268596D01*
X32861406Y-8336037D01*
X32859201Y-8352788D01*
X32845033Y-8460407D01*
X32840729Y-8493096D01*
X32858113Y-8650553D01*
X32912553Y-8799319D01*
X32914198Y-8801767D01*
X32999261Y-8928355D01*
X32999264Y-8928358D01*
X33000908Y-8930805D01*
X33003095Y-8932795D01*
X33089107Y-9011059D01*
X33118076Y-9037419D01*
X33257293Y-9113008D01*
X33410522Y-9153207D01*
X33498694Y-9154592D01*
X33565965Y-9155649D01*
X33565968Y-9155649D01*
X33568916Y-9155695D01*
X33571793Y-9155036D01*
X33571794Y-9155036D01*
X33720451Y-9120989D01*
X33720452Y-9120989D01*
X33723332Y-9120329D01*
X33725971Y-9119002D01*
X33725973Y-9119001D01*
X33862211Y-9050481D01*
X33862212Y-9050480D01*
X33864855Y-9049151D01*
X33969276Y-8959967D01*
X34004943Y-8948378D01*
X34034074Y-8960984D01*
X34118076Y-9037419D01*
X34257293Y-9113008D01*
X34410522Y-9153207D01*
X34498694Y-9154592D01*
X34565965Y-9155649D01*
X34565968Y-9155649D01*
X34568916Y-9155695D01*
X34571793Y-9155036D01*
X34571794Y-9155036D01*
X34720451Y-9120989D01*
X34720452Y-9120989D01*
X34723332Y-9120329D01*
X34725971Y-9119002D01*
X34725973Y-9119001D01*
X34799484Y-9082029D01*
X34836886Y-9079282D01*
X34865275Y-9103788D01*
X34870500Y-9125804D01*
X34870500Y-9180620D01*
X34856148Y-9215268D01*
X34832938Y-9228266D01*
X34823560Y-9230517D01*
X34823556Y-9230518D01*
X34820684Y-9231208D01*
X34818056Y-9232564D01*
X34818057Y-9232564D01*
X34687728Y-9299832D01*
X34679914Y-9303865D01*
X34677694Y-9305802D01*
X34677692Y-9305803D01*
X34599754Y-9373793D01*
X34560539Y-9408003D01*
X34469450Y-9537609D01*
X34468379Y-9540357D01*
X34468377Y-9540360D01*
X34431198Y-9635719D01*
X34411906Y-9685202D01*
X34391229Y-9842261D01*
X34408613Y-9999718D01*
X34463053Y-10148484D01*
X34464698Y-10150932D01*
X34549761Y-10277520D01*
X34549764Y-10277523D01*
X34551408Y-10279970D01*
X34553595Y-10281960D01*
X34632724Y-10353961D01*
X34668576Y-10386584D01*
X34807793Y-10462173D01*
X34961022Y-10502372D01*
X35049194Y-10503757D01*
X35116465Y-10504814D01*
X35116468Y-10504814D01*
X35119416Y-10504860D01*
X35122293Y-10504201D01*
X35122294Y-10504201D01*
X35270951Y-10470154D01*
X35270952Y-10470154D01*
X35273832Y-10469494D01*
X35276471Y-10468167D01*
X35276473Y-10468166D01*
X35364572Y-10423858D01*
X35401974Y-10421111D01*
X35430363Y-10445617D01*
X35432602Y-10450790D01*
X35450178Y-10498819D01*
X35451823Y-10501267D01*
X35536886Y-10627855D01*
X35536889Y-10627858D01*
X35538533Y-10630305D01*
X35540720Y-10632295D01*
X35605451Y-10691195D01*
X35655701Y-10736919D01*
X35794918Y-10812508D01*
X35948147Y-10852707D01*
X36036319Y-10854092D01*
X36103590Y-10855149D01*
X36103593Y-10855149D01*
X36106541Y-10855195D01*
X36109418Y-10854536D01*
X36109419Y-10854536D01*
X36258076Y-10820489D01*
X36258077Y-10820489D01*
X36260957Y-10819829D01*
X36263596Y-10818502D01*
X36263598Y-10818501D01*
X36399836Y-10749981D01*
X36399837Y-10749980D01*
X36402480Y-10748651D01*
X36522939Y-10645769D01*
X36583669Y-10561255D01*
X36613655Y-10519525D01*
X36613656Y-10519523D01*
X36615380Y-10517124D01*
X36674467Y-10370141D01*
X36696787Y-10213307D01*
X36696818Y-10210404D01*
X36696915Y-10201107D01*
X36696932Y-10199500D01*
X36677901Y-10042233D01*
X36665197Y-10008614D01*
X36622950Y-9896811D01*
X36622949Y-9896810D01*
X36621905Y-9894046D01*
X36532178Y-9763492D01*
X36529973Y-9761528D01*
X36529970Y-9761524D01*
X36416110Y-9660080D01*
X36413900Y-9658111D01*
X36273899Y-9583984D01*
X36166562Y-9557023D01*
X36136455Y-9534662D01*
X36129500Y-9509499D01*
X36129500Y-7638252D01*
X36400000Y-7638252D01*
X36402855Y-7645144D01*
X36409747Y-7647999D01*
X36446757Y-7647999D01*
X36449407Y-7647856D01*
X36494712Y-7642935D01*
X36505295Y-7642936D01*
X36550589Y-7647856D01*
X36553237Y-7648000D01*
X36590253Y-7648000D01*
X36597145Y-7645145D01*
X36600000Y-7638253D01*
X36600000Y-7638252D01*
X36900000Y-7638252D01*
X36902855Y-7645144D01*
X36909747Y-7647999D01*
X36946757Y-7647999D01*
X36949407Y-7647856D01*
X36994712Y-7642935D01*
X37005295Y-7642936D01*
X37050589Y-7647856D01*
X37053237Y-7648000D01*
X37090253Y-7648000D01*
X37097145Y-7645145D01*
X37100000Y-7638253D01*
X37100000Y-7638252D01*
X37400000Y-7638252D01*
X37402855Y-7645144D01*
X37409747Y-7647999D01*
X37446757Y-7647999D01*
X37449407Y-7647856D01*
X37507153Y-7641584D01*
X37513085Y-7640173D01*
X37643190Y-7591399D01*
X37649259Y-7588076D01*
X37760110Y-7504998D01*
X37764998Y-7500110D01*
X37848076Y-7389259D01*
X37851399Y-7383190D01*
X37900175Y-7253081D01*
X37901584Y-7247154D01*
X37907856Y-7189411D01*
X37908000Y-7186763D01*
X37908000Y-6721449D01*
X37922352Y-6686801D01*
X37957000Y-6672449D01*
X37991648Y-6686801D01*
X37997670Y-6694119D01*
X37999257Y-6696480D01*
X37999260Y-6696483D01*
X38000908Y-6698936D01*
X38003095Y-6700926D01*
X38114443Y-6802244D01*
X38118076Y-6805550D01*
X38257293Y-6881139D01*
X38410522Y-6921338D01*
X38527480Y-6923175D01*
X38561357Y-6937521D01*
X39925688Y-8301852D01*
X39940040Y-8336500D01*
X39925688Y-8371148D01*
X39891040Y-8385500D01*
X38275113Y-8385501D01*
X38224934Y-8385501D01*
X38222582Y-8385969D01*
X38222580Y-8385969D01*
X38199795Y-8390501D01*
X38150699Y-8400266D01*
X38146688Y-8402946D01*
X38146686Y-8402947D01*
X38101681Y-8433019D01*
X38066516Y-8456516D01*
X38010266Y-8540699D01*
X37995500Y-8614933D01*
X37995501Y-10865066D01*
X38010266Y-10939301D01*
X38012946Y-10943312D01*
X38012947Y-10943314D01*
X38019651Y-10953347D01*
X38066516Y-11023484D01*
X38150699Y-11079734D01*
X38224933Y-11094500D01*
X38227343Y-11094500D01*
X39151345Y-11094499D01*
X40075066Y-11094499D01*
X40077418Y-11094031D01*
X40077420Y-11094031D01*
X40113403Y-11086874D01*
X40149301Y-11079734D01*
X40153312Y-11077054D01*
X40153314Y-11077053D01*
X40229473Y-11026164D01*
X40233484Y-11023484D01*
X40289734Y-10939301D01*
X40304500Y-10865067D01*
X40304499Y-9899101D01*
X42992001Y-9899101D01*
X42992132Y-9901620D01*
X43002691Y-10003389D01*
X43003819Y-10008614D01*
X43058003Y-10171026D01*
X43060406Y-10176156D01*
X43150418Y-10321612D01*
X43153935Y-10326049D01*
X43274995Y-10446899D01*
X43279431Y-10450403D01*
X43425048Y-10540162D01*
X43430182Y-10542556D01*
X43592698Y-10596460D01*
X43597904Y-10597577D01*
X43698399Y-10607873D01*
X43700883Y-10608000D01*
X43736253Y-10608000D01*
X43743145Y-10605145D01*
X43746000Y-10598253D01*
X43746000Y-10598252D01*
X44254000Y-10598252D01*
X44256855Y-10605144D01*
X44263747Y-10607999D01*
X44299101Y-10607999D01*
X44301620Y-10607868D01*
X44403389Y-10597309D01*
X44408614Y-10596181D01*
X44571026Y-10541997D01*
X44576156Y-10539594D01*
X44721612Y-10449582D01*
X44726049Y-10446065D01*
X44846899Y-10325005D01*
X44850403Y-10320569D01*
X44940162Y-10174952D01*
X44942556Y-10169818D01*
X44996460Y-10007302D01*
X44997577Y-10002096D01*
X45007873Y-9901601D01*
X45008000Y-9899117D01*
X45008000Y-9897756D01*
X45245500Y-9897756D01*
X45245644Y-9899078D01*
X45249307Y-9932795D01*
X45252202Y-9959448D01*
X45270633Y-10008614D01*
X45285110Y-10047230D01*
X45302929Y-10094764D01*
X45305024Y-10097560D01*
X45305025Y-10097561D01*
X45348594Y-10155695D01*
X45389596Y-10210404D01*
X45505236Y-10297071D01*
X45508506Y-10298297D01*
X45508508Y-10298298D01*
X45588700Y-10328360D01*
X45616106Y-10353961D01*
X45620500Y-10374242D01*
X45620500Y-10440197D01*
X45603712Y-10477121D01*
X45517646Y-10552202D01*
X45510039Y-10558838D01*
X45508341Y-10561253D01*
X45508340Y-10561255D01*
X45479051Y-10602929D01*
X45418950Y-10688444D01*
X45417879Y-10691192D01*
X45417877Y-10691195D01*
X45416571Y-10694546D01*
X45361406Y-10836037D01*
X45340729Y-10993096D01*
X45358113Y-11150553D01*
X45412553Y-11299319D01*
X45414198Y-11301767D01*
X45499261Y-11428355D01*
X45499264Y-11428358D01*
X45500908Y-11430805D01*
X45618076Y-11537419D01*
X45757293Y-11613008D01*
X45910522Y-11653207D01*
X45998694Y-11654592D01*
X46065965Y-11655649D01*
X46065968Y-11655649D01*
X46068916Y-11655695D01*
X46071793Y-11655036D01*
X46071794Y-11655036D01*
X46220451Y-11620989D01*
X46220452Y-11620989D01*
X46223332Y-11620329D01*
X46225971Y-11619002D01*
X46225973Y-11619001D01*
X46362211Y-11550481D01*
X46362212Y-11550480D01*
X46364855Y-11549151D01*
X46485314Y-11446269D01*
X46577755Y-11317624D01*
X46636842Y-11170641D01*
X46659162Y-11013807D01*
X46659307Y-11000000D01*
X46640276Y-10842733D01*
X46625050Y-10802439D01*
X46585325Y-10697311D01*
X46585324Y-10697310D01*
X46584280Y-10694546D01*
X46524798Y-10607999D01*
X46496228Y-10566429D01*
X46496228Y-10566428D01*
X46494553Y-10563992D01*
X46492348Y-10562028D01*
X46492345Y-10562024D01*
X46395904Y-10476099D01*
X46379500Y-10439514D01*
X46379500Y-10374242D01*
X46393852Y-10339594D01*
X46411300Y-10328360D01*
X46491492Y-10298298D01*
X46491494Y-10298297D01*
X46494764Y-10297071D01*
X46610404Y-10210404D01*
X46651406Y-10155695D01*
X46694975Y-10097561D01*
X46694976Y-10097560D01*
X46697071Y-10094764D01*
X46714891Y-10047230D01*
X46729367Y-10008614D01*
X46747798Y-9959448D01*
X46750694Y-9932795D01*
X46754356Y-9899078D01*
X46754500Y-9897756D01*
X46754500Y-6802244D01*
X46747798Y-6740552D01*
X46704723Y-6625648D01*
X46698298Y-6608508D01*
X46698297Y-6608506D01*
X46697071Y-6605236D01*
X46647301Y-6538827D01*
X46612498Y-6492390D01*
X46610404Y-6489596D01*
X46607610Y-6487502D01*
X46497561Y-6405025D01*
X46497560Y-6405024D01*
X46494764Y-6402929D01*
X46491494Y-6401703D01*
X46491492Y-6401702D01*
X46429300Y-6378388D01*
X46359448Y-6352202D01*
X46356398Y-6351871D01*
X46356395Y-6351870D01*
X46329727Y-6348973D01*
X46297756Y-6345500D01*
X45702244Y-6345500D01*
X45670273Y-6348973D01*
X45643605Y-6351870D01*
X45643602Y-6351871D01*
X45640552Y-6352202D01*
X45570700Y-6378388D01*
X45508508Y-6401702D01*
X45508506Y-6401703D01*
X45505236Y-6402929D01*
X45502440Y-6405024D01*
X45502439Y-6405025D01*
X45392390Y-6487502D01*
X45389596Y-6489596D01*
X45387502Y-6492390D01*
X45352700Y-6538827D01*
X45302929Y-6605236D01*
X45301703Y-6608506D01*
X45301702Y-6608508D01*
X45295277Y-6625648D01*
X45252202Y-6740552D01*
X45245500Y-6802244D01*
X45245500Y-9897756D01*
X45008000Y-9897756D01*
X45008000Y-8613747D01*
X45005145Y-8606855D01*
X44998253Y-8604000D01*
X44263747Y-8604000D01*
X44256855Y-8606855D01*
X44254000Y-8613747D01*
X44254000Y-10598252D01*
X43746000Y-10598252D01*
X43746000Y-8613747D01*
X43743145Y-8606855D01*
X43736253Y-8604000D01*
X43001748Y-8604000D01*
X42994856Y-8606855D01*
X42992001Y-8613747D01*
X42992001Y-9899101D01*
X40304499Y-9899101D01*
X40304499Y-9116430D01*
X40318851Y-9081782D01*
X40353499Y-9067430D01*
X40374273Y-9072706D01*
X40374387Y-9072419D01*
X40376612Y-9073300D01*
X40376880Y-9073368D01*
X40379731Y-9074916D01*
X40532960Y-9115115D01*
X40621132Y-9116500D01*
X40688403Y-9117557D01*
X40688406Y-9117557D01*
X40691354Y-9117603D01*
X40694231Y-9116944D01*
X40694232Y-9116944D01*
X40842889Y-9082897D01*
X40842890Y-9082897D01*
X40845770Y-9082237D01*
X40848409Y-9080910D01*
X40848411Y-9080909D01*
X40984649Y-9012389D01*
X40984650Y-9012388D01*
X40987293Y-9011059D01*
X41078928Y-8932795D01*
X41105510Y-8910092D01*
X41105511Y-8910091D01*
X41107752Y-8908177D01*
X41177630Y-8810932D01*
X41198468Y-8781933D01*
X41198469Y-8781931D01*
X41200193Y-8779532D01*
X41259280Y-8632549D01*
X41281600Y-8475715D01*
X41281745Y-8461908D01*
X41262714Y-8304641D01*
X41229086Y-8215648D01*
X41207763Y-8159219D01*
X41207762Y-8159218D01*
X41206718Y-8156454D01*
X41158470Y-8086253D01*
X42992000Y-8086253D01*
X42994855Y-8093145D01*
X43001747Y-8096000D01*
X43736253Y-8096000D01*
X43743145Y-8093145D01*
X43746000Y-8086253D01*
X44254000Y-8086253D01*
X44256855Y-8093145D01*
X44263747Y-8096000D01*
X44998252Y-8096000D01*
X45005144Y-8093145D01*
X45007999Y-8086253D01*
X45007999Y-6800899D01*
X45007868Y-6798380D01*
X44997309Y-6696611D01*
X44996181Y-6691386D01*
X44941997Y-6528974D01*
X44939594Y-6523844D01*
X44849582Y-6378388D01*
X44846065Y-6373951D01*
X44725005Y-6253101D01*
X44720569Y-6249597D01*
X44574952Y-6159838D01*
X44569818Y-6157444D01*
X44407302Y-6103540D01*
X44402096Y-6102423D01*
X44301601Y-6092127D01*
X44299117Y-6092000D01*
X44263747Y-6092000D01*
X44256855Y-6094855D01*
X44254000Y-6101747D01*
X44254000Y-8086253D01*
X43746000Y-8086253D01*
X43746000Y-6101748D01*
X43743145Y-6094856D01*
X43736253Y-6092001D01*
X43700899Y-6092001D01*
X43698380Y-6092132D01*
X43596611Y-6102691D01*
X43591386Y-6103819D01*
X43428974Y-6158003D01*
X43423844Y-6160406D01*
X43278388Y-6250418D01*
X43273951Y-6253935D01*
X43153101Y-6374995D01*
X43149597Y-6379431D01*
X43059838Y-6525048D01*
X43057444Y-6530182D01*
X43003540Y-6692698D01*
X43002423Y-6697904D01*
X42992127Y-6798399D01*
X42992000Y-6800883D01*
X42992000Y-8086253D01*
X41158470Y-8086253D01*
X41116991Y-8025900D01*
X41114786Y-8023936D01*
X41114783Y-8023932D01*
X41000923Y-7922488D01*
X40998713Y-7920519D01*
X40858712Y-7846392D01*
X40705071Y-7807800D01*
X40625036Y-7807381D01*
X40549613Y-7806985D01*
X40549609Y-7806985D01*
X40546659Y-7806970D01*
X40539095Y-7808786D01*
X40502054Y-7802917D01*
X40493011Y-7795787D01*
X39154049Y-6456825D01*
X39139697Y-6422177D01*
X39140186Y-6415273D01*
X39141645Y-6405025D01*
X39159162Y-6281938D01*
X39159307Y-6268131D01*
X39140276Y-6110864D01*
X39137614Y-6103819D01*
X39085325Y-5965442D01*
X39085324Y-5965441D01*
X39084280Y-5962677D01*
X39017486Y-5865491D01*
X38996228Y-5834560D01*
X38996228Y-5834559D01*
X38994553Y-5832123D01*
X38992348Y-5830159D01*
X38992345Y-5830155D01*
X38878485Y-5728711D01*
X38876275Y-5726742D01*
X38736274Y-5652615D01*
X38582633Y-5614023D01*
X38502177Y-5613601D01*
X38427174Y-5613208D01*
X38427170Y-5613208D01*
X38424221Y-5613193D01*
X38421352Y-5613882D01*
X38421350Y-5613882D01*
X38273058Y-5649484D01*
X38270184Y-5650174D01*
X38129414Y-5722831D01*
X38127194Y-5724768D01*
X38127192Y-5724769D01*
X38051737Y-5790593D01*
X38010039Y-5826969D01*
X37997088Y-5845397D01*
X37965423Y-5865491D01*
X37928823Y-5857310D01*
X37908729Y-5825645D01*
X37907999Y-5817221D01*
X37907999Y-5793244D01*
X37907856Y-5790593D01*
X37901584Y-5732847D01*
X37900173Y-5726915D01*
X37851399Y-5596810D01*
X37848076Y-5590741D01*
X37764998Y-5479890D01*
X37760110Y-5475002D01*
X37649259Y-5391924D01*
X37643190Y-5388601D01*
X37513081Y-5339825D01*
X37507154Y-5338416D01*
X37449411Y-5332144D01*
X37446763Y-5332000D01*
X37409747Y-5332000D01*
X37402855Y-5334855D01*
X37400000Y-5341747D01*
X37400000Y-6330253D01*
X37402855Y-6337145D01*
X37417752Y-6343316D01*
X37444270Y-6369835D01*
X37448000Y-6388586D01*
X37448000Y-6591414D01*
X37433648Y-6626062D01*
X37417752Y-6636684D01*
X37402855Y-6642855D01*
X37400000Y-6649747D01*
X37400000Y-7638252D01*
X37100000Y-7638252D01*
X37100000Y-6649747D01*
X37097145Y-6642855D01*
X37090253Y-6640000D01*
X36909747Y-6640000D01*
X36902855Y-6642855D01*
X36900000Y-6649747D01*
X36900000Y-7638252D01*
X36600000Y-7638252D01*
X36600000Y-6649747D01*
X36597145Y-6642855D01*
X36590253Y-6640000D01*
X36409747Y-6640000D01*
X36402855Y-6642855D01*
X36400000Y-6649747D01*
X36400000Y-7638252D01*
X36129500Y-7638252D01*
X36129500Y-7269481D01*
X36135987Y-7248098D01*
X36135205Y-7247774D01*
X36137052Y-7243315D01*
X36139734Y-7239301D01*
X36154500Y-7165067D01*
X36154499Y-6330253D01*
X36400000Y-6330253D01*
X36402855Y-6337145D01*
X36409747Y-6340000D01*
X36590253Y-6340000D01*
X36597145Y-6337145D01*
X36600000Y-6330253D01*
X36900000Y-6330253D01*
X36902855Y-6337145D01*
X36909747Y-6340000D01*
X37090253Y-6340000D01*
X37097145Y-6337145D01*
X37100000Y-6330253D01*
X37100000Y-5341748D01*
X37097145Y-5334856D01*
X37090253Y-5332001D01*
X37053244Y-5332001D01*
X37050593Y-5332144D01*
X37005288Y-5337065D01*
X36994705Y-5337064D01*
X36949411Y-5332144D01*
X36946763Y-5332000D01*
X36909747Y-5332000D01*
X36902855Y-5334855D01*
X36900000Y-5341747D01*
X36900000Y-6330253D01*
X36600000Y-6330253D01*
X36600000Y-5341748D01*
X36597145Y-5334856D01*
X36590253Y-5332001D01*
X36553244Y-5332001D01*
X36550593Y-5332144D01*
X36505288Y-5337065D01*
X36494705Y-5337064D01*
X36449411Y-5332144D01*
X36446763Y-5332000D01*
X36409747Y-5332000D01*
X36402855Y-5334855D01*
X36400000Y-5341747D01*
X36400000Y-6330253D01*
X36154499Y-6330253D01*
X36154499Y-5814934D01*
X36139734Y-5740699D01*
X36134488Y-5732847D01*
X36108258Y-5693593D01*
X36100000Y-5666370D01*
X36100000Y-5341748D01*
X36097145Y-5334856D01*
X36090253Y-5332001D01*
X36053244Y-5332001D01*
X36050593Y-5332144D01*
X35992847Y-5338416D01*
X35986915Y-5339827D01*
X35856810Y-5388601D01*
X35850741Y-5391924D01*
X35739890Y-5475002D01*
X35735002Y-5479890D01*
X35670552Y-5565887D01*
X35638289Y-5585006D01*
X35631344Y-5585501D01*
X35574934Y-5585501D01*
X35572583Y-5585969D01*
X35572579Y-5585969D01*
X35509557Y-5598504D01*
X35490443Y-5598504D01*
X35425067Y-5585500D01*
X35422657Y-5585500D01*
X35249746Y-5585501D01*
X35074934Y-5585501D01*
X35072583Y-5585969D01*
X35072579Y-5585969D01*
X35009557Y-5598504D01*
X34990443Y-5598504D01*
X34925067Y-5585500D01*
X34922657Y-5585500D01*
X34749746Y-5585501D01*
X34574934Y-5585501D01*
X34572583Y-5585969D01*
X34572579Y-5585969D01*
X34509557Y-5598504D01*
X34490443Y-5598504D01*
X34425067Y-5585500D01*
X34368658Y-5585500D01*
X34334010Y-5571148D01*
X34329448Y-5565886D01*
X34264998Y-5479890D01*
X34260110Y-5475002D01*
X34149259Y-5391924D01*
X34143190Y-5388601D01*
X34013081Y-5339825D01*
X34007154Y-5338416D01*
X33949411Y-5332144D01*
X33946763Y-5332000D01*
X33909747Y-5332000D01*
X33902855Y-5334855D01*
X33900000Y-5341747D01*
X33900000Y-5666370D01*
X33891742Y-5693592D01*
X33860266Y-5740699D01*
X33845500Y-5814933D01*
X33845501Y-6489596D01*
X33845501Y-6591000D01*
X33831149Y-6625648D01*
X33796501Y-6640000D01*
X33703500Y-6640000D01*
X33668852Y-6625648D01*
X33654500Y-6591000D01*
X33654499Y-5817337D01*
X33654499Y-5814934D01*
X33639734Y-5740699D01*
X33634488Y-5732847D01*
X33608258Y-5693593D01*
X33600000Y-5666370D01*
X33600000Y-5341748D01*
X33597145Y-5334856D01*
X33590253Y-5332001D01*
X33553244Y-5332001D01*
X33550593Y-5332144D01*
X33492847Y-5338416D01*
X33486915Y-5339827D01*
X33356810Y-5388601D01*
X33350741Y-5391924D01*
X33239890Y-5475002D01*
X33235002Y-5479890D01*
X33170552Y-5565887D01*
X33138289Y-5585006D01*
X33131344Y-5585501D01*
X33074934Y-5585501D01*
X33072583Y-5585969D01*
X33072579Y-5585969D01*
X33009557Y-5598504D01*
X32990443Y-5598504D01*
X32925067Y-5585500D01*
X32922657Y-5585500D01*
X32749746Y-5585501D01*
X32574934Y-5585501D01*
X32572583Y-5585969D01*
X32572579Y-5585969D01*
X32509557Y-5598504D01*
X32490443Y-5598504D01*
X32425067Y-5585500D01*
X32422657Y-5585500D01*
X32249746Y-5585501D01*
X32074934Y-5585501D01*
X32072583Y-5585969D01*
X32072579Y-5585969D01*
X32009557Y-5598504D01*
X31990443Y-5598504D01*
X31925067Y-5585500D01*
X31911211Y-5585500D01*
X31678500Y-5585501D01*
X31643852Y-5571149D01*
X31629500Y-5536501D01*
X31629500Y-5175025D01*
X31643852Y-5140377D01*
X31667561Y-5127262D01*
X31694951Y-5120989D01*
X31694952Y-5120989D01*
X31697832Y-5120329D01*
X31700471Y-5119002D01*
X31700473Y-5119001D01*
X31836711Y-5050481D01*
X31836712Y-5050480D01*
X31839355Y-5049151D01*
X31936027Y-4966585D01*
X31957572Y-4948184D01*
X31957573Y-4948183D01*
X31959814Y-4946269D01*
X32027357Y-4852273D01*
X32050530Y-4820025D01*
X32050531Y-4820023D01*
X32052255Y-4817624D01*
X32111342Y-4670641D01*
X32133662Y-4513807D01*
X32133807Y-4500000D01*
X32114776Y-4342733D01*
X32095413Y-4291492D01*
X32059825Y-4197311D01*
X32059824Y-4197310D01*
X32058780Y-4194546D01*
X32013916Y-4129269D01*
X31970728Y-4066429D01*
X31970728Y-4066428D01*
X31969053Y-4063992D01*
X31966848Y-4062028D01*
X31966845Y-4062024D01*
X31852985Y-3960580D01*
X31850775Y-3958611D01*
X31710774Y-3884484D01*
X31557133Y-3845892D01*
X31476677Y-3845470D01*
X31401674Y-3845077D01*
X31401670Y-3845077D01*
X31398721Y-3845062D01*
X31395852Y-3845751D01*
X31395850Y-3845751D01*
X31332080Y-3861061D01*
X31244684Y-3882043D01*
X31242056Y-3883399D01*
X31242057Y-3883399D01*
X31200974Y-3904603D01*
X31163602Y-3907741D01*
X31134958Y-3883535D01*
X31129500Y-3861061D01*
X31129500Y-3753798D01*
X31133036Y-3735522D01*
X31172992Y-3636129D01*
X31172992Y-3636128D01*
X31174093Y-3633390D01*
X31196413Y-3476556D01*
X31196558Y-3462749D01*
X31177527Y-3305482D01*
X31173265Y-3294204D01*
X31122576Y-3160060D01*
X31122575Y-3160059D01*
X31121531Y-3157295D01*
X31031804Y-3026741D01*
X31029599Y-3024777D01*
X31029596Y-3024773D01*
X30915736Y-2923329D01*
X30913526Y-2921360D01*
X30773525Y-2847233D01*
X30619884Y-2808641D01*
X30539428Y-2808219D01*
X30464425Y-2807826D01*
X30464421Y-2807826D01*
X30461472Y-2807811D01*
X30458603Y-2808500D01*
X30458601Y-2808500D01*
X30328828Y-2839656D01*
X30307435Y-2844792D01*
X30166665Y-2917449D01*
X30164445Y-2919386D01*
X30164443Y-2919387D01*
X30085085Y-2988616D01*
X30047290Y-3021587D01*
X30045592Y-3024002D01*
X30045591Y-3024004D01*
X30041955Y-3029178D01*
X29956201Y-3151193D01*
X29898657Y-3298786D01*
X29897389Y-3308416D01*
X29893366Y-3338976D01*
X29874615Y-3371455D01*
X29846709Y-3381543D01*
X29810776Y-3382954D01*
X29805466Y-3383163D01*
X29803543Y-3383201D01*
X29601185Y-3383201D01*
X29566537Y-3368849D01*
X28697688Y-2500000D01*
X38164925Y-2500000D01*
X38183173Y-2673622D01*
X38237121Y-2839656D01*
X38238405Y-2841881D01*
X38238406Y-2841882D01*
X38323123Y-2988616D01*
X38324410Y-2990845D01*
X38326131Y-2992757D01*
X38326133Y-2992759D01*
X38354959Y-3024773D01*
X38441226Y-3120582D01*
X38443306Y-3122093D01*
X38443308Y-3122095D01*
X38580382Y-3221685D01*
X38582462Y-3223196D01*
X38584809Y-3224241D01*
X38739600Y-3293159D01*
X38739603Y-3293160D01*
X38741948Y-3294204D01*
X38744465Y-3294739D01*
X38910201Y-3329967D01*
X38910206Y-3329967D01*
X38912711Y-3330500D01*
X39087289Y-3330500D01*
X39089794Y-3329967D01*
X39089799Y-3329967D01*
X39255535Y-3294739D01*
X39258052Y-3294204D01*
X39260397Y-3293160D01*
X39260400Y-3293159D01*
X39415191Y-3224241D01*
X39417538Y-3223196D01*
X39419618Y-3221685D01*
X39556692Y-3122095D01*
X39556694Y-3122093D01*
X39558774Y-3120582D01*
X39645041Y-3024773D01*
X39673867Y-2992759D01*
X39673869Y-2992757D01*
X39675590Y-2990845D01*
X39676877Y-2988616D01*
X39761594Y-2841882D01*
X39761595Y-2841881D01*
X39762879Y-2839656D01*
X39816827Y-2673622D01*
X39835075Y-2500000D01*
X39816827Y-2326378D01*
X39762879Y-2160344D01*
X39675590Y-2009155D01*
X39558774Y-1879418D01*
X39417538Y-1776804D01*
X39415191Y-1775759D01*
X39260400Y-1706841D01*
X39260397Y-1706840D01*
X39258052Y-1705796D01*
X39255535Y-1705261D01*
X39089799Y-1670033D01*
X39089794Y-1670033D01*
X39087289Y-1669500D01*
X38912711Y-1669500D01*
X38910206Y-1670033D01*
X38910201Y-1670033D01*
X38744465Y-1705261D01*
X38741948Y-1705796D01*
X38739603Y-1706840D01*
X38739600Y-1706841D01*
X38662205Y-1741300D01*
X38582463Y-1776804D01*
X38441226Y-1879418D01*
X38324410Y-2009155D01*
X38237121Y-2160344D01*
X38183173Y-2326378D01*
X38164925Y-2500000D01*
X28697688Y-2500000D01*
X27611677Y-1413989D01*
X27605163Y-1405924D01*
X27595565Y-1391060D01*
X27565627Y-1367459D01*
X27561315Y-1363627D01*
X27557050Y-1359362D01*
X27539865Y-1347081D01*
X27538021Y-1345696D01*
X27499530Y-1315353D01*
X27499529Y-1315352D01*
X27496347Y-1312844D01*
X27492522Y-1311501D01*
X27488977Y-1309552D01*
X27489058Y-1309404D01*
X27487265Y-1308472D01*
X27487191Y-1308622D01*
X27483555Y-1306841D01*
X27480260Y-1304486D01*
X27429384Y-1289271D01*
X27427190Y-1288557D01*
X27415614Y-1284492D01*
X27377143Y-1270982D01*
X27374074Y-1270716D01*
X27374073Y-1270716D01*
X27372630Y-1270591D01*
X27372627Y-1270591D01*
X27371578Y-1270500D01*
X27371579Y-1270487D01*
X27367142Y-1269739D01*
X27367115Y-1269955D01*
X27363096Y-1269447D01*
X27359216Y-1268287D01*
X27355167Y-1268446D01*
X27303857Y-1270462D01*
X27301933Y-1270500D01*
X8804557Y-1270500D01*
X8794243Y-1269402D01*
X8780920Y-1266533D01*
X8780917Y-1266533D01*
X8776956Y-1265680D01*
X8742664Y-1269739D01*
X8739107Y-1270160D01*
X8733347Y-1270500D01*
X8727308Y-1270500D01*
X8718279Y-1272003D01*
X8706456Y-1273971D01*
X8704169Y-1274296D01*
X8690865Y-1275871D01*
X8651491Y-1280531D01*
X8647841Y-1282283D01*
X8643949Y-1283414D01*
X8643902Y-1283253D01*
X8641979Y-1283861D01*
X8642033Y-1284019D01*
X8638201Y-1285331D01*
X8634206Y-1285996D01*
X8587459Y-1311219D01*
X8585462Y-1312237D01*
X8537600Y-1335220D01*
X8533324Y-1338814D01*
X8533315Y-1338803D01*
X8529648Y-1341413D01*
X8529782Y-1341585D01*
X8526583Y-1344066D01*
X8523018Y-1345990D01*
X8520268Y-1348965D01*
X8485401Y-1386684D01*
X8484067Y-1388071D01*
X5940490Y-3931648D01*
X5905842Y-3946000D01*
X5652320Y-3946000D01*
X5617672Y-3931648D01*
X5611938Y-3924754D01*
X5589378Y-3891929D01*
X5587703Y-3889492D01*
X5585498Y-3887528D01*
X5585495Y-3887524D01*
X5471635Y-3786080D01*
X5469425Y-3784111D01*
X5329424Y-3709984D01*
X5175783Y-3671392D01*
X5095327Y-3670970D01*
X5020324Y-3670577D01*
X5020320Y-3670577D01*
X5017371Y-3670562D01*
X5014502Y-3671251D01*
X5014500Y-3671251D01*
X4866208Y-3706853D01*
X4863334Y-3707543D01*
X4722564Y-3780200D01*
X4720344Y-3782137D01*
X4720342Y-3782138D01*
X4648212Y-3845062D01*
X4603189Y-3884338D01*
X4601491Y-3886753D01*
X4601490Y-3886755D01*
X4534934Y-3981454D01*
X4503269Y-4001549D01*
X4471916Y-3996583D01*
X4358190Y-3936368D01*
X4355576Y-3934984D01*
X4201935Y-3896392D01*
X4121479Y-3895970D01*
X4046476Y-3895577D01*
X4046472Y-3895577D01*
X4043523Y-3895562D01*
X4040654Y-3896251D01*
X4040652Y-3896251D01*
X3902161Y-3929500D01*
X3889486Y-3932543D01*
X3886858Y-3933899D01*
X3886859Y-3933899D01*
X3755790Y-4001549D01*
X3748716Y-4005200D01*
X3746496Y-4007137D01*
X3746494Y-4007138D01*
X3683578Y-4062024D01*
X3629341Y-4109338D01*
X3627643Y-4111753D01*
X3627642Y-4111755D01*
X3583797Y-4174141D01*
X3538252Y-4238944D01*
X3480708Y-4386537D01*
X3480323Y-4389462D01*
X3465995Y-4498298D01*
X3460031Y-4543596D01*
X3477415Y-4701053D01*
X3531855Y-4849819D01*
X3533500Y-4852267D01*
X3533503Y-4852273D01*
X3543339Y-4866910D01*
X3550752Y-4903673D01*
X3529999Y-4934910D01*
X3523880Y-4938411D01*
X3481244Y-4958884D01*
X3481240Y-4958886D01*
X3478463Y-4960220D01*
X3474187Y-4963814D01*
X3474178Y-4963803D01*
X3470511Y-4966413D01*
X3470645Y-4966585D01*
X3467446Y-4969066D01*
X3463881Y-4970990D01*
X3461131Y-4973965D01*
X3426264Y-5011684D01*
X3424930Y-5013071D01*
X3106520Y-5331481D01*
X3071616Y-5345832D01*
X3012103Y-5345520D01*
X2927671Y-5345077D01*
X2927667Y-5345077D01*
X2924718Y-5345062D01*
X2921849Y-5345751D01*
X2921847Y-5345751D01*
X2834972Y-5366608D01*
X2770681Y-5382043D01*
X2768053Y-5383399D01*
X2768054Y-5383399D01*
X2672615Y-5432659D01*
X2629911Y-5454700D01*
X2627691Y-5456637D01*
X2627689Y-5456638D01*
X2536142Y-5536500D01*
X2510536Y-5558838D01*
X2508838Y-5561253D01*
X2508837Y-5561255D01*
X2472324Y-5613208D01*
X2419447Y-5688444D01*
X2418376Y-5691192D01*
X2418374Y-5691195D01*
X2397229Y-5745431D01*
X2361903Y-5836037D01*
X2361518Y-5838962D01*
X2345552Y-5960240D01*
X2341226Y-5993096D01*
X2358610Y-6150553D01*
X2413050Y-6299319D01*
X2414695Y-6301767D01*
X2499758Y-6428355D01*
X2499761Y-6428358D01*
X2501405Y-6430805D01*
X2503592Y-6432795D01*
X2610620Y-6530182D01*
X2618573Y-6537419D01*
X2757790Y-6613008D01*
X2911019Y-6653207D01*
X2999191Y-6654592D01*
X3066462Y-6655649D01*
X3066465Y-6655649D01*
X3069413Y-6655695D01*
X3072290Y-6655036D01*
X3072291Y-6655036D01*
X3220948Y-6620989D01*
X3220949Y-6620989D01*
X3223829Y-6620329D01*
X3226468Y-6619002D01*
X3226470Y-6619001D01*
X3362708Y-6550481D01*
X3362709Y-6550480D01*
X3365352Y-6549151D01*
X3469517Y-6460186D01*
X3505183Y-6448597D01*
X3534316Y-6461204D01*
X3610123Y-6530182D01*
X3618076Y-6537419D01*
X3757293Y-6613008D01*
X3910522Y-6653207D01*
X3998694Y-6654592D01*
X4065965Y-6655649D01*
X4065968Y-6655649D01*
X4068916Y-6655695D01*
X4071793Y-6655036D01*
X4071794Y-6655036D01*
X4220451Y-6620989D01*
X4220452Y-6620989D01*
X4223332Y-6620329D01*
X4225971Y-6619002D01*
X4225973Y-6619001D01*
X4362211Y-6550481D01*
X4362212Y-6550480D01*
X4364855Y-6549151D01*
X4399148Y-6519862D01*
X4483070Y-6448186D01*
X4483072Y-6448184D01*
X4485314Y-6446269D01*
X4518628Y-6399907D01*
X4550501Y-6380144D01*
X4558420Y-6379500D01*
X6272295Y-6379500D01*
X6282609Y-6380598D01*
X6295933Y-6383467D01*
X6295934Y-6383467D01*
X6299896Y-6384320D01*
X6337748Y-6379840D01*
X6343505Y-6379500D01*
X6349544Y-6379500D01*
X6370381Y-6376031D01*
X6372671Y-6375706D01*
X6387499Y-6373951D01*
X6425361Y-6369470D01*
X6429013Y-6367716D01*
X6432903Y-6366586D01*
X6432950Y-6366747D01*
X6434873Y-6366139D01*
X6434819Y-6365980D01*
X6438648Y-6364669D01*
X6442646Y-6364004D01*
X6489376Y-6338790D01*
X6491373Y-6337772D01*
X6539252Y-6314781D01*
X6541608Y-6312801D01*
X6541610Y-6312799D01*
X6542726Y-6311861D01*
X6542735Y-6311852D01*
X6543528Y-6311186D01*
X6543537Y-6311196D01*
X6547203Y-6308586D01*
X6547070Y-6308415D01*
X6550269Y-6305934D01*
X6553834Y-6304010D01*
X6591451Y-6263316D01*
X6592785Y-6261929D01*
X7036852Y-5817862D01*
X7071500Y-5803510D01*
X7106148Y-5817862D01*
X7120500Y-5852510D01*
X7120500Y-6735010D01*
X7106148Y-6769658D01*
X6201489Y-7674317D01*
X6193424Y-7680831D01*
X6178560Y-7690429D01*
X6176051Y-7693612D01*
X6154960Y-7720366D01*
X6151127Y-7724679D01*
X6146862Y-7728944D01*
X6141109Y-7736994D01*
X6134581Y-7746129D01*
X6133196Y-7747973D01*
X6119817Y-7764945D01*
X6100344Y-7789647D01*
X6099001Y-7793472D01*
X6097052Y-7797017D01*
X6096904Y-7796936D01*
X6095972Y-7798729D01*
X6096122Y-7798803D01*
X6094341Y-7802439D01*
X6091986Y-7805734D01*
X6082709Y-7836755D01*
X6076771Y-7856609D01*
X6076058Y-7858802D01*
X6058482Y-7908851D01*
X6058000Y-7914416D01*
X6057987Y-7914415D01*
X6057239Y-7918852D01*
X6057455Y-7918879D01*
X6056947Y-7922898D01*
X6055787Y-7926778D01*
X6055946Y-7930827D01*
X6057962Y-7982137D01*
X6058000Y-7984061D01*
X6058000Y-10496500D01*
X6043648Y-10531148D01*
X6009000Y-10545500D01*
X5602244Y-10545500D01*
X5570273Y-10548973D01*
X5543605Y-10551870D01*
X5543602Y-10551871D01*
X5540552Y-10552202D01*
X5460074Y-10582372D01*
X5408508Y-10601702D01*
X5408506Y-10601703D01*
X5405236Y-10602929D01*
X5402440Y-10605024D01*
X5402439Y-10605025D01*
X5371977Y-10627855D01*
X5289596Y-10689596D01*
X5287502Y-10692390D01*
X5254130Y-10736919D01*
X5202929Y-10805236D01*
X5201703Y-10808506D01*
X5201702Y-10808508D01*
X5184218Y-10855149D01*
X5152202Y-10940552D01*
X5145500Y-11002244D01*
X5145500Y-11997756D01*
X5152202Y-12059448D01*
X5202929Y-12194764D01*
X5205024Y-12197560D01*
X5205025Y-12197561D01*
X5250064Y-12257656D01*
X5289596Y-12310404D01*
X5405236Y-12397071D01*
X5408506Y-12398297D01*
X5408508Y-12398298D01*
X5460074Y-12417628D01*
X5540552Y-12447798D01*
X5543602Y-12448129D01*
X5543605Y-12448130D01*
X5572668Y-12451287D01*
X5605564Y-12469297D01*
X5616089Y-12505292D01*
X5598079Y-12538188D01*
X5572668Y-12548713D01*
X5543605Y-12551870D01*
X5543602Y-12551871D01*
X5540552Y-12552202D01*
X5501201Y-12566954D01*
X5408508Y-12601702D01*
X5408506Y-12601703D01*
X5405236Y-12602929D01*
X5289596Y-12689596D01*
X5287502Y-12692390D01*
X5207696Y-12798876D01*
X5202929Y-12805236D01*
X5152202Y-12940552D01*
X5151871Y-12943602D01*
X5151870Y-12943605D01*
X5148973Y-12970273D01*
X5145500Y-13002244D01*
X5145500Y-13997756D01*
X5145644Y-13999078D01*
X5151379Y-14051870D01*
X5152202Y-14059448D01*
X5182372Y-14139926D01*
X5200992Y-14189596D01*
X5202929Y-14194764D01*
X5205024Y-14197560D01*
X5205025Y-14197561D01*
X5240248Y-14244559D01*
X5289596Y-14310404D01*
X5292390Y-14312498D01*
X5382181Y-14379792D01*
X5405236Y-14397071D01*
X5408506Y-14398297D01*
X5408508Y-14398298D01*
X5427539Y-14405432D01*
X5540552Y-14447798D01*
X5543602Y-14448129D01*
X5543605Y-14448130D01*
X5572668Y-14451287D01*
X5605564Y-14469297D01*
X5616089Y-14505292D01*
X5598079Y-14538188D01*
X5572668Y-14548713D01*
X5543605Y-14551870D01*
X5543602Y-14551871D01*
X5540552Y-14552202D01*
X5501201Y-14566954D01*
X5408508Y-14601702D01*
X5408506Y-14601703D01*
X5405236Y-14602929D01*
X5289596Y-14689596D01*
X5202929Y-14805236D01*
X5152202Y-14940552D01*
X5145500Y-15002244D01*
X5145500Y-15997756D01*
X5145644Y-15999078D01*
X5151379Y-16051870D01*
X5152202Y-16059448D01*
X5182372Y-16139926D01*
X5200992Y-16189596D01*
X5202929Y-16194764D01*
X5289596Y-16310404D01*
X5292390Y-16312498D01*
X5336760Y-16345751D01*
X5405236Y-16397071D01*
X5408506Y-16398297D01*
X5408508Y-16398298D01*
X5460074Y-16417628D01*
X5540552Y-16447798D01*
X5543602Y-16448129D01*
X5543605Y-16448130D01*
X5572668Y-16451287D01*
X5605564Y-16469297D01*
X5616089Y-16505292D01*
X5598079Y-16538188D01*
X5572668Y-16548713D01*
X5543605Y-16551870D01*
X5543602Y-16551871D01*
X5540552Y-16552202D01*
X5501201Y-16566954D01*
X5408508Y-16601702D01*
X5408506Y-16601703D01*
X5405236Y-16602929D01*
X5402440Y-16605024D01*
X5402439Y-16605025D01*
X5305057Y-16678009D01*
X5289596Y-16689596D01*
X5202929Y-16805236D01*
X5201703Y-16808506D01*
X5201702Y-16808508D01*
X5189908Y-16839970D01*
X5152202Y-16940552D01*
X5151871Y-16943602D01*
X5151870Y-16943605D01*
X5150785Y-16953594D01*
X5145500Y-17002244D01*
X5145500Y-17997756D01*
X5152202Y-18059448D01*
X5182372Y-18139926D01*
X5200992Y-18189596D01*
X5202929Y-18194764D01*
X5205024Y-18197560D01*
X5205025Y-18197561D01*
X5228568Y-18228974D01*
X5289596Y-18310404D01*
X5292390Y-18312498D01*
X5365182Y-18367052D01*
X5405236Y-18397071D01*
X5408506Y-18398297D01*
X5408508Y-18398298D01*
X5460074Y-18417628D01*
X5540552Y-18447798D01*
X5543602Y-18448129D01*
X5543605Y-18448130D01*
X5572668Y-18451287D01*
X5605564Y-18469297D01*
X5616089Y-18505292D01*
X5598079Y-18538188D01*
X5572668Y-18548713D01*
X5543605Y-18551870D01*
X5543602Y-18551871D01*
X5540552Y-18552202D01*
X5501201Y-18566954D01*
X5408508Y-18601702D01*
X5408506Y-18601703D01*
X5405236Y-18602929D01*
X5289596Y-18689596D01*
X5287502Y-18692390D01*
X5236568Y-18760352D01*
X5202929Y-18805236D01*
X5201703Y-18808506D01*
X5201702Y-18808508D01*
X5182372Y-18860074D01*
X5152202Y-18940552D01*
X5151871Y-18943602D01*
X5151870Y-18943605D01*
X5151576Y-18946312D01*
X5145500Y-19002244D01*
X5145500Y-19997756D01*
X5145644Y-19999078D01*
X5150103Y-20040123D01*
X5152202Y-20059448D01*
X5168502Y-20102929D01*
X5200992Y-20189596D01*
X5202929Y-20194764D01*
X5205024Y-20197560D01*
X5205025Y-20197561D01*
X5218416Y-20215429D01*
X5289596Y-20310404D01*
X5292390Y-20312498D01*
X5401551Y-20394309D01*
X5405236Y-20397071D01*
X5408506Y-20398297D01*
X5408508Y-20398298D01*
X5449512Y-20413669D01*
X5540552Y-20447798D01*
X5543602Y-20448129D01*
X5543605Y-20448130D01*
X5572668Y-20451287D01*
X5605564Y-20469297D01*
X5616089Y-20505292D01*
X5598079Y-20538188D01*
X5572668Y-20548713D01*
X5543605Y-20551870D01*
X5543602Y-20551871D01*
X5540552Y-20552202D01*
X5501201Y-20566954D01*
X5408508Y-20601702D01*
X5408506Y-20601703D01*
X5405236Y-20602929D01*
X5402440Y-20605024D01*
X5402439Y-20605025D01*
X5297183Y-20683910D01*
X5289596Y-20689596D01*
X5287502Y-20692390D01*
X5275781Y-20708030D01*
X5202929Y-20805236D01*
X5152202Y-20940552D01*
X5145500Y-21002244D01*
X5145500Y-21997756D01*
X5152202Y-22059448D01*
X5180259Y-22134290D01*
X5200560Y-22188444D01*
X5202929Y-22194764D01*
X5205023Y-22197558D01*
X5205025Y-22197561D01*
X5287497Y-22307603D01*
X5296792Y-22343936D01*
X5277673Y-22376199D01*
X5241340Y-22385494D01*
X5236345Y-22384200D01*
X5236274Y-22384484D01*
X5082633Y-22345892D01*
X5002598Y-22345473D01*
X4927175Y-22345077D01*
X4927171Y-22345077D01*
X4924221Y-22345062D01*
X4916657Y-22346878D01*
X4879616Y-22341009D01*
X4870573Y-22333879D01*
X4799002Y-22262308D01*
X4784650Y-22227660D01*
X4793605Y-22200784D01*
X4793301Y-22200618D01*
X4794218Y-22198943D01*
X4794441Y-22198273D01*
X4797071Y-22194764D01*
X4799441Y-22188444D01*
X4819741Y-22134290D01*
X4847798Y-22059448D01*
X4854500Y-21997756D01*
X4854500Y-21002244D01*
X4847798Y-20940552D01*
X4797071Y-20805236D01*
X4724220Y-20708030D01*
X4712498Y-20692390D01*
X4710404Y-20689596D01*
X4702817Y-20683910D01*
X4597561Y-20605025D01*
X4597560Y-20605024D01*
X4594764Y-20602929D01*
X4591494Y-20601703D01*
X4591492Y-20601702D01*
X4498800Y-20566954D01*
X4471394Y-20541353D01*
X4467000Y-20521072D01*
X4467000Y-20478928D01*
X4481352Y-20444280D01*
X4498800Y-20433046D01*
X4591492Y-20398298D01*
X4591494Y-20398297D01*
X4594764Y-20397071D01*
X4598450Y-20394309D01*
X4707610Y-20312498D01*
X4710404Y-20310404D01*
X4781584Y-20215429D01*
X4794975Y-20197561D01*
X4794976Y-20197560D01*
X4797071Y-20194764D01*
X4799009Y-20189596D01*
X4831498Y-20102929D01*
X4847798Y-20059448D01*
X4849898Y-20040123D01*
X4854356Y-19999078D01*
X4854500Y-19997756D01*
X4854500Y-19002244D01*
X4848424Y-18946312D01*
X4848130Y-18943605D01*
X4848129Y-18943602D01*
X4847798Y-18940552D01*
X4817628Y-18860074D01*
X4798298Y-18808508D01*
X4798297Y-18808506D01*
X4797071Y-18805236D01*
X4763433Y-18760352D01*
X4712498Y-18692390D01*
X4710404Y-18689596D01*
X4594764Y-18602929D01*
X4591494Y-18601703D01*
X4591492Y-18601702D01*
X4498800Y-18566954D01*
X4471394Y-18541353D01*
X4467000Y-18521072D01*
X4467000Y-18478928D01*
X4481352Y-18444280D01*
X4498800Y-18433046D01*
X4591492Y-18398298D01*
X4591494Y-18398297D01*
X4594764Y-18397071D01*
X4634819Y-18367052D01*
X4707610Y-18312498D01*
X4710404Y-18310404D01*
X4771432Y-18228974D01*
X4794975Y-18197561D01*
X4794976Y-18197560D01*
X4797071Y-18194764D01*
X4799009Y-18189596D01*
X4817628Y-18139926D01*
X4847798Y-18059448D01*
X4854500Y-17997756D01*
X4854500Y-17002244D01*
X4849215Y-16953594D01*
X4848130Y-16943605D01*
X4848129Y-16943602D01*
X4847798Y-16940552D01*
X4810092Y-16839970D01*
X4798298Y-16808508D01*
X4798297Y-16808506D01*
X4797071Y-16805236D01*
X4710404Y-16689596D01*
X4694943Y-16678009D01*
X4597561Y-16605025D01*
X4597560Y-16605024D01*
X4594764Y-16602929D01*
X4591494Y-16601703D01*
X4591492Y-16601702D01*
X4498800Y-16566954D01*
X4471394Y-16541353D01*
X4467000Y-16521072D01*
X4467000Y-16478928D01*
X4481352Y-16444280D01*
X4498800Y-16433046D01*
X4591492Y-16398298D01*
X4591494Y-16398297D01*
X4594764Y-16397071D01*
X4663241Y-16345751D01*
X4707610Y-16312498D01*
X4710404Y-16310404D01*
X4797071Y-16194764D01*
X4799009Y-16189596D01*
X4817628Y-16139926D01*
X4847798Y-16059448D01*
X4848622Y-16051870D01*
X4854356Y-15999078D01*
X4854500Y-15997756D01*
X4854500Y-15002244D01*
X4847798Y-14940552D01*
X4797071Y-14805236D01*
X4710404Y-14689596D01*
X4594764Y-14602929D01*
X4591494Y-14601703D01*
X4591492Y-14601702D01*
X4498800Y-14566954D01*
X4471394Y-14541353D01*
X4467000Y-14521072D01*
X4467000Y-14478928D01*
X4481352Y-14444280D01*
X4498800Y-14433046D01*
X4591492Y-14398298D01*
X4591494Y-14398297D01*
X4594764Y-14397071D01*
X4617820Y-14379792D01*
X4707610Y-14312498D01*
X4710404Y-14310404D01*
X4759752Y-14244559D01*
X4794975Y-14197561D01*
X4794976Y-14197560D01*
X4797071Y-14194764D01*
X4799009Y-14189596D01*
X4817628Y-14139926D01*
X4847798Y-14059448D01*
X4848622Y-14051870D01*
X4854356Y-13999078D01*
X4854500Y-13997756D01*
X4854500Y-13002244D01*
X4851027Y-12970273D01*
X4848130Y-12943605D01*
X4848129Y-12943602D01*
X4847798Y-12940552D01*
X4797071Y-12805236D01*
X4792305Y-12798876D01*
X4712498Y-12692390D01*
X4710404Y-12689596D01*
X4594764Y-12602929D01*
X4591494Y-12601703D01*
X4591492Y-12601702D01*
X4498800Y-12566954D01*
X4471394Y-12541353D01*
X4467000Y-12521072D01*
X4467000Y-12478928D01*
X4481352Y-12444280D01*
X4498800Y-12433046D01*
X4591492Y-12398298D01*
X4591494Y-12398297D01*
X4594764Y-12397071D01*
X4710404Y-12310404D01*
X4749936Y-12257656D01*
X4794975Y-12197561D01*
X4794976Y-12197560D01*
X4797071Y-12194764D01*
X4847798Y-12059448D01*
X4854500Y-11997756D01*
X4854500Y-11002244D01*
X4847798Y-10940552D01*
X4815782Y-10855149D01*
X4798298Y-10808508D01*
X4798297Y-10808506D01*
X4797071Y-10805236D01*
X4745871Y-10736919D01*
X4712498Y-10692390D01*
X4710404Y-10689596D01*
X4628023Y-10627855D01*
X4597561Y-10605025D01*
X4597560Y-10605024D01*
X4594764Y-10602929D01*
X4591494Y-10601703D01*
X4591492Y-10601702D01*
X4539926Y-10582372D01*
X4459448Y-10552202D01*
X4456398Y-10551871D01*
X4456395Y-10551870D01*
X4429727Y-10548973D01*
X4397756Y-10545500D01*
X3777244Y-10545500D01*
X3745273Y-10548973D01*
X3718605Y-10551870D01*
X3718602Y-10551871D01*
X3715552Y-10552202D01*
X3635074Y-10582372D01*
X3583508Y-10601702D01*
X3583506Y-10601703D01*
X3580236Y-10602929D01*
X3577440Y-10605024D01*
X3577439Y-10605025D01*
X3546977Y-10627855D01*
X3464596Y-10689596D01*
X3462502Y-10692390D01*
X3429130Y-10736919D01*
X3377929Y-10805236D01*
X3376703Y-10808506D01*
X3376702Y-10808508D01*
X3349242Y-10881759D01*
X3323641Y-10909165D01*
X3286160Y-10910441D01*
X3280432Y-10907864D01*
X3238887Y-10885867D01*
X3238884Y-10885866D01*
X3236274Y-10884484D01*
X3082633Y-10845892D01*
X3002177Y-10845470D01*
X2927174Y-10845077D01*
X2927170Y-10845077D01*
X2924221Y-10845062D01*
X2921352Y-10845751D01*
X2921350Y-10845751D01*
X2840898Y-10865066D01*
X2770184Y-10882043D01*
X2767556Y-10883399D01*
X2767557Y-10883399D01*
X2668427Y-10934564D01*
X2629414Y-10954700D01*
X2627194Y-10956637D01*
X2627192Y-10956638D01*
X2555164Y-11019473D01*
X2510039Y-11058838D01*
X2508341Y-11061253D01*
X2508340Y-11061255D01*
X2494691Y-11080676D01*
X2418950Y-11188444D01*
X2361406Y-11336037D01*
X2340729Y-11493096D01*
X254500Y-11493096D01*
X254500Y-1102245D01*
X40645500Y-1102245D01*
X40645501Y-4097754D01*
X40652202Y-4159447D01*
X40702929Y-4294764D01*
X40705024Y-4297560D01*
X40705025Y-4297561D01*
X40771709Y-4386537D01*
X40789596Y-4410404D01*
X40905236Y-4497071D01*
X40908506Y-4498297D01*
X40908508Y-4498298D01*
X40945585Y-4512197D01*
X41040553Y-4547798D01*
X41043603Y-4548129D01*
X41043606Y-4548130D01*
X41070274Y-4551027D01*
X41102245Y-4554500D01*
X41649793Y-4554500D01*
X42197754Y-4554499D01*
X42259447Y-4547798D01*
X42354415Y-4512197D01*
X42391492Y-4498298D01*
X42391494Y-4498297D01*
X42394764Y-4497071D01*
X42510404Y-4410404D01*
X42528291Y-4386537D01*
X42594975Y-4297561D01*
X42594976Y-4297560D01*
X42597071Y-4294764D01*
X42647798Y-4159447D01*
X42648131Y-4156387D01*
X42652979Y-4111755D01*
X42654500Y-4097755D01*
X42654499Y-1102246D01*
X42654499Y-1102245D01*
X47345500Y-1102245D01*
X47345501Y-4097754D01*
X47352202Y-4159447D01*
X47402929Y-4294764D01*
X47405024Y-4297560D01*
X47405025Y-4297561D01*
X47471709Y-4386537D01*
X47489596Y-4410404D01*
X47605236Y-4497071D01*
X47608506Y-4498297D01*
X47608508Y-4498298D01*
X47645585Y-4512197D01*
X47740553Y-4547798D01*
X47743603Y-4548129D01*
X47743606Y-4548130D01*
X47770274Y-4551027D01*
X47802245Y-4554500D01*
X48349793Y-4554500D01*
X48897754Y-4554499D01*
X48959447Y-4547798D01*
X49054415Y-4512197D01*
X49091492Y-4498298D01*
X49091494Y-4498297D01*
X49094764Y-4497071D01*
X49210404Y-4410404D01*
X49228291Y-4386537D01*
X49294975Y-4297561D01*
X49294976Y-4297560D01*
X49297071Y-4294764D01*
X49347798Y-4159447D01*
X49348131Y-4156387D01*
X49352979Y-4111755D01*
X49354500Y-4097755D01*
X49354499Y-1102246D01*
X49347798Y-1040553D01*
X49297071Y-905236D01*
X49210404Y-789596D01*
X49094764Y-702929D01*
X49091494Y-701703D01*
X49091492Y-701702D01*
X49039638Y-682264D01*
X48959447Y-652202D01*
X48956397Y-651871D01*
X48956394Y-651870D01*
X48929726Y-648973D01*
X48897755Y-645500D01*
X48350207Y-645500D01*
X47802246Y-645501D01*
X47740553Y-652202D01*
X47677206Y-675949D01*
X47608508Y-701702D01*
X47608506Y-701703D01*
X47605236Y-702929D01*
X47489596Y-789596D01*
X47402929Y-905236D01*
X47352202Y-1040553D01*
X47351871Y-1043603D01*
X47351870Y-1043606D01*
X47348973Y-1070274D01*
X47345500Y-1102245D01*
X42654499Y-1102245D01*
X42647798Y-1040553D01*
X42597071Y-905236D01*
X42510404Y-789596D01*
X42394764Y-702929D01*
X42391494Y-701703D01*
X42391492Y-701702D01*
X42339638Y-682264D01*
X42259447Y-652202D01*
X42256397Y-651871D01*
X42256394Y-651870D01*
X42229726Y-648973D01*
X42197755Y-645500D01*
X41650207Y-645500D01*
X41102246Y-645501D01*
X41040553Y-652202D01*
X40977206Y-675949D01*
X40908508Y-701702D01*
X40908506Y-701703D01*
X40905236Y-702929D01*
X40789596Y-789596D01*
X40702929Y-905236D01*
X40652202Y-1040553D01*
X40651871Y-1043603D01*
X40651870Y-1043606D01*
X40648973Y-1070274D01*
X40645500Y-1102245D01*
X254500Y-1102245D01*
X254500Y-303500D01*
X268852Y-268852D01*
X303500Y-254500D01*
X49696500Y-254500D01*
X49731148Y-268852D01*
G37*
%TD.AperFunction*%
%TD*%
M02*
