%TF.GenerationSoftware,KiCad,Pcbnew,(6.0.6)*%
%TF.CreationDate,2022-12-15T15:37:10-06:00*%
%TF.ProjectId,Realm Card,5265616c-6d20-4436-9172-642e6b696361,A*%
%TF.SameCoordinates,Original*%
%TF.FileFunction,Copper,L1,Top*%
%TF.FilePolarity,Positive*%
%FSLAX46Y46*%
G04 Gerber Fmt 4.6, Leading zero omitted, Abs format (unit mm)*
G04 Created by KiCad (PCBNEW (6.0.6)) date 2022-12-15 15:37:10*
%MOMM*%
%LPD*%
G01*
G04 APERTURE LIST*
G04 Aperture macros list*
%AMRoundRect*
0 Rectangle with rounded corners*
0 $1 Rounding radius*
0 $2 $3 $4 $5 $6 $7 $8 $9 X,Y pos of 4 corners*
0 Add a 4 corners polygon primitive as box body*
4,1,4,$2,$3,$4,$5,$6,$7,$8,$9,$2,$3,0*
0 Add four circle primitives for the rounded corners*
1,1,$1+$1,$2,$3*
1,1,$1+$1,$4,$5*
1,1,$1+$1,$6,$7*
1,1,$1+$1,$8,$9*
0 Add four rect primitives between the rounded corners*
20,1,$1+$1,$2,$3,$4,$5,0*
20,1,$1+$1,$4,$5,$6,$7,0*
20,1,$1+$1,$6,$7,$8,$9,0*
20,1,$1+$1,$8,$9,$2,$3,0*%
G04 Aperture macros list end*
%TA.AperFunction,SMDPad,CuDef*%
%ADD10RoundRect,0.150000X-0.150000X0.587500X-0.150000X-0.587500X0.150000X-0.587500X0.150000X0.587500X0*%
%TD*%
%TA.AperFunction,SMDPad,CuDef*%
%ADD11RoundRect,0.250000X0.262500X0.450000X-0.262500X0.450000X-0.262500X-0.450000X0.262500X-0.450000X0*%
%TD*%
%TA.AperFunction,SMDPad,CuDef*%
%ADD12RoundRect,0.150000X-0.150000X0.512500X-0.150000X-0.512500X0.150000X-0.512500X0.150000X0.512500X0*%
%TD*%
%TA.AperFunction,SMDPad,CuDef*%
%ADD13RoundRect,0.250000X-0.262500X-0.450000X0.262500X-0.450000X0.262500X0.450000X-0.262500X0.450000X0*%
%TD*%
%TA.AperFunction,SMDPad,CuDef*%
%ADD14RoundRect,0.250000X-0.250000X-0.475000X0.250000X-0.475000X0.250000X0.475000X-0.250000X0.475000X0*%
%TD*%
%TA.AperFunction,SMDPad,CuDef*%
%ADD15R,0.900000X1.200000*%
%TD*%
%TA.AperFunction,SMDPad,CuDef*%
%ADD16RoundRect,0.243750X0.456250X-0.243750X0.456250X0.243750X-0.456250X0.243750X-0.456250X-0.243750X0*%
%TD*%
%TA.AperFunction,SMDPad,CuDef*%
%ADD17R,0.850000X1.100000*%
%TD*%
%TA.AperFunction,SMDPad,CuDef*%
%ADD18R,0.750000X1.100000*%
%TD*%
%TA.AperFunction,SMDPad,CuDef*%
%ADD19R,1.200000X1.000000*%
%TD*%
%TA.AperFunction,SMDPad,CuDef*%
%ADD20R,1.900000X1.350000*%
%TD*%
%TA.AperFunction,SMDPad,CuDef*%
%ADD21R,1.170000X1.800000*%
%TD*%
%TA.AperFunction,SMDPad,CuDef*%
%ADD22R,1.550000X1.350000*%
%TD*%
%TA.AperFunction,SMDPad,CuDef*%
%ADD23RoundRect,0.250000X-0.450000X0.262500X-0.450000X-0.262500X0.450000X-0.262500X0.450000X0.262500X0*%
%TD*%
%TA.AperFunction,SMDPad,CuDef*%
%ADD24RoundRect,0.250000X0.250000X1.500000X-0.250000X1.500000X-0.250000X-1.500000X0.250000X-1.500000X0*%
%TD*%
%TA.AperFunction,SMDPad,CuDef*%
%ADD25RoundRect,0.250001X0.499999X1.449999X-0.499999X1.449999X-0.499999X-1.449999X0.499999X-1.449999X0*%
%TD*%
%TA.AperFunction,SMDPad,CuDef*%
%ADD26R,1.250000X2.500000*%
%TD*%
%TA.AperFunction,ComponentPad*%
%ADD27R,4.000000X1.700000*%
%TD*%
%TA.AperFunction,SMDPad,CuDef*%
%ADD28R,0.300000X1.300000*%
%TD*%
%TA.AperFunction,SMDPad,CuDef*%
%ADD29R,1.800000X2.200000*%
%TD*%
%TA.AperFunction,SMDPad,CuDef*%
%ADD30RoundRect,0.243750X-0.456250X0.243750X-0.456250X-0.243750X0.456250X-0.243750X0.456250X0.243750X0*%
%TD*%
%TA.AperFunction,ViaPad*%
%ADD31C,0.800000*%
%TD*%
%TA.AperFunction,Conductor*%
%ADD32C,0.250000*%
%TD*%
%TA.AperFunction,Conductor*%
%ADD33C,0.200000*%
%TD*%
G04 APERTURE END LIST*
D10*
%TO.P,U2,3,VSS*%
%TO.N,GND*%
X5000000Y-6437500D03*
%TO.P,U2,2,VDD*%
%TO.N,+3.3V*%
X4050000Y-4562500D03*
%TO.P,U2,1,~{RST}*%
%TO.N,reset*%
X5950000Y-4562500D03*
%TD*%
D11*
%TO.P,R8,1*%
%TO.N,reset*%
X5912500Y-8500000D03*
%TO.P,R8,2*%
%TO.N,+3.3V*%
X4087500Y-8500000D03*
%TD*%
D12*
%TO.P,U1,1,STAT*%
%TO.N,Net-(R4-Pad1)*%
X48950000Y-25862500D03*
%TO.P,U1,2,VSS*%
%TO.N,GND*%
X48000000Y-25862500D03*
%TO.P,U1,3,VBAT*%
%TO.N,BAT CHG*%
X47050000Y-25862500D03*
%TO.P,U1,4,VDD*%
%TO.N,+5V*%
X47050000Y-28137500D03*
%TO.P,U1,5,PROG*%
%TO.N,Net-(R3-Pad2)*%
X48950000Y-28137500D03*
%TD*%
D13*
%TO.P,R1,1*%
%TO.N,GND*%
X42087500Y-21120000D03*
%TO.P,R1,2*%
%TO.N,Net-(R3-Pad2)*%
X43912500Y-21120000D03*
%TD*%
D11*
%TO.P,R2,1*%
%TO.N,GND*%
X43875000Y-18580000D03*
%TO.P,R2,2*%
%TO.N,BAT CHG*%
X42050000Y-18580000D03*
%TD*%
D13*
%TO.P,R9,1*%
%TO.N,+3.3V*%
X4087500Y-12500000D03*
%TO.P,R9,2*%
%TO.N,Net-(J4-Pad4)*%
X5912500Y-12500000D03*
%TD*%
D14*
%TO.P,C1,1*%
%TO.N,GND*%
X41050000Y-29000000D03*
%TO.P,C1,2*%
%TO.N,+5V*%
X42950000Y-29000000D03*
%TD*%
D13*
%TO.P,R10,1*%
%TO.N,+3.3V*%
X4087500Y-10500000D03*
%TO.P,R10,2*%
%TO.N,Net-(J4-Pad5)*%
X5912500Y-10500000D03*
%TD*%
D15*
%TO.P,D1,1,K*%
%TO.N,+5V*%
X43150000Y-31500000D03*
%TO.P,D1,2,A*%
%TO.N,VBAT*%
X39850000Y-31500000D03*
%TD*%
D13*
%TO.P,R6,1*%
%TO.N,+3.3V*%
X4087500Y-16500000D03*
%TO.P,R6,2*%
%TO.N,Net-(J4-Pad2)*%
X5912500Y-16500000D03*
%TD*%
D16*
%TO.P,D2,1,K*%
%TO.N,GND*%
X49000000Y-37805500D03*
%TO.P,D2,2,A*%
%TO.N,Net-(D2-Pad2)*%
X49000000Y-35930500D03*
%TD*%
D17*
%TO.P,J4,1,DAT2*%
%TO.N,unconnected-(J2-Pad1)*%
X10105000Y-36950000D03*
%TO.P,J4,2,DAT3/CD*%
%TO.N,SD_CS*%
X9005000Y-36950000D03*
%TO.P,J4,3,CMD*%
%TO.N,MOSI*%
X7905000Y-36950000D03*
%TO.P,J4,4,VDD*%
%TO.N,+3.3V*%
X6805000Y-36950000D03*
%TO.P,J4,5,CLK*%
%TO.N,SCK*%
X5705000Y-36950000D03*
%TO.P,J4,6,VSS*%
%TO.N,GND*%
X4605000Y-36950000D03*
%TO.P,J4,7,DAT0*%
%TO.N,MISO*%
X3505000Y-36950000D03*
D18*
%TO.P,J4,8,DAT1*%
%TO.N,unconnected-(J2-Pad8)*%
X2455000Y-36950000D03*
D19*
%TO.P,J4,9,SHIELD*%
%TO.N,unconnected-(J2-Pad9)*%
X12740000Y-30800000D03*
%TO.P,J4,10*%
%TO.N,N/C*%
X12740000Y-27100000D03*
D20*
%TO.P,J4,11*%
X3270000Y-26125000D03*
D21*
X1245000Y-36600000D03*
D22*
X12565000Y-36825000D03*
D20*
X9240000Y-26125000D03*
%TD*%
D13*
%TO.P,R7,1*%
%TO.N,+3.3V*%
X4087500Y-14500000D03*
%TO.P,R7,2*%
%TO.N,Net-(J4-Pad3)*%
X5912500Y-14500000D03*
%TD*%
D23*
%TO.P,R3,1*%
%TO.N,Net-(R4-Pad1)*%
X46500000Y-32145500D03*
%TO.P,R3,2*%
%TO.N,Net-(D1-Pad1)*%
X46500000Y-33970500D03*
%TD*%
D24*
%TO.P,J1,1,Pin_1*%
%TO.N,Net-(J3-Pad1)*%
X46000000Y-8350000D03*
%TO.P,J1,2,Pin_2*%
%TO.N,GND*%
X44000000Y-8350000D03*
D25*
%TO.P,J1,MP*%
%TO.N,N/C*%
X48350000Y-2600000D03*
X41650000Y-2600000D03*
%TD*%
D26*
%TO.P,SW1,1,A*%
%TO.N,Net-(J3-Pad1)*%
X37670000Y-34880000D03*
%TO.P,SW1,2,B*%
%TO.N,VBAT*%
X40170000Y-34880000D03*
%TO.P,SW1,3,C*%
%TO.N,unconnected-(SW1-Pad3)*%
X42670000Y-34880000D03*
%TD*%
D27*
%TO.P,J2,1,Pin_1*%
%TO.N,WR*%
X16380000Y-22380000D03*
%TO.P,J2,2,Pin_2*%
%TO.N,SCK*%
X16380000Y-24920000D03*
%TO.P,J2,3,Pin_3*%
%TO.N,MISO*%
X16380000Y-27460000D03*
%TO.P,J2,4,Pin_4*%
%TO.N,MOSI*%
X16380000Y-30000000D03*
%TO.P,J2,5,Pin_5*%
%TO.N,+3.3V*%
X16380000Y-32540000D03*
%TO.P,J2,6,Pin_6*%
%TO.N,GND*%
X16380000Y-35080000D03*
%TO.P,J2,7,Pin_7*%
%TO.N,+5V*%
X16380000Y-37620000D03*
%TO.P,J2,8,Pin_8*%
%TO.N,BAT CHG*%
X33620000Y-22380000D03*
%TO.P,J2,9,Pin_9*%
%TO.N,LCD_CS*%
X33620000Y-24920000D03*
%TO.P,J2,10,Pin_10*%
%TO.N,SD_CS*%
X33620000Y-27460000D03*
%TO.P,J2,11,Pin_11*%
%TO.N,X+*%
X33620000Y-30000000D03*
%TO.P,J2,12,Pin_12*%
%TO.N,X-*%
X33620000Y-32540000D03*
%TO.P,J2,13,Pin_13*%
%TO.N,Y+*%
X33620000Y-35080000D03*
%TO.P,J2,14,Pin_14*%
%TO.N,Y-*%
X33620000Y-37620000D03*
%TD*%
D13*
%TO.P,R4,1*%
%TO.N,BAT CHG*%
X42050000Y-16040000D03*
%TO.P,R4,2*%
%TO.N,+5V*%
X43875000Y-16040000D03*
%TD*%
D14*
%TO.P,C2,1*%
%TO.N,GND*%
X41050000Y-26500000D03*
%TO.P,C2,2*%
%TO.N,VBAT*%
X42950000Y-26500000D03*
%TD*%
D28*
%TO.P,J3,1,Pin_1*%
%TO.N,GND*%
X12750000Y-6490000D03*
%TO.P,J3,2,Pin_2*%
%TO.N,Net-(J4-Pad2)*%
X13250000Y-6490000D03*
%TO.P,J3,3,Pin_3*%
%TO.N,Net-(J4-Pad3)*%
X13750000Y-6490000D03*
%TO.P,J3,4,Pin_4*%
%TO.N,Net-(J4-Pad4)*%
X14250000Y-6490000D03*
%TO.P,J3,5,Pin_5*%
%TO.N,Net-(J4-Pad5)*%
X14750000Y-6490000D03*
%TO.P,J3,6,Pin_6*%
%TO.N,GND*%
X15250000Y-6490000D03*
%TO.P,J3,7,Pin_7*%
%TO.N,+3.3V*%
X15750000Y-6490000D03*
%TO.P,J3,8,Pin_8*%
X16250000Y-6490000D03*
%TO.P,J3,9,Pin_9*%
X16750000Y-6490000D03*
%TO.P,J3,10,Pin_10*%
%TO.N,reset*%
X17250000Y-6490000D03*
%TO.P,J3,11,Pin_11*%
%TO.N,unconnected-(J4-Pad11)*%
X17750000Y-6490000D03*
%TO.P,J3,12,Pin_12*%
%TO.N,unconnected-(J4-Pad12)*%
X18250000Y-6490000D03*
%TO.P,J3,13,Pin_13*%
%TO.N,unconnected-(J4-Pad13)*%
X18750000Y-6490000D03*
%TO.P,J3,14,Pin_14*%
%TO.N,unconnected-(J4-Pad14)*%
X19250000Y-6490000D03*
%TO.P,J3,15,Pin_15*%
%TO.N,unconnected-(J4-Pad15)*%
X19750000Y-6490000D03*
%TO.P,J3,16,Pin_16*%
%TO.N,unconnected-(J4-Pad16)*%
X20250000Y-6490000D03*
%TO.P,J3,17,Pin_17*%
%TO.N,unconnected-(J4-Pad17)*%
X20750000Y-6490000D03*
%TO.P,J3,18,Pin_18*%
%TO.N,unconnected-(J4-Pad18)*%
X21250000Y-6490000D03*
%TO.P,J3,19,Pin_19*%
%TO.N,unconnected-(J4-Pad19)*%
X21750000Y-6490000D03*
%TO.P,J3,20,Pin_20*%
%TO.N,unconnected-(J4-Pad20)*%
X22250000Y-6490000D03*
%TO.P,J3,21,Pin_21*%
%TO.N,unconnected-(J4-Pad21)*%
X22750000Y-6490000D03*
%TO.P,J3,22,Pin_22*%
%TO.N,unconnected-(J4-Pad22)*%
X23250000Y-6490000D03*
%TO.P,J3,23,Pin_23*%
%TO.N,unconnected-(J4-Pad23)*%
X23750000Y-6490000D03*
%TO.P,J3,24,Pin_24*%
%TO.N,unconnected-(J4-Pad24)*%
X24250000Y-6490000D03*
%TO.P,J3,25,Pin_25*%
%TO.N,unconnected-(J4-Pad25)*%
X24750000Y-6490000D03*
%TO.P,J3,26,Pin_26*%
%TO.N,unconnected-(J4-Pad26)*%
X25250000Y-6490000D03*
%TO.P,J3,27,Pin_27*%
%TO.N,unconnected-(J4-Pad27)*%
X25750000Y-6490000D03*
%TO.P,J3,28,Pin_28*%
%TO.N,unconnected-(J4-Pad28)*%
X26250000Y-6490000D03*
%TO.P,J3,29,Pin_29*%
%TO.N,unconnected-(J4-Pad29)*%
X26750000Y-6490000D03*
%TO.P,J3,30,Pin_30*%
%TO.N,unconnected-(J4-Pad30)*%
X27250000Y-6490000D03*
%TO.P,J3,31,Pin_31*%
%TO.N,unconnected-(J4-Pad31)*%
X27750000Y-6490000D03*
%TO.P,J3,32,Pin_32*%
%TO.N,unconnected-(J4-Pad32)*%
X28250000Y-6490000D03*
%TO.P,J3,33,Pin_33*%
%TO.N,MISO*%
X28750000Y-6490000D03*
%TO.P,J3,34,Pin_34*%
%TO.N,MOSI*%
X29250000Y-6490000D03*
%TO.P,J3,35,Pin_35*%
%TO.N,unconnected-(J4-Pad35)*%
X29750000Y-6490000D03*
%TO.P,J3,36,Pin_36*%
%TO.N,WR*%
X30250000Y-6490000D03*
%TO.P,J3,37,Pin_37*%
%TO.N,SCK*%
X30750000Y-6490000D03*
%TO.P,J3,38,Pin_38*%
%TO.N,LCD_CS*%
X31250000Y-6490000D03*
%TO.P,J3,39,Pin_39*%
%TO.N,unconnected-(J4-Pad39)*%
X31750000Y-6490000D03*
%TO.P,J3,40,Pin_40*%
%TO.N,+3.3V*%
X32250000Y-6490000D03*
%TO.P,J3,41,Pin_41*%
X32750000Y-6490000D03*
%TO.P,J3,42,Pin_42*%
X33250000Y-6490000D03*
%TO.P,J3,43,Pin_43*%
%TO.N,GND*%
X33750000Y-6490000D03*
%TO.P,J3,44,Pin_44*%
%TO.N,X-*%
X34250000Y-6490000D03*
%TO.P,J3,45,Pin_45*%
%TO.N,Y-*%
X34750000Y-6490000D03*
%TO.P,J3,46,Pin_46*%
%TO.N,X+*%
X35250000Y-6490000D03*
%TO.P,J3,47,Pin_47*%
%TO.N,Y+*%
X35750000Y-6490000D03*
%TO.P,J3,48,Pin_48*%
%TO.N,GND*%
X36250000Y-6490000D03*
%TO.P,J3,49,Pin_49*%
X36750000Y-6490000D03*
%TO.P,J3,50,Pin_50*%
X37250000Y-6490000D03*
D29*
%TO.P,J3,MP*%
%TO.N,N/C*%
X39150000Y-9740000D03*
X10850000Y-9740000D03*
%TD*%
D30*
%TO.P,D3,1,K*%
%TO.N,Net-(D1-Pad1)*%
X46500000Y-35930500D03*
%TO.P,D3,2,A*%
%TO.N,+5V*%
X46500000Y-37805500D03*
%TD*%
D23*
%TO.P,R5,1*%
%TO.N,Net-(R4-Pad1)*%
X49000000Y-32087500D03*
%TO.P,R5,2*%
%TO.N,Net-(D2-Pad2)*%
X49000000Y-33912500D03*
%TD*%
D31*
%TO.N,GND*%
X10500000Y-6500000D03*
X6500000Y-6500000D03*
%TO.N,MOSI*%
X3038749Y-2951636D03*
%TO.N,Net-(R3-Pad2)*%
X48500000Y-29500000D03*
%TO.N,+5V*%
X46012299Y-16012299D03*
X14000000Y-37250000D03*
X47000000Y-17500000D03*
X42000000Y-31500000D03*
X45341779Y-31413878D03*
X6487701Y-23512299D03*
X6512299Y-18487701D03*
%TO.N,VBAT*%
X40000000Y-30500000D03*
X43099346Y-25099346D03*
%TO.N,+3.3V*%
X16400000Y-8000000D03*
X10224500Y-11500000D03*
X32060453Y-7717631D03*
X3987701Y-28487701D03*
X9012299Y-33512299D03*
X2500500Y-16500000D03*
X13500000Y-32500000D03*
%TO.N,SD_CS*%
X46730546Y-21268747D03*
X7487701Y-24512299D03*
X7512299Y-19487701D03*
X9000000Y-35750000D03*
%TO.N,MOSI*%
X11500000Y-30000000D03*
X9487701Y-27987701D03*
X8000000Y-35500000D03*
%TO.N,SCK*%
X29512299Y-4487701D03*
X30974500Y-4855758D03*
X12000000Y-25000000D03*
X6000000Y-35500000D03*
X2272786Y-2309525D03*
%TO.N,MISO*%
X14000000Y-27500000D03*
X11237700Y-26237700D03*
X4000000Y-3225500D03*
X4750000Y-35500000D03*
%TO.N,Net-(J3-Pad1)*%
X46000000Y-11000000D03*
X38945498Y-34500000D03*
%TO.N,Y+*%
X36000000Y-11699500D03*
X36445498Y-35000000D03*
%TO.N,X+*%
X34500000Y-11199500D03*
X42199500Y-23949500D03*
%TO.N,Y-*%
X36445498Y-36000000D03*
X34500000Y-9500000D03*
%TO.N,X-*%
X33500000Y-9500000D03*
X43197019Y-24012429D03*
%TO.N,WR*%
X13500000Y-22500000D03*
X5000000Y-1375500D03*
%TO.N,LCD_CS*%
X43199500Y-22500000D03*
X40614859Y-11040839D03*
%TO.N,Net-(R3-Pad2)*%
X46800000Y-20200000D03*
%TO.N,BAT CHG*%
X45276000Y-25500000D03*
X44699500Y-14500000D03*
%TD*%
D32*
%TO.N,reset*%
X7500000Y-6912500D02*
X7500000Y-5500000D01*
X8391916Y-4562500D02*
X7500000Y-5454416D01*
X7500000Y-4562500D02*
X5950000Y-4562500D01*
X5912500Y-8500000D02*
X7500000Y-6912500D01*
X9404416Y-3550000D02*
X8391916Y-4562500D01*
X15260000Y-3550000D02*
X9404416Y-3550000D01*
X17250000Y-5540000D02*
X15260000Y-3550000D01*
X8391916Y-4562500D02*
X5950000Y-4562500D01*
X17250000Y-6490000D02*
X17250000Y-5540000D01*
%TO.N,WR*%
X30250000Y-4200097D02*
X30250000Y-6490000D01*
X29812604Y-3762701D02*
X30250000Y-4200097D01*
X29423695Y-3762701D02*
X29812604Y-3762701D01*
X27310994Y-1650000D02*
X29423695Y-3762701D01*
X5274500Y-1650000D02*
X27310994Y-1650000D01*
X5000000Y-1375500D02*
X5274500Y-1650000D01*
%TO.N,SCK*%
X4699000Y-2100000D02*
X27124598Y-2100000D01*
X27124598Y-2100000D02*
X29512299Y-4487701D01*
X4649500Y-2050500D02*
X4699000Y-2100000D01*
X2914580Y-2050500D02*
X4649500Y-2050500D01*
X2655555Y-2309525D02*
X2914580Y-2050500D01*
X2272786Y-2309525D02*
X2655555Y-2309525D01*
%TO.N,MOSI*%
X4463104Y-2500500D02*
X4512604Y-2550000D01*
X3038749Y-2951636D02*
X3489885Y-2500500D01*
X3489885Y-2500500D02*
X4463104Y-2500500D01*
X4512604Y-2550000D02*
X26550000Y-2550000D01*
X26550000Y-2550000D02*
X29250000Y-5250000D01*
X29250000Y-5250000D02*
X29250000Y-6490000D01*
%TO.N,MISO*%
X26210000Y-3000000D02*
X28750000Y-5540000D01*
X4699000Y-3000000D02*
X26210000Y-3000000D01*
X4473500Y-3225500D02*
X4699000Y-3000000D01*
X28750000Y-5540000D02*
X28750000Y-6490000D01*
X4000000Y-3225500D02*
X4473500Y-3225500D01*
%TO.N,+3.3V*%
X7000000Y-17500000D02*
X7000000Y-16048896D01*
X6737299Y-17762701D02*
X7000000Y-17500000D01*
X7000000Y-16048896D02*
X10224500Y-12824396D01*
X5350201Y-17762701D02*
X6737299Y-17762701D01*
X10224500Y-12824396D02*
X10224500Y-11500000D01*
X4087500Y-16500000D02*
X5350201Y-17762701D01*
%TO.N,Net-(J4-Pad5)*%
X14750000Y-5130812D02*
X14750000Y-6490000D01*
X13619188Y-4000000D02*
X14750000Y-5130812D01*
X8000000Y-8412500D02*
X8000000Y-5590812D01*
X9590812Y-4000000D02*
X13619188Y-4000000D01*
X5912500Y-10500000D02*
X8000000Y-8412500D01*
X8000000Y-5590812D02*
X9590812Y-4000000D01*
%TO.N,Net-(J4-Pad4)*%
X8500000Y-5727208D02*
X8500000Y-9912500D01*
X8500000Y-9912500D02*
X5912500Y-12500000D01*
X13482792Y-4500000D02*
X9727208Y-4500000D01*
X14250000Y-5267208D02*
X13482792Y-4500000D01*
X14250000Y-6490000D02*
X14250000Y-5267208D01*
X9727208Y-4500000D02*
X8500000Y-5727208D01*
%TO.N,Net-(J4-Pad3)*%
X9863604Y-5000000D02*
X9000000Y-5863604D01*
X9000000Y-11412500D02*
X5912500Y-14500000D01*
X13346396Y-5000000D02*
X9863604Y-5000000D01*
X9000000Y-5863604D02*
X9000000Y-11412500D01*
X13750000Y-5403604D02*
X13346396Y-5000000D01*
X13750000Y-6490000D02*
X13750000Y-5403604D01*
%TO.N,Net-(J4-Pad2)*%
X13250000Y-5540000D02*
X13250000Y-6490000D01*
X9985000Y-5515000D02*
X13225000Y-5515000D01*
X13225000Y-5515000D02*
X13250000Y-5540000D01*
X9500000Y-6000000D02*
X9985000Y-5515000D01*
X5912500Y-16500000D02*
X9500000Y-12912500D01*
X9500000Y-12912500D02*
X9500000Y-6000000D01*
%TO.N,+3.3V*%
X4087500Y-4600000D02*
X4050000Y-4562500D01*
X4087500Y-16500000D02*
X4087500Y-4600000D01*
X2500500Y-16500000D02*
X4087500Y-16500000D01*
X16250000Y-7850000D02*
X16400000Y-8000000D01*
X16250000Y-6490000D02*
X16250000Y-7850000D01*
D33*
%TO.N,X-*%
X34250000Y-8750000D02*
X34250000Y-6490000D01*
X33500000Y-9500000D02*
X34250000Y-8750000D01*
%TO.N,Y-*%
X34750000Y-9250000D02*
X34500000Y-9500000D01*
X34750000Y-6490000D02*
X34750000Y-9250000D01*
%TO.N,X+*%
X35250000Y-10449500D02*
X35250000Y-6490000D01*
X34500000Y-11199500D02*
X35250000Y-10449500D01*
%TO.N,Y+*%
X35750000Y-11449500D02*
X36000000Y-11699500D01*
X35750000Y-6490000D02*
X35750000Y-11449500D01*
D32*
%TO.N,BAT CHG*%
X46687500Y-25500000D02*
X47050000Y-25862500D01*
X45276000Y-25500000D02*
X46687500Y-25500000D01*
%TO.N,+5V*%
X47050000Y-29705657D02*
X45341779Y-31413878D01*
X47050000Y-28137500D02*
X47050000Y-29705657D01*
%TO.N,Net-(R4-Pad1)*%
X47675000Y-27521751D02*
X48950000Y-26246751D01*
X49000000Y-32087500D02*
X47675000Y-30762500D01*
X47675000Y-30762500D02*
X47675000Y-27521751D01*
X48950000Y-26246751D02*
X48950000Y-25862500D01*
%TO.N,Net-(R3-Pad2)*%
X48500000Y-29500000D02*
X48500000Y-28587500D01*
X48500000Y-28587500D02*
X48950000Y-28137500D01*
%TO.N,Net-(R4-Pad1)*%
X46558000Y-32087500D02*
X49000000Y-32087500D01*
X46500000Y-32145500D02*
X46558000Y-32087500D01*
%TO.N,GND*%
X41050000Y-26500000D02*
X40000000Y-26500000D01*
X42087500Y-20367500D02*
X43875000Y-18580000D01*
X42087500Y-21120000D02*
X42087500Y-20367500D01*
%TO.N,+5V*%
X43150000Y-29200000D02*
X42950000Y-29000000D01*
X14000000Y-37250000D02*
X14370000Y-37620000D01*
X14370000Y-37620000D02*
X17380000Y-37620000D01*
X43150000Y-31500000D02*
X43150000Y-29200000D01*
X47000000Y-17500000D02*
X47000000Y-17000000D01*
X47000000Y-17000000D02*
X46012299Y-16012299D01*
X45471795Y-31543894D02*
X45341779Y-31413878D01*
X46012299Y-16012299D02*
X46000000Y-16000000D01*
X46000000Y-16000000D02*
X43915000Y-16000000D01*
X6512299Y-23487701D02*
X6512299Y-18487701D01*
X45475000Y-36780500D02*
X45475000Y-32975000D01*
X6487701Y-23512299D02*
X6512299Y-23487701D01*
X42950000Y-29000000D02*
X43187500Y-29000000D01*
X45471795Y-32971795D02*
X45471795Y-31543894D01*
X46500000Y-37805500D02*
X45475000Y-36780500D01*
X42000000Y-31500000D02*
X43150000Y-31500000D01*
X43915000Y-16000000D02*
X43875000Y-16040000D01*
%TO.N,VBAT*%
X40000000Y-30500000D02*
X40000000Y-31350000D01*
X42950000Y-25248692D02*
X42950000Y-26500000D01*
X43099346Y-25099346D02*
X42950000Y-25248692D01*
X40170000Y-31820000D02*
X39850000Y-31500000D01*
X40170000Y-34880000D02*
X40170000Y-31820000D01*
X40000000Y-31350000D02*
X39850000Y-31500000D01*
%TO.N,Net-(D1-Pad1)*%
X46500000Y-33970500D02*
X46500000Y-35930500D01*
%TO.N,Net-(D2-Pad2)*%
X49000000Y-33912500D02*
X49000000Y-35930500D01*
%TO.N,+3.3V*%
X3987701Y-28487701D02*
X9012299Y-33512299D01*
X32250000Y-7528084D02*
X32060453Y-7717631D01*
X32250000Y-6490000D02*
X32250000Y-7528084D01*
X32750000Y-6490000D02*
X32250000Y-6490000D01*
X33250000Y-6490000D02*
X32750000Y-6490000D01*
X6805000Y-36950000D02*
X6805000Y-35669695D01*
X16250000Y-6490000D02*
X15750000Y-6490000D01*
X8962396Y-33512299D02*
X9012299Y-33512299D01*
X13540000Y-32540000D02*
X13500000Y-32500000D01*
X6805000Y-35669695D02*
X8962396Y-33512299D01*
X17380000Y-32540000D02*
X13540000Y-32540000D01*
X16750000Y-6490000D02*
X16250000Y-6490000D01*
%TO.N,SD_CS*%
X7487701Y-19512299D02*
X7487701Y-24512299D01*
X43499805Y-23225000D02*
X40275000Y-23225000D01*
X45154805Y-21570000D02*
X43499805Y-23225000D01*
X46429293Y-21570000D02*
X45154805Y-21570000D01*
X46730546Y-21268747D02*
X46429293Y-21570000D01*
X7500000Y-19500000D02*
X7512299Y-19487701D01*
X9000000Y-35750000D02*
X9000000Y-36945000D01*
X7512299Y-19487701D02*
X7487701Y-19512299D01*
X40275000Y-23225000D02*
X36040000Y-27460000D01*
X9000000Y-36945000D02*
X9005000Y-36950000D01*
X36040000Y-27460000D02*
X32620000Y-27460000D01*
%TO.N,MOSI*%
X17355000Y-29975000D02*
X17380000Y-30000000D01*
X7905000Y-35595000D02*
X8000000Y-35500000D01*
X11500000Y-30000000D02*
X9487701Y-27987701D01*
X11525000Y-29975000D02*
X17355000Y-29975000D01*
X11500000Y-30000000D02*
X11525000Y-29975000D01*
X7905000Y-36950000D02*
X7905000Y-35595000D01*
%TO.N,SCK*%
X30974500Y-4855758D02*
X30750000Y-5080258D01*
X5705000Y-36950000D02*
X5705000Y-35795000D01*
X17300000Y-25000000D02*
X17380000Y-24920000D01*
X30750000Y-5080258D02*
X30750000Y-6490000D01*
X12000000Y-25000000D02*
X17300000Y-25000000D01*
X5705000Y-35795000D02*
X6000000Y-35500000D01*
%TO.N,MISO*%
X3505000Y-36425000D02*
X3505000Y-36950000D01*
X14000000Y-26610000D02*
X13627700Y-26237700D01*
X4430000Y-35500000D02*
X3505000Y-36425000D01*
X13627700Y-26237700D02*
X11237700Y-26237700D01*
X14000000Y-27500000D02*
X14040000Y-27460000D01*
X14000000Y-27500000D02*
X14000000Y-26610000D01*
X14850000Y-27460000D02*
X17380000Y-27460000D01*
X4750000Y-35500000D02*
X4430000Y-35500000D01*
X14040000Y-27460000D02*
X17380000Y-27460000D01*
%TO.N,Net-(J3-Pad1)*%
X38565498Y-34880000D02*
X38945498Y-34500000D01*
X37670000Y-34880000D02*
X38565498Y-34880000D01*
X46000000Y-8350000D02*
X46000000Y-11000000D01*
D33*
%TO.N,Y+*%
X32700000Y-35500000D02*
X32620000Y-35580000D01*
X36445498Y-35000000D02*
X36365498Y-35080000D01*
X36365498Y-35080000D02*
X32620000Y-35080000D01*
%TO.N,X+*%
X38500000Y-25601040D02*
X38500000Y-27000000D01*
X40101040Y-24000000D02*
X38500000Y-25601040D01*
X42149000Y-24000000D02*
X40101040Y-24000000D01*
X35500000Y-30000000D02*
X32620000Y-30000000D01*
X38500000Y-27000000D02*
X35500000Y-30000000D01*
X42199500Y-23949500D02*
X42149000Y-24000000D01*
%TO.N,Y-*%
X34825498Y-37620000D02*
X32620000Y-37620000D01*
X36445498Y-36000000D02*
X34825498Y-37620000D01*
%TO.N,X-*%
X39000000Y-26000000D02*
X39000000Y-29000000D01*
X42409448Y-24800000D02*
X40200000Y-24800000D01*
X39000000Y-29000000D02*
X35460000Y-32540000D01*
X35460000Y-32540000D02*
X32620000Y-32540000D01*
X43197019Y-24012429D02*
X42409448Y-24800000D01*
X40200000Y-24800000D02*
X39000000Y-26000000D01*
D32*
%TO.N,WR*%
X13620000Y-22380000D02*
X13500000Y-22500000D01*
X17380000Y-22380000D02*
X13620000Y-22380000D01*
%TO.N,LCD_CS*%
X31275000Y-5515000D02*
X31225000Y-5565000D01*
X43199500Y-22500000D02*
X40000000Y-22500000D01*
X31225000Y-5565000D02*
X31225000Y-6000000D01*
X34820000Y-25420000D02*
X32620000Y-25420000D01*
X40000000Y-22500000D02*
X37580000Y-24920000D01*
X40614859Y-11040839D02*
X40614859Y-8554859D01*
X37575000Y-5515000D02*
X31275000Y-5515000D01*
X40614859Y-8554859D02*
X37575000Y-5515000D01*
X37580000Y-24920000D02*
X32620000Y-24920000D01*
%TO.N,Net-(R4-Pad1)*%
X49000000Y-32087500D02*
X49000000Y-32000000D01*
%TO.N,Net-(R3-Pad2)*%
X46774695Y-20200000D02*
X46000000Y-20974695D01*
X46000000Y-20974695D02*
X46000000Y-21000000D01*
X46800000Y-20200000D02*
X46774695Y-20200000D01*
X46000000Y-21000000D02*
X45880000Y-21120000D01*
X45880000Y-21120000D02*
X43912500Y-21120000D01*
%TO.N,BAT CHG*%
X44699500Y-14500000D02*
X43590000Y-14500000D01*
X41000000Y-22000000D02*
X41000000Y-20500000D01*
X43590000Y-14500000D02*
X42050000Y-16040000D01*
X42050000Y-16040000D02*
X42050000Y-18580000D01*
X32620000Y-22380000D02*
X39483604Y-22380000D01*
X41000000Y-20500000D02*
X42050000Y-19450000D01*
X39483604Y-22380000D02*
X39863604Y-22000000D01*
X39863604Y-22000000D02*
X41000000Y-22000000D01*
X42050000Y-19450000D02*
X42050000Y-18580000D01*
%TD*%
%TA.AperFunction,Conductor*%
%TO.N,GND*%
G36*
X49731148Y-268852D02*
G01*
X49745500Y-303500D01*
X49745500Y-31326250D01*
X49731148Y-31360898D01*
X49696500Y-31375250D01*
X49679300Y-31372132D01*
X49559448Y-31327202D01*
X49556398Y-31326871D01*
X49556395Y-31326870D01*
X49529727Y-31323973D01*
X49497756Y-31320500D01*
X48789990Y-31320500D01*
X48755342Y-31306148D01*
X48068852Y-30619658D01*
X48054500Y-30585010D01*
X48054500Y-30085262D01*
X48068852Y-30050614D01*
X48103500Y-30036262D01*
X48126881Y-30042200D01*
X48161976Y-30061255D01*
X48257293Y-30113008D01*
X48410522Y-30153207D01*
X48498694Y-30154592D01*
X48565965Y-30155649D01*
X48565968Y-30155649D01*
X48568916Y-30155695D01*
X48571793Y-30155036D01*
X48571794Y-30155036D01*
X48720451Y-30120989D01*
X48720452Y-30120989D01*
X48723332Y-30120329D01*
X48725971Y-30119002D01*
X48725973Y-30119001D01*
X48862211Y-30050481D01*
X48862212Y-30050480D01*
X48864855Y-30049151D01*
X48955515Y-29971720D01*
X48983072Y-29948184D01*
X48983073Y-29948183D01*
X48985314Y-29946269D01*
X49055621Y-29848427D01*
X49076030Y-29820025D01*
X49076031Y-29820023D01*
X49077755Y-29817624D01*
X49136842Y-29670641D01*
X49159162Y-29513807D01*
X49159307Y-29500000D01*
X49140276Y-29342733D01*
X49116995Y-29281122D01*
X49085325Y-29197311D01*
X49085324Y-29197310D01*
X49084280Y-29194546D01*
X49059242Y-29158115D01*
X49040781Y-29131254D01*
X49032984Y-29094570D01*
X49053409Y-29063118D01*
X49081163Y-29054500D01*
X49131834Y-29054500D01*
X49192510Y-29044890D01*
X49222749Y-29040101D01*
X49222750Y-29040101D01*
X49226555Y-29039498D01*
X49317078Y-28993374D01*
X49337289Y-28983076D01*
X49337290Y-28983075D01*
X49340723Y-28981326D01*
X49431326Y-28890723D01*
X49489498Y-28776555D01*
X49504500Y-28681834D01*
X49504500Y-27593166D01*
X49489498Y-27498445D01*
X49431326Y-27384277D01*
X49340723Y-27293674D01*
X49337290Y-27291925D01*
X49337289Y-27291924D01*
X49241013Y-27242869D01*
X49226555Y-27235502D01*
X49222750Y-27234899D01*
X49222749Y-27234899D01*
X49192510Y-27230110D01*
X49131834Y-27220500D01*
X48768166Y-27220500D01*
X48707490Y-27230110D01*
X48677251Y-27234899D01*
X48677250Y-27234899D01*
X48673445Y-27235502D01*
X48658987Y-27242869D01*
X48591277Y-27277369D01*
X48553889Y-27280312D01*
X48525372Y-27255956D01*
X48522429Y-27218568D01*
X48534383Y-27199062D01*
X48939593Y-26793852D01*
X48974241Y-26779500D01*
X49131834Y-26779500D01*
X49209533Y-26767194D01*
X49222749Y-26765101D01*
X49222750Y-26765101D01*
X49226555Y-26764498D01*
X49283639Y-26735412D01*
X49337289Y-26708076D01*
X49337290Y-26708075D01*
X49340723Y-26706326D01*
X49431326Y-26615723D01*
X49447015Y-26584933D01*
X49484839Y-26510699D01*
X49489498Y-26501555D01*
X49504500Y-26406834D01*
X49504500Y-25318166D01*
X49489498Y-25223445D01*
X49454928Y-25155598D01*
X49433076Y-25112711D01*
X49433075Y-25112710D01*
X49431326Y-25109277D01*
X49340723Y-25018674D01*
X49337290Y-25016925D01*
X49337289Y-25016924D01*
X49283639Y-24989588D01*
X49226555Y-24960502D01*
X49222750Y-24959899D01*
X49222749Y-24959899D01*
X49181379Y-24953347D01*
X49131834Y-24945500D01*
X48768166Y-24945500D01*
X48713305Y-24954189D01*
X48676840Y-24945434D01*
X48670993Y-24940440D01*
X48558683Y-24828130D01*
X48553838Y-24824372D01*
X48416058Y-24742890D01*
X48410435Y-24740457D01*
X48263360Y-24697726D01*
X48255945Y-24698545D01*
X48254000Y-24700973D01*
X48254000Y-26067500D01*
X48239648Y-26102148D01*
X48205000Y-26116500D01*
X47795000Y-26116500D01*
X47760352Y-26102148D01*
X47746000Y-26067500D01*
X47746000Y-24704754D01*
X47743145Y-24697862D01*
X47740271Y-24696671D01*
X47589565Y-24740457D01*
X47583942Y-24742890D01*
X47446162Y-24824372D01*
X47441317Y-24828130D01*
X47329007Y-24940440D01*
X47294359Y-24954792D01*
X47286697Y-24954189D01*
X47231834Y-24945500D01*
X46868166Y-24945500D01*
X46818621Y-24953347D01*
X46777251Y-24959899D01*
X46777250Y-24959899D01*
X46773445Y-24960502D01*
X46716361Y-24989588D01*
X46662711Y-25016924D01*
X46662710Y-25016925D01*
X46659277Y-25018674D01*
X46571803Y-25106148D01*
X46537155Y-25120500D01*
X45835170Y-25120500D01*
X45800522Y-25106148D01*
X45794788Y-25099254D01*
X45772228Y-25066429D01*
X45770553Y-25063992D01*
X45768348Y-25062028D01*
X45768345Y-25062024D01*
X45654485Y-24960580D01*
X45652275Y-24958611D01*
X45512274Y-24884484D01*
X45358633Y-24845892D01*
X45278177Y-24845470D01*
X45203174Y-24845077D01*
X45203170Y-24845077D01*
X45200221Y-24845062D01*
X45197352Y-24845751D01*
X45197350Y-24845751D01*
X45049058Y-24881353D01*
X45046184Y-24882043D01*
X45043556Y-24883399D01*
X45043557Y-24883399D01*
X44923239Y-24945500D01*
X44905414Y-24954700D01*
X44903194Y-24956637D01*
X44903192Y-24956638D01*
X44828955Y-25021400D01*
X44786039Y-25058838D01*
X44784341Y-25061253D01*
X44784340Y-25061255D01*
X44780704Y-25066429D01*
X44694950Y-25188444D01*
X44693879Y-25191192D01*
X44693877Y-25191195D01*
X44670990Y-25249899D01*
X44637406Y-25336037D01*
X44637021Y-25338962D01*
X44623210Y-25443871D01*
X44616729Y-25493096D01*
X44634113Y-25650553D01*
X44688553Y-25799319D01*
X44690198Y-25801767D01*
X44775261Y-25928355D01*
X44775264Y-25928358D01*
X44776908Y-25930805D01*
X44779095Y-25932795D01*
X44879363Y-26024031D01*
X44894076Y-26037419D01*
X45033293Y-26113008D01*
X45186522Y-26153207D01*
X45274694Y-26154592D01*
X45341965Y-26155649D01*
X45341968Y-26155649D01*
X45344916Y-26155695D01*
X45347793Y-26155036D01*
X45347794Y-26155036D01*
X45496451Y-26120989D01*
X45496452Y-26120989D01*
X45499332Y-26120329D01*
X45501971Y-26119002D01*
X45501973Y-26119001D01*
X45638211Y-26050481D01*
X45638212Y-26050480D01*
X45640855Y-26049151D01*
X45685903Y-26010676D01*
X45759070Y-25948186D01*
X45759072Y-25948184D01*
X45761314Y-25946269D01*
X45794628Y-25899907D01*
X45826501Y-25880144D01*
X45834420Y-25879500D01*
X46446500Y-25879500D01*
X46481148Y-25893852D01*
X46495500Y-25928500D01*
X46495500Y-26406834D01*
X46510502Y-26501555D01*
X46515161Y-26510699D01*
X46552986Y-26584933D01*
X46568674Y-26615723D01*
X46659277Y-26706326D01*
X46662710Y-26708075D01*
X46662711Y-26708076D01*
X46716361Y-26735412D01*
X46773445Y-26764498D01*
X46777250Y-26765101D01*
X46777251Y-26765101D01*
X46790467Y-26767194D01*
X46868166Y-26779500D01*
X47231834Y-26779500D01*
X47286695Y-26770811D01*
X47323160Y-26779566D01*
X47329007Y-26784560D01*
X47441317Y-26896870D01*
X47446162Y-26900628D01*
X47586600Y-26983682D01*
X47586045Y-26984620D01*
X47609478Y-27008790D01*
X47608897Y-27046288D01*
X47598571Y-27061486D01*
X47438989Y-27221068D01*
X47430924Y-27227582D01*
X47416060Y-27237180D01*
X47413553Y-27240361D01*
X47410796Y-27242869D01*
X47375511Y-27255574D01*
X47355572Y-27250287D01*
X47341013Y-27242869D01*
X47326555Y-27235502D01*
X47322750Y-27234899D01*
X47322749Y-27234899D01*
X47292510Y-27230110D01*
X47231834Y-27220500D01*
X46868166Y-27220500D01*
X46807490Y-27230110D01*
X46777251Y-27234899D01*
X46777250Y-27234899D01*
X46773445Y-27235502D01*
X46758987Y-27242869D01*
X46662711Y-27291924D01*
X46662710Y-27291925D01*
X46659277Y-27293674D01*
X46568674Y-27384277D01*
X46510502Y-27498445D01*
X46495500Y-27593166D01*
X46495500Y-28681834D01*
X46510502Y-28776555D01*
X46568674Y-28890723D01*
X46656148Y-28978197D01*
X46670500Y-29012845D01*
X46670500Y-29528167D01*
X46656148Y-29562815D01*
X45471853Y-30747110D01*
X45437205Y-30761462D01*
X45430240Y-30760600D01*
X45430207Y-30760860D01*
X45427279Y-30760490D01*
X45424412Y-30759770D01*
X45344785Y-30759353D01*
X45268953Y-30758955D01*
X45268949Y-30758955D01*
X45266000Y-30758940D01*
X45263131Y-30759629D01*
X45263129Y-30759629D01*
X45114837Y-30795231D01*
X45111963Y-30795921D01*
X45109335Y-30797277D01*
X45109336Y-30797277D01*
X44996733Y-30855396D01*
X44971193Y-30868578D01*
X44968973Y-30870515D01*
X44968971Y-30870516D01*
X44894030Y-30935892D01*
X44851818Y-30972716D01*
X44850120Y-30975131D01*
X44850119Y-30975133D01*
X44818384Y-31020288D01*
X44760729Y-31102322D01*
X44759658Y-31105070D01*
X44759656Y-31105073D01*
X44728094Y-31186027D01*
X44703185Y-31249915D01*
X44702800Y-31252840D01*
X44686685Y-31375250D01*
X44682508Y-31406974D01*
X44699892Y-31564431D01*
X44754332Y-31713197D01*
X44755977Y-31715645D01*
X44841040Y-31842233D01*
X44841043Y-31842236D01*
X44842687Y-31844683D01*
X44844874Y-31846673D01*
X44885236Y-31883399D01*
X44959855Y-31951297D01*
X45066676Y-32009296D01*
X45090277Y-32038441D01*
X45092295Y-32052358D01*
X45092295Y-33003319D01*
X45092626Y-33005306D01*
X45092626Y-33005309D01*
X45094835Y-33018580D01*
X45095500Y-33026625D01*
X45095500Y-36734775D01*
X45094402Y-36745089D01*
X45090680Y-36762376D01*
X45095160Y-36800225D01*
X45095500Y-36805985D01*
X45095500Y-36812024D01*
X45095831Y-36814012D01*
X45098969Y-36832864D01*
X45099294Y-36835151D01*
X45105530Y-36887841D01*
X45107284Y-36891493D01*
X45108414Y-36895383D01*
X45108253Y-36895430D01*
X45108861Y-36897353D01*
X45109020Y-36897299D01*
X45110331Y-36901128D01*
X45110996Y-36905126D01*
X45136210Y-36951856D01*
X45137228Y-36953853D01*
X45160219Y-37001732D01*
X45162199Y-37004088D01*
X45162201Y-37004090D01*
X45163139Y-37005206D01*
X45163148Y-37005215D01*
X45163705Y-37005878D01*
X45163814Y-37006008D01*
X45163804Y-37006017D01*
X45166414Y-37009683D01*
X45166585Y-37009550D01*
X45169066Y-37012749D01*
X45170990Y-37016314D01*
X45173965Y-37019064D01*
X45211684Y-37053931D01*
X45213071Y-37055265D01*
X45545992Y-37388186D01*
X45560344Y-37422834D01*
X45557226Y-37440033D01*
X45553197Y-37450780D01*
X45553195Y-37450786D01*
X45552119Y-37453658D01*
X45551788Y-37456708D01*
X45551787Y-37456711D01*
X45548944Y-37482880D01*
X45545500Y-37514585D01*
X45545501Y-38096414D01*
X45552119Y-38157342D01*
X45602217Y-38290982D01*
X45687811Y-38405189D01*
X45802018Y-38490783D01*
X45935658Y-38540881D01*
X45938708Y-38541212D01*
X45938711Y-38541213D01*
X45964880Y-38544056D01*
X45996585Y-38547500D01*
X46499810Y-38547500D01*
X47003414Y-38547499D01*
X47064342Y-38540881D01*
X47197982Y-38490783D01*
X47312189Y-38405189D01*
X47397783Y-38290982D01*
X47447881Y-38157342D01*
X47448214Y-38154282D01*
X47451056Y-38128120D01*
X47454334Y-38097939D01*
X47792001Y-38097939D01*
X47792132Y-38100458D01*
X47802600Y-38201353D01*
X47803728Y-38206578D01*
X47857451Y-38367607D01*
X47859854Y-38372737D01*
X47949099Y-38516954D01*
X47952616Y-38521391D01*
X48072645Y-38641211D01*
X48077081Y-38644715D01*
X48221457Y-38733709D01*
X48226591Y-38736103D01*
X48387724Y-38789548D01*
X48392930Y-38790665D01*
X48492562Y-38800873D01*
X48495045Y-38801000D01*
X48736253Y-38801000D01*
X48743145Y-38798145D01*
X48746000Y-38791253D01*
X48746000Y-38069247D01*
X48743145Y-38062355D01*
X48736253Y-38059500D01*
X47801748Y-38059500D01*
X47794856Y-38062355D01*
X47792001Y-38069247D01*
X47792001Y-38097939D01*
X47454334Y-38097939D01*
X47454500Y-38096415D01*
X47454499Y-37541753D01*
X47792000Y-37541753D01*
X47794855Y-37548645D01*
X47801747Y-37551500D01*
X48736253Y-37551500D01*
X48743145Y-37548645D01*
X48746000Y-37541753D01*
X48746000Y-36819748D01*
X48743145Y-36812856D01*
X48736253Y-36810001D01*
X48495061Y-36810001D01*
X48492542Y-36810132D01*
X48391647Y-36820600D01*
X48386422Y-36821728D01*
X48225393Y-36875451D01*
X48220263Y-36877854D01*
X48076046Y-36967099D01*
X48071609Y-36970616D01*
X47951789Y-37090645D01*
X47948285Y-37095081D01*
X47859291Y-37239457D01*
X47856897Y-37244591D01*
X47803452Y-37405724D01*
X47802335Y-37410930D01*
X47792127Y-37510562D01*
X47792000Y-37513045D01*
X47792000Y-37541753D01*
X47454499Y-37541753D01*
X47454499Y-37514586D01*
X47447881Y-37453658D01*
X47397783Y-37320018D01*
X47312189Y-37205811D01*
X47197982Y-37120217D01*
X47064342Y-37070119D01*
X47061292Y-37069788D01*
X47061289Y-37069787D01*
X47035120Y-37066944D01*
X47003415Y-37063500D01*
X46959952Y-37063500D01*
X46314991Y-37063501D01*
X46280343Y-37049149D01*
X45987342Y-36756148D01*
X45972990Y-36721500D01*
X45987342Y-36686852D01*
X46021990Y-36672500D01*
X46953434Y-36672499D01*
X47003414Y-36672499D01*
X47064342Y-36665881D01*
X47197982Y-36615783D01*
X47312189Y-36530189D01*
X47397783Y-36415982D01*
X47447881Y-36282342D01*
X47448214Y-36279282D01*
X47454356Y-36222737D01*
X47454500Y-36221415D01*
X47454499Y-35639586D01*
X47447881Y-35578658D01*
X47397783Y-35445018D01*
X47312189Y-35330811D01*
X47197982Y-35245217D01*
X47064342Y-35195119D01*
X47061292Y-35194788D01*
X47061289Y-35194787D01*
X47035120Y-35191944D01*
X47003415Y-35188500D01*
X46928500Y-35188500D01*
X46893852Y-35174148D01*
X46879500Y-35139500D01*
X46879500Y-34786500D01*
X46893852Y-34751852D01*
X46928500Y-34737500D01*
X46997756Y-34737500D01*
X47029727Y-34734027D01*
X47056395Y-34731130D01*
X47056398Y-34731129D01*
X47059448Y-34730798D01*
X47158003Y-34693852D01*
X47191492Y-34681298D01*
X47191494Y-34681297D01*
X47194764Y-34680071D01*
X47204026Y-34673130D01*
X47307610Y-34595498D01*
X47310404Y-34593404D01*
X47352303Y-34537498D01*
X47394975Y-34480561D01*
X47394976Y-34480560D01*
X47397071Y-34477764D01*
X47406225Y-34453347D01*
X47418814Y-34419764D01*
X47447798Y-34342448D01*
X47454500Y-34280756D01*
X47454500Y-33660244D01*
X47448753Y-33607343D01*
X47448130Y-33601605D01*
X47448129Y-33601602D01*
X47447798Y-33598552D01*
X47413975Y-33508329D01*
X47398298Y-33466508D01*
X47398297Y-33466506D01*
X47397071Y-33463236D01*
X47360971Y-33415067D01*
X47312498Y-33350390D01*
X47310404Y-33347596D01*
X47282256Y-33326500D01*
X47197561Y-33263025D01*
X47197560Y-33263024D01*
X47194764Y-33260929D01*
X47191494Y-33259703D01*
X47191492Y-33259702D01*
X47139926Y-33240372D01*
X47059448Y-33210202D01*
X47056398Y-33209871D01*
X47056395Y-33209870D01*
X47028547Y-33206845D01*
X46997756Y-33203500D01*
X46002244Y-33203500D01*
X45971453Y-33206845D01*
X45943605Y-33209870D01*
X45943602Y-33209871D01*
X45940552Y-33210202D01*
X45920700Y-33217644D01*
X45883219Y-33216368D01*
X45857618Y-33188962D01*
X45854500Y-33171762D01*
X45854500Y-32944238D01*
X45868852Y-32909590D01*
X45903500Y-32895238D01*
X45920700Y-32898356D01*
X45940552Y-32905798D01*
X45943602Y-32906129D01*
X45943605Y-32906130D01*
X45970273Y-32909027D01*
X46002244Y-32912500D01*
X46997756Y-32912500D01*
X47029727Y-32909027D01*
X47056395Y-32906130D01*
X47056398Y-32906129D01*
X47059448Y-32905798D01*
X47166726Y-32865582D01*
X47191492Y-32856298D01*
X47191494Y-32856297D01*
X47194764Y-32855071D01*
X47204026Y-32848130D01*
X47307610Y-32770498D01*
X47310404Y-32768404D01*
X47352303Y-32712498D01*
X47394975Y-32655561D01*
X47394976Y-32655560D01*
X47397071Y-32652764D01*
X47399182Y-32647135D01*
X47418814Y-32594764D01*
X47447798Y-32517448D01*
X47448530Y-32510707D01*
X47466538Y-32477813D01*
X47497243Y-32467000D01*
X48021072Y-32467000D01*
X48055720Y-32481352D01*
X48066954Y-32498800D01*
X48071419Y-32510709D01*
X48102929Y-32594764D01*
X48105024Y-32597560D01*
X48105025Y-32597561D01*
X48126968Y-32626839D01*
X48189596Y-32710404D01*
X48192390Y-32712498D01*
X48269780Y-32770498D01*
X48305236Y-32797071D01*
X48308506Y-32798297D01*
X48308508Y-32798298D01*
X48324103Y-32804144D01*
X48440552Y-32847798D01*
X48443602Y-32848129D01*
X48443605Y-32848130D01*
X48470273Y-32851027D01*
X48502244Y-32854500D01*
X49497756Y-32854500D01*
X49529727Y-32851027D01*
X49556395Y-32848130D01*
X49556398Y-32848129D01*
X49559448Y-32847798D01*
X49679300Y-32802868D01*
X49716781Y-32804144D01*
X49742382Y-32831550D01*
X49745500Y-32848750D01*
X49745500Y-33151250D01*
X49731148Y-33185898D01*
X49696500Y-33200250D01*
X49679300Y-33197132D01*
X49559448Y-33152202D01*
X49556398Y-33151871D01*
X49556395Y-33151870D01*
X49529727Y-33148973D01*
X49497756Y-33145500D01*
X48502244Y-33145500D01*
X48470273Y-33148973D01*
X48443605Y-33151870D01*
X48443602Y-33151871D01*
X48440552Y-33152202D01*
X48360074Y-33182372D01*
X48308508Y-33201702D01*
X48308506Y-33201703D01*
X48305236Y-33202929D01*
X48302440Y-33205024D01*
X48302439Y-33205025D01*
X48254500Y-33240953D01*
X48189596Y-33289596D01*
X48187502Y-33292390D01*
X48114854Y-33389325D01*
X48102929Y-33405236D01*
X48101703Y-33408506D01*
X48101702Y-33408508D01*
X48097117Y-33420740D01*
X48052202Y-33540552D01*
X48045500Y-33602244D01*
X48045500Y-34222756D01*
X48052202Y-34284448D01*
X48075236Y-34345892D01*
X48099143Y-34409664D01*
X48102929Y-34419764D01*
X48105024Y-34422560D01*
X48105025Y-34422561D01*
X48128098Y-34453347D01*
X48189596Y-34535404D01*
X48192390Y-34537498D01*
X48269780Y-34595498D01*
X48305236Y-34622071D01*
X48308506Y-34623297D01*
X48308508Y-34623298D01*
X48324103Y-34629144D01*
X48440552Y-34672798D01*
X48443602Y-34673129D01*
X48443605Y-34673130D01*
X48470273Y-34676027D01*
X48502244Y-34679500D01*
X48571500Y-34679500D01*
X48606148Y-34693852D01*
X48620500Y-34728500D01*
X48620500Y-35139501D01*
X48606148Y-35174149D01*
X48571500Y-35188501D01*
X48496586Y-35188501D01*
X48435658Y-35195119D01*
X48375283Y-35217752D01*
X48312382Y-35241332D01*
X48302018Y-35245217D01*
X48187811Y-35330811D01*
X48102217Y-35445018D01*
X48052119Y-35578658D01*
X48051788Y-35581708D01*
X48051787Y-35581711D01*
X48049210Y-35605431D01*
X48045500Y-35639585D01*
X48045501Y-36221414D01*
X48052119Y-36282342D01*
X48102217Y-36415982D01*
X48187811Y-36530189D01*
X48302018Y-36615783D01*
X48435658Y-36665881D01*
X48438708Y-36666212D01*
X48438711Y-36666213D01*
X48461312Y-36668668D01*
X48496585Y-36672500D01*
X48999810Y-36672500D01*
X49503414Y-36672499D01*
X49564342Y-36665881D01*
X49679301Y-36622786D01*
X49716781Y-36624062D01*
X49742382Y-36651468D01*
X49745500Y-36668668D01*
X49745500Y-36797763D01*
X49731148Y-36832411D01*
X49696500Y-36846763D01*
X49681074Y-36844271D01*
X49612276Y-36821452D01*
X49607070Y-36820335D01*
X49507438Y-36810127D01*
X49504955Y-36810000D01*
X49263747Y-36810000D01*
X49256855Y-36812855D01*
X49254000Y-36819747D01*
X49254000Y-38791252D01*
X49256855Y-38798144D01*
X49263747Y-38800999D01*
X49504939Y-38800999D01*
X49507458Y-38800868D01*
X49608353Y-38790400D01*
X49613578Y-38789272D01*
X49680993Y-38766781D01*
X49718402Y-38769429D01*
X49742981Y-38797755D01*
X49745500Y-38813262D01*
X49745500Y-39696500D01*
X49731148Y-39731148D01*
X49696500Y-39745500D01*
X32053500Y-39745500D01*
X32018852Y-39731148D01*
X32004500Y-39696500D01*
X32004500Y-38773500D01*
X32018852Y-38738852D01*
X32053500Y-38724500D01*
X35474876Y-38724499D01*
X35645066Y-38724499D01*
X35647418Y-38724031D01*
X35647420Y-38724031D01*
X35683403Y-38716874D01*
X35719301Y-38709734D01*
X35723312Y-38707054D01*
X35723314Y-38707053D01*
X35799473Y-38656164D01*
X35803484Y-38653484D01*
X35859734Y-38569301D01*
X35874500Y-38495067D01*
X35874499Y-37711568D01*
X36065029Y-37711568D01*
X36065718Y-37714437D01*
X36065718Y-37714439D01*
X36080045Y-37774114D01*
X36104835Y-37877373D01*
X36106191Y-37880000D01*
X36141645Y-37948690D01*
X36183042Y-38028896D01*
X36295135Y-38157391D01*
X36297550Y-38159089D01*
X36297552Y-38159090D01*
X36357687Y-38201353D01*
X36434643Y-38255438D01*
X36437391Y-38256509D01*
X36437394Y-38256511D01*
X36517434Y-38287717D01*
X36593511Y-38317378D01*
X36723564Y-38334500D01*
X36812756Y-38334500D01*
X36939281Y-38319189D01*
X37013929Y-38290982D01*
X37096024Y-38259961D01*
X37096025Y-38259960D01*
X37098789Y-38258916D01*
X37239316Y-38162334D01*
X37241281Y-38160129D01*
X37241284Y-38160126D01*
X37350780Y-38037230D01*
X37350781Y-38037229D01*
X37352748Y-38035021D01*
X37432538Y-37884324D01*
X37437393Y-37864998D01*
X37465266Y-37754029D01*
X37474078Y-37718946D01*
X37474117Y-37711568D01*
X42865029Y-37711568D01*
X42865718Y-37714437D01*
X42865718Y-37714439D01*
X42880045Y-37774114D01*
X42904835Y-37877373D01*
X42906191Y-37880000D01*
X42941645Y-37948690D01*
X42983042Y-38028896D01*
X43095135Y-38157391D01*
X43097550Y-38159089D01*
X43097552Y-38159090D01*
X43157687Y-38201353D01*
X43234643Y-38255438D01*
X43237391Y-38256509D01*
X43237394Y-38256511D01*
X43317434Y-38287717D01*
X43393511Y-38317378D01*
X43523564Y-38334500D01*
X43612756Y-38334500D01*
X43739281Y-38319189D01*
X43813929Y-38290982D01*
X43896024Y-38259961D01*
X43896025Y-38259960D01*
X43898789Y-38258916D01*
X44039316Y-38162334D01*
X44041281Y-38160129D01*
X44041284Y-38160126D01*
X44150780Y-38037230D01*
X44150781Y-38037229D01*
X44152748Y-38035021D01*
X44232538Y-37884324D01*
X44237393Y-37864998D01*
X44265266Y-37754029D01*
X44274078Y-37718946D01*
X44274705Y-37599301D01*
X44274956Y-37551385D01*
X44274956Y-37551381D01*
X44274971Y-37548432D01*
X44273910Y-37544010D01*
X44235855Y-37385501D01*
X44235165Y-37382627D01*
X44156958Y-37231104D01*
X44044865Y-37102609D01*
X44040974Y-37099874D01*
X43925991Y-37019064D01*
X43905357Y-37004562D01*
X43902609Y-37003491D01*
X43902606Y-37003489D01*
X43772720Y-36952849D01*
X43746489Y-36942622D01*
X43616436Y-36925500D01*
X43527244Y-36925500D01*
X43400719Y-36940811D01*
X43397956Y-36941855D01*
X43243976Y-37000039D01*
X43243975Y-37000040D01*
X43241211Y-37001084D01*
X43219051Y-37016314D01*
X43110900Y-37090645D01*
X43100684Y-37097666D01*
X43098719Y-37099871D01*
X43098716Y-37099874D01*
X43006193Y-37203720D01*
X42987252Y-37224979D01*
X42907462Y-37375676D01*
X42906744Y-37378534D01*
X42906743Y-37378537D01*
X42899914Y-37405724D01*
X42865922Y-37541054D01*
X42865029Y-37711568D01*
X37474117Y-37711568D01*
X37474705Y-37599301D01*
X37474956Y-37551385D01*
X37474956Y-37551381D01*
X37474971Y-37548432D01*
X37473910Y-37544010D01*
X37435855Y-37385501D01*
X37435165Y-37382627D01*
X37356958Y-37231104D01*
X37244865Y-37102609D01*
X37240974Y-37099874D01*
X37125991Y-37019064D01*
X37105357Y-37004562D01*
X37102609Y-37003491D01*
X37102606Y-37003489D01*
X36972720Y-36952849D01*
X36946489Y-36942622D01*
X36816436Y-36925500D01*
X36727244Y-36925500D01*
X36600719Y-36940811D01*
X36597956Y-36941855D01*
X36443976Y-37000039D01*
X36443975Y-37000040D01*
X36441211Y-37001084D01*
X36419051Y-37016314D01*
X36310900Y-37090645D01*
X36300684Y-37097666D01*
X36298719Y-37099871D01*
X36298716Y-37099874D01*
X36206193Y-37203720D01*
X36187252Y-37224979D01*
X36107462Y-37375676D01*
X36106744Y-37378534D01*
X36106743Y-37378537D01*
X36099914Y-37405724D01*
X36065922Y-37541054D01*
X36065029Y-37711568D01*
X35874499Y-37711568D01*
X35874499Y-37092633D01*
X35888851Y-37057985D01*
X36286713Y-36660124D01*
X36321361Y-36645772D01*
X36333791Y-36647375D01*
X36356020Y-36653207D01*
X36444192Y-36654592D01*
X36511463Y-36655649D01*
X36511466Y-36655649D01*
X36514414Y-36655695D01*
X36517291Y-36655036D01*
X36517292Y-36655036D01*
X36665949Y-36620989D01*
X36665950Y-36620989D01*
X36668830Y-36620329D01*
X36671469Y-36619002D01*
X36671471Y-36619001D01*
X36807709Y-36550481D01*
X36807710Y-36550480D01*
X36810353Y-36549151D01*
X36866557Y-36501148D01*
X36928568Y-36448186D01*
X36928570Y-36448184D01*
X36930812Y-36446269D01*
X36962383Y-36402334D01*
X36994255Y-36382571D01*
X37011734Y-36382869D01*
X37019933Y-36384500D01*
X37022343Y-36384500D01*
X37670945Y-36384499D01*
X38320066Y-36384499D01*
X38322418Y-36384031D01*
X38322420Y-36384031D01*
X38359207Y-36376714D01*
X38394301Y-36369734D01*
X38398312Y-36367054D01*
X38398314Y-36367053D01*
X38474473Y-36316164D01*
X38478484Y-36313484D01*
X38534734Y-36229301D01*
X38549500Y-36155067D01*
X38549500Y-35308378D01*
X38563852Y-35273730D01*
X38594463Y-35259545D01*
X38595007Y-35259500D01*
X38597022Y-35259500D01*
X38617859Y-35256031D01*
X38620149Y-35255706D01*
X38634002Y-35254066D01*
X38672839Y-35249470D01*
X38676491Y-35247716D01*
X38680381Y-35246586D01*
X38680428Y-35246747D01*
X38682351Y-35246139D01*
X38682297Y-35245980D01*
X38686126Y-35244669D01*
X38690124Y-35244004D01*
X38736854Y-35218790D01*
X38738851Y-35217772D01*
X38786730Y-35194781D01*
X38789086Y-35192801D01*
X38789088Y-35192799D01*
X38790204Y-35191861D01*
X38790213Y-35191852D01*
X38791006Y-35191186D01*
X38791015Y-35191196D01*
X38794681Y-35188586D01*
X38794548Y-35188415D01*
X38797747Y-35185933D01*
X38801312Y-35184010D01*
X38815696Y-35168450D01*
X38849752Y-35152749D01*
X38855299Y-35153018D01*
X38856020Y-35153207D01*
X38947931Y-35154651D01*
X39011463Y-35155649D01*
X39011466Y-35155649D01*
X39014414Y-35155695D01*
X39017291Y-35155036D01*
X39017292Y-35155036D01*
X39165949Y-35120989D01*
X39165950Y-35120989D01*
X39168830Y-35120329D01*
X39171469Y-35119002D01*
X39171471Y-35119001D01*
X39219485Y-35094853D01*
X39256887Y-35092106D01*
X39285276Y-35116612D01*
X39290501Y-35138628D01*
X39290501Y-36155066D01*
X39290969Y-36157418D01*
X39290969Y-36157420D01*
X39293418Y-36169734D01*
X39305266Y-36229301D01*
X39307946Y-36233312D01*
X39307947Y-36233314D01*
X39331222Y-36268147D01*
X39361516Y-36313484D01*
X39445699Y-36369734D01*
X39519933Y-36384500D01*
X39522343Y-36384500D01*
X40170945Y-36384499D01*
X40820066Y-36384499D01*
X40822418Y-36384031D01*
X40822420Y-36384031D01*
X40859207Y-36376714D01*
X40894301Y-36369734D01*
X40898312Y-36367054D01*
X40898314Y-36367053D01*
X40974473Y-36316164D01*
X40978484Y-36313484D01*
X41034734Y-36229301D01*
X41049500Y-36155067D01*
X41049499Y-33604934D01*
X41049499Y-33604933D01*
X41790500Y-33604933D01*
X41790501Y-36155066D01*
X41790969Y-36157418D01*
X41790969Y-36157420D01*
X41793418Y-36169734D01*
X41805266Y-36229301D01*
X41807946Y-36233312D01*
X41807947Y-36233314D01*
X41831222Y-36268147D01*
X41861516Y-36313484D01*
X41945699Y-36369734D01*
X42019933Y-36384500D01*
X42022343Y-36384500D01*
X42670945Y-36384499D01*
X43320066Y-36384499D01*
X43322418Y-36384031D01*
X43322420Y-36384031D01*
X43359207Y-36376714D01*
X43394301Y-36369734D01*
X43398312Y-36367054D01*
X43398314Y-36367053D01*
X43474473Y-36316164D01*
X43478484Y-36313484D01*
X43534734Y-36229301D01*
X43549500Y-36155067D01*
X43549499Y-33604934D01*
X43547265Y-33593699D01*
X43535675Y-33535431D01*
X43534734Y-33530699D01*
X43530590Y-33524496D01*
X43481164Y-33450527D01*
X43478484Y-33446516D01*
X43416705Y-33405236D01*
X43398315Y-33392948D01*
X43398313Y-33392947D01*
X43394301Y-33390266D01*
X43320067Y-33375500D01*
X43317657Y-33375500D01*
X42669055Y-33375501D01*
X42019934Y-33375501D01*
X42017582Y-33375969D01*
X42017580Y-33375969D01*
X41981597Y-33383126D01*
X41945699Y-33390266D01*
X41941688Y-33392946D01*
X41941686Y-33392947D01*
X41905041Y-33417433D01*
X41861516Y-33446516D01*
X41858836Y-33450527D01*
X41830246Y-33493315D01*
X41805266Y-33530699D01*
X41790500Y-33604933D01*
X41049499Y-33604933D01*
X41047265Y-33593699D01*
X41035675Y-33535431D01*
X41034734Y-33530699D01*
X41030590Y-33524496D01*
X40981164Y-33450527D01*
X40978484Y-33446516D01*
X40916705Y-33405236D01*
X40898315Y-33392948D01*
X40898313Y-33392947D01*
X40894301Y-33390266D01*
X40820067Y-33375500D01*
X40598500Y-33375500D01*
X40563852Y-33361148D01*
X40549500Y-33326500D01*
X40549500Y-32155032D01*
X40550442Y-32145473D01*
X40554031Y-32127431D01*
X40554032Y-32127419D01*
X40554500Y-32125067D01*
X40554499Y-31493096D01*
X41340729Y-31493096D01*
X41358113Y-31650553D01*
X41412553Y-31799319D01*
X41414198Y-31801767D01*
X41499261Y-31928355D01*
X41499264Y-31928358D01*
X41500908Y-31930805D01*
X41503095Y-31932795D01*
X41533631Y-31960580D01*
X41618076Y-32037419D01*
X41757293Y-32113008D01*
X41910522Y-32153207D01*
X41998694Y-32154592D01*
X42065965Y-32155649D01*
X42065968Y-32155649D01*
X42068916Y-32155695D01*
X42071793Y-32155036D01*
X42071794Y-32155036D01*
X42220451Y-32120989D01*
X42220452Y-32120989D01*
X42223332Y-32120329D01*
X42225971Y-32119002D01*
X42225973Y-32119001D01*
X42330503Y-32066428D01*
X42364855Y-32049151D01*
X42367099Y-32047235D01*
X42369388Y-32045714D01*
X42406190Y-32038497D01*
X42437316Y-32059416D01*
X42445501Y-32086529D01*
X42445501Y-32125066D01*
X42445969Y-32127418D01*
X42445969Y-32127420D01*
X42449560Y-32145473D01*
X42460266Y-32199301D01*
X42516516Y-32283484D01*
X42600699Y-32339734D01*
X42674933Y-32354500D01*
X42677343Y-32354500D01*
X43150690Y-32354499D01*
X43625066Y-32354499D01*
X43627418Y-32354031D01*
X43627420Y-32354031D01*
X43663403Y-32346874D01*
X43699301Y-32339734D01*
X43703312Y-32337054D01*
X43703314Y-32337053D01*
X43779473Y-32286164D01*
X43783484Y-32283484D01*
X43839734Y-32199301D01*
X43854500Y-32125067D01*
X43854499Y-30874934D01*
X43839734Y-30800699D01*
X43836603Y-30796012D01*
X43786164Y-30720527D01*
X43783484Y-30716516D01*
X43699301Y-30660266D01*
X43625067Y-30645500D01*
X43578500Y-30645500D01*
X43543852Y-30631148D01*
X43529500Y-30596500D01*
X43529500Y-29883075D01*
X43543852Y-29848427D01*
X43549103Y-29843873D01*
X43560404Y-29835404D01*
X43590821Y-29794818D01*
X43644975Y-29722561D01*
X43644976Y-29722560D01*
X43647071Y-29719764D01*
X43697798Y-29584448D01*
X43698906Y-29574254D01*
X43701707Y-29548463D01*
X43704500Y-29522756D01*
X43704500Y-28477244D01*
X43697798Y-28415552D01*
X43666725Y-28332663D01*
X43648298Y-28283508D01*
X43648297Y-28283506D01*
X43647071Y-28280236D01*
X43560404Y-28164596D01*
X43531235Y-28142735D01*
X43447561Y-28080025D01*
X43447560Y-28080024D01*
X43444764Y-28077929D01*
X43441494Y-28076703D01*
X43441492Y-28076702D01*
X43379300Y-28053388D01*
X43309448Y-28027202D01*
X43306398Y-28026871D01*
X43306395Y-28026870D01*
X43279727Y-28023973D01*
X43247756Y-28020500D01*
X42652244Y-28020500D01*
X42620273Y-28023973D01*
X42593605Y-28026870D01*
X42593602Y-28026871D01*
X42590552Y-28027202D01*
X42520700Y-28053388D01*
X42458508Y-28076702D01*
X42458506Y-28076703D01*
X42455236Y-28077929D01*
X42452440Y-28080024D01*
X42452439Y-28080025D01*
X42368765Y-28142735D01*
X42339596Y-28164596D01*
X42252929Y-28280236D01*
X42251703Y-28283506D01*
X42251702Y-28283508D01*
X42233275Y-28332663D01*
X42202202Y-28415552D01*
X42195500Y-28477244D01*
X42195500Y-29522756D01*
X42198293Y-29548463D01*
X42201095Y-29574254D01*
X42202202Y-29584448D01*
X42252929Y-29719764D01*
X42255024Y-29722560D01*
X42255025Y-29722561D01*
X42309179Y-29794818D01*
X42339596Y-29835404D01*
X42342390Y-29837498D01*
X42445584Y-29914837D01*
X42455236Y-29922071D01*
X42458506Y-29923297D01*
X42458508Y-29923298D01*
X42510074Y-29942628D01*
X42590552Y-29972798D01*
X42593602Y-29973129D01*
X42593605Y-29973130D01*
X42620273Y-29976027D01*
X42652244Y-29979500D01*
X42721500Y-29979500D01*
X42756148Y-29993852D01*
X42770500Y-30028500D01*
X42770500Y-30596501D01*
X42756148Y-30631149D01*
X42721500Y-30645501D01*
X42674934Y-30645501D01*
X42672582Y-30645969D01*
X42672580Y-30645969D01*
X42639966Y-30652456D01*
X42600699Y-30660266D01*
X42596688Y-30662946D01*
X42596686Y-30662947D01*
X42534611Y-30704425D01*
X42516516Y-30716516D01*
X42495210Y-30748402D01*
X42463459Y-30795921D01*
X42460266Y-30800699D01*
X42445500Y-30874933D01*
X42445500Y-30913875D01*
X42431148Y-30948523D01*
X42396500Y-30962875D01*
X42373573Y-30957181D01*
X42236274Y-30884484D01*
X42082633Y-30845892D01*
X42002177Y-30845470D01*
X41927174Y-30845077D01*
X41927170Y-30845077D01*
X41924221Y-30845062D01*
X41921352Y-30845751D01*
X41921350Y-30845751D01*
X41781389Y-30879353D01*
X41770184Y-30882043D01*
X41767556Y-30883399D01*
X41767557Y-30883399D01*
X41641382Y-30948523D01*
X41629414Y-30954700D01*
X41627194Y-30956637D01*
X41627192Y-30956638D01*
X41535555Y-31036579D01*
X41510039Y-31058838D01*
X41508341Y-31061253D01*
X41508340Y-31061255D01*
X41479478Y-31102322D01*
X41418950Y-31188444D01*
X41417879Y-31191192D01*
X41417877Y-31191195D01*
X41393843Y-31252840D01*
X41361406Y-31336037D01*
X41354762Y-31386501D01*
X41346015Y-31452948D01*
X41340729Y-31493096D01*
X40554499Y-31493096D01*
X40554499Y-30874934D01*
X40554029Y-30872573D01*
X40553941Y-30871675D01*
X40562913Y-30838279D01*
X40577755Y-30817624D01*
X40636842Y-30670641D01*
X40659162Y-30513807D01*
X40659307Y-30500000D01*
X40640276Y-30342733D01*
X40620753Y-30291068D01*
X40621931Y-30253584D01*
X40649269Y-30227911D01*
X40671584Y-30225003D01*
X40748399Y-30232873D01*
X40750883Y-30233000D01*
X40786253Y-30233000D01*
X40793145Y-30230145D01*
X40796000Y-30223253D01*
X40796000Y-30223252D01*
X41304000Y-30223252D01*
X41306855Y-30230144D01*
X41313747Y-30232999D01*
X41349101Y-30232999D01*
X41351620Y-30232868D01*
X41453389Y-30222309D01*
X41458614Y-30221181D01*
X41621026Y-30166997D01*
X41626156Y-30164594D01*
X41771612Y-30074582D01*
X41776049Y-30071065D01*
X41896899Y-29950005D01*
X41900403Y-29945569D01*
X41990162Y-29799952D01*
X41992556Y-29794818D01*
X42046460Y-29632302D01*
X42047577Y-29627096D01*
X42057873Y-29526601D01*
X42058000Y-29524117D01*
X42058000Y-29263747D01*
X42055145Y-29256855D01*
X42048253Y-29254000D01*
X41313747Y-29254000D01*
X41306855Y-29256855D01*
X41304000Y-29263747D01*
X41304000Y-30223252D01*
X40796000Y-30223252D01*
X40796000Y-29263747D01*
X40793145Y-29256855D01*
X40786253Y-29254000D01*
X40051748Y-29254000D01*
X40044856Y-29256855D01*
X40042001Y-29263747D01*
X40042001Y-29524101D01*
X40042132Y-29526620D01*
X40052691Y-29628389D01*
X40053819Y-29633614D01*
X40103073Y-29781248D01*
X40100425Y-29818657D01*
X40072099Y-29843236D01*
X40056335Y-29845754D01*
X39927174Y-29845077D01*
X39927170Y-29845077D01*
X39924221Y-29845062D01*
X39921352Y-29845751D01*
X39921350Y-29845751D01*
X39773058Y-29881353D01*
X39770184Y-29882043D01*
X39767556Y-29883399D01*
X39767557Y-29883399D01*
X39645749Y-29946269D01*
X39629414Y-29954700D01*
X39627194Y-29956637D01*
X39627192Y-29956638D01*
X39608668Y-29972798D01*
X39510039Y-30058838D01*
X39508341Y-30061253D01*
X39508340Y-30061255D01*
X39471441Y-30113757D01*
X39418950Y-30188444D01*
X39417879Y-30191192D01*
X39417877Y-30191195D01*
X39404696Y-30225003D01*
X39361406Y-30336037D01*
X39340729Y-30493096D01*
X39341053Y-30496030D01*
X39352997Y-30604214D01*
X39342534Y-30640228D01*
X39313851Y-30657650D01*
X39305432Y-30659324D01*
X39305429Y-30659325D01*
X39300699Y-30660266D01*
X39296688Y-30662946D01*
X39296686Y-30662947D01*
X39234611Y-30704425D01*
X39216516Y-30716516D01*
X39195210Y-30748402D01*
X39163459Y-30795921D01*
X39160266Y-30800699D01*
X39145500Y-30874933D01*
X39145501Y-32125066D01*
X39145969Y-32127418D01*
X39145969Y-32127420D01*
X39149560Y-32145473D01*
X39160266Y-32199301D01*
X39216516Y-32283484D01*
X39300699Y-32339734D01*
X39374933Y-32354500D01*
X39741500Y-32354500D01*
X39776148Y-32368852D01*
X39790500Y-32403500D01*
X39790500Y-33326501D01*
X39776148Y-33361149D01*
X39741500Y-33375501D01*
X39519934Y-33375501D01*
X39517582Y-33375969D01*
X39517580Y-33375969D01*
X39481597Y-33383126D01*
X39445699Y-33390266D01*
X39441688Y-33392946D01*
X39441686Y-33392947D01*
X39405041Y-33417433D01*
X39361516Y-33446516D01*
X39358836Y-33450527D01*
X39330246Y-33493315D01*
X39305266Y-33530699D01*
X39290500Y-33604933D01*
X39290500Y-33860664D01*
X39276148Y-33895312D01*
X39241500Y-33909664D01*
X39218572Y-33903969D01*
X39202222Y-33895312D01*
X39181772Y-33884484D01*
X39028131Y-33845892D01*
X38947675Y-33845470D01*
X38872672Y-33845077D01*
X38872668Y-33845077D01*
X38869719Y-33845062D01*
X38866850Y-33845751D01*
X38866848Y-33845751D01*
X38766303Y-33869890D01*
X38715682Y-33882043D01*
X38713054Y-33883399D01*
X38713055Y-33883399D01*
X38620973Y-33930926D01*
X38583601Y-33934064D01*
X38554957Y-33909858D01*
X38549499Y-33887384D01*
X38549499Y-33604934D01*
X38547265Y-33593699D01*
X38535675Y-33535431D01*
X38534734Y-33530699D01*
X38530590Y-33524496D01*
X38481164Y-33450527D01*
X38478484Y-33446516D01*
X38416705Y-33405236D01*
X38398315Y-33392948D01*
X38398313Y-33392947D01*
X38394301Y-33390266D01*
X38320067Y-33375500D01*
X38317657Y-33375500D01*
X37669055Y-33375501D01*
X37019934Y-33375501D01*
X37017582Y-33375969D01*
X37017580Y-33375969D01*
X36981597Y-33383126D01*
X36945699Y-33390266D01*
X36941688Y-33392946D01*
X36941686Y-33392947D01*
X36905041Y-33417433D01*
X36861516Y-33446516D01*
X36858836Y-33450527D01*
X36830246Y-33493315D01*
X36805266Y-33530699D01*
X36790500Y-33604933D01*
X36790500Y-34360664D01*
X36776148Y-34395312D01*
X36741500Y-34409664D01*
X36718572Y-34403969D01*
X36702222Y-34395312D01*
X36681772Y-34384484D01*
X36528131Y-34345892D01*
X36447675Y-34345470D01*
X36372672Y-34345077D01*
X36372668Y-34345077D01*
X36369719Y-34345062D01*
X36366850Y-34345751D01*
X36366848Y-34345751D01*
X36218556Y-34381353D01*
X36215682Y-34382043D01*
X36074912Y-34454700D01*
X36072692Y-34456637D01*
X36072690Y-34456638D01*
X35955710Y-34558687D01*
X35920166Y-34570649D01*
X35886574Y-34553973D01*
X35874499Y-34521762D01*
X35874499Y-34204934D01*
X35859734Y-34130699D01*
X35850527Y-34116919D01*
X35806164Y-34050527D01*
X35803484Y-34046516D01*
X35719301Y-33990266D01*
X35645067Y-33975500D01*
X35474404Y-33975500D01*
X32053500Y-33975501D01*
X32018852Y-33961149D01*
X32004500Y-33926501D01*
X32004500Y-33693500D01*
X32018852Y-33658852D01*
X32053500Y-33644500D01*
X35474876Y-33644499D01*
X35645066Y-33644499D01*
X35647418Y-33644031D01*
X35647420Y-33644031D01*
X35701226Y-33633329D01*
X35719301Y-33629734D01*
X35723312Y-33627054D01*
X35723314Y-33627053D01*
X35799473Y-33576164D01*
X35803484Y-33573484D01*
X35834754Y-33526686D01*
X35857052Y-33493315D01*
X35859734Y-33489301D01*
X35874500Y-33415067D01*
X35874500Y-32647135D01*
X35888852Y-32612487D01*
X39220216Y-29281122D01*
X39228285Y-29274605D01*
X39238478Y-29268024D01*
X39238482Y-29268020D01*
X39241882Y-29265825D01*
X39248954Y-29256855D01*
X39263814Y-29238004D01*
X39267647Y-29233691D01*
X39271494Y-29229844D01*
X39272667Y-29228203D01*
X39272671Y-29228198D01*
X39282911Y-29213868D01*
X39284296Y-29212023D01*
X39295894Y-29197311D01*
X39314946Y-29173143D01*
X39316287Y-29169323D01*
X39318240Y-29165771D01*
X39318460Y-29165892D01*
X39318842Y-29165158D01*
X39318616Y-29165047D01*
X39320398Y-29161411D01*
X39322753Y-29158115D01*
X39324215Y-29153229D01*
X39336938Y-29110682D01*
X39337652Y-29108485D01*
X39342539Y-29094570D01*
X39354050Y-29061792D01*
X39354500Y-29056596D01*
X39354557Y-29056601D01*
X39355167Y-29052980D01*
X39354900Y-29052946D01*
X39355408Y-29048924D01*
X39356568Y-29045045D01*
X39354538Y-28993374D01*
X39354500Y-28991450D01*
X39354500Y-28736253D01*
X40042000Y-28736253D01*
X40044855Y-28743145D01*
X40051747Y-28746000D01*
X40786253Y-28746000D01*
X40793145Y-28743145D01*
X40796000Y-28736253D01*
X41304000Y-28736253D01*
X41306855Y-28743145D01*
X41313747Y-28746000D01*
X42048252Y-28746000D01*
X42055144Y-28743145D01*
X42057999Y-28736253D01*
X42057999Y-28475899D01*
X42057868Y-28473380D01*
X42047309Y-28371611D01*
X42046181Y-28366386D01*
X41991997Y-28203974D01*
X41989594Y-28198844D01*
X41899582Y-28053388D01*
X41896065Y-28048951D01*
X41775005Y-27928101D01*
X41770569Y-27924597D01*
X41624952Y-27834838D01*
X41619818Y-27832444D01*
X41511555Y-27796535D01*
X41483187Y-27772006D01*
X41480473Y-27734601D01*
X41505002Y-27706233D01*
X41511474Y-27703546D01*
X41621026Y-27666997D01*
X41626158Y-27664593D01*
X41771612Y-27574582D01*
X41776049Y-27571065D01*
X41896899Y-27450005D01*
X41900403Y-27445569D01*
X41990162Y-27299952D01*
X41992556Y-27294818D01*
X42046460Y-27132302D01*
X42047577Y-27127096D01*
X42057873Y-27026601D01*
X42058000Y-27024117D01*
X42058000Y-26763747D01*
X42055145Y-26756855D01*
X42048253Y-26754000D01*
X41313747Y-26754000D01*
X41306855Y-26756855D01*
X41304000Y-26763747D01*
X41304000Y-27723252D01*
X41307312Y-27731247D01*
X41307312Y-27768750D01*
X41304000Y-27776746D01*
X41304000Y-28736253D01*
X40796000Y-28736253D01*
X40796000Y-27776748D01*
X40792688Y-27768753D01*
X40792688Y-27731250D01*
X40796000Y-27723254D01*
X40796000Y-26763747D01*
X40793145Y-26756855D01*
X40786253Y-26754000D01*
X40051748Y-26754000D01*
X40044856Y-26756855D01*
X40042001Y-26763747D01*
X40042001Y-27024101D01*
X40042132Y-27026620D01*
X40052691Y-27128389D01*
X40053819Y-27133614D01*
X40108003Y-27296026D01*
X40110406Y-27301156D01*
X40200418Y-27446612D01*
X40203935Y-27451049D01*
X40324995Y-27571899D01*
X40329431Y-27575403D01*
X40475048Y-27665162D01*
X40480182Y-27667556D01*
X40588445Y-27703465D01*
X40616813Y-27727994D01*
X40619527Y-27765399D01*
X40594998Y-27793767D01*
X40588526Y-27796454D01*
X40478974Y-27833003D01*
X40473844Y-27835406D01*
X40328388Y-27925418D01*
X40323951Y-27928935D01*
X40203101Y-28049995D01*
X40199597Y-28054431D01*
X40109838Y-28200048D01*
X40107444Y-28205182D01*
X40053540Y-28367698D01*
X40052423Y-28372904D01*
X40042127Y-28473399D01*
X40042000Y-28475883D01*
X40042000Y-28736253D01*
X39354500Y-28736253D01*
X39354500Y-26236253D01*
X40042000Y-26236253D01*
X40044855Y-26243145D01*
X40051747Y-26246000D01*
X40786253Y-26246000D01*
X40793145Y-26243145D01*
X40796000Y-26236253D01*
X41304000Y-26236253D01*
X41306855Y-26243145D01*
X41313747Y-26246000D01*
X42048252Y-26246000D01*
X42055144Y-26243145D01*
X42057999Y-26236253D01*
X42057999Y-25975899D01*
X42057868Y-25973380D01*
X42047309Y-25871611D01*
X42046181Y-25866386D01*
X41991997Y-25703974D01*
X41989594Y-25698844D01*
X41899582Y-25553388D01*
X41896065Y-25548951D01*
X41775005Y-25428101D01*
X41770569Y-25424597D01*
X41624952Y-25334838D01*
X41619818Y-25332444D01*
X41457302Y-25278540D01*
X41452096Y-25277423D01*
X41351601Y-25267127D01*
X41349117Y-25267000D01*
X41313747Y-25267000D01*
X41306855Y-25269855D01*
X41304000Y-25276747D01*
X41304000Y-26236253D01*
X40796000Y-26236253D01*
X40796000Y-25276748D01*
X40793145Y-25269856D01*
X40786253Y-25267001D01*
X40750899Y-25267001D01*
X40748380Y-25267132D01*
X40646611Y-25277691D01*
X40641386Y-25278819D01*
X40478974Y-25333003D01*
X40473844Y-25335406D01*
X40328388Y-25425418D01*
X40323951Y-25428935D01*
X40203101Y-25549995D01*
X40199597Y-25554431D01*
X40109838Y-25700048D01*
X40107444Y-25705182D01*
X40053540Y-25867698D01*
X40052423Y-25872904D01*
X40042127Y-25973399D01*
X40042000Y-25975883D01*
X40042000Y-26236253D01*
X39354500Y-26236253D01*
X39354500Y-26167135D01*
X39368852Y-26132487D01*
X40332487Y-25168852D01*
X40367135Y-25154500D01*
X42366389Y-25154500D01*
X42376702Y-25155598D01*
X42388554Y-25158150D01*
X42388556Y-25158150D01*
X42392518Y-25159003D01*
X42397671Y-25158393D01*
X42398465Y-25158617D01*
X42400586Y-25158717D01*
X42400563Y-25159209D01*
X42433766Y-25168572D01*
X42452135Y-25201676D01*
X42457459Y-25249899D01*
X42511899Y-25398665D01*
X42513544Y-25401113D01*
X42513547Y-25401119D01*
X42562144Y-25473438D01*
X42569557Y-25510201D01*
X42548804Y-25541438D01*
X42538675Y-25546650D01*
X42520700Y-25553388D01*
X42458508Y-25576702D01*
X42458506Y-25576703D01*
X42455236Y-25577929D01*
X42452440Y-25580024D01*
X42452439Y-25580025D01*
X42394340Y-25623568D01*
X42339596Y-25664596D01*
X42252929Y-25780236D01*
X42251703Y-25783506D01*
X42251702Y-25783508D01*
X42243972Y-25804129D01*
X42202202Y-25915552D01*
X42195500Y-25977244D01*
X42195500Y-27022756D01*
X42202202Y-27084448D01*
X42252929Y-27219764D01*
X42255024Y-27222560D01*
X42255025Y-27222561D01*
X42279767Y-27255574D01*
X42339596Y-27335404D01*
X42455236Y-27422071D01*
X42458506Y-27423297D01*
X42458508Y-27423298D01*
X42501694Y-27439487D01*
X42590552Y-27472798D01*
X42593602Y-27473129D01*
X42593605Y-27473130D01*
X42620273Y-27476027D01*
X42652244Y-27479500D01*
X43247756Y-27479500D01*
X43279727Y-27476027D01*
X43306395Y-27473130D01*
X43306398Y-27473129D01*
X43309448Y-27472798D01*
X43398306Y-27439487D01*
X43441492Y-27423298D01*
X43441494Y-27423297D01*
X43444764Y-27422071D01*
X43560404Y-27335404D01*
X43620233Y-27255574D01*
X43644975Y-27222561D01*
X43644976Y-27222560D01*
X43647071Y-27219764D01*
X43697798Y-27084448D01*
X43704500Y-27022756D01*
X43704500Y-25977244D01*
X43697798Y-25915552D01*
X43656028Y-25804129D01*
X43648298Y-25783508D01*
X43648297Y-25783506D01*
X43647071Y-25780236D01*
X43560404Y-25664596D01*
X43548111Y-25655383D01*
X43528992Y-25623120D01*
X43538287Y-25586787D01*
X43545674Y-25578913D01*
X43582418Y-25547530D01*
X43582419Y-25547529D01*
X43584660Y-25545615D01*
X43654670Y-25448186D01*
X43675376Y-25419371D01*
X43675377Y-25419369D01*
X43677101Y-25416970D01*
X43733470Y-25276748D01*
X43735087Y-25272726D01*
X43735087Y-25272725D01*
X43736188Y-25269987D01*
X43758508Y-25113153D01*
X43758653Y-25099346D01*
X43739622Y-24942079D01*
X43703548Y-24846612D01*
X43684671Y-24796657D01*
X43684670Y-24796656D01*
X43683626Y-24793892D01*
X43609493Y-24686027D01*
X43595574Y-24665775D01*
X43595574Y-24665774D01*
X43593899Y-24663338D01*
X43585188Y-24655577D01*
X43561851Y-24634784D01*
X43545528Y-24601019D01*
X43557862Y-24565603D01*
X43562621Y-24560942D01*
X43682333Y-24458698D01*
X43738664Y-24380305D01*
X43773049Y-24332454D01*
X43773050Y-24332452D01*
X43774774Y-24330053D01*
X43833861Y-24183070D01*
X43856181Y-24026236D01*
X43856326Y-24012429D01*
X43837295Y-23855162D01*
X43828901Y-23832947D01*
X43782344Y-23709740D01*
X43782343Y-23709739D01*
X43781299Y-23706975D01*
X43739049Y-23645500D01*
X43711533Y-23605464D01*
X43703736Y-23568780D01*
X43722221Y-23541190D01*
X43721037Y-23539781D01*
X43724511Y-23536861D01*
X43724520Y-23536852D01*
X43725313Y-23536186D01*
X43725322Y-23536196D01*
X43728988Y-23533586D01*
X43728855Y-23533415D01*
X43732054Y-23530934D01*
X43735619Y-23529010D01*
X43773236Y-23488316D01*
X43774570Y-23486929D01*
X45297648Y-21963852D01*
X45332296Y-21949500D01*
X46383568Y-21949500D01*
X46393882Y-21950598D01*
X46407206Y-21953467D01*
X46407207Y-21953467D01*
X46411169Y-21954320D01*
X46449021Y-21949840D01*
X46454778Y-21949500D01*
X46460817Y-21949500D01*
X46481654Y-21946031D01*
X46483944Y-21945706D01*
X46497797Y-21944066D01*
X46536634Y-21939470D01*
X46540286Y-21937716D01*
X46544176Y-21936586D01*
X46544223Y-21936747D01*
X46546146Y-21936139D01*
X46546092Y-21935980D01*
X46549922Y-21934669D01*
X46553919Y-21934004D01*
X46557483Y-21932081D01*
X46557486Y-21932080D01*
X46580448Y-21919690D01*
X46616150Y-21915417D01*
X46641068Y-21921954D01*
X46729240Y-21923339D01*
X46796511Y-21924396D01*
X46796514Y-21924396D01*
X46799462Y-21924442D01*
X46802339Y-21923783D01*
X46802340Y-21923783D01*
X46950997Y-21889736D01*
X46950998Y-21889736D01*
X46953878Y-21889076D01*
X46956517Y-21887749D01*
X46956519Y-21887748D01*
X47092757Y-21819228D01*
X47092758Y-21819227D01*
X47095401Y-21817898D01*
X47215860Y-21715016D01*
X47308301Y-21586371D01*
X47367388Y-21439388D01*
X47389708Y-21282554D01*
X47389853Y-21268747D01*
X47370822Y-21111480D01*
X47314826Y-20963293D01*
X47225099Y-20832739D01*
X47222894Y-20830775D01*
X47222891Y-20830771D01*
X47189652Y-20801157D01*
X47173329Y-20767393D01*
X47185663Y-20731976D01*
X47190425Y-20727312D01*
X47283072Y-20648184D01*
X47283073Y-20648183D01*
X47285314Y-20646269D01*
X47377755Y-20517624D01*
X47428157Y-20392246D01*
X47435741Y-20373380D01*
X47435741Y-20373379D01*
X47436842Y-20370641D01*
X47459162Y-20213807D01*
X47459307Y-20200000D01*
X47440276Y-20042733D01*
X47392407Y-19916052D01*
X47385325Y-19897311D01*
X47385324Y-19897310D01*
X47384280Y-19894546D01*
X47310966Y-19787873D01*
X47296228Y-19766429D01*
X47296228Y-19766428D01*
X47294553Y-19763992D01*
X47292348Y-19762028D01*
X47292345Y-19762024D01*
X47178485Y-19660580D01*
X47176275Y-19658611D01*
X47036274Y-19584484D01*
X46882633Y-19545892D01*
X46802177Y-19545470D01*
X46727174Y-19545077D01*
X46727170Y-19545077D01*
X46724221Y-19545062D01*
X46721352Y-19545751D01*
X46721350Y-19545751D01*
X46636033Y-19566234D01*
X46570184Y-19582043D01*
X46567556Y-19583399D01*
X46567557Y-19583399D01*
X46484634Y-19626199D01*
X46429414Y-19654700D01*
X46427194Y-19656637D01*
X46427192Y-19656638D01*
X46341505Y-19731388D01*
X46310039Y-19758838D01*
X46308341Y-19761253D01*
X46308340Y-19761255D01*
X46279296Y-19802580D01*
X46218950Y-19888444D01*
X46217879Y-19891192D01*
X46217877Y-19891195D01*
X46184250Y-19977444D01*
X46161406Y-20036037D01*
X46140729Y-20193096D01*
X46141053Y-20196030D01*
X46148505Y-20263527D01*
X46138042Y-20299541D01*
X46134449Y-20303552D01*
X45763989Y-20674012D01*
X45755924Y-20680526D01*
X45741060Y-20690124D01*
X45738551Y-20693307D01*
X45717460Y-20720061D01*
X45713627Y-20724374D01*
X45711853Y-20726148D01*
X45677205Y-20740500D01*
X44728500Y-20740500D01*
X44693852Y-20726148D01*
X44679500Y-20691500D01*
X44679500Y-20622244D01*
X44672798Y-20560552D01*
X44627387Y-20439416D01*
X44623298Y-20428508D01*
X44623297Y-20428506D01*
X44622071Y-20425236D01*
X44590192Y-20382699D01*
X44537498Y-20312390D01*
X44535404Y-20309596D01*
X44532610Y-20307502D01*
X44422561Y-20225025D01*
X44422560Y-20225024D01*
X44419764Y-20222929D01*
X44416494Y-20221703D01*
X44416492Y-20221702D01*
X44340183Y-20193096D01*
X44284448Y-20172202D01*
X44281398Y-20171871D01*
X44281395Y-20171870D01*
X44254727Y-20168973D01*
X44222756Y-20165500D01*
X43602244Y-20165500D01*
X43570273Y-20168973D01*
X43543605Y-20171870D01*
X43543602Y-20171871D01*
X43540552Y-20172202D01*
X43484817Y-20193096D01*
X43408508Y-20221702D01*
X43408506Y-20221703D01*
X43405236Y-20222929D01*
X43402440Y-20225024D01*
X43402439Y-20225025D01*
X43292390Y-20307502D01*
X43289596Y-20309596D01*
X43287502Y-20312390D01*
X43234809Y-20382699D01*
X43202929Y-20425236D01*
X43201703Y-20428506D01*
X43201702Y-20428508D01*
X43179811Y-20486903D01*
X43154210Y-20514309D01*
X43116729Y-20515585D01*
X43089323Y-20489984D01*
X43087448Y-20485210D01*
X43041997Y-20348974D01*
X43039594Y-20343844D01*
X42949582Y-20198388D01*
X42946065Y-20193951D01*
X42825005Y-20073101D01*
X42820569Y-20069597D01*
X42674952Y-19979838D01*
X42669818Y-19977444D01*
X42507302Y-19923540D01*
X42502096Y-19922423D01*
X42401601Y-19912127D01*
X42399117Y-19912000D01*
X42242990Y-19912000D01*
X42208342Y-19897648D01*
X42193990Y-19863000D01*
X42208342Y-19828352D01*
X42286011Y-19750683D01*
X42294076Y-19744169D01*
X42308940Y-19734571D01*
X42332541Y-19704633D01*
X42336373Y-19700321D01*
X42340638Y-19696056D01*
X42341813Y-19694411D01*
X42341817Y-19694407D01*
X42352923Y-19678866D01*
X42354309Y-19677020D01*
X42384647Y-19638536D01*
X42384648Y-19638535D01*
X42387156Y-19635353D01*
X42388499Y-19631529D01*
X42390448Y-19627983D01*
X42390596Y-19628064D01*
X42391527Y-19626273D01*
X42391376Y-19626199D01*
X42393158Y-19622561D01*
X42395513Y-19619266D01*
X42405502Y-19585868D01*
X42410717Y-19568429D01*
X42411430Y-19566234D01*
X42417791Y-19548120D01*
X42442812Y-19520184D01*
X42446823Y-19518473D01*
X42553992Y-19478298D01*
X42553994Y-19478297D01*
X42557264Y-19477071D01*
X42672904Y-19390404D01*
X42759571Y-19274764D01*
X42782689Y-19213097D01*
X42808290Y-19185691D01*
X42845771Y-19184415D01*
X42873177Y-19210016D01*
X42875052Y-19214790D01*
X42920503Y-19351026D01*
X42922906Y-19356156D01*
X43012918Y-19501612D01*
X43016435Y-19506049D01*
X43137495Y-19626899D01*
X43141931Y-19630403D01*
X43287548Y-19720162D01*
X43292682Y-19722556D01*
X43455198Y-19776460D01*
X43460404Y-19777577D01*
X43560899Y-19787873D01*
X43563383Y-19788000D01*
X43611253Y-19788000D01*
X43618145Y-19785145D01*
X43621000Y-19778253D01*
X43621000Y-19778252D01*
X44129000Y-19778252D01*
X44131855Y-19785144D01*
X44138747Y-19787999D01*
X44186601Y-19787999D01*
X44189120Y-19787868D01*
X44290889Y-19777309D01*
X44296114Y-19776181D01*
X44458526Y-19721997D01*
X44463656Y-19719594D01*
X44609112Y-19629582D01*
X44613549Y-19626065D01*
X44734399Y-19505005D01*
X44737903Y-19500569D01*
X44827662Y-19354952D01*
X44830056Y-19349818D01*
X44883960Y-19187302D01*
X44885077Y-19182096D01*
X44895373Y-19081601D01*
X44895500Y-19079117D01*
X44895500Y-18843747D01*
X44892645Y-18836855D01*
X44885753Y-18834000D01*
X44138747Y-18834000D01*
X44131855Y-18836855D01*
X44129000Y-18843747D01*
X44129000Y-19778252D01*
X43621000Y-19778252D01*
X43621000Y-18316253D01*
X44129000Y-18316253D01*
X44131855Y-18323145D01*
X44138747Y-18326000D01*
X44885752Y-18326000D01*
X44892644Y-18323145D01*
X44895499Y-18316253D01*
X44895499Y-18080899D01*
X44895368Y-18078380D01*
X44884809Y-17976611D01*
X44883681Y-17971386D01*
X44829497Y-17808974D01*
X44827094Y-17803844D01*
X44737082Y-17658388D01*
X44733565Y-17653951D01*
X44612505Y-17533101D01*
X44608069Y-17529597D01*
X44462452Y-17439838D01*
X44457318Y-17437444D01*
X44294802Y-17383540D01*
X44289596Y-17382423D01*
X44189101Y-17372127D01*
X44186617Y-17372000D01*
X44138747Y-17372000D01*
X44131855Y-17374855D01*
X44129000Y-17381747D01*
X44129000Y-18316253D01*
X43621000Y-18316253D01*
X43621000Y-17381748D01*
X43618145Y-17374856D01*
X43611253Y-17372001D01*
X43563399Y-17372001D01*
X43560880Y-17372132D01*
X43459111Y-17382691D01*
X43453886Y-17383819D01*
X43291474Y-17438003D01*
X43286344Y-17440406D01*
X43140888Y-17530418D01*
X43136451Y-17533935D01*
X43015601Y-17654995D01*
X43012097Y-17659431D01*
X42922338Y-17805048D01*
X42919944Y-17810182D01*
X42875134Y-17945278D01*
X42850604Y-17973646D01*
X42813200Y-17976360D01*
X42784832Y-17951830D01*
X42782744Y-17947052D01*
X42782451Y-17946269D01*
X42759571Y-17885236D01*
X42672904Y-17769596D01*
X42616095Y-17727020D01*
X42560061Y-17685025D01*
X42560060Y-17685024D01*
X42557264Y-17682929D01*
X42553994Y-17681703D01*
X42553992Y-17681702D01*
X42461300Y-17646954D01*
X42433894Y-17621353D01*
X42429500Y-17601072D01*
X42429500Y-17018928D01*
X42443852Y-16984280D01*
X42461300Y-16973046D01*
X42553992Y-16938298D01*
X42553994Y-16938297D01*
X42557264Y-16937071D01*
X42562970Y-16932795D01*
X42670110Y-16852498D01*
X42672904Y-16850404D01*
X42726592Y-16778768D01*
X42757475Y-16737561D01*
X42757476Y-16737560D01*
X42759571Y-16734764D01*
X42761243Y-16730306D01*
X42788100Y-16658661D01*
X42810298Y-16599448D01*
X42817000Y-16537756D01*
X42817000Y-15829990D01*
X42831352Y-15795342D01*
X43024352Y-15602342D01*
X43059000Y-15587990D01*
X43093648Y-15602342D01*
X43108000Y-15636990D01*
X43108000Y-16537756D01*
X43114702Y-16599448D01*
X43136900Y-16658661D01*
X43163758Y-16730306D01*
X43165429Y-16734764D01*
X43167524Y-16737560D01*
X43167525Y-16737561D01*
X43198408Y-16778768D01*
X43252096Y-16850404D01*
X43254890Y-16852498D01*
X43362031Y-16932795D01*
X43367736Y-16937071D01*
X43371006Y-16938297D01*
X43371008Y-16938298D01*
X43407586Y-16952010D01*
X43503052Y-16987798D01*
X43506102Y-16988129D01*
X43506105Y-16988130D01*
X43532773Y-16991027D01*
X43564744Y-16994500D01*
X44185256Y-16994500D01*
X44217227Y-16991027D01*
X44243895Y-16988130D01*
X44243898Y-16988129D01*
X44246948Y-16987798D01*
X44342414Y-16952010D01*
X44378992Y-16938298D01*
X44378994Y-16938297D01*
X44382264Y-16937071D01*
X44387970Y-16932795D01*
X44495110Y-16852498D01*
X44497904Y-16850404D01*
X44551592Y-16778768D01*
X44582475Y-16737561D01*
X44582476Y-16737560D01*
X44584571Y-16734764D01*
X44586243Y-16730306D01*
X44613100Y-16658661D01*
X44635298Y-16599448D01*
X44642000Y-16537756D01*
X44642000Y-16428500D01*
X44656352Y-16393852D01*
X44691000Y-16379500D01*
X45444358Y-16379500D01*
X45479006Y-16393852D01*
X45485027Y-16401167D01*
X45513207Y-16443104D01*
X45515395Y-16445095D01*
X45515396Y-16445096D01*
X45618682Y-16539078D01*
X45630375Y-16549718D01*
X45769592Y-16625307D01*
X45922821Y-16665506D01*
X46010993Y-16666891D01*
X46078264Y-16667948D01*
X46078267Y-16667948D01*
X46081215Y-16667994D01*
X46084092Y-16667335D01*
X46084093Y-16667335D01*
X46095546Y-16664712D01*
X46132524Y-16670966D01*
X46141133Y-16677827D01*
X46485911Y-17022605D01*
X46500263Y-17057253D01*
X46491353Y-17085425D01*
X46418950Y-17188444D01*
X46417879Y-17191192D01*
X46417877Y-17191195D01*
X46415493Y-17197311D01*
X46361406Y-17336037D01*
X46360515Y-17342806D01*
X46346693Y-17447798D01*
X46340729Y-17493096D01*
X46358113Y-17650553D01*
X46412553Y-17799319D01*
X46414198Y-17801767D01*
X46499261Y-17928355D01*
X46499264Y-17928358D01*
X46500908Y-17930805D01*
X46503095Y-17932795D01*
X46602895Y-18023605D01*
X46618076Y-18037419D01*
X46757293Y-18113008D01*
X46910522Y-18153207D01*
X46998694Y-18154592D01*
X47065965Y-18155649D01*
X47065968Y-18155649D01*
X47068916Y-18155695D01*
X47071793Y-18155036D01*
X47071794Y-18155036D01*
X47220451Y-18120989D01*
X47220452Y-18120989D01*
X47223332Y-18120329D01*
X47225971Y-18119002D01*
X47225973Y-18119001D01*
X47362211Y-18050481D01*
X47362212Y-18050480D01*
X47364855Y-18049151D01*
X47485314Y-17946269D01*
X47577755Y-17817624D01*
X47631902Y-17682929D01*
X47635741Y-17673380D01*
X47635741Y-17673379D01*
X47636842Y-17670641D01*
X47659162Y-17513807D01*
X47659307Y-17500000D01*
X47640276Y-17342733D01*
X47584280Y-17194546D01*
X47494553Y-17063992D01*
X47492348Y-17062028D01*
X47492345Y-17062024D01*
X47391273Y-16971973D01*
X47375209Y-16941147D01*
X47369946Y-16896682D01*
X47369470Y-16892659D01*
X47367716Y-16889007D01*
X47366586Y-16885117D01*
X47366747Y-16885070D01*
X47366139Y-16883147D01*
X47365980Y-16883201D01*
X47364669Y-16879372D01*
X47364004Y-16875374D01*
X47338794Y-16828652D01*
X47337748Y-16826599D01*
X47316115Y-16781549D01*
X47314780Y-16778768D01*
X47311186Y-16774492D01*
X47311197Y-16774483D01*
X47308587Y-16770816D01*
X47308415Y-16770950D01*
X47305934Y-16767751D01*
X47304010Y-16764186D01*
X47263316Y-16726569D01*
X47261929Y-16725235D01*
X46675236Y-16138542D01*
X46660884Y-16103894D01*
X46661373Y-16096990D01*
X46671234Y-16027700D01*
X46671461Y-16026106D01*
X46671606Y-16012299D01*
X46652575Y-15855032D01*
X46633758Y-15805236D01*
X46597624Y-15709610D01*
X46597623Y-15709609D01*
X46596579Y-15706845D01*
X46524756Y-15602342D01*
X46508527Y-15578728D01*
X46508527Y-15578727D01*
X46506852Y-15576291D01*
X46504647Y-15574327D01*
X46504644Y-15574323D01*
X46390784Y-15472879D01*
X46388574Y-15470910D01*
X46248573Y-15396783D01*
X46094932Y-15358191D01*
X46014476Y-15357769D01*
X45939473Y-15357376D01*
X45939469Y-15357376D01*
X45936520Y-15357361D01*
X45933651Y-15358050D01*
X45933649Y-15358050D01*
X45785357Y-15393652D01*
X45782483Y-15394342D01*
X45734091Y-15419319D01*
X45651763Y-15461812D01*
X45641713Y-15466999D01*
X45639493Y-15468936D01*
X45639491Y-15468937D01*
X45597817Y-15505292D01*
X45522338Y-15571137D01*
X45520640Y-15573552D01*
X45520639Y-15573554D01*
X45502281Y-15599675D01*
X45470616Y-15619770D01*
X45462192Y-15620500D01*
X44691000Y-15620500D01*
X44656352Y-15606148D01*
X44642000Y-15571500D01*
X44642000Y-15542244D01*
X44635298Y-15480552D01*
X44602721Y-15393652D01*
X44585798Y-15348508D01*
X44585797Y-15348506D01*
X44584571Y-15345236D01*
X44560036Y-15312498D01*
X44499998Y-15232390D01*
X44497904Y-15229596D01*
X44481017Y-15216940D01*
X44461899Y-15184678D01*
X44471193Y-15148345D01*
X44503457Y-15129226D01*
X44522838Y-15130335D01*
X44573158Y-15143536D01*
X44610022Y-15153207D01*
X44698194Y-15154592D01*
X44765465Y-15155649D01*
X44765468Y-15155649D01*
X44768416Y-15155695D01*
X44771293Y-15155036D01*
X44771294Y-15155036D01*
X44919951Y-15120989D01*
X44919952Y-15120989D01*
X44922832Y-15120329D01*
X44925471Y-15119002D01*
X44925473Y-15119001D01*
X45061711Y-15050481D01*
X45061712Y-15050480D01*
X45064355Y-15049151D01*
X45184814Y-14946269D01*
X45228664Y-14885245D01*
X45275530Y-14820025D01*
X45275531Y-14820023D01*
X45277255Y-14817624D01*
X45336342Y-14670641D01*
X45358662Y-14513807D01*
X45358807Y-14500000D01*
X45339776Y-14342733D01*
X45319846Y-14289990D01*
X45284825Y-14197311D01*
X45284824Y-14197310D01*
X45283780Y-14194546D01*
X45194053Y-14063992D01*
X45191848Y-14062028D01*
X45191845Y-14062024D01*
X45077985Y-13960580D01*
X45075775Y-13958611D01*
X44935774Y-13884484D01*
X44782133Y-13845892D01*
X44701677Y-13845470D01*
X44626674Y-13845077D01*
X44626670Y-13845077D01*
X44623721Y-13845062D01*
X44620852Y-13845751D01*
X44620850Y-13845751D01*
X44472558Y-13881353D01*
X44469684Y-13882043D01*
X44328914Y-13954700D01*
X44326694Y-13956637D01*
X44326692Y-13956638D01*
X44212201Y-14056516D01*
X44209539Y-14058838D01*
X44207841Y-14061254D01*
X44207840Y-14061255D01*
X44180838Y-14099675D01*
X44149173Y-14119770D01*
X44140749Y-14120500D01*
X43635725Y-14120500D01*
X43625411Y-14119402D01*
X43612087Y-14116533D01*
X43612086Y-14116533D01*
X43608124Y-14115680D01*
X43570272Y-14120160D01*
X43564515Y-14120500D01*
X43558476Y-14120500D01*
X43556487Y-14120831D01*
X43556488Y-14120831D01*
X43537636Y-14123969D01*
X43535347Y-14124294D01*
X43482659Y-14130530D01*
X43479007Y-14132284D01*
X43475117Y-14133414D01*
X43475070Y-14133253D01*
X43473147Y-14133861D01*
X43473201Y-14134020D01*
X43469372Y-14135331D01*
X43465374Y-14135996D01*
X43418644Y-14161210D01*
X43416647Y-14162228D01*
X43368768Y-14185219D01*
X43366412Y-14187199D01*
X43366410Y-14187201D01*
X43365294Y-14188139D01*
X43365285Y-14188148D01*
X43364492Y-14188814D01*
X43364483Y-14188804D01*
X43360817Y-14191414D01*
X43360950Y-14191585D01*
X43357751Y-14194066D01*
X43354186Y-14195990D01*
X43351436Y-14198965D01*
X43316569Y-14236684D01*
X43315235Y-14238071D01*
X42472618Y-15080688D01*
X42437970Y-15095040D01*
X42426636Y-15093711D01*
X42424825Y-15093280D01*
X42421948Y-15092202D01*
X42418894Y-15091870D01*
X42418893Y-15091870D01*
X42405591Y-15090425D01*
X42360256Y-15085500D01*
X41739744Y-15085500D01*
X41713326Y-15088370D01*
X41681105Y-15091870D01*
X41681102Y-15091871D01*
X41678052Y-15092202D01*
X41606565Y-15119001D01*
X41546008Y-15141702D01*
X41546006Y-15141703D01*
X41542736Y-15142929D01*
X41539940Y-15145024D01*
X41539939Y-15145025D01*
X41525702Y-15155695D01*
X41427096Y-15229596D01*
X41425002Y-15232390D01*
X41364965Y-15312498D01*
X41340429Y-15345236D01*
X41339203Y-15348506D01*
X41339202Y-15348508D01*
X41322279Y-15393652D01*
X41289702Y-15480552D01*
X41283000Y-15542244D01*
X41283000Y-16537756D01*
X41289702Y-16599448D01*
X41311900Y-16658661D01*
X41338758Y-16730306D01*
X41340429Y-16734764D01*
X41342524Y-16737560D01*
X41342525Y-16737561D01*
X41373408Y-16778768D01*
X41427096Y-16850404D01*
X41429890Y-16852498D01*
X41537031Y-16932795D01*
X41542736Y-16937071D01*
X41546006Y-16938297D01*
X41546008Y-16938298D01*
X41638700Y-16973046D01*
X41666106Y-16998647D01*
X41670500Y-17018928D01*
X41670500Y-17601072D01*
X41656148Y-17635720D01*
X41638700Y-17646954D01*
X41546008Y-17681702D01*
X41546006Y-17681703D01*
X41542736Y-17682929D01*
X41539940Y-17685024D01*
X41539939Y-17685025D01*
X41483905Y-17727020D01*
X41427096Y-17769596D01*
X41340429Y-17885236D01*
X41289702Y-18020552D01*
X41289371Y-18023602D01*
X41289370Y-18023605D01*
X41287717Y-18038827D01*
X41283000Y-18082244D01*
X41283000Y-19077756D01*
X41289702Y-19139448D01*
X41340429Y-19274764D01*
X41427096Y-19390404D01*
X41465215Y-19418972D01*
X41484333Y-19451236D01*
X41475038Y-19487569D01*
X41470476Y-19492830D01*
X40763989Y-20199317D01*
X40755924Y-20205831D01*
X40741060Y-20215429D01*
X40738551Y-20218612D01*
X40717460Y-20245366D01*
X40713627Y-20249679D01*
X40709362Y-20253944D01*
X40708189Y-20255586D01*
X40697081Y-20271129D01*
X40695696Y-20272973D01*
X40666826Y-20309596D01*
X40662844Y-20314647D01*
X40661501Y-20318472D01*
X40659552Y-20322017D01*
X40659404Y-20321936D01*
X40658472Y-20323729D01*
X40658622Y-20323803D01*
X40656841Y-20327439D01*
X40654486Y-20330734D01*
X40653326Y-20334613D01*
X40639271Y-20381609D01*
X40638558Y-20383802D01*
X40620982Y-20433851D01*
X40620500Y-20439416D01*
X40620487Y-20439415D01*
X40619739Y-20443852D01*
X40619955Y-20443879D01*
X40619447Y-20447898D01*
X40618287Y-20451778D01*
X40618446Y-20455827D01*
X40620462Y-20507137D01*
X40620500Y-20509061D01*
X40620500Y-21571500D01*
X40606148Y-21606148D01*
X40571500Y-21620500D01*
X40295223Y-21620500D01*
X40260575Y-21606148D01*
X40246223Y-21571500D01*
X40247164Y-21561945D01*
X40254500Y-21525067D01*
X40259486Y-21500000D01*
X40255441Y-21479664D01*
X40254500Y-21470105D01*
X40254500Y-14529895D01*
X40255441Y-14520336D01*
X40258545Y-14504731D01*
X40259486Y-14500000D01*
X40253482Y-14469813D01*
X40239734Y-14400699D01*
X40183484Y-14316516D01*
X40099301Y-14260266D01*
X40000000Y-14240514D01*
X39995269Y-14241455D01*
X39995268Y-14241455D01*
X39979664Y-14244559D01*
X39970105Y-14245500D01*
X10029895Y-14245500D01*
X10020336Y-14244559D01*
X10004732Y-14241455D01*
X10004731Y-14241455D01*
X10000000Y-14240514D01*
X9900699Y-14260266D01*
X9816516Y-14316516D01*
X9760266Y-14400699D01*
X9746519Y-14469813D01*
X9740514Y-14500000D01*
X9741455Y-14504731D01*
X9741455Y-14504732D01*
X9744559Y-14520336D01*
X9745500Y-14529895D01*
X9745500Y-21470105D01*
X9744559Y-21479664D01*
X9740514Y-21500000D01*
X9745500Y-21525067D01*
X9760266Y-21599301D01*
X9816516Y-21683484D01*
X9900699Y-21739734D01*
X10000000Y-21759486D01*
X10004731Y-21758545D01*
X10004732Y-21758545D01*
X10020336Y-21755441D01*
X10029895Y-21754500D01*
X13387440Y-21754500D01*
X13422088Y-21768852D01*
X13436440Y-21803500D01*
X13422088Y-21838148D01*
X13398879Y-21851146D01*
X13270184Y-21882043D01*
X13267556Y-21883399D01*
X13267557Y-21883399D01*
X13139489Y-21949500D01*
X13129414Y-21954700D01*
X13127194Y-21956637D01*
X13127192Y-21956638D01*
X13091143Y-21988086D01*
X13010039Y-22058838D01*
X13008341Y-22061253D01*
X13008340Y-22061255D01*
X12988945Y-22088852D01*
X12918950Y-22188444D01*
X12917879Y-22191192D01*
X12917877Y-22191195D01*
X12884887Y-22275811D01*
X12861406Y-22336037D01*
X12840729Y-22493096D01*
X12858113Y-22650553D01*
X12912553Y-22799319D01*
X12914198Y-22801767D01*
X12999261Y-22928355D01*
X12999264Y-22928358D01*
X13000908Y-22930805D01*
X13118076Y-23037419D01*
X13257293Y-23113008D01*
X13410522Y-23153207D01*
X13498694Y-23154592D01*
X13565965Y-23155649D01*
X13565968Y-23155649D01*
X13568916Y-23155695D01*
X13571793Y-23155036D01*
X13571794Y-23155036D01*
X13720451Y-23120989D01*
X13720452Y-23120989D01*
X13723332Y-23120329D01*
X13725971Y-23119002D01*
X13725973Y-23119001D01*
X13862211Y-23050481D01*
X13862212Y-23050480D01*
X13864855Y-23049151D01*
X13985314Y-22946269D01*
X13987034Y-22943875D01*
X13987038Y-22943871D01*
X14036709Y-22874746D01*
X14068582Y-22854983D01*
X14105094Y-22863547D01*
X14124857Y-22895420D01*
X14125501Y-22903339D01*
X14125501Y-23255066D01*
X14140266Y-23329301D01*
X14196516Y-23413484D01*
X14280699Y-23469734D01*
X14354933Y-23484500D01*
X14525596Y-23484500D01*
X17946500Y-23484499D01*
X17981148Y-23498851D01*
X17995500Y-23533499D01*
X17995500Y-23766500D01*
X17981148Y-23801148D01*
X17946500Y-23815500D01*
X14525124Y-23815501D01*
X14354934Y-23815501D01*
X14352582Y-23815969D01*
X14352580Y-23815969D01*
X14316597Y-23823126D01*
X14280699Y-23830266D01*
X14276688Y-23832946D01*
X14276686Y-23832947D01*
X14276685Y-23832948D01*
X14196516Y-23886516D01*
X14140266Y-23970699D01*
X14125500Y-24044933D01*
X14125500Y-24571500D01*
X14111148Y-24606148D01*
X14076500Y-24620500D01*
X12559170Y-24620500D01*
X12524522Y-24606148D01*
X12518788Y-24599254D01*
X12496228Y-24566429D01*
X12494553Y-24563992D01*
X12492348Y-24562028D01*
X12492345Y-24562024D01*
X12378485Y-24460580D01*
X12376275Y-24458611D01*
X12236274Y-24384484D01*
X12082633Y-24345892D01*
X12002177Y-24345470D01*
X11927174Y-24345077D01*
X11927170Y-24345077D01*
X11924221Y-24345062D01*
X11921352Y-24345751D01*
X11921350Y-24345751D01*
X11777423Y-24380305D01*
X11770184Y-24382043D01*
X11767556Y-24383399D01*
X11767557Y-24383399D01*
X11647239Y-24445500D01*
X11629414Y-24454700D01*
X11627194Y-24456637D01*
X11627192Y-24456638D01*
X11563387Y-24512299D01*
X11510039Y-24558838D01*
X11508341Y-24561253D01*
X11508340Y-24561255D01*
X11476789Y-24606148D01*
X11418950Y-24688444D01*
X11417879Y-24691192D01*
X11417877Y-24691195D01*
X11414065Y-24700973D01*
X11361406Y-24836037D01*
X11361021Y-24838962D01*
X11345023Y-24960483D01*
X11340729Y-24993096D01*
X11358113Y-25150553D01*
X11412553Y-25299319D01*
X11414198Y-25301767D01*
X11499261Y-25428355D01*
X11499264Y-25428358D01*
X11500908Y-25430805D01*
X11503095Y-25432795D01*
X11615109Y-25534719D01*
X11618076Y-25537419D01*
X11757293Y-25613008D01*
X11910522Y-25653207D01*
X11998694Y-25654592D01*
X12065965Y-25655649D01*
X12065968Y-25655649D01*
X12068916Y-25655695D01*
X12071793Y-25655036D01*
X12071794Y-25655036D01*
X12220451Y-25620989D01*
X12220452Y-25620989D01*
X12223332Y-25620329D01*
X12225971Y-25619002D01*
X12225973Y-25619001D01*
X12362211Y-25550481D01*
X12362212Y-25550480D01*
X12364855Y-25549151D01*
X12399148Y-25519862D01*
X12483070Y-25448186D01*
X12483072Y-25448184D01*
X12485314Y-25446269D01*
X12518628Y-25399907D01*
X12550501Y-25380144D01*
X12558420Y-25379500D01*
X14076501Y-25379500D01*
X14111149Y-25393852D01*
X14125501Y-25428500D01*
X14125501Y-25795066D01*
X14125969Y-25797418D01*
X14125969Y-25797420D01*
X14133126Y-25833403D01*
X14140266Y-25869301D01*
X14142946Y-25873312D01*
X14142947Y-25873314D01*
X14169250Y-25912678D01*
X14196516Y-25953484D01*
X14280699Y-26009734D01*
X14354933Y-26024500D01*
X14525596Y-26024500D01*
X17946500Y-26024499D01*
X17981148Y-26038851D01*
X17995500Y-26073499D01*
X17995500Y-26306500D01*
X17981148Y-26341148D01*
X17946500Y-26355500D01*
X14525124Y-26355501D01*
X14354934Y-26355501D01*
X14352582Y-26355969D01*
X14352570Y-26355970D01*
X14320879Y-26362274D01*
X14284097Y-26354958D01*
X14278063Y-26350201D01*
X14263315Y-26336568D01*
X14261929Y-26335235D01*
X13928383Y-26001689D01*
X13921869Y-25993624D01*
X13912271Y-25978760D01*
X13882333Y-25955159D01*
X13878021Y-25951327D01*
X13873756Y-25947062D01*
X13856571Y-25934781D01*
X13854727Y-25933396D01*
X13816236Y-25903053D01*
X13816235Y-25903052D01*
X13813053Y-25900544D01*
X13809228Y-25899201D01*
X13805683Y-25897252D01*
X13805764Y-25897104D01*
X13803971Y-25896172D01*
X13803897Y-25896322D01*
X13800261Y-25894541D01*
X13796966Y-25892186D01*
X13746090Y-25876971D01*
X13743896Y-25876257D01*
X13735518Y-25873315D01*
X13693849Y-25858682D01*
X13690780Y-25858416D01*
X13690779Y-25858416D01*
X13689336Y-25858291D01*
X13689333Y-25858291D01*
X13688284Y-25858200D01*
X13688285Y-25858187D01*
X13683848Y-25857439D01*
X13683821Y-25857655D01*
X13679802Y-25857147D01*
X13675922Y-25855987D01*
X13671873Y-25856146D01*
X13620563Y-25858162D01*
X13618639Y-25858200D01*
X11796870Y-25858200D01*
X11762222Y-25843848D01*
X11756488Y-25836954D01*
X11733928Y-25804129D01*
X11732253Y-25801692D01*
X11730048Y-25799728D01*
X11730045Y-25799724D01*
X11616185Y-25698280D01*
X11613975Y-25696311D01*
X11473974Y-25622184D01*
X11320333Y-25583592D01*
X11239877Y-25583170D01*
X11164874Y-25582777D01*
X11164870Y-25582777D01*
X11161921Y-25582762D01*
X11159052Y-25583451D01*
X11159050Y-25583451D01*
X11041802Y-25611600D01*
X11007884Y-25619743D01*
X11005256Y-25621099D01*
X11005257Y-25621099D01*
X10938318Y-25655649D01*
X10867114Y-25692400D01*
X10864894Y-25694337D01*
X10864892Y-25694338D01*
X10769632Y-25777439D01*
X10747739Y-25796538D01*
X10746041Y-25798953D01*
X10746040Y-25798955D01*
X10744064Y-25801767D01*
X10656650Y-25926144D01*
X10655579Y-25928892D01*
X10655577Y-25928895D01*
X10627196Y-26001689D01*
X10599106Y-26073737D01*
X10578429Y-26230796D01*
X10595813Y-26388253D01*
X10650253Y-26537019D01*
X10651898Y-26539467D01*
X10736961Y-26666055D01*
X10736964Y-26666058D01*
X10738608Y-26668505D01*
X10740795Y-26670495D01*
X10851042Y-26770811D01*
X10855776Y-26775119D01*
X10994993Y-26850708D01*
X11148222Y-26890907D01*
X11236394Y-26892292D01*
X11303665Y-26893349D01*
X11303668Y-26893349D01*
X11306616Y-26893395D01*
X11309493Y-26892736D01*
X11309494Y-26892736D01*
X11458151Y-26858689D01*
X11458152Y-26858689D01*
X11461032Y-26858029D01*
X11463671Y-26856702D01*
X11463673Y-26856701D01*
X11599911Y-26788181D01*
X11599912Y-26788180D01*
X11602555Y-26786851D01*
X11641018Y-26754000D01*
X11720770Y-26685886D01*
X11720772Y-26685884D01*
X11723014Y-26683969D01*
X11756328Y-26637607D01*
X11788201Y-26617844D01*
X11796120Y-26617200D01*
X11836500Y-26617200D01*
X11871148Y-26631552D01*
X11885500Y-26666200D01*
X11885501Y-27199062D01*
X11885501Y-27625066D01*
X11900266Y-27699301D01*
X11902946Y-27703312D01*
X11902947Y-27703314D01*
X11919438Y-27727994D01*
X11956516Y-27783484D01*
X12040699Y-27839734D01*
X12114933Y-27854500D01*
X12117343Y-27854500D01*
X12740909Y-27854499D01*
X13365066Y-27854499D01*
X13381711Y-27851188D01*
X13407643Y-27846031D01*
X13444425Y-27853349D01*
X13457871Y-27866759D01*
X13500908Y-27930805D01*
X13503096Y-27932796D01*
X13503097Y-27932797D01*
X13606848Y-28027202D01*
X13618076Y-28037419D01*
X13757293Y-28113008D01*
X13910522Y-28153207D01*
X13991081Y-28154472D01*
X14065960Y-28155649D01*
X14065964Y-28155649D01*
X14068916Y-28155695D01*
X14071478Y-28155108D01*
X14107338Y-28165731D01*
X14125233Y-28198690D01*
X14125501Y-28203811D01*
X14125501Y-28335066D01*
X14125969Y-28337418D01*
X14125969Y-28337420D01*
X14130374Y-28359567D01*
X14140266Y-28409301D01*
X14142946Y-28413312D01*
X14142947Y-28413314D01*
X14155261Y-28431743D01*
X14196516Y-28493484D01*
X14280699Y-28549734D01*
X14354933Y-28564500D01*
X14525596Y-28564500D01*
X17946500Y-28564499D01*
X17981148Y-28578851D01*
X17995500Y-28613499D01*
X17995500Y-28846500D01*
X17981148Y-28881148D01*
X17946500Y-28895500D01*
X14525124Y-28895501D01*
X14354934Y-28895501D01*
X14352582Y-28895969D01*
X14352580Y-28895969D01*
X14316597Y-28903126D01*
X14280699Y-28910266D01*
X14276688Y-28912946D01*
X14276686Y-28912947D01*
X14255499Y-28927104D01*
X14196516Y-28966516D01*
X14140266Y-29050699D01*
X14125500Y-29124933D01*
X14125500Y-29546500D01*
X14111148Y-29581148D01*
X14076500Y-29595500D01*
X12041988Y-29595500D01*
X12007340Y-29581148D01*
X12001606Y-29574254D01*
X11996228Y-29566429D01*
X11994553Y-29563992D01*
X11992348Y-29562028D01*
X11992345Y-29562024D01*
X11878485Y-29460580D01*
X11876275Y-29458611D01*
X11736274Y-29384484D01*
X11582633Y-29345892D01*
X11502598Y-29345473D01*
X11427175Y-29345077D01*
X11427171Y-29345077D01*
X11424221Y-29345062D01*
X11416657Y-29346878D01*
X11379616Y-29341009D01*
X11370573Y-29333879D01*
X10150638Y-28113944D01*
X10136286Y-28079296D01*
X10136775Y-28072392D01*
X10146636Y-28003102D01*
X10146863Y-28001508D01*
X10147008Y-27987701D01*
X10127977Y-27830434D01*
X10115627Y-27797752D01*
X10073026Y-27685012D01*
X10073025Y-27685011D01*
X10071981Y-27682247D01*
X9982254Y-27551693D01*
X9980049Y-27549729D01*
X9980046Y-27549725D01*
X9866186Y-27448281D01*
X9863976Y-27446312D01*
X9723975Y-27372185D01*
X9570334Y-27333593D01*
X9489878Y-27333171D01*
X9414875Y-27332778D01*
X9414871Y-27332778D01*
X9411922Y-27332763D01*
X9409053Y-27333452D01*
X9409051Y-27333452D01*
X9260759Y-27369054D01*
X9257885Y-27369744D01*
X9229728Y-27384277D01*
X9122761Y-27439487D01*
X9117115Y-27442401D01*
X9114895Y-27444338D01*
X9114893Y-27444339D01*
X9083506Y-27471720D01*
X8997740Y-27546539D01*
X8996042Y-27548954D01*
X8996041Y-27548956D01*
X8978031Y-27574582D01*
X8906651Y-27676145D01*
X8905580Y-27678893D01*
X8905578Y-27678896D01*
X8885166Y-27731250D01*
X8849107Y-27823738D01*
X8845119Y-27854029D01*
X8835012Y-27930805D01*
X8828430Y-27980797D01*
X8845814Y-28138254D01*
X8900254Y-28287020D01*
X8903264Y-28291499D01*
X8986962Y-28416056D01*
X8986965Y-28416059D01*
X8988609Y-28418506D01*
X8990796Y-28420496D01*
X9079828Y-28501508D01*
X9105777Y-28525120D01*
X9244994Y-28600709D01*
X9398223Y-28640908D01*
X9486395Y-28642293D01*
X9553666Y-28643350D01*
X9553669Y-28643350D01*
X9556617Y-28643396D01*
X9559494Y-28642737D01*
X9559495Y-28642737D01*
X9570948Y-28640114D01*
X9607926Y-28646368D01*
X9616535Y-28653229D01*
X10837099Y-29873793D01*
X10851451Y-29908441D01*
X10851032Y-29914837D01*
X10840729Y-29993096D01*
X10858113Y-30150553D01*
X10912553Y-30299319D01*
X10914198Y-30301767D01*
X10999261Y-30428355D01*
X10999264Y-30428358D01*
X11000908Y-30430805D01*
X11003095Y-30432795D01*
X11092127Y-30513807D01*
X11118076Y-30537419D01*
X11257293Y-30613008D01*
X11410522Y-30653207D01*
X11498694Y-30654592D01*
X11565965Y-30655649D01*
X11565968Y-30655649D01*
X11568916Y-30655695D01*
X11571793Y-30655036D01*
X11571794Y-30655036D01*
X11720451Y-30620989D01*
X11720452Y-30620989D01*
X11723332Y-30620329D01*
X11725971Y-30619002D01*
X11725973Y-30619001D01*
X11814484Y-30574485D01*
X11851886Y-30571738D01*
X11880275Y-30596244D01*
X11885500Y-30618260D01*
X11885501Y-30970775D01*
X11885501Y-31325066D01*
X11885969Y-31327418D01*
X11885969Y-31327420D01*
X11887683Y-31336037D01*
X11900266Y-31399301D01*
X11902946Y-31403312D01*
X11902947Y-31403314D01*
X11936112Y-31452948D01*
X11956516Y-31483484D01*
X12040699Y-31539734D01*
X12114933Y-31554500D01*
X12117343Y-31554500D01*
X12740909Y-31554499D01*
X13365066Y-31554499D01*
X13367418Y-31554031D01*
X13367420Y-31554031D01*
X13403403Y-31546874D01*
X13439301Y-31539734D01*
X13443312Y-31537054D01*
X13443314Y-31537053D01*
X13519473Y-31486164D01*
X13523484Y-31483484D01*
X13556080Y-31434702D01*
X13577052Y-31403315D01*
X13579734Y-31399301D01*
X13594500Y-31325067D01*
X13594499Y-30403500D01*
X13608851Y-30368852D01*
X13643499Y-30354500D01*
X14076501Y-30354500D01*
X14111149Y-30368852D01*
X14125501Y-30403500D01*
X14125501Y-30875066D01*
X14125969Y-30877418D01*
X14125969Y-30877420D01*
X14126751Y-30881353D01*
X14140266Y-30949301D01*
X14142946Y-30953312D01*
X14142947Y-30953314D01*
X14168496Y-30991550D01*
X14196516Y-31033484D01*
X14280699Y-31089734D01*
X14354933Y-31104500D01*
X14525596Y-31104500D01*
X17946500Y-31104499D01*
X17981148Y-31118851D01*
X17995500Y-31153499D01*
X17995500Y-31386500D01*
X17981148Y-31421148D01*
X17946500Y-31435500D01*
X14525124Y-31435501D01*
X14354934Y-31435501D01*
X14352582Y-31435969D01*
X14352580Y-31435969D01*
X14316597Y-31443126D01*
X14280699Y-31450266D01*
X14276688Y-31452946D01*
X14276686Y-31452947D01*
X14220978Y-31490171D01*
X14196516Y-31506516D01*
X14193836Y-31510527D01*
X14154120Y-31569966D01*
X14140266Y-31590699D01*
X14125500Y-31664933D01*
X14125500Y-32096716D01*
X14111148Y-32131364D01*
X14076500Y-32145716D01*
X14041852Y-32131364D01*
X14036118Y-32124470D01*
X14032360Y-32119001D01*
X14017044Y-32096716D01*
X13996228Y-32066428D01*
X13996224Y-32066424D01*
X13994553Y-32063992D01*
X13992348Y-32062028D01*
X13992345Y-32062024D01*
X13878485Y-31960580D01*
X13876275Y-31958611D01*
X13736274Y-31884484D01*
X13582633Y-31845892D01*
X13502177Y-31845470D01*
X13427174Y-31845077D01*
X13427170Y-31845077D01*
X13424221Y-31845062D01*
X13421352Y-31845751D01*
X13421350Y-31845751D01*
X13273058Y-31881353D01*
X13270184Y-31882043D01*
X13267556Y-31883399D01*
X13267557Y-31883399D01*
X13175710Y-31930805D01*
X13129414Y-31954700D01*
X13127194Y-31956637D01*
X13127192Y-31956638D01*
X13036870Y-32035432D01*
X13010039Y-32058838D01*
X13008341Y-32061253D01*
X13008340Y-32061255D01*
X12971441Y-32113757D01*
X12918950Y-32188444D01*
X12917879Y-32191192D01*
X12917877Y-32191195D01*
X12916562Y-32194569D01*
X12861406Y-32336037D01*
X12840729Y-32493096D01*
X12858113Y-32650553D01*
X12912553Y-32799319D01*
X12914198Y-32801767D01*
X12999261Y-32928355D01*
X12999264Y-32928358D01*
X13000908Y-32930805D01*
X13003095Y-32932795D01*
X13101763Y-33022575D01*
X13118076Y-33037419D01*
X13257293Y-33113008D01*
X13410522Y-33153207D01*
X13498694Y-33154592D01*
X13565965Y-33155649D01*
X13565968Y-33155649D01*
X13568916Y-33155695D01*
X13571793Y-33155036D01*
X13571794Y-33155036D01*
X13720451Y-33120989D01*
X13720452Y-33120989D01*
X13723332Y-33120329D01*
X13725971Y-33119002D01*
X13725973Y-33119001D01*
X13862211Y-33050481D01*
X13862212Y-33050480D01*
X13864855Y-33049151D01*
X13985314Y-32946269D01*
X13989885Y-32939908D01*
X14021758Y-32920144D01*
X14029678Y-32919500D01*
X14076501Y-32919500D01*
X14111149Y-32933852D01*
X14125501Y-32968500D01*
X14125501Y-33415066D01*
X14125969Y-33417418D01*
X14125969Y-33417420D01*
X14127902Y-33427136D01*
X14140266Y-33489301D01*
X14142946Y-33493312D01*
X14142947Y-33493314D01*
X14171089Y-33535431D01*
X14196516Y-33573484D01*
X14280699Y-33629734D01*
X14285647Y-33630718D01*
X14285827Y-33630838D01*
X14289890Y-33632521D01*
X14289555Y-33633329D01*
X14316829Y-33651554D01*
X14324144Y-33688337D01*
X14303308Y-33719519D01*
X14281376Y-33727490D01*
X14272847Y-33728416D01*
X14266915Y-33729827D01*
X14136810Y-33778601D01*
X14130741Y-33781924D01*
X14019890Y-33865002D01*
X14015002Y-33869890D01*
X13931924Y-33980741D01*
X13928601Y-33986810D01*
X13879825Y-34116919D01*
X13878416Y-34122846D01*
X13872144Y-34180589D01*
X13872000Y-34183237D01*
X13872000Y-34816253D01*
X13874855Y-34823145D01*
X13881747Y-34826000D01*
X16585000Y-34826000D01*
X16619648Y-34840352D01*
X16634000Y-34875000D01*
X16634000Y-35285000D01*
X16619648Y-35319648D01*
X16585000Y-35334000D01*
X13881748Y-35334000D01*
X13874856Y-35336855D01*
X13872001Y-35343747D01*
X13872001Y-35976757D01*
X13872144Y-35979407D01*
X13878416Y-36037153D01*
X13879827Y-36043085D01*
X13928601Y-36173190D01*
X13931924Y-36179259D01*
X14015002Y-36290110D01*
X14019890Y-36294998D01*
X14130741Y-36378076D01*
X14136810Y-36381399D01*
X14266919Y-36430175D01*
X14272839Y-36431582D01*
X14281375Y-36432509D01*
X14314271Y-36450518D01*
X14324799Y-36486513D01*
X14306790Y-36519409D01*
X14289830Y-36527328D01*
X14289892Y-36527477D01*
X14286521Y-36528873D01*
X14285648Y-36529281D01*
X14285434Y-36529324D01*
X14285433Y-36529324D01*
X14280699Y-36530266D01*
X14276688Y-36532946D01*
X14276686Y-36532947D01*
X14214611Y-36574425D01*
X14196516Y-36586516D01*
X14193836Y-36590527D01*
X14190422Y-36593941D01*
X14189675Y-36593194D01*
X14162789Y-36611160D01*
X14141292Y-36610626D01*
X14126233Y-36606844D01*
X14082633Y-36595892D01*
X14002177Y-36595470D01*
X13927174Y-36595077D01*
X13927170Y-36595077D01*
X13924221Y-36595062D01*
X13921352Y-36595751D01*
X13921350Y-36595751D01*
X13818976Y-36620329D01*
X13770184Y-36632043D01*
X13767556Y-36633399D01*
X13767557Y-36633399D01*
X13665973Y-36685830D01*
X13628601Y-36688968D01*
X13599957Y-36664762D01*
X13594499Y-36642288D01*
X13594499Y-36124934D01*
X13579734Y-36050699D01*
X13574647Y-36043085D01*
X13526164Y-35970527D01*
X13523484Y-35966516D01*
X13439301Y-35910266D01*
X13365067Y-35895500D01*
X13362657Y-35895500D01*
X12563837Y-35895501D01*
X11764934Y-35895501D01*
X11762582Y-35895969D01*
X11762580Y-35895969D01*
X11726597Y-35903126D01*
X11690699Y-35910266D01*
X11686688Y-35912946D01*
X11686686Y-35912947D01*
X11656985Y-35932793D01*
X11606516Y-35966516D01*
X11603836Y-35970527D01*
X11555354Y-36043085D01*
X11550266Y-36050699D01*
X11535500Y-36124933D01*
X11535501Y-37525066D01*
X11550266Y-37599301D01*
X11606516Y-37683484D01*
X11690699Y-37739734D01*
X11764933Y-37754500D01*
X11767343Y-37754500D01*
X12566163Y-37754499D01*
X13365066Y-37754499D01*
X13367418Y-37754031D01*
X13367420Y-37754031D01*
X13403403Y-37746874D01*
X13439301Y-37739734D01*
X13443312Y-37737054D01*
X13443314Y-37737053D01*
X13480305Y-37712336D01*
X13517087Y-37705020D01*
X13540505Y-37716836D01*
X13618076Y-37787419D01*
X13757293Y-37863008D01*
X13910522Y-37903207D01*
X13991081Y-37904472D01*
X14065960Y-37905649D01*
X14065964Y-37905649D01*
X14068916Y-37905695D01*
X14071478Y-37905108D01*
X14107338Y-37915731D01*
X14125233Y-37948690D01*
X14125501Y-37953811D01*
X14125501Y-38495066D01*
X14140266Y-38569301D01*
X14196516Y-38653484D01*
X14280699Y-38709734D01*
X14354933Y-38724500D01*
X14525596Y-38724500D01*
X17946500Y-38724499D01*
X17981148Y-38738851D01*
X17995500Y-38773499D01*
X17995500Y-39696500D01*
X17981148Y-39731148D01*
X17946500Y-39745500D01*
X303500Y-39745500D01*
X268852Y-39731148D01*
X254500Y-39696500D01*
X254500Y-35674933D01*
X405500Y-35674933D01*
X405501Y-37525066D01*
X420266Y-37599301D01*
X476516Y-37683484D01*
X560699Y-37739734D01*
X634933Y-37754500D01*
X637343Y-37754500D01*
X1245887Y-37754499D01*
X1855066Y-37754499D01*
X1857418Y-37754031D01*
X1857420Y-37754031D01*
X1924566Y-37740676D01*
X1924567Y-37740676D01*
X1929301Y-37739734D01*
X1933316Y-37737051D01*
X1936247Y-37735837D01*
X1973751Y-37735836D01*
X1976683Y-37737050D01*
X1980699Y-37739734D01*
X1985436Y-37740676D01*
X1985438Y-37740677D01*
X2018220Y-37747197D01*
X2054933Y-37754500D01*
X2057343Y-37754500D01*
X2455581Y-37754499D01*
X2855066Y-37754499D01*
X2857418Y-37754031D01*
X2857420Y-37754031D01*
X2924566Y-37740676D01*
X2924567Y-37740676D01*
X2929301Y-37739734D01*
X2933316Y-37737051D01*
X2936247Y-37735837D01*
X2973751Y-37735836D01*
X2976683Y-37737050D01*
X2980699Y-37739734D01*
X2985436Y-37740676D01*
X2985438Y-37740677D01*
X3018220Y-37747197D01*
X3054933Y-37754500D01*
X3063747Y-37754500D01*
X3711343Y-37754499D01*
X3745990Y-37768851D01*
X3750552Y-37774113D01*
X3815002Y-37860110D01*
X3819890Y-37864998D01*
X3930741Y-37948076D01*
X3936810Y-37951399D01*
X4066919Y-38000175D01*
X4072846Y-38001584D01*
X4130589Y-38007856D01*
X4133237Y-38008000D01*
X4341253Y-38008000D01*
X4348145Y-38005145D01*
X4351000Y-37998253D01*
X4351000Y-36745000D01*
X4365352Y-36710352D01*
X4400000Y-36696000D01*
X4810000Y-36696000D01*
X4844648Y-36710352D01*
X4859000Y-36745000D01*
X4859000Y-37998252D01*
X4861855Y-38005144D01*
X4868747Y-38007999D01*
X5076757Y-38007999D01*
X5079407Y-38007856D01*
X5137153Y-38001584D01*
X5143085Y-38000173D01*
X5273190Y-37951399D01*
X5279259Y-37948076D01*
X5390110Y-37864998D01*
X5394998Y-37860110D01*
X5459448Y-37774114D01*
X5491711Y-37754995D01*
X5498658Y-37754500D01*
X6146278Y-37754499D01*
X6155066Y-37754499D01*
X6157418Y-37754031D01*
X6157420Y-37754031D01*
X6224566Y-37740676D01*
X6224567Y-37740676D01*
X6229301Y-37739734D01*
X6233316Y-37737051D01*
X6236247Y-37735837D01*
X6273751Y-37735836D01*
X6276683Y-37737050D01*
X6280699Y-37739734D01*
X6285436Y-37740676D01*
X6285438Y-37740677D01*
X6318220Y-37747197D01*
X6354933Y-37754500D01*
X6357343Y-37754500D01*
X6805654Y-37754499D01*
X7255066Y-37754499D01*
X7257418Y-37754031D01*
X7257420Y-37754031D01*
X7324566Y-37740676D01*
X7324567Y-37740676D01*
X7329301Y-37739734D01*
X7333316Y-37737051D01*
X7336247Y-37735837D01*
X7373751Y-37735836D01*
X7376683Y-37737050D01*
X7380699Y-37739734D01*
X7385436Y-37740676D01*
X7385438Y-37740677D01*
X7418220Y-37747197D01*
X7454933Y-37754500D01*
X7457343Y-37754500D01*
X7905654Y-37754499D01*
X8355066Y-37754499D01*
X8357418Y-37754031D01*
X8357420Y-37754031D01*
X8424566Y-37740676D01*
X8424567Y-37740676D01*
X8429301Y-37739734D01*
X8433316Y-37737051D01*
X8436247Y-37735837D01*
X8473751Y-37735836D01*
X8476683Y-37737050D01*
X8480699Y-37739734D01*
X8485436Y-37740676D01*
X8485438Y-37740677D01*
X8518220Y-37747197D01*
X8554933Y-37754500D01*
X8557343Y-37754500D01*
X9005654Y-37754499D01*
X9455066Y-37754499D01*
X9457418Y-37754031D01*
X9457420Y-37754031D01*
X9524566Y-37740676D01*
X9524567Y-37740676D01*
X9529301Y-37739734D01*
X9533316Y-37737051D01*
X9536247Y-37735837D01*
X9573751Y-37735836D01*
X9576683Y-37737050D01*
X9580699Y-37739734D01*
X9585436Y-37740676D01*
X9585438Y-37740677D01*
X9618220Y-37747197D01*
X9654933Y-37754500D01*
X9657343Y-37754500D01*
X10105654Y-37754499D01*
X10555066Y-37754499D01*
X10557418Y-37754031D01*
X10557420Y-37754031D01*
X10593403Y-37746874D01*
X10629301Y-37739734D01*
X10633312Y-37737054D01*
X10633314Y-37737053D01*
X10709473Y-37686164D01*
X10713484Y-37683484D01*
X10769734Y-37599301D01*
X10784500Y-37525067D01*
X10784499Y-36374934D01*
X10769734Y-36300699D01*
X10759393Y-36285222D01*
X10718865Y-36224569D01*
X10713484Y-36216516D01*
X10629301Y-36160266D01*
X10555067Y-36145500D01*
X10552657Y-36145500D01*
X10104346Y-36145501D01*
X9654934Y-36145501D01*
X9652582Y-36145969D01*
X9652580Y-36145969D01*
X9621439Y-36152163D01*
X9584656Y-36144846D01*
X9563821Y-36113663D01*
X9572089Y-36075509D01*
X9576029Y-36070026D01*
X9577755Y-36067624D01*
X9636842Y-35920641D01*
X9659162Y-35763807D01*
X9659307Y-35750000D01*
X9640276Y-35592733D01*
X9584280Y-35444546D01*
X9494553Y-35313992D01*
X9492348Y-35312028D01*
X9492345Y-35312024D01*
X9378485Y-35210580D01*
X9376275Y-35208611D01*
X9236274Y-35134484D01*
X9082633Y-35095892D01*
X9002177Y-35095470D01*
X8927174Y-35095077D01*
X8927170Y-35095077D01*
X8924221Y-35095062D01*
X8921352Y-35095751D01*
X8921350Y-35095751D01*
X8818976Y-35120329D01*
X8770184Y-35132043D01*
X8746205Y-35144419D01*
X8639637Y-35199423D01*
X8602265Y-35202561D01*
X8576781Y-35183635D01*
X8570262Y-35174149D01*
X8494553Y-35063992D01*
X8492348Y-35062028D01*
X8492345Y-35062024D01*
X8378485Y-34960580D01*
X8376275Y-34958611D01*
X8236274Y-34884484D01*
X8233408Y-34883764D01*
X8233400Y-34883761D01*
X8232683Y-34883581D01*
X8232418Y-34883384D01*
X8230649Y-34882705D01*
X8230839Y-34882211D01*
X8202577Y-34861217D01*
X8197104Y-34824116D01*
X8209978Y-34801411D01*
X8841989Y-34169400D01*
X8876637Y-34155048D01*
X8889071Y-34156652D01*
X8912897Y-34162902D01*
X8922821Y-34165506D01*
X9009647Y-34166870D01*
X9078264Y-34167948D01*
X9078267Y-34167948D01*
X9081215Y-34167994D01*
X9084092Y-34167335D01*
X9084093Y-34167335D01*
X9232750Y-34133288D01*
X9232751Y-34133288D01*
X9235631Y-34132628D01*
X9238270Y-34131301D01*
X9238272Y-34131300D01*
X9374510Y-34062780D01*
X9374511Y-34062779D01*
X9377154Y-34061450D01*
X9460500Y-33990266D01*
X9495371Y-33960483D01*
X9495372Y-33960482D01*
X9497613Y-33958568D01*
X9578590Y-33845877D01*
X9588329Y-33832324D01*
X9588330Y-33832322D01*
X9590054Y-33829923D01*
X9649141Y-33682940D01*
X9671461Y-33526106D01*
X9671606Y-33512299D01*
X9652575Y-33355032D01*
X9628904Y-33292390D01*
X9597624Y-33209610D01*
X9597623Y-33209609D01*
X9596579Y-33206845D01*
X9506852Y-33076291D01*
X9504647Y-33074327D01*
X9504644Y-33074323D01*
X9390784Y-32972879D01*
X9388574Y-32970910D01*
X9248573Y-32896783D01*
X9094932Y-32858191D01*
X9014897Y-32857772D01*
X8939474Y-32857376D01*
X8939470Y-32857376D01*
X8936520Y-32857361D01*
X8928956Y-32859177D01*
X8891915Y-32853308D01*
X8882872Y-32846178D01*
X4650638Y-28613944D01*
X4636286Y-28579296D01*
X4636775Y-28572392D01*
X4646636Y-28503102D01*
X4646863Y-28501508D01*
X4647008Y-28487701D01*
X4627977Y-28330434D01*
X4610245Y-28283508D01*
X4573026Y-28185012D01*
X4573025Y-28185011D01*
X4571981Y-28182247D01*
X4501225Y-28079296D01*
X4483929Y-28054130D01*
X4483929Y-28054129D01*
X4482254Y-28051693D01*
X4480049Y-28049729D01*
X4480046Y-28049725D01*
X4366186Y-27948281D01*
X4363976Y-27946312D01*
X4223975Y-27872185D01*
X4070334Y-27833593D01*
X3989878Y-27833171D01*
X3914875Y-27832778D01*
X3914871Y-27832778D01*
X3911922Y-27832763D01*
X3909053Y-27833452D01*
X3909051Y-27833452D01*
X3770314Y-27866760D01*
X3757885Y-27869744D01*
X3755257Y-27871100D01*
X3755258Y-27871100D01*
X3639582Y-27930805D01*
X3617115Y-27942401D01*
X3614895Y-27944338D01*
X3614893Y-27944339D01*
X3527589Y-28020500D01*
X3497740Y-28046539D01*
X3496042Y-28048954D01*
X3496041Y-28048956D01*
X3462535Y-28096631D01*
X3406651Y-28176145D01*
X3405580Y-28178893D01*
X3405578Y-28178896D01*
X3395864Y-28203811D01*
X3349107Y-28323738D01*
X3328430Y-28480797D01*
X3345814Y-28638254D01*
X3400254Y-28787020D01*
X3401899Y-28789468D01*
X3486962Y-28916056D01*
X3486965Y-28916059D01*
X3488609Y-28918506D01*
X3490796Y-28920496D01*
X3569826Y-28992407D01*
X3605777Y-29025120D01*
X3744994Y-29100709D01*
X3898223Y-29140908D01*
X3986395Y-29142293D01*
X4053666Y-29143350D01*
X4053669Y-29143350D01*
X4056617Y-29143396D01*
X4059494Y-29142737D01*
X4059495Y-29142737D01*
X4070948Y-29140114D01*
X4107926Y-29146368D01*
X4116535Y-29153229D01*
X8349398Y-33386092D01*
X8363750Y-33420740D01*
X8363331Y-33427136D01*
X8360252Y-33450527D01*
X8353028Y-33505395D01*
X8355822Y-33530699D01*
X8358358Y-33553674D01*
X8347895Y-33589688D01*
X8344302Y-33593699D01*
X6681594Y-35256407D01*
X6646946Y-35270759D01*
X6612298Y-35256407D01*
X6601110Y-35239080D01*
X6585328Y-35197316D01*
X6585323Y-35197307D01*
X6584280Y-35194546D01*
X6580225Y-35188645D01*
X6496228Y-35066429D01*
X6496228Y-35066428D01*
X6494553Y-35063992D01*
X6492348Y-35062028D01*
X6492345Y-35062024D01*
X6378485Y-34960580D01*
X6376275Y-34958611D01*
X6236274Y-34884484D01*
X6082633Y-34845892D01*
X6002177Y-34845470D01*
X5927174Y-34845077D01*
X5927170Y-34845077D01*
X5924221Y-34845062D01*
X5921352Y-34845751D01*
X5921350Y-34845751D01*
X5799520Y-34875000D01*
X5770184Y-34882043D01*
X5629414Y-34954700D01*
X5627194Y-34956637D01*
X5627192Y-34956638D01*
X5512701Y-35056516D01*
X5510039Y-35058838D01*
X5508341Y-35061253D01*
X5508340Y-35061255D01*
X5466822Y-35120329D01*
X5418950Y-35188444D01*
X5418065Y-35190714D01*
X5389168Y-35214363D01*
X5351851Y-35210637D01*
X5335262Y-35193871D01*
X5334280Y-35194546D01*
X5246228Y-35066429D01*
X5246228Y-35066428D01*
X5244553Y-35063992D01*
X5242348Y-35062028D01*
X5242345Y-35062024D01*
X5128485Y-34960580D01*
X5126275Y-34958611D01*
X4986274Y-34884484D01*
X4832633Y-34845892D01*
X4752177Y-34845470D01*
X4677174Y-34845077D01*
X4677170Y-34845077D01*
X4674221Y-34845062D01*
X4671352Y-34845751D01*
X4671350Y-34845751D01*
X4549520Y-34875000D01*
X4520184Y-34882043D01*
X4379414Y-34954700D01*
X4377194Y-34956637D01*
X4377192Y-34956638D01*
X4262701Y-35056516D01*
X4260039Y-35058838D01*
X4258341Y-35061253D01*
X4258340Y-35061255D01*
X4254704Y-35066429D01*
X4168950Y-35188444D01*
X4167879Y-35191192D01*
X4167877Y-35191195D01*
X4160297Y-35210637D01*
X4153926Y-35226980D01*
X4149736Y-35237726D01*
X4138731Y-35254575D01*
X3268989Y-36124317D01*
X3260920Y-36130834D01*
X3250339Y-36137666D01*
X3223760Y-36145501D01*
X3054934Y-36145501D01*
X3052582Y-36145969D01*
X3052580Y-36145969D01*
X2985434Y-36159324D01*
X2985433Y-36159324D01*
X2980699Y-36160266D01*
X2976684Y-36162949D01*
X2973753Y-36164163D01*
X2936249Y-36164164D01*
X2933317Y-36162950D01*
X2929301Y-36160266D01*
X2924564Y-36159324D01*
X2924562Y-36159323D01*
X2888564Y-36152163D01*
X2855067Y-36145500D01*
X2818944Y-36145500D01*
X2133499Y-36145501D01*
X2098851Y-36131149D01*
X2084499Y-36096501D01*
X2084499Y-35674934D01*
X2069734Y-35600699D01*
X2064412Y-35592733D01*
X2016164Y-35520527D01*
X2013484Y-35516516D01*
X1929301Y-35460266D01*
X1855067Y-35445500D01*
X1852657Y-35445500D01*
X1244113Y-35445501D01*
X634934Y-35445501D01*
X632582Y-35445969D01*
X632580Y-35445969D01*
X596597Y-35453126D01*
X560699Y-35460266D01*
X556688Y-35462946D01*
X556686Y-35462947D01*
X556685Y-35462948D01*
X476516Y-35516516D01*
X473836Y-35520527D01*
X432954Y-35581711D01*
X420266Y-35600699D01*
X405500Y-35674933D01*
X254500Y-35674933D01*
X254500Y-25424933D01*
X2065500Y-25424933D01*
X2065501Y-26825066D01*
X2080266Y-26899301D01*
X2136516Y-26983484D01*
X2140527Y-26986164D01*
X2190434Y-27019511D01*
X2220699Y-27039734D01*
X2294933Y-27054500D01*
X2297343Y-27054500D01*
X3271418Y-27054499D01*
X4245066Y-27054499D01*
X4247418Y-27054031D01*
X4247420Y-27054031D01*
X4286349Y-27046288D01*
X4319301Y-27039734D01*
X4323312Y-27037054D01*
X4323314Y-27037053D01*
X4399473Y-26986164D01*
X4403484Y-26983484D01*
X4459734Y-26899301D01*
X4474500Y-26825067D01*
X4474499Y-25424934D01*
X4474499Y-25424933D01*
X8035500Y-25424933D01*
X8035501Y-26825066D01*
X8050266Y-26899301D01*
X8106516Y-26983484D01*
X8110527Y-26986164D01*
X8160434Y-27019511D01*
X8190699Y-27039734D01*
X8264933Y-27054500D01*
X8267343Y-27054500D01*
X9241418Y-27054499D01*
X10215066Y-27054499D01*
X10217418Y-27054031D01*
X10217420Y-27054031D01*
X10256349Y-27046288D01*
X10289301Y-27039734D01*
X10293312Y-27037054D01*
X10293314Y-27037053D01*
X10369473Y-26986164D01*
X10373484Y-26983484D01*
X10429734Y-26899301D01*
X10444500Y-26825067D01*
X10444499Y-25424934D01*
X10429734Y-25350699D01*
X10421892Y-25338962D01*
X10376164Y-25270527D01*
X10373484Y-25266516D01*
X10289301Y-25210266D01*
X10215067Y-25195500D01*
X10212657Y-25195500D01*
X9238582Y-25195501D01*
X8264934Y-25195501D01*
X8262582Y-25195969D01*
X8262580Y-25195969D01*
X8226597Y-25203126D01*
X8190699Y-25210266D01*
X8186688Y-25212946D01*
X8186686Y-25212947D01*
X8170975Y-25223445D01*
X8106516Y-25266516D01*
X8103836Y-25270527D01*
X8058109Y-25338962D01*
X8050266Y-25350699D01*
X8035500Y-25424933D01*
X4474499Y-25424933D01*
X4459734Y-25350699D01*
X4451892Y-25338962D01*
X4406164Y-25270527D01*
X4403484Y-25266516D01*
X4319301Y-25210266D01*
X4245067Y-25195500D01*
X4242657Y-25195500D01*
X3268582Y-25195501D01*
X2294934Y-25195501D01*
X2292582Y-25195969D01*
X2292580Y-25195969D01*
X2256597Y-25203126D01*
X2220699Y-25210266D01*
X2216688Y-25212946D01*
X2216686Y-25212947D01*
X2200975Y-25223445D01*
X2136516Y-25266516D01*
X2133836Y-25270527D01*
X2088109Y-25338962D01*
X2080266Y-25350699D01*
X2065500Y-25424933D01*
X254500Y-25424933D01*
X254500Y-2302621D01*
X1613515Y-2302621D01*
X1630899Y-2460078D01*
X1685339Y-2608844D01*
X1686984Y-2611292D01*
X1772047Y-2737880D01*
X1772050Y-2737883D01*
X1773694Y-2740330D01*
X1890862Y-2846944D01*
X2030079Y-2922533D01*
X2183308Y-2962732D01*
X2260267Y-2963941D01*
X2338616Y-2965172D01*
X2373034Y-2980066D01*
X2386550Y-3008789D01*
X2391744Y-3055830D01*
X2396862Y-3102189D01*
X2451302Y-3250955D01*
X2452947Y-3253403D01*
X2538010Y-3379991D01*
X2538013Y-3379994D01*
X2539657Y-3382441D01*
X2541844Y-3384431D01*
X2647051Y-3480161D01*
X2656825Y-3489055D01*
X2796042Y-3564644D01*
X2949271Y-3604843D01*
X3037443Y-3606228D01*
X3104714Y-3607285D01*
X3104717Y-3607285D01*
X3107665Y-3607331D01*
X3110542Y-3606672D01*
X3110543Y-3606672D01*
X3259200Y-3572625D01*
X3259201Y-3572625D01*
X3262081Y-3571965D01*
X3264720Y-3570638D01*
X3264722Y-3570637D01*
X3359630Y-3522904D01*
X3397032Y-3520157D01*
X3422317Y-3539350D01*
X3499258Y-3653851D01*
X3499262Y-3653856D01*
X3500908Y-3656305D01*
X3546693Y-3697966D01*
X3562662Y-3731898D01*
X3557375Y-3756452D01*
X3510502Y-3848445D01*
X3495500Y-3943166D01*
X3495500Y-5181834D01*
X3501522Y-5219856D01*
X3509610Y-5270921D01*
X3510502Y-5276555D01*
X3568674Y-5390723D01*
X3659277Y-5481326D01*
X3669445Y-5486507D01*
X3681246Y-5492520D01*
X3705602Y-5521038D01*
X3708000Y-5536179D01*
X3708000Y-7521072D01*
X3693648Y-7555720D01*
X3676200Y-7566954D01*
X3583508Y-7601702D01*
X3583506Y-7601703D01*
X3580236Y-7602929D01*
X3577440Y-7605024D01*
X3577439Y-7605025D01*
X3490415Y-7670246D01*
X3464596Y-7689596D01*
X3462502Y-7692390D01*
X3438059Y-7725005D01*
X3377929Y-7805236D01*
X3327202Y-7940552D01*
X3320500Y-8002244D01*
X3320500Y-8997756D01*
X3327202Y-9059448D01*
X3340355Y-9094534D01*
X3375560Y-9188444D01*
X3377929Y-9194764D01*
X3464596Y-9310404D01*
X3580236Y-9397071D01*
X3583506Y-9398297D01*
X3583508Y-9398298D01*
X3676200Y-9433046D01*
X3703606Y-9458647D01*
X3708000Y-9478928D01*
X3708000Y-9521072D01*
X3693648Y-9555720D01*
X3676200Y-9566954D01*
X3583508Y-9601702D01*
X3583506Y-9601703D01*
X3580236Y-9602929D01*
X3464596Y-9689596D01*
X3462502Y-9692390D01*
X3382364Y-9799319D01*
X3377929Y-9805236D01*
X3327202Y-9940552D01*
X3320500Y-10002244D01*
X3320500Y-10997756D01*
X3322069Y-11012197D01*
X3326272Y-11050885D01*
X3327202Y-11059448D01*
X3355364Y-11134570D01*
X3376020Y-11189671D01*
X3377929Y-11194764D01*
X3380024Y-11197560D01*
X3380025Y-11197561D01*
X3431264Y-11265929D01*
X3464596Y-11310404D01*
X3467390Y-11312498D01*
X3576200Y-11394046D01*
X3580236Y-11397071D01*
X3583506Y-11398297D01*
X3583508Y-11398298D01*
X3676200Y-11433046D01*
X3703606Y-11458647D01*
X3708000Y-11478928D01*
X3708000Y-11521072D01*
X3693648Y-11555720D01*
X3676200Y-11566954D01*
X3583508Y-11601702D01*
X3583506Y-11601703D01*
X3580236Y-11602929D01*
X3577440Y-11605024D01*
X3577439Y-11605025D01*
X3501647Y-11661828D01*
X3464596Y-11689596D01*
X3462502Y-11692390D01*
X3429130Y-11736919D01*
X3377929Y-11805236D01*
X3376703Y-11808506D01*
X3376702Y-11808508D01*
X3359218Y-11855149D01*
X3327202Y-11940552D01*
X3326871Y-11943602D01*
X3326870Y-11943605D01*
X3326373Y-11948184D01*
X3320500Y-12002244D01*
X3320500Y-12997756D01*
X3321011Y-13002460D01*
X3326531Y-13053267D01*
X3327202Y-13059448D01*
X3377929Y-13194764D01*
X3464596Y-13310404D01*
X3580236Y-13397071D01*
X3583506Y-13398297D01*
X3583508Y-13398298D01*
X3676200Y-13433046D01*
X3703606Y-13458647D01*
X3708000Y-13478928D01*
X3708000Y-13521072D01*
X3693648Y-13555720D01*
X3676200Y-13566954D01*
X3583508Y-13601702D01*
X3583506Y-13601703D01*
X3580236Y-13602929D01*
X3464596Y-13689596D01*
X3377929Y-13805236D01*
X3376703Y-13808506D01*
X3376702Y-13808508D01*
X3362688Y-13845892D01*
X3327202Y-13940552D01*
X3320500Y-14002244D01*
X3320500Y-14997756D01*
X3323973Y-15029727D01*
X3325875Y-15047230D01*
X3327202Y-15059448D01*
X3353360Y-15129226D01*
X3360528Y-15148345D01*
X3377929Y-15194764D01*
X3380024Y-15197560D01*
X3380025Y-15197561D01*
X3404034Y-15229596D01*
X3464596Y-15310404D01*
X3467390Y-15312498D01*
X3576595Y-15394342D01*
X3580236Y-15397071D01*
X3583506Y-15398297D01*
X3583508Y-15398298D01*
X3676200Y-15433046D01*
X3703606Y-15458647D01*
X3708000Y-15478928D01*
X3708000Y-15521072D01*
X3693648Y-15555720D01*
X3676200Y-15566954D01*
X3583508Y-15601702D01*
X3583506Y-15601703D01*
X3580236Y-15602929D01*
X3464596Y-15689596D01*
X3377929Y-15805236D01*
X3376703Y-15808506D01*
X3376702Y-15808508D01*
X3362688Y-15845892D01*
X3327202Y-15940552D01*
X3320500Y-16002244D01*
X3320500Y-16071500D01*
X3306148Y-16106148D01*
X3271500Y-16120500D01*
X3059670Y-16120500D01*
X3025022Y-16106148D01*
X3019288Y-16099254D01*
X2996728Y-16066429D01*
X2995053Y-16063992D01*
X2992848Y-16062028D01*
X2992845Y-16062024D01*
X2878985Y-15960580D01*
X2876775Y-15958611D01*
X2736774Y-15884484D01*
X2583133Y-15845892D01*
X2502677Y-15845470D01*
X2427674Y-15845077D01*
X2427670Y-15845077D01*
X2424721Y-15845062D01*
X2421852Y-15845751D01*
X2421850Y-15845751D01*
X2273558Y-15881353D01*
X2270684Y-15882043D01*
X2129914Y-15954700D01*
X2127694Y-15956637D01*
X2127692Y-15956638D01*
X2063887Y-16012299D01*
X2010539Y-16058838D01*
X2008841Y-16061253D01*
X2008840Y-16061255D01*
X2005204Y-16066429D01*
X1919450Y-16188444D01*
X1918379Y-16191192D01*
X1918377Y-16191195D01*
X1912570Y-16206090D01*
X1861906Y-16336037D01*
X1861521Y-16338962D01*
X1847811Y-16443104D01*
X1841229Y-16493096D01*
X1858613Y-16650553D01*
X1913053Y-16799319D01*
X1914698Y-16801767D01*
X1999761Y-16928355D01*
X1999764Y-16928358D01*
X2001408Y-16930805D01*
X2003595Y-16932795D01*
X2102296Y-17022605D01*
X2118576Y-17037419D01*
X2257793Y-17113008D01*
X2411022Y-17153207D01*
X2499194Y-17154592D01*
X2566465Y-17155649D01*
X2566468Y-17155649D01*
X2569416Y-17155695D01*
X2572293Y-17155036D01*
X2572294Y-17155036D01*
X2720951Y-17120989D01*
X2720952Y-17120989D01*
X2723832Y-17120329D01*
X2726471Y-17119002D01*
X2726473Y-17119001D01*
X2862711Y-17050481D01*
X2862712Y-17050480D01*
X2865355Y-17049151D01*
X2923983Y-16999078D01*
X2983570Y-16948186D01*
X2983572Y-16948184D01*
X2985814Y-16946269D01*
X3019128Y-16899907D01*
X3051001Y-16880144D01*
X3058920Y-16879500D01*
X3271500Y-16879500D01*
X3306148Y-16893852D01*
X3320500Y-16928500D01*
X3320500Y-16997756D01*
X3320644Y-16999078D01*
X3325875Y-17047230D01*
X3327202Y-17059448D01*
X3357372Y-17139926D01*
X3375560Y-17188444D01*
X3377929Y-17194764D01*
X3464596Y-17310404D01*
X3467390Y-17312498D01*
X3562182Y-17383540D01*
X3580236Y-17397071D01*
X3583506Y-17398297D01*
X3583508Y-17398298D01*
X3635074Y-17417628D01*
X3715552Y-17447798D01*
X3718602Y-17448129D01*
X3718605Y-17448130D01*
X3745273Y-17451027D01*
X3777244Y-17454500D01*
X4397756Y-17454500D01*
X4443091Y-17449575D01*
X4456393Y-17448130D01*
X4456394Y-17448130D01*
X4459448Y-17447798D01*
X4462325Y-17446720D01*
X4464136Y-17446289D01*
X4501165Y-17452237D01*
X4510118Y-17459312D01*
X5049518Y-17998712D01*
X5056032Y-18006777D01*
X5065630Y-18021641D01*
X5068813Y-18024150D01*
X5095567Y-18045241D01*
X5099880Y-18049074D01*
X5104145Y-18053339D01*
X5114544Y-18060770D01*
X5121330Y-18065620D01*
X5123174Y-18067005D01*
X5161665Y-18097348D01*
X5164848Y-18099857D01*
X5168673Y-18101200D01*
X5172218Y-18103149D01*
X5172137Y-18103297D01*
X5173930Y-18104229D01*
X5174004Y-18104079D01*
X5177640Y-18105860D01*
X5180935Y-18108215D01*
X5184814Y-18109375D01*
X5231810Y-18123430D01*
X5234003Y-18124143D01*
X5284052Y-18141719D01*
X5287121Y-18141985D01*
X5287122Y-18141985D01*
X5288565Y-18142110D01*
X5288568Y-18142110D01*
X5289617Y-18142201D01*
X5289616Y-18142214D01*
X5294053Y-18142962D01*
X5294080Y-18142746D01*
X5298099Y-18143254D01*
X5301979Y-18144414D01*
X5306028Y-18144255D01*
X5357338Y-18142239D01*
X5359262Y-18142201D01*
X5872786Y-18142201D01*
X5907434Y-18156553D01*
X5921786Y-18191201D01*
X5918439Y-18209000D01*
X5873705Y-18323738D01*
X5853028Y-18480797D01*
X5870412Y-18638254D01*
X5924852Y-18787020D01*
X5926497Y-18789468D01*
X6011560Y-18916056D01*
X6011563Y-18916059D01*
X6013207Y-18918506D01*
X6116778Y-19012747D01*
X6132799Y-19048988D01*
X6132799Y-22931038D01*
X6116010Y-22967963D01*
X5997740Y-23071137D01*
X5996042Y-23073552D01*
X5996041Y-23073554D01*
X5976232Y-23101740D01*
X5906651Y-23200743D01*
X5905580Y-23203491D01*
X5905578Y-23203494D01*
X5868399Y-23298853D01*
X5849107Y-23348336D01*
X5848722Y-23351261D01*
X5829292Y-23498851D01*
X5828430Y-23505395D01*
X5845814Y-23662852D01*
X5900254Y-23811618D01*
X5901899Y-23814066D01*
X5986962Y-23940654D01*
X5986965Y-23940657D01*
X5988609Y-23943104D01*
X5990796Y-23945094D01*
X6064797Y-24012429D01*
X6105777Y-24049718D01*
X6244994Y-24125307D01*
X6398223Y-24165506D01*
X6486395Y-24166891D01*
X6553666Y-24167948D01*
X6553669Y-24167948D01*
X6556617Y-24167994D01*
X6559494Y-24167335D01*
X6559495Y-24167335D01*
X6708152Y-24133288D01*
X6708153Y-24133288D01*
X6711033Y-24132628D01*
X6713672Y-24131301D01*
X6713674Y-24131300D01*
X6849912Y-24062780D01*
X6849913Y-24062779D01*
X6852556Y-24061450D01*
X6955201Y-23973783D01*
X6970773Y-23960483D01*
X6970774Y-23960482D01*
X6973015Y-23958568D01*
X7019409Y-23894004D01*
X7051282Y-23874242D01*
X7087795Y-23882806D01*
X7107557Y-23914679D01*
X7108201Y-23922598D01*
X7108201Y-23952496D01*
X7091413Y-23989420D01*
X7047383Y-24027830D01*
X6997740Y-24071137D01*
X6996042Y-24073552D01*
X6996041Y-24073554D01*
X6959142Y-24126056D01*
X6906651Y-24200743D01*
X6849107Y-24348336D01*
X6828430Y-24505395D01*
X6845814Y-24662852D01*
X6900254Y-24811618D01*
X6901899Y-24814066D01*
X6986962Y-24940654D01*
X6986965Y-24940657D01*
X6988609Y-24943104D01*
X6990796Y-24945094D01*
X7069737Y-25016924D01*
X7105777Y-25049718D01*
X7244994Y-25125307D01*
X7398223Y-25165506D01*
X7486395Y-25166891D01*
X7553666Y-25167948D01*
X7553669Y-25167948D01*
X7556617Y-25167994D01*
X7559494Y-25167335D01*
X7559495Y-25167335D01*
X7708152Y-25133288D01*
X7708153Y-25133288D01*
X7711033Y-25132628D01*
X7713672Y-25131301D01*
X7713674Y-25131300D01*
X7849912Y-25062780D01*
X7849913Y-25062779D01*
X7852556Y-25061450D01*
X7973015Y-24958568D01*
X8053992Y-24845877D01*
X8063731Y-24832324D01*
X8063732Y-24832322D01*
X8065456Y-24829923D01*
X8119023Y-24696671D01*
X8123442Y-24685679D01*
X8123442Y-24685678D01*
X8124543Y-24682940D01*
X8146863Y-24526106D01*
X8147008Y-24512299D01*
X8127977Y-24355032D01*
X8071981Y-24206845D01*
X7982254Y-24076291D01*
X7980049Y-24074327D01*
X7980046Y-24074323D01*
X7883605Y-23988398D01*
X7867201Y-23951813D01*
X7867201Y-20067942D01*
X7884378Y-20030682D01*
X7914515Y-20004943D01*
X7997613Y-19933970D01*
X8058235Y-19849606D01*
X8088329Y-19807726D01*
X8088330Y-19807724D01*
X8090054Y-19805325D01*
X8149141Y-19658342D01*
X8171461Y-19501508D01*
X8171606Y-19487701D01*
X8152575Y-19330434D01*
X8108876Y-19214790D01*
X8097624Y-19185012D01*
X8097623Y-19185011D01*
X8096579Y-19182247D01*
X8006852Y-19051693D01*
X8004647Y-19049729D01*
X8004644Y-19049725D01*
X7890784Y-18948281D01*
X7888574Y-18946312D01*
X7748573Y-18872185D01*
X7594932Y-18833593D01*
X7514476Y-18833171D01*
X7439473Y-18832778D01*
X7439469Y-18832778D01*
X7436520Y-18832763D01*
X7433651Y-18833452D01*
X7433649Y-18833452D01*
X7390768Y-18843747D01*
X7282483Y-18869744D01*
X7279855Y-18871100D01*
X7279856Y-18871100D01*
X7158048Y-18933970D01*
X7141713Y-18942401D01*
X7139493Y-18944338D01*
X7139491Y-18944339D01*
X7064598Y-19009673D01*
X7022338Y-19046539D01*
X7020640Y-19048954D01*
X7020639Y-19048956D01*
X6980888Y-19105516D01*
X6949223Y-19125611D01*
X6912624Y-19117430D01*
X6892529Y-19085765D01*
X6891799Y-19077341D01*
X6891799Y-19046933D01*
X6906151Y-19012285D01*
X6908976Y-19009673D01*
X6995371Y-18935885D01*
X6995372Y-18935884D01*
X6997613Y-18933970D01*
X7062445Y-18843747D01*
X7088329Y-18807726D01*
X7088330Y-18807724D01*
X7090054Y-18805325D01*
X7149141Y-18658342D01*
X7171461Y-18501508D01*
X7171606Y-18487701D01*
X7152575Y-18330434D01*
X7106688Y-18209000D01*
X7097624Y-18185012D01*
X7097623Y-18185011D01*
X7096579Y-18182247D01*
X7021034Y-18072328D01*
X7013237Y-18035644D01*
X7026768Y-18009926D01*
X7236011Y-17800683D01*
X7244076Y-17794169D01*
X7258940Y-17784571D01*
X7282541Y-17754633D01*
X7286373Y-17750321D01*
X7290638Y-17746056D01*
X7291813Y-17744411D01*
X7291817Y-17744407D01*
X7302923Y-17728866D01*
X7304309Y-17727020D01*
X7334647Y-17688536D01*
X7334648Y-17688535D01*
X7337156Y-17685353D01*
X7338499Y-17681529D01*
X7340448Y-17677983D01*
X7340596Y-17678064D01*
X7341527Y-17676273D01*
X7341376Y-17676199D01*
X7343158Y-17672561D01*
X7345513Y-17669266D01*
X7348455Y-17659431D01*
X7360719Y-17618422D01*
X7361432Y-17616227D01*
X7377997Y-17569056D01*
X7379018Y-17566149D01*
X7379500Y-17560584D01*
X7379513Y-17560585D01*
X7380261Y-17556148D01*
X7380045Y-17556121D01*
X7380553Y-17552102D01*
X7381713Y-17548222D01*
X7381014Y-17530418D01*
X7379538Y-17492863D01*
X7379500Y-17490939D01*
X7379500Y-16226386D01*
X7393852Y-16191738D01*
X10460511Y-13125079D01*
X10468576Y-13118565D01*
X10483440Y-13108967D01*
X10507041Y-13079029D01*
X10510873Y-13074717D01*
X10515138Y-13070452D01*
X10523002Y-13059448D01*
X10527419Y-13053267D01*
X10528804Y-13051423D01*
X10559147Y-13012932D01*
X10559148Y-13012931D01*
X10561656Y-13009749D01*
X10562999Y-13005924D01*
X10564948Y-13002379D01*
X10565096Y-13002460D01*
X10566028Y-13000667D01*
X10565878Y-13000593D01*
X10567659Y-12996957D01*
X10570014Y-12993662D01*
X10585229Y-12942786D01*
X10585943Y-12940592D01*
X10602497Y-12893452D01*
X10603518Y-12890545D01*
X10604000Y-12884980D01*
X10604013Y-12884981D01*
X10604761Y-12880544D01*
X10604545Y-12880517D01*
X10605053Y-12876498D01*
X10606213Y-12872618D01*
X10604038Y-12817259D01*
X10604000Y-12815335D01*
X10604000Y-12059232D01*
X10618352Y-12024584D01*
X10621177Y-12021972D01*
X10624043Y-12019525D01*
X10709814Y-11946269D01*
X10753664Y-11885245D01*
X10800530Y-11820025D01*
X10800531Y-11820023D01*
X10802255Y-11817624D01*
X10861342Y-11670641D01*
X10883662Y-11513807D01*
X10883807Y-11500000D01*
X10864776Y-11342733D01*
X10815179Y-11211480D01*
X10809825Y-11197311D01*
X10809824Y-11197310D01*
X10808780Y-11194546D01*
X10792772Y-11171254D01*
X10784975Y-11134570D01*
X10805400Y-11103118D01*
X10833154Y-11094500D01*
X11749032Y-11094499D01*
X11775066Y-11094499D01*
X11777418Y-11094031D01*
X11777420Y-11094031D01*
X11813403Y-11086874D01*
X11849301Y-11079734D01*
X11853312Y-11077054D01*
X11853314Y-11077053D01*
X11929473Y-11026164D01*
X11933484Y-11023484D01*
X11989734Y-10939301D01*
X12004500Y-10865067D01*
X12004499Y-8614934D01*
X12002158Y-8603161D01*
X11995354Y-8568957D01*
X11989734Y-8540699D01*
X11984096Y-8532260D01*
X11936164Y-8460527D01*
X11933484Y-8456516D01*
X11849301Y-8400266D01*
X11775067Y-8385500D01*
X11028946Y-8385500D01*
X9928500Y-8385501D01*
X9893852Y-8371149D01*
X9879500Y-8336501D01*
X9879500Y-7186757D01*
X12092001Y-7186757D01*
X12092144Y-7189407D01*
X12098416Y-7247153D01*
X12099827Y-7253085D01*
X12148601Y-7383190D01*
X12151924Y-7389259D01*
X12235002Y-7500110D01*
X12239890Y-7504998D01*
X12350741Y-7588076D01*
X12356810Y-7591399D01*
X12486919Y-7640175D01*
X12492846Y-7641584D01*
X12550589Y-7647856D01*
X12553237Y-7648000D01*
X12590253Y-7648000D01*
X12597145Y-7645145D01*
X12600000Y-7638253D01*
X12600000Y-6649747D01*
X12597145Y-6642855D01*
X12590253Y-6640000D01*
X12101748Y-6640000D01*
X12094856Y-6642855D01*
X12092001Y-6649747D01*
X12092001Y-7186757D01*
X9879500Y-7186757D01*
X9879500Y-6177490D01*
X9893852Y-6142842D01*
X10127842Y-5908852D01*
X10162490Y-5894500D01*
X12043000Y-5894500D01*
X12077648Y-5908852D01*
X12092000Y-5943500D01*
X12092000Y-6330253D01*
X12094855Y-6337145D01*
X12101747Y-6340000D01*
X12796500Y-6340000D01*
X12831148Y-6354352D01*
X12845500Y-6389000D01*
X12845501Y-6798380D01*
X12845501Y-7165066D01*
X12860266Y-7239301D01*
X12862946Y-7243312D01*
X12862947Y-7243314D01*
X12869476Y-7253085D01*
X12891093Y-7285435D01*
X12891742Y-7286407D01*
X12900000Y-7313630D01*
X12900000Y-7638252D01*
X12902855Y-7645144D01*
X12909747Y-7647999D01*
X12946757Y-7647999D01*
X12949407Y-7647856D01*
X13007153Y-7641584D01*
X13013085Y-7640173D01*
X13143190Y-7591399D01*
X13149259Y-7588076D01*
X13260110Y-7504998D01*
X13264998Y-7500110D01*
X13329448Y-7414113D01*
X13361711Y-7394994D01*
X13368656Y-7394499D01*
X13425066Y-7394499D01*
X13427417Y-7394031D01*
X13427421Y-7394031D01*
X13490443Y-7381496D01*
X13509557Y-7381496D01*
X13574933Y-7394500D01*
X13577343Y-7394500D01*
X13750254Y-7394499D01*
X13925066Y-7394499D01*
X13927417Y-7394031D01*
X13927421Y-7394031D01*
X13990443Y-7381496D01*
X14009557Y-7381496D01*
X14074933Y-7394500D01*
X14077343Y-7394500D01*
X14250254Y-7394499D01*
X14425066Y-7394499D01*
X14427417Y-7394031D01*
X14427421Y-7394031D01*
X14490443Y-7381496D01*
X14509557Y-7381496D01*
X14574933Y-7394500D01*
X14631342Y-7394500D01*
X14665990Y-7408852D01*
X14670552Y-7414114D01*
X14735002Y-7500110D01*
X14739890Y-7504998D01*
X14850741Y-7588076D01*
X14856810Y-7591399D01*
X14986919Y-7640175D01*
X14992846Y-7641584D01*
X15050589Y-7647856D01*
X15053237Y-7648000D01*
X15090253Y-7648000D01*
X15097145Y-7645145D01*
X15100000Y-7638253D01*
X15100000Y-7313630D01*
X15108258Y-7286407D01*
X15108908Y-7285435D01*
X15139734Y-7239301D01*
X15154500Y-7165067D01*
X15154499Y-5814934D01*
X15139734Y-5740699D01*
X15137052Y-5736685D01*
X15135206Y-5732228D01*
X15135987Y-5731904D01*
X15129500Y-5710519D01*
X15129500Y-5176541D01*
X15130598Y-5166227D01*
X15133468Y-5152899D01*
X15133468Y-5152897D01*
X15134321Y-5148936D01*
X15129840Y-5111079D01*
X15129500Y-5105319D01*
X15129500Y-5099288D01*
X15126032Y-5078449D01*
X15125709Y-5076180D01*
X15121450Y-5040199D01*
X15119470Y-5023471D01*
X15117715Y-5019818D01*
X15116586Y-5015930D01*
X15116748Y-5015883D01*
X15116139Y-5013959D01*
X15115980Y-5014013D01*
X15114669Y-5010184D01*
X15114004Y-5006186D01*
X15088790Y-4959456D01*
X15087772Y-4957459D01*
X15064781Y-4909580D01*
X15061187Y-4905305D01*
X15061196Y-4905297D01*
X15058585Y-4901630D01*
X15058415Y-4901762D01*
X15055934Y-4898563D01*
X15054010Y-4894998D01*
X15013299Y-4857365D01*
X15011929Y-4856047D01*
X14169030Y-4013148D01*
X14154678Y-3978500D01*
X14169030Y-3943852D01*
X14203678Y-3929500D01*
X15082510Y-3929500D01*
X15117158Y-3943852D01*
X16675159Y-5501853D01*
X16689511Y-5536501D01*
X16675159Y-5571149D01*
X16640512Y-5585501D01*
X16574934Y-5585501D01*
X16572583Y-5585969D01*
X16572579Y-5585969D01*
X16509557Y-5598504D01*
X16490443Y-5598504D01*
X16425067Y-5585500D01*
X16422657Y-5585500D01*
X16249746Y-5585501D01*
X16074934Y-5585501D01*
X16072583Y-5585969D01*
X16072579Y-5585969D01*
X16009557Y-5598504D01*
X15990443Y-5598504D01*
X15925067Y-5585500D01*
X15868658Y-5585500D01*
X15834010Y-5571148D01*
X15829448Y-5565886D01*
X15764998Y-5479890D01*
X15760110Y-5475002D01*
X15649259Y-5391924D01*
X15643190Y-5388601D01*
X15513081Y-5339825D01*
X15507154Y-5338416D01*
X15449411Y-5332144D01*
X15446763Y-5332000D01*
X15409747Y-5332000D01*
X15402855Y-5334855D01*
X15400000Y-5341747D01*
X15400000Y-5666370D01*
X15391742Y-5693592D01*
X15360266Y-5740699D01*
X15345500Y-5814933D01*
X15345501Y-7165066D01*
X15360266Y-7239301D01*
X15362946Y-7243312D01*
X15362947Y-7243314D01*
X15369476Y-7253085D01*
X15391093Y-7285435D01*
X15391742Y-7286407D01*
X15400000Y-7313630D01*
X15400000Y-7638252D01*
X15402855Y-7645144D01*
X15409747Y-7647999D01*
X15446757Y-7647999D01*
X15449407Y-7647856D01*
X15507153Y-7641584D01*
X15513085Y-7640173D01*
X15643190Y-7591399D01*
X15649259Y-7588076D01*
X15760110Y-7504998D01*
X15764998Y-7500110D01*
X15782290Y-7477037D01*
X15814553Y-7457918D01*
X15850886Y-7467213D01*
X15870005Y-7499476D01*
X15870500Y-7506423D01*
X15870500Y-7599600D01*
X15861589Y-7627775D01*
X15818950Y-7688444D01*
X15817879Y-7691192D01*
X15817877Y-7691195D01*
X15810262Y-7710727D01*
X15761406Y-7836037D01*
X15740729Y-7993096D01*
X15758113Y-8150553D01*
X15812553Y-8299319D01*
X15814198Y-8301767D01*
X15899261Y-8428355D01*
X15899264Y-8428358D01*
X15900908Y-8430805D01*
X15903095Y-8432795D01*
X16009235Y-8529374D01*
X16018076Y-8537419D01*
X16157293Y-8613008D01*
X16310522Y-8653207D01*
X16398694Y-8654592D01*
X16465965Y-8655649D01*
X16465968Y-8655649D01*
X16468916Y-8655695D01*
X16471793Y-8655036D01*
X16471794Y-8655036D01*
X16620451Y-8620989D01*
X16620452Y-8620989D01*
X16623332Y-8620329D01*
X16625971Y-8619002D01*
X16625973Y-8619001D01*
X16762211Y-8550481D01*
X16762212Y-8550480D01*
X16764855Y-8549151D01*
X16885314Y-8446269D01*
X16939517Y-8370838D01*
X16976030Y-8320025D01*
X16976031Y-8320023D01*
X16977755Y-8317624D01*
X17036842Y-8170641D01*
X17059162Y-8013807D01*
X17059307Y-8000000D01*
X17040276Y-7842733D01*
X16995790Y-7725005D01*
X16985325Y-7697311D01*
X16985324Y-7697310D01*
X16984280Y-7694546D01*
X16894553Y-7563992D01*
X16892348Y-7562028D01*
X16892345Y-7562024D01*
X16800376Y-7480084D01*
X16784053Y-7446320D01*
X16796387Y-7410903D01*
X16832971Y-7394499D01*
X16925066Y-7394499D01*
X16927417Y-7394031D01*
X16927421Y-7394031D01*
X16990443Y-7381496D01*
X17009557Y-7381496D01*
X17074933Y-7394500D01*
X17077343Y-7394500D01*
X17250254Y-7394499D01*
X17425066Y-7394499D01*
X17427417Y-7394031D01*
X17427421Y-7394031D01*
X17490443Y-7381496D01*
X17509557Y-7381496D01*
X17574933Y-7394500D01*
X17577343Y-7394500D01*
X17750254Y-7394499D01*
X17925066Y-7394499D01*
X17927417Y-7394031D01*
X17927421Y-7394031D01*
X17990443Y-7381496D01*
X18009557Y-7381496D01*
X18074933Y-7394500D01*
X18077343Y-7394500D01*
X18250254Y-7394499D01*
X18425066Y-7394499D01*
X18427417Y-7394031D01*
X18427421Y-7394031D01*
X18490443Y-7381496D01*
X18509557Y-7381496D01*
X18574933Y-7394500D01*
X18577343Y-7394500D01*
X18750254Y-7394499D01*
X18925066Y-7394499D01*
X18927417Y-7394031D01*
X18927421Y-7394031D01*
X18990443Y-7381496D01*
X19009557Y-7381496D01*
X19074933Y-7394500D01*
X19077343Y-7394500D01*
X19250254Y-7394499D01*
X19425066Y-7394499D01*
X19427417Y-7394031D01*
X19427421Y-7394031D01*
X19490443Y-7381496D01*
X19509557Y-7381496D01*
X19574933Y-7394500D01*
X19577343Y-7394500D01*
X19750254Y-7394499D01*
X19925066Y-7394499D01*
X19927417Y-7394031D01*
X19927421Y-7394031D01*
X19990443Y-7381496D01*
X20009557Y-7381496D01*
X20074933Y-7394500D01*
X20077343Y-7394500D01*
X20250254Y-7394499D01*
X20425066Y-7394499D01*
X20427417Y-7394031D01*
X20427421Y-7394031D01*
X20490443Y-7381496D01*
X20509557Y-7381496D01*
X20574933Y-7394500D01*
X20577343Y-7394500D01*
X20750254Y-7394499D01*
X20925066Y-7394499D01*
X20927417Y-7394031D01*
X20927421Y-7394031D01*
X20990443Y-7381496D01*
X21009557Y-7381496D01*
X21074933Y-7394500D01*
X21077343Y-7394500D01*
X21250254Y-7394499D01*
X21425066Y-7394499D01*
X21427417Y-7394031D01*
X21427421Y-7394031D01*
X21490443Y-7381496D01*
X21509557Y-7381496D01*
X21574933Y-7394500D01*
X21577343Y-7394500D01*
X21750254Y-7394499D01*
X21925066Y-7394499D01*
X21927417Y-7394031D01*
X21927421Y-7394031D01*
X21990443Y-7381496D01*
X22009557Y-7381496D01*
X22074933Y-7394500D01*
X22077343Y-7394500D01*
X22250254Y-7394499D01*
X22425066Y-7394499D01*
X22427417Y-7394031D01*
X22427421Y-7394031D01*
X22490443Y-7381496D01*
X22509557Y-7381496D01*
X22574933Y-7394500D01*
X22577343Y-7394500D01*
X22750254Y-7394499D01*
X22925066Y-7394499D01*
X22927417Y-7394031D01*
X22927421Y-7394031D01*
X22990443Y-7381496D01*
X23009557Y-7381496D01*
X23074933Y-7394500D01*
X23077343Y-7394500D01*
X23250254Y-7394499D01*
X23425066Y-7394499D01*
X23427417Y-7394031D01*
X23427421Y-7394031D01*
X23490443Y-7381496D01*
X23509557Y-7381496D01*
X23574933Y-7394500D01*
X23577343Y-7394500D01*
X23750254Y-7394499D01*
X23925066Y-7394499D01*
X23927417Y-7394031D01*
X23927421Y-7394031D01*
X23990443Y-7381496D01*
X24009557Y-7381496D01*
X24074933Y-7394500D01*
X24077343Y-7394500D01*
X24250254Y-7394499D01*
X24425066Y-7394499D01*
X24427417Y-7394031D01*
X24427421Y-7394031D01*
X24490443Y-7381496D01*
X24509557Y-7381496D01*
X24574933Y-7394500D01*
X24577343Y-7394500D01*
X24750254Y-7394499D01*
X24925066Y-7394499D01*
X24927417Y-7394031D01*
X24927421Y-7394031D01*
X24990443Y-7381496D01*
X25009557Y-7381496D01*
X25074933Y-7394500D01*
X25077343Y-7394500D01*
X25250254Y-7394499D01*
X25425066Y-7394499D01*
X25427417Y-7394031D01*
X25427421Y-7394031D01*
X25490443Y-7381496D01*
X25509557Y-7381496D01*
X25574933Y-7394500D01*
X25577343Y-7394500D01*
X25750254Y-7394499D01*
X25925066Y-7394499D01*
X25927417Y-7394031D01*
X25927421Y-7394031D01*
X25990443Y-7381496D01*
X26009557Y-7381496D01*
X26074933Y-7394500D01*
X26077343Y-7394500D01*
X26250254Y-7394499D01*
X26425066Y-7394499D01*
X26427417Y-7394031D01*
X26427421Y-7394031D01*
X26490443Y-7381496D01*
X26509557Y-7381496D01*
X26574933Y-7394500D01*
X26577343Y-7394500D01*
X26750254Y-7394499D01*
X26925066Y-7394499D01*
X26927417Y-7394031D01*
X26927421Y-7394031D01*
X26990443Y-7381496D01*
X27009557Y-7381496D01*
X27074933Y-7394500D01*
X27077343Y-7394500D01*
X27250254Y-7394499D01*
X27425066Y-7394499D01*
X27427417Y-7394031D01*
X27427421Y-7394031D01*
X27490443Y-7381496D01*
X27509557Y-7381496D01*
X27574933Y-7394500D01*
X27577343Y-7394500D01*
X27750254Y-7394499D01*
X27925066Y-7394499D01*
X27927417Y-7394031D01*
X27927421Y-7394031D01*
X27990443Y-7381496D01*
X28009557Y-7381496D01*
X28074933Y-7394500D01*
X28077343Y-7394500D01*
X28250254Y-7394499D01*
X28425066Y-7394499D01*
X28427417Y-7394031D01*
X28427421Y-7394031D01*
X28490443Y-7381496D01*
X28509557Y-7381496D01*
X28574933Y-7394500D01*
X28577343Y-7394500D01*
X28750254Y-7394499D01*
X28925066Y-7394499D01*
X28927417Y-7394031D01*
X28927421Y-7394031D01*
X28990443Y-7381496D01*
X29009557Y-7381496D01*
X29074933Y-7394500D01*
X29077343Y-7394500D01*
X29250254Y-7394499D01*
X29425066Y-7394499D01*
X29427417Y-7394031D01*
X29427421Y-7394031D01*
X29490443Y-7381496D01*
X29509557Y-7381496D01*
X29574933Y-7394500D01*
X29577343Y-7394500D01*
X29750254Y-7394499D01*
X29925066Y-7394499D01*
X29927417Y-7394031D01*
X29927421Y-7394031D01*
X29990443Y-7381496D01*
X30009557Y-7381496D01*
X30074933Y-7394500D01*
X30077343Y-7394500D01*
X30250254Y-7394499D01*
X30425066Y-7394499D01*
X30427417Y-7394031D01*
X30427421Y-7394031D01*
X30490443Y-7381496D01*
X30509557Y-7381496D01*
X30574933Y-7394500D01*
X30577343Y-7394500D01*
X30750254Y-7394499D01*
X30925066Y-7394499D01*
X30927417Y-7394031D01*
X30927421Y-7394031D01*
X30990443Y-7381496D01*
X31009557Y-7381496D01*
X31074933Y-7394500D01*
X31130240Y-7394500D01*
X31412219Y-7394499D01*
X31446867Y-7408851D01*
X31461219Y-7443499D01*
X31457872Y-7461298D01*
X31424987Y-7545644D01*
X31421859Y-7553668D01*
X31401182Y-7710727D01*
X31418566Y-7868184D01*
X31473006Y-8016950D01*
X31474651Y-8019398D01*
X31559714Y-8145986D01*
X31559717Y-8145989D01*
X31561361Y-8148436D01*
X31678529Y-8255050D01*
X31817746Y-8330639D01*
X31970975Y-8370838D01*
X32059147Y-8372223D01*
X32126418Y-8373280D01*
X32126421Y-8373280D01*
X32129369Y-8373326D01*
X32132246Y-8372667D01*
X32132247Y-8372667D01*
X32280904Y-8338620D01*
X32280905Y-8338620D01*
X32283785Y-8337960D01*
X32286424Y-8336633D01*
X32286426Y-8336632D01*
X32422664Y-8268112D01*
X32422665Y-8268111D01*
X32425308Y-8266782D01*
X32489513Y-8211945D01*
X32543525Y-8165815D01*
X32543526Y-8165814D01*
X32545767Y-8163900D01*
X32638208Y-8035255D01*
X32697295Y-7888272D01*
X32719615Y-7731438D01*
X32719760Y-7717631D01*
X32700729Y-7560364D01*
X32677721Y-7499476D01*
X32663114Y-7460820D01*
X32664292Y-7423336D01*
X32691631Y-7397663D01*
X32708951Y-7394500D01*
X32916143Y-7394499D01*
X32925066Y-7394499D01*
X32927417Y-7394031D01*
X32927421Y-7394031D01*
X32990443Y-7381496D01*
X33009557Y-7381496D01*
X33074933Y-7394500D01*
X33131342Y-7394500D01*
X33165990Y-7408852D01*
X33170552Y-7414114D01*
X33235002Y-7500110D01*
X33239890Y-7504998D01*
X33350741Y-7588076D01*
X33356810Y-7591399D01*
X33486919Y-7640175D01*
X33492846Y-7641584D01*
X33550589Y-7647856D01*
X33553237Y-7648000D01*
X33590253Y-7648000D01*
X33597145Y-7645145D01*
X33600000Y-7638253D01*
X33600000Y-7313630D01*
X33608258Y-7286407D01*
X33608908Y-7285435D01*
X33639734Y-7239301D01*
X33654500Y-7165067D01*
X33654499Y-6388999D01*
X33668851Y-6354352D01*
X33703499Y-6340000D01*
X33796500Y-6340000D01*
X33831148Y-6354352D01*
X33845500Y-6389000D01*
X33845501Y-6798380D01*
X33845501Y-7165066D01*
X33860266Y-7239301D01*
X33862946Y-7243312D01*
X33862947Y-7243314D01*
X33887242Y-7279673D01*
X33895500Y-7306896D01*
X33895500Y-8582865D01*
X33881148Y-8617513D01*
X33658332Y-8840329D01*
X33623684Y-8854681D01*
X33611749Y-8853205D01*
X33582633Y-8845892D01*
X33502177Y-8845470D01*
X33427174Y-8845077D01*
X33427170Y-8845077D01*
X33424221Y-8845062D01*
X33421352Y-8845751D01*
X33421350Y-8845751D01*
X33362116Y-8859972D01*
X33270184Y-8882043D01*
X33267556Y-8883399D01*
X33267557Y-8883399D01*
X33144352Y-8946990D01*
X33129414Y-8954700D01*
X33010039Y-9058838D01*
X32918950Y-9188444D01*
X32917879Y-9191192D01*
X32917877Y-9191195D01*
X32916486Y-9194764D01*
X32861406Y-9336037D01*
X32861021Y-9338962D01*
X32846693Y-9447798D01*
X32840729Y-9493096D01*
X32858113Y-9650553D01*
X32912553Y-9799319D01*
X32914198Y-9801767D01*
X32999261Y-9928355D01*
X32999264Y-9928358D01*
X33000908Y-9930805D01*
X33003095Y-9932795D01*
X33086420Y-10008614D01*
X33118076Y-10037419D01*
X33257293Y-10113008D01*
X33410522Y-10153207D01*
X33498694Y-10154592D01*
X33565965Y-10155649D01*
X33565968Y-10155649D01*
X33568916Y-10155695D01*
X33571793Y-10155036D01*
X33571794Y-10155036D01*
X33720451Y-10120989D01*
X33720452Y-10120989D01*
X33723332Y-10120329D01*
X33725971Y-10119002D01*
X33725973Y-10119001D01*
X33862211Y-10050481D01*
X33862212Y-10050480D01*
X33864855Y-10049151D01*
X33921324Y-10000922D01*
X33969276Y-9959967D01*
X34004943Y-9948378D01*
X34034074Y-9960984D01*
X34118076Y-10037419D01*
X34257293Y-10113008D01*
X34410522Y-10153207D01*
X34498694Y-10154592D01*
X34565965Y-10155649D01*
X34565968Y-10155649D01*
X34568916Y-10155695D01*
X34571793Y-10155036D01*
X34571794Y-10155036D01*
X34720451Y-10120989D01*
X34720452Y-10120989D01*
X34723332Y-10120329D01*
X34824485Y-10069455D01*
X34861886Y-10066708D01*
X34890275Y-10091213D01*
X34895500Y-10113230D01*
X34895500Y-10282365D01*
X34881148Y-10317013D01*
X34658332Y-10539829D01*
X34623684Y-10554181D01*
X34611749Y-10552705D01*
X34582633Y-10545392D01*
X34502177Y-10544970D01*
X34427174Y-10544577D01*
X34427170Y-10544577D01*
X34424221Y-10544562D01*
X34421352Y-10545251D01*
X34421350Y-10545251D01*
X34343289Y-10563992D01*
X34270184Y-10581543D01*
X34129414Y-10654200D01*
X34127194Y-10656137D01*
X34127192Y-10656138D01*
X34079995Y-10697311D01*
X34010039Y-10758338D01*
X33918950Y-10887944D01*
X33917879Y-10890692D01*
X33917877Y-10890695D01*
X33898927Y-10939301D01*
X33861406Y-11035537D01*
X33840729Y-11192596D01*
X33858113Y-11350053D01*
X33912553Y-11498819D01*
X33914198Y-11501267D01*
X33999261Y-11627855D01*
X33999264Y-11627858D01*
X34000908Y-11630305D01*
X34003095Y-11632295D01*
X34092127Y-11713307D01*
X34118076Y-11736919D01*
X34257293Y-11812508D01*
X34410522Y-11852707D01*
X34498694Y-11854092D01*
X34565965Y-11855149D01*
X34565968Y-11855149D01*
X34568916Y-11855195D01*
X34571793Y-11854536D01*
X34571794Y-11854536D01*
X34720451Y-11820489D01*
X34720452Y-11820489D01*
X34723332Y-11819829D01*
X34725971Y-11818502D01*
X34725973Y-11818501D01*
X34862211Y-11749981D01*
X34862212Y-11749980D01*
X34864855Y-11748651D01*
X34975856Y-11653847D01*
X34983072Y-11647684D01*
X34983073Y-11647683D01*
X34985314Y-11645769D01*
X35033826Y-11578258D01*
X35076030Y-11519525D01*
X35076031Y-11519523D01*
X35077755Y-11517124D01*
X35136842Y-11370141D01*
X35159162Y-11213307D01*
X35159307Y-11199500D01*
X35153384Y-11150553D01*
X35145120Y-11082256D01*
X35155205Y-11046135D01*
X35159117Y-11041722D01*
X35311853Y-10888986D01*
X35346500Y-10874634D01*
X35381148Y-10888986D01*
X35395500Y-10923634D01*
X35395500Y-11406441D01*
X35394402Y-11416754D01*
X35390997Y-11432570D01*
X35391474Y-11436598D01*
X35392016Y-11441181D01*
X35389009Y-11464739D01*
X35361406Y-11535537D01*
X35360138Y-11545167D01*
X35344867Y-11661168D01*
X35340729Y-11692596D01*
X35358113Y-11850053D01*
X35412553Y-11998819D01*
X35414198Y-12001267D01*
X35499261Y-12127855D01*
X35499264Y-12127858D01*
X35500908Y-12130305D01*
X35618076Y-12236919D01*
X35757293Y-12312508D01*
X35910522Y-12352707D01*
X35998694Y-12354092D01*
X36065965Y-12355149D01*
X36065968Y-12355149D01*
X36068916Y-12355195D01*
X36071793Y-12354536D01*
X36071794Y-12354536D01*
X36220451Y-12320489D01*
X36220452Y-12320489D01*
X36223332Y-12319829D01*
X36225971Y-12318502D01*
X36225973Y-12318501D01*
X36362211Y-12249981D01*
X36362212Y-12249980D01*
X36364855Y-12248651D01*
X36485314Y-12145769D01*
X36563729Y-12036643D01*
X36576030Y-12019525D01*
X36576031Y-12019523D01*
X36577755Y-12017124D01*
X36636842Y-11870141D01*
X36659162Y-11713307D01*
X36659307Y-11699500D01*
X36640276Y-11542233D01*
X36626317Y-11505292D01*
X36585325Y-11396811D01*
X36585324Y-11396810D01*
X36584280Y-11394046D01*
X36494553Y-11263492D01*
X36492348Y-11261528D01*
X36492345Y-11261524D01*
X36378485Y-11160080D01*
X36376275Y-11158111D01*
X36236274Y-11083984D01*
X36208676Y-11077052D01*
X36141563Y-11060194D01*
X36111455Y-11037833D01*
X36104500Y-11012670D01*
X36104500Y-7638252D01*
X36400000Y-7638252D01*
X36402855Y-7645144D01*
X36409747Y-7647999D01*
X36446757Y-7647999D01*
X36449407Y-7647856D01*
X36494712Y-7642935D01*
X36505295Y-7642936D01*
X36550589Y-7647856D01*
X36553237Y-7648000D01*
X36590253Y-7648000D01*
X36597145Y-7645145D01*
X36600000Y-7638253D01*
X36600000Y-7638252D01*
X36900000Y-7638252D01*
X36902855Y-7645144D01*
X36909747Y-7647999D01*
X36946757Y-7647999D01*
X36949407Y-7647856D01*
X36994712Y-7642935D01*
X37005295Y-7642936D01*
X37050589Y-7647856D01*
X37053237Y-7648000D01*
X37090253Y-7648000D01*
X37097145Y-7645145D01*
X37100000Y-7638253D01*
X37100000Y-7638252D01*
X37400000Y-7638252D01*
X37402855Y-7645144D01*
X37409747Y-7647999D01*
X37446757Y-7647999D01*
X37449407Y-7647856D01*
X37507153Y-7641584D01*
X37513085Y-7640173D01*
X37643190Y-7591399D01*
X37649259Y-7588076D01*
X37760110Y-7504998D01*
X37764998Y-7500110D01*
X37848076Y-7389259D01*
X37851399Y-7383190D01*
X37900175Y-7253081D01*
X37901584Y-7247154D01*
X37907856Y-7189411D01*
X37908000Y-7186763D01*
X37908000Y-6649747D01*
X37905145Y-6642855D01*
X37898253Y-6640000D01*
X37409747Y-6640000D01*
X37402855Y-6642855D01*
X37400000Y-6649747D01*
X37400000Y-7638252D01*
X37100000Y-7638252D01*
X37100000Y-6649747D01*
X37097145Y-6642855D01*
X37090253Y-6640000D01*
X36909747Y-6640000D01*
X36902855Y-6642855D01*
X36900000Y-6649747D01*
X36900000Y-7638252D01*
X36600000Y-7638252D01*
X36600000Y-6649747D01*
X36597145Y-6642855D01*
X36590253Y-6640000D01*
X36409747Y-6640000D01*
X36402855Y-6642855D01*
X36400000Y-6649747D01*
X36400000Y-7638252D01*
X36104500Y-7638252D01*
X36104500Y-7306896D01*
X36112758Y-7279673D01*
X36137052Y-7243315D01*
X36139734Y-7239301D01*
X36154500Y-7165067D01*
X36154499Y-6388999D01*
X36168851Y-6354352D01*
X36203499Y-6340000D01*
X37843010Y-6340000D01*
X37877658Y-6354352D01*
X39825158Y-8301852D01*
X39839510Y-8336500D01*
X39825158Y-8371148D01*
X39790510Y-8385500D01*
X38258458Y-8385501D01*
X38224934Y-8385501D01*
X38222582Y-8385969D01*
X38222580Y-8385969D01*
X38186597Y-8393126D01*
X38150699Y-8400266D01*
X38146688Y-8402946D01*
X38146686Y-8402947D01*
X38085434Y-8443875D01*
X38066516Y-8456516D01*
X38010266Y-8540699D01*
X37995500Y-8614933D01*
X37995501Y-10865066D01*
X37995969Y-10867418D01*
X37995969Y-10867420D01*
X38000598Y-10890695D01*
X38010266Y-10939301D01*
X38066516Y-11023484D01*
X38150699Y-11079734D01*
X38224933Y-11094500D01*
X38315369Y-11094500D01*
X39918387Y-11094499D01*
X39953035Y-11108851D01*
X39967091Y-11138122D01*
X39972972Y-11191392D01*
X40027412Y-11340158D01*
X40029057Y-11342606D01*
X40114120Y-11469194D01*
X40114123Y-11469197D01*
X40115767Y-11471644D01*
X40117954Y-11473634D01*
X40207419Y-11555040D01*
X40232935Y-11578258D01*
X40372152Y-11653847D01*
X40525381Y-11694046D01*
X40613553Y-11695431D01*
X40680824Y-11696488D01*
X40680827Y-11696488D01*
X40683775Y-11696534D01*
X40686652Y-11695875D01*
X40686653Y-11695875D01*
X40835310Y-11661828D01*
X40835311Y-11661828D01*
X40838191Y-11661168D01*
X40840830Y-11659841D01*
X40840832Y-11659840D01*
X40977070Y-11591320D01*
X40977071Y-11591319D01*
X40979714Y-11589990D01*
X41083595Y-11501267D01*
X41097931Y-11489023D01*
X41097932Y-11489022D01*
X41100173Y-11487108D01*
X41165058Y-11396811D01*
X41190889Y-11360864D01*
X41190890Y-11360862D01*
X41192614Y-11358463D01*
X41251701Y-11211480D01*
X41274021Y-11054646D01*
X41274061Y-11050885D01*
X41274149Y-11042446D01*
X41274166Y-11040839D01*
X41255135Y-10883572D01*
X41251758Y-10874634D01*
X41200184Y-10738150D01*
X41200183Y-10738149D01*
X41199139Y-10735385D01*
X41109412Y-10604831D01*
X41107207Y-10602867D01*
X41107204Y-10602863D01*
X41010763Y-10516938D01*
X40994359Y-10480353D01*
X40994359Y-9899101D01*
X42992001Y-9899101D01*
X42992132Y-9901620D01*
X43002691Y-10003389D01*
X43003819Y-10008614D01*
X43058003Y-10171026D01*
X43060406Y-10176156D01*
X43150418Y-10321612D01*
X43153935Y-10326049D01*
X43274995Y-10446899D01*
X43279431Y-10450403D01*
X43425048Y-10540162D01*
X43430182Y-10542556D01*
X43592698Y-10596460D01*
X43597904Y-10597577D01*
X43698399Y-10607873D01*
X43700883Y-10608000D01*
X43736253Y-10608000D01*
X43743145Y-10605145D01*
X43746000Y-10598253D01*
X43746000Y-10598252D01*
X44254000Y-10598252D01*
X44256855Y-10605144D01*
X44263747Y-10607999D01*
X44299101Y-10607999D01*
X44301620Y-10607868D01*
X44403389Y-10597309D01*
X44408614Y-10596181D01*
X44571026Y-10541997D01*
X44576156Y-10539594D01*
X44721612Y-10449582D01*
X44726049Y-10446065D01*
X44846899Y-10325005D01*
X44850403Y-10320569D01*
X44940162Y-10174952D01*
X44942556Y-10169818D01*
X44996460Y-10007302D01*
X44997577Y-10002096D01*
X45007873Y-9901601D01*
X45008000Y-9899117D01*
X45008000Y-9897756D01*
X45245500Y-9897756D01*
X45245644Y-9899078D01*
X45249307Y-9932795D01*
X45252202Y-9959448D01*
X45270633Y-10008614D01*
X45301598Y-10091213D01*
X45302929Y-10094764D01*
X45305024Y-10097560D01*
X45305025Y-10097561D01*
X45348594Y-10155695D01*
X45389596Y-10210404D01*
X45392390Y-10212498D01*
X45485614Y-10282365D01*
X45505236Y-10297071D01*
X45508506Y-10298297D01*
X45508508Y-10298298D01*
X45588700Y-10328360D01*
X45616106Y-10353961D01*
X45620500Y-10374242D01*
X45620500Y-10440197D01*
X45603712Y-10477121D01*
X45525452Y-10545392D01*
X45510039Y-10558838D01*
X45508341Y-10561253D01*
X45508340Y-10561255D01*
X45477714Y-10604831D01*
X45418950Y-10688444D01*
X45417879Y-10691192D01*
X45417877Y-10691195D01*
X45390757Y-10760755D01*
X45361406Y-10836037D01*
X45340729Y-10993096D01*
X45358113Y-11150553D01*
X45412553Y-11299319D01*
X45414198Y-11301767D01*
X45499261Y-11428355D01*
X45499264Y-11428358D01*
X45500908Y-11430805D01*
X45503095Y-11432795D01*
X45612987Y-11532788D01*
X45618076Y-11537419D01*
X45757293Y-11613008D01*
X45910522Y-11653207D01*
X45998694Y-11654592D01*
X46065965Y-11655649D01*
X46065968Y-11655649D01*
X46068916Y-11655695D01*
X46071793Y-11655036D01*
X46071794Y-11655036D01*
X46220451Y-11620989D01*
X46220452Y-11620989D01*
X46223332Y-11620329D01*
X46225971Y-11619002D01*
X46225973Y-11619001D01*
X46362211Y-11550481D01*
X46362212Y-11550480D01*
X46364855Y-11549151D01*
X46455604Y-11471644D01*
X46483072Y-11448184D01*
X46483073Y-11448183D01*
X46485314Y-11446269D01*
X46529164Y-11385245D01*
X46576030Y-11320025D01*
X46576031Y-11320023D01*
X46577755Y-11317624D01*
X46636842Y-11170641D01*
X46659162Y-11013807D01*
X46659307Y-11000000D01*
X46640276Y-10842733D01*
X46584280Y-10694546D01*
X46524798Y-10607999D01*
X46496228Y-10566429D01*
X46496228Y-10566428D01*
X46494553Y-10563992D01*
X46492348Y-10562028D01*
X46492345Y-10562024D01*
X46395904Y-10476099D01*
X46379500Y-10439514D01*
X46379500Y-10374242D01*
X46393852Y-10339594D01*
X46411300Y-10328360D01*
X46491492Y-10298298D01*
X46491494Y-10298297D01*
X46494764Y-10297071D01*
X46514387Y-10282365D01*
X46607610Y-10212498D01*
X46610404Y-10210404D01*
X46651406Y-10155695D01*
X46694975Y-10097561D01*
X46694976Y-10097560D01*
X46697071Y-10094764D01*
X46698403Y-10091213D01*
X46729367Y-10008614D01*
X46747798Y-9959448D01*
X46750694Y-9932795D01*
X46754356Y-9899078D01*
X46754500Y-9897756D01*
X46754500Y-6802244D01*
X46747798Y-6740552D01*
X46697071Y-6605236D01*
X46610404Y-6489596D01*
X46494764Y-6402929D01*
X46491494Y-6401703D01*
X46491492Y-6401702D01*
X46417464Y-6373951D01*
X46359448Y-6352202D01*
X46356398Y-6351871D01*
X46356395Y-6351870D01*
X46329727Y-6348973D01*
X46297756Y-6345500D01*
X45702244Y-6345500D01*
X45670273Y-6348973D01*
X45643605Y-6351870D01*
X45643602Y-6351871D01*
X45640552Y-6352202D01*
X45582536Y-6373951D01*
X45508508Y-6401702D01*
X45508506Y-6401703D01*
X45505236Y-6402929D01*
X45389596Y-6489596D01*
X45302929Y-6605236D01*
X45252202Y-6740552D01*
X45245500Y-6802244D01*
X45245500Y-9897756D01*
X45008000Y-9897756D01*
X45008000Y-8613747D01*
X45005145Y-8606855D01*
X44998253Y-8604000D01*
X44263747Y-8604000D01*
X44256855Y-8606855D01*
X44254000Y-8613747D01*
X44254000Y-10598252D01*
X43746000Y-10598252D01*
X43746000Y-8613747D01*
X43743145Y-8606855D01*
X43736253Y-8604000D01*
X43001748Y-8604000D01*
X42994856Y-8606855D01*
X42992001Y-8613747D01*
X42992001Y-9899101D01*
X40994359Y-9899101D01*
X40994359Y-8600584D01*
X40995457Y-8590270D01*
X40998326Y-8576946D01*
X40998326Y-8576945D01*
X40999179Y-8572983D01*
X40994699Y-8535131D01*
X40994359Y-8529374D01*
X40994359Y-8523335D01*
X40990890Y-8502495D01*
X40990565Y-8500208D01*
X40984805Y-8451541D01*
X40984329Y-8447518D01*
X40982575Y-8443866D01*
X40981445Y-8439976D01*
X40981606Y-8439929D01*
X40980998Y-8438006D01*
X40980839Y-8438060D01*
X40979528Y-8434231D01*
X40978863Y-8430233D01*
X40953649Y-8383503D01*
X40952631Y-8381506D01*
X40929640Y-8333627D01*
X40926046Y-8329351D01*
X40926055Y-8329343D01*
X40923445Y-8325676D01*
X40923274Y-8325809D01*
X40920793Y-8322610D01*
X40918869Y-8319045D01*
X40878188Y-8281440D01*
X40876801Y-8280106D01*
X40682948Y-8086253D01*
X42992000Y-8086253D01*
X42994855Y-8093145D01*
X43001747Y-8096000D01*
X43736253Y-8096000D01*
X43743145Y-8093145D01*
X43746000Y-8086253D01*
X44254000Y-8086253D01*
X44256855Y-8093145D01*
X44263747Y-8096000D01*
X44998252Y-8096000D01*
X45005144Y-8093145D01*
X45007999Y-8086253D01*
X45007999Y-6800899D01*
X45007868Y-6798380D01*
X44997309Y-6696611D01*
X44996181Y-6691386D01*
X44941997Y-6528974D01*
X44939594Y-6523844D01*
X44849582Y-6378388D01*
X44846065Y-6373951D01*
X44725005Y-6253101D01*
X44720569Y-6249597D01*
X44574952Y-6159838D01*
X44569818Y-6157444D01*
X44407302Y-6103540D01*
X44402096Y-6102423D01*
X44301601Y-6092127D01*
X44299117Y-6092000D01*
X44263747Y-6092000D01*
X44256855Y-6094855D01*
X44254000Y-6101747D01*
X44254000Y-8086253D01*
X43746000Y-8086253D01*
X43746000Y-6101748D01*
X43743145Y-6094856D01*
X43736253Y-6092001D01*
X43700899Y-6092001D01*
X43698380Y-6092132D01*
X43596611Y-6102691D01*
X43591386Y-6103819D01*
X43428974Y-6158003D01*
X43423844Y-6160406D01*
X43278388Y-6250418D01*
X43273951Y-6253935D01*
X43153101Y-6374995D01*
X43149597Y-6379431D01*
X43059838Y-6525048D01*
X43057444Y-6530182D01*
X43003540Y-6692698D01*
X43002423Y-6697904D01*
X42992127Y-6798399D01*
X42992000Y-6800883D01*
X42992000Y-8086253D01*
X40682948Y-8086253D01*
X37875683Y-5278989D01*
X37869169Y-5270924D01*
X37859571Y-5256060D01*
X37829633Y-5232459D01*
X37825321Y-5228627D01*
X37821056Y-5224362D01*
X37803871Y-5212081D01*
X37802027Y-5210696D01*
X37763536Y-5180353D01*
X37763535Y-5180352D01*
X37760353Y-5177844D01*
X37756528Y-5176501D01*
X37752983Y-5174552D01*
X37753064Y-5174404D01*
X37751271Y-5173472D01*
X37751197Y-5173622D01*
X37747561Y-5171841D01*
X37744266Y-5169486D01*
X37693390Y-5154271D01*
X37691196Y-5153557D01*
X37678037Y-5148936D01*
X37641149Y-5135982D01*
X37638080Y-5135716D01*
X37638079Y-5135716D01*
X37636636Y-5135591D01*
X37636633Y-5135591D01*
X37635584Y-5135500D01*
X37635585Y-5135487D01*
X37631148Y-5134739D01*
X37631121Y-5134955D01*
X37627102Y-5134447D01*
X37623222Y-5133287D01*
X37619173Y-5133446D01*
X37567863Y-5135462D01*
X37565939Y-5135500D01*
X31639993Y-5135500D01*
X31605345Y-5121148D01*
X31590993Y-5086500D01*
X31594529Y-5068224D01*
X31610241Y-5029138D01*
X31611342Y-5026399D01*
X31613113Y-5013959D01*
X31633435Y-4871159D01*
X31633662Y-4869565D01*
X31633807Y-4855758D01*
X31614776Y-4698491D01*
X31558780Y-4550304D01*
X31469053Y-4419750D01*
X31466848Y-4417786D01*
X31466845Y-4417782D01*
X31352985Y-4316338D01*
X31350775Y-4314369D01*
X31210774Y-4240242D01*
X31057133Y-4201650D01*
X30976677Y-4201228D01*
X30901674Y-4200835D01*
X30901670Y-4200835D01*
X30898721Y-4200820D01*
X30895852Y-4201509D01*
X30895850Y-4201509D01*
X30747887Y-4237032D01*
X30744684Y-4237801D01*
X30742056Y-4239157D01*
X30742057Y-4239157D01*
X30705355Y-4258100D01*
X30667983Y-4261238D01*
X30639339Y-4237032D01*
X30635215Y-4218115D01*
X30634320Y-4218221D01*
X30629840Y-4180372D01*
X30629500Y-4174612D01*
X30629500Y-4168573D01*
X30626029Y-4147721D01*
X30625704Y-4145434D01*
X30620061Y-4097755D01*
X30619469Y-4092756D01*
X30617717Y-4089106D01*
X30616586Y-4085214D01*
X30616747Y-4085167D01*
X30616139Y-4083244D01*
X30615981Y-4083298D01*
X30614669Y-4079466D01*
X30614004Y-4075471D01*
X30588781Y-4028724D01*
X30587763Y-4026727D01*
X30564780Y-3978865D01*
X30561186Y-3974589D01*
X30561197Y-3974580D01*
X30558587Y-3970913D01*
X30558415Y-3971047D01*
X30555934Y-3967848D01*
X30554010Y-3964283D01*
X30513316Y-3926666D01*
X30511929Y-3925332D01*
X30113287Y-3526690D01*
X30106773Y-3518625D01*
X30097175Y-3503761D01*
X30067237Y-3480160D01*
X30062925Y-3476328D01*
X30058660Y-3472063D01*
X30041475Y-3459782D01*
X30039631Y-3458397D01*
X30001140Y-3428054D01*
X30001139Y-3428053D01*
X29997957Y-3425545D01*
X29994132Y-3424202D01*
X29990587Y-3422253D01*
X29990668Y-3422105D01*
X29988875Y-3421173D01*
X29988801Y-3421323D01*
X29985165Y-3419542D01*
X29981870Y-3417187D01*
X29930994Y-3401972D01*
X29928800Y-3401258D01*
X29878753Y-3383683D01*
X29875684Y-3383417D01*
X29875683Y-3383417D01*
X29874240Y-3383292D01*
X29874237Y-3383292D01*
X29873188Y-3383201D01*
X29873189Y-3383188D01*
X29868752Y-3382440D01*
X29868725Y-3382656D01*
X29864706Y-3382148D01*
X29860826Y-3380988D01*
X29856777Y-3381147D01*
X29805467Y-3383163D01*
X29803543Y-3383201D01*
X29601185Y-3383201D01*
X29566537Y-3368849D01*
X27611677Y-1413989D01*
X27605163Y-1405924D01*
X27595565Y-1391060D01*
X27565627Y-1367459D01*
X27561315Y-1363627D01*
X27557050Y-1359362D01*
X27539865Y-1347081D01*
X27538021Y-1345696D01*
X27499530Y-1315353D01*
X27499529Y-1315352D01*
X27496347Y-1312844D01*
X27492522Y-1311501D01*
X27488977Y-1309552D01*
X27489058Y-1309404D01*
X27487265Y-1308472D01*
X27487191Y-1308622D01*
X27483555Y-1306841D01*
X27480260Y-1304486D01*
X27429384Y-1289271D01*
X27427190Y-1288557D01*
X27380050Y-1272003D01*
X27380051Y-1272003D01*
X27377143Y-1270982D01*
X27374074Y-1270716D01*
X27374073Y-1270716D01*
X27372630Y-1270591D01*
X27372627Y-1270591D01*
X27371578Y-1270500D01*
X27371579Y-1270487D01*
X27367142Y-1269739D01*
X27367115Y-1269955D01*
X27363096Y-1269447D01*
X27359216Y-1268287D01*
X27355167Y-1268446D01*
X27303857Y-1270462D01*
X27301933Y-1270500D01*
X5690029Y-1270500D01*
X5655381Y-1256148D01*
X5641384Y-1227388D01*
X5640631Y-1221166D01*
X5640631Y-1221165D01*
X5640276Y-1218233D01*
X5596447Y-1102245D01*
X40645500Y-1102245D01*
X40645501Y-4097754D01*
X40652202Y-4159447D01*
X40667712Y-4200820D01*
X40689185Y-4258100D01*
X40702929Y-4294764D01*
X40789596Y-4410404D01*
X40905236Y-4497071D01*
X40908506Y-4498297D01*
X40908508Y-4498298D01*
X40960362Y-4517736D01*
X41040553Y-4547798D01*
X41043603Y-4548129D01*
X41043606Y-4548130D01*
X41070274Y-4551027D01*
X41102245Y-4554500D01*
X41649793Y-4554500D01*
X42197754Y-4554499D01*
X42259447Y-4547798D01*
X42322794Y-4524051D01*
X42391492Y-4498298D01*
X42391494Y-4498297D01*
X42394764Y-4497071D01*
X42510404Y-4410404D01*
X42597071Y-4294764D01*
X42610816Y-4258100D01*
X42631977Y-4201650D01*
X42647798Y-4159447D01*
X42648131Y-4156387D01*
X42654356Y-4099077D01*
X42654500Y-4097755D01*
X42654499Y-1102246D01*
X42654499Y-1102245D01*
X47345500Y-1102245D01*
X47345501Y-4097754D01*
X47352202Y-4159447D01*
X47367712Y-4200820D01*
X47389185Y-4258100D01*
X47402929Y-4294764D01*
X47489596Y-4410404D01*
X47605236Y-4497071D01*
X47608506Y-4498297D01*
X47608508Y-4498298D01*
X47660362Y-4517736D01*
X47740553Y-4547798D01*
X47743603Y-4548129D01*
X47743606Y-4548130D01*
X47770274Y-4551027D01*
X47802245Y-4554500D01*
X48349793Y-4554500D01*
X48897754Y-4554499D01*
X48959447Y-4547798D01*
X49022794Y-4524051D01*
X49091492Y-4498298D01*
X49091494Y-4498297D01*
X49094764Y-4497071D01*
X49210404Y-4410404D01*
X49297071Y-4294764D01*
X49310816Y-4258100D01*
X49331977Y-4201650D01*
X49347798Y-4159447D01*
X49348131Y-4156387D01*
X49354356Y-4099077D01*
X49354500Y-4097755D01*
X49354499Y-1102246D01*
X49347798Y-1040553D01*
X49324051Y-977206D01*
X49298298Y-908508D01*
X49298297Y-908506D01*
X49297071Y-905236D01*
X49210404Y-789596D01*
X49094764Y-702929D01*
X49091494Y-701703D01*
X49091492Y-701702D01*
X49039638Y-682264D01*
X48959447Y-652202D01*
X48956397Y-651871D01*
X48956394Y-651870D01*
X48929726Y-648973D01*
X48897755Y-645500D01*
X48350207Y-645500D01*
X47802246Y-645501D01*
X47740553Y-652202D01*
X47677206Y-675949D01*
X47608508Y-701702D01*
X47608506Y-701703D01*
X47605236Y-702929D01*
X47489596Y-789596D01*
X47402929Y-905236D01*
X47352202Y-1040553D01*
X47351871Y-1043603D01*
X47351870Y-1043606D01*
X47349923Y-1061527D01*
X47345500Y-1102245D01*
X42654499Y-1102245D01*
X42647798Y-1040553D01*
X42624051Y-977206D01*
X42598298Y-908508D01*
X42598297Y-908506D01*
X42597071Y-905236D01*
X42510404Y-789596D01*
X42394764Y-702929D01*
X42391494Y-701703D01*
X42391492Y-701702D01*
X42339638Y-682264D01*
X42259447Y-652202D01*
X42256397Y-651871D01*
X42256394Y-651870D01*
X42229726Y-648973D01*
X42197755Y-645500D01*
X41650207Y-645500D01*
X41102246Y-645501D01*
X41040553Y-652202D01*
X40977206Y-675949D01*
X40908508Y-701702D01*
X40908506Y-701703D01*
X40905236Y-702929D01*
X40789596Y-789596D01*
X40702929Y-905236D01*
X40652202Y-1040553D01*
X40651871Y-1043603D01*
X40651870Y-1043606D01*
X40649923Y-1061527D01*
X40645500Y-1102245D01*
X5596447Y-1102245D01*
X5584280Y-1070046D01*
X5494553Y-939492D01*
X5492348Y-937528D01*
X5492345Y-937524D01*
X5378485Y-836080D01*
X5376275Y-834111D01*
X5236274Y-759984D01*
X5082633Y-721392D01*
X5002177Y-720970D01*
X4927174Y-720577D01*
X4927170Y-720577D01*
X4924221Y-720562D01*
X4921352Y-721251D01*
X4921350Y-721251D01*
X4773058Y-756853D01*
X4770184Y-757543D01*
X4629414Y-830200D01*
X4627194Y-832137D01*
X4627192Y-832138D01*
X4546605Y-902439D01*
X4510039Y-934338D01*
X4508341Y-936753D01*
X4508340Y-936755D01*
X4504704Y-941929D01*
X4418950Y-1063944D01*
X4417879Y-1066692D01*
X4417877Y-1066695D01*
X4403500Y-1103571D01*
X4361406Y-1211537D01*
X4360138Y-1221166D01*
X4347739Y-1315353D01*
X4340729Y-1368596D01*
X4358113Y-1526053D01*
X4387062Y-1605161D01*
X4385491Y-1642631D01*
X4357885Y-1668016D01*
X4341046Y-1671000D01*
X2960309Y-1671000D01*
X2949995Y-1669902D01*
X2936667Y-1667032D01*
X2936665Y-1667032D01*
X2932704Y-1666179D01*
X2898088Y-1670276D01*
X2894847Y-1670660D01*
X2889087Y-1671000D01*
X2883056Y-1671000D01*
X2862217Y-1674468D01*
X2859958Y-1674790D01*
X2807239Y-1681030D01*
X2803586Y-1682785D01*
X2799698Y-1683914D01*
X2799651Y-1683752D01*
X2797727Y-1684361D01*
X2797781Y-1684520D01*
X2793952Y-1685831D01*
X2789954Y-1686496D01*
X2743224Y-1711710D01*
X2741227Y-1712728D01*
X2693348Y-1735719D01*
X2689073Y-1739313D01*
X2689065Y-1739304D01*
X2685397Y-1741916D01*
X2685529Y-1742086D01*
X2682331Y-1744566D01*
X2678766Y-1746490D01*
X2676017Y-1749463D01*
X2675773Y-1749653D01*
X2639599Y-1759547D01*
X2622816Y-1754240D01*
X2509060Y-1694009D01*
X2355419Y-1655417D01*
X2274963Y-1654995D01*
X2199960Y-1654602D01*
X2199956Y-1654602D01*
X2197007Y-1654587D01*
X2194138Y-1655276D01*
X2194136Y-1655276D01*
X2086864Y-1681030D01*
X2042970Y-1691568D01*
X2040342Y-1692924D01*
X2040343Y-1692924D01*
X1930433Y-1749653D01*
X1902200Y-1764225D01*
X1899980Y-1766162D01*
X1899978Y-1766163D01*
X1785487Y-1866041D01*
X1782825Y-1868363D01*
X1691736Y-1997969D01*
X1634192Y-2145562D01*
X1613515Y-2302621D01*
X254500Y-2302621D01*
X254500Y-303500D01*
X268852Y-268852D01*
X303500Y-254500D01*
X49696500Y-254500D01*
X49731148Y-268852D01*
G37*
%TD.AperFunction*%
%TA.AperFunction,Conductor*%
G36*
X8954574Y-3393852D02*
G01*
X8968926Y-3428500D01*
X8954574Y-3463148D01*
X8249074Y-4168648D01*
X8214426Y-4183000D01*
X6553500Y-4183000D01*
X6518852Y-4168648D01*
X6504500Y-4134000D01*
X6504500Y-3943166D01*
X6489498Y-3848445D01*
X6460412Y-3791361D01*
X6433076Y-3737711D01*
X6433075Y-3737710D01*
X6431326Y-3734277D01*
X6340723Y-3643674D01*
X6337290Y-3641925D01*
X6337289Y-3641924D01*
X6264604Y-3604889D01*
X6226555Y-3585502D01*
X6222750Y-3584899D01*
X6222749Y-3584899D01*
X6192510Y-3580110D01*
X6131834Y-3570500D01*
X5768166Y-3570500D01*
X5707490Y-3580110D01*
X5677251Y-3584899D01*
X5677250Y-3584899D01*
X5673445Y-3585502D01*
X5635396Y-3604889D01*
X5562711Y-3641924D01*
X5562710Y-3641925D01*
X5559277Y-3643674D01*
X5468674Y-3734277D01*
X5466925Y-3737710D01*
X5466924Y-3737711D01*
X5439588Y-3791361D01*
X5410502Y-3848445D01*
X5395500Y-3943166D01*
X5395500Y-5170856D01*
X5381148Y-5205504D01*
X5346500Y-5219856D01*
X5332829Y-5217910D01*
X5263360Y-5197726D01*
X5255945Y-5198545D01*
X5254000Y-5200973D01*
X5254000Y-6173753D01*
X5256855Y-6180645D01*
X5263747Y-6183500D01*
X5798252Y-6183500D01*
X5805144Y-6180645D01*
X5807999Y-6173753D01*
X5807999Y-5784501D01*
X5807924Y-5782589D01*
X5805262Y-5748749D01*
X5804365Y-5743837D01*
X5767564Y-5617171D01*
X5771679Y-5579894D01*
X5800947Y-5556446D01*
X5814618Y-5554500D01*
X6131834Y-5554500D01*
X6192510Y-5544890D01*
X6222749Y-5540101D01*
X6222750Y-5540101D01*
X6226555Y-5539498D01*
X6330555Y-5486507D01*
X6337289Y-5483076D01*
X6337290Y-5483075D01*
X6340723Y-5481326D01*
X6431326Y-5390723D01*
X6489498Y-5276555D01*
X6490391Y-5270921D01*
X6498478Y-5219856D01*
X6504500Y-5181834D01*
X6504500Y-4991000D01*
X6518852Y-4956352D01*
X6553500Y-4942000D01*
X7357426Y-4942000D01*
X7392074Y-4956352D01*
X7406426Y-4991000D01*
X7392074Y-5025648D01*
X7209362Y-5208360D01*
X7208188Y-5210003D01*
X7208187Y-5210004D01*
X7167764Y-5266569D01*
X7154486Y-5285150D01*
X7118287Y-5406194D01*
X7118446Y-5410243D01*
X7120462Y-5461553D01*
X7120500Y-5463477D01*
X7120500Y-6735010D01*
X7106148Y-6769658D01*
X6335118Y-7540688D01*
X6300470Y-7555040D01*
X6289136Y-7553711D01*
X6287325Y-7553280D01*
X6284448Y-7552202D01*
X6281394Y-7551870D01*
X6281393Y-7551870D01*
X6268091Y-7550425D01*
X6222756Y-7545500D01*
X5678349Y-7545500D01*
X5643701Y-7531148D01*
X5629349Y-7496500D01*
X5643701Y-7461852D01*
X5671870Y-7433683D01*
X5675628Y-7428838D01*
X5757110Y-7291058D01*
X5759543Y-7285435D01*
X5804367Y-7131155D01*
X5805261Y-7126259D01*
X5807925Y-7092409D01*
X5808000Y-7090501D01*
X5808000Y-6701247D01*
X5805145Y-6694355D01*
X5798253Y-6691500D01*
X5263747Y-6691500D01*
X5256855Y-6694355D01*
X5254000Y-6701247D01*
X5254000Y-7670246D01*
X5261148Y-7687502D01*
X5261148Y-7725005D01*
X5255088Y-7735640D01*
X5202929Y-7805236D01*
X5152202Y-7940552D01*
X5145500Y-8002244D01*
X5145500Y-8997756D01*
X5152202Y-9059448D01*
X5165355Y-9094534D01*
X5200560Y-9188444D01*
X5202929Y-9194764D01*
X5289596Y-9310404D01*
X5405236Y-9397071D01*
X5408506Y-9398297D01*
X5408508Y-9398298D01*
X5460074Y-9417628D01*
X5540552Y-9447798D01*
X5543602Y-9448129D01*
X5543605Y-9448130D01*
X5572668Y-9451287D01*
X5605564Y-9469297D01*
X5616089Y-9505292D01*
X5598079Y-9538188D01*
X5572668Y-9548713D01*
X5543605Y-9551870D01*
X5543602Y-9551871D01*
X5540552Y-9552202D01*
X5501201Y-9566954D01*
X5408508Y-9601702D01*
X5408506Y-9601703D01*
X5405236Y-9602929D01*
X5289596Y-9689596D01*
X5287502Y-9692390D01*
X5207364Y-9799319D01*
X5202929Y-9805236D01*
X5152202Y-9940552D01*
X5145500Y-10002244D01*
X5145500Y-10997756D01*
X5147069Y-11012197D01*
X5151272Y-11050885D01*
X5152202Y-11059448D01*
X5180364Y-11134570D01*
X5201020Y-11189671D01*
X5202929Y-11194764D01*
X5205024Y-11197560D01*
X5205025Y-11197561D01*
X5256264Y-11265929D01*
X5289596Y-11310404D01*
X5292390Y-11312498D01*
X5401200Y-11394046D01*
X5405236Y-11397071D01*
X5408506Y-11398297D01*
X5408508Y-11398298D01*
X5457741Y-11416754D01*
X5540552Y-11447798D01*
X5543602Y-11448129D01*
X5543605Y-11448130D01*
X5572668Y-11451287D01*
X5605564Y-11469297D01*
X5616089Y-11505292D01*
X5598079Y-11538188D01*
X5572668Y-11548713D01*
X5543605Y-11551870D01*
X5543602Y-11551871D01*
X5540552Y-11552202D01*
X5501201Y-11566954D01*
X5408508Y-11601702D01*
X5408506Y-11601703D01*
X5405236Y-11602929D01*
X5402440Y-11605024D01*
X5402439Y-11605025D01*
X5326647Y-11661828D01*
X5289596Y-11689596D01*
X5287502Y-11692390D01*
X5254130Y-11736919D01*
X5202929Y-11805236D01*
X5201703Y-11808506D01*
X5201702Y-11808508D01*
X5184218Y-11855149D01*
X5152202Y-11940552D01*
X5151871Y-11943602D01*
X5151870Y-11943605D01*
X5151373Y-11948184D01*
X5145500Y-12002244D01*
X5145500Y-12997756D01*
X5146011Y-13002460D01*
X5151531Y-13053267D01*
X5152202Y-13059448D01*
X5202929Y-13194764D01*
X5289596Y-13310404D01*
X5405236Y-13397071D01*
X5408506Y-13398297D01*
X5408508Y-13398298D01*
X5460074Y-13417628D01*
X5540552Y-13447798D01*
X5543602Y-13448129D01*
X5543605Y-13448130D01*
X5572668Y-13451287D01*
X5605564Y-13469297D01*
X5616089Y-13505292D01*
X5598079Y-13538188D01*
X5572668Y-13548713D01*
X5543605Y-13551870D01*
X5543602Y-13551871D01*
X5540552Y-13552202D01*
X5501201Y-13566954D01*
X5408508Y-13601702D01*
X5408506Y-13601703D01*
X5405236Y-13602929D01*
X5289596Y-13689596D01*
X5202929Y-13805236D01*
X5201703Y-13808506D01*
X5201702Y-13808508D01*
X5187688Y-13845892D01*
X5152202Y-13940552D01*
X5145500Y-14002244D01*
X5145500Y-14997756D01*
X5148973Y-15029727D01*
X5150875Y-15047230D01*
X5152202Y-15059448D01*
X5178360Y-15129226D01*
X5185528Y-15148345D01*
X5202929Y-15194764D01*
X5205024Y-15197560D01*
X5205025Y-15197561D01*
X5229034Y-15229596D01*
X5289596Y-15310404D01*
X5292390Y-15312498D01*
X5401595Y-15394342D01*
X5405236Y-15397071D01*
X5408506Y-15398297D01*
X5408508Y-15398298D01*
X5460074Y-15417628D01*
X5540552Y-15447798D01*
X5543602Y-15448129D01*
X5543605Y-15448130D01*
X5572668Y-15451287D01*
X5605564Y-15469297D01*
X5616089Y-15505292D01*
X5598079Y-15538188D01*
X5572668Y-15548713D01*
X5543605Y-15551870D01*
X5543602Y-15551871D01*
X5540552Y-15552202D01*
X5476294Y-15576291D01*
X5408508Y-15601702D01*
X5408506Y-15601703D01*
X5405236Y-15602929D01*
X5289596Y-15689596D01*
X5202929Y-15805236D01*
X5201703Y-15808506D01*
X5201702Y-15808508D01*
X5187688Y-15845892D01*
X5152202Y-15940552D01*
X5145500Y-16002244D01*
X5145500Y-16903010D01*
X5131148Y-16937658D01*
X5096500Y-16952010D01*
X5061852Y-16937658D01*
X4868852Y-16744658D01*
X4854500Y-16710010D01*
X4854500Y-16002244D01*
X4847798Y-15940552D01*
X4812312Y-15845892D01*
X4798298Y-15808508D01*
X4798297Y-15808506D01*
X4797071Y-15805236D01*
X4710404Y-15689596D01*
X4594764Y-15602929D01*
X4591494Y-15601703D01*
X4591492Y-15601702D01*
X4498800Y-15566954D01*
X4471394Y-15541353D01*
X4467000Y-15521072D01*
X4467000Y-15478928D01*
X4481352Y-15444280D01*
X4498800Y-15433046D01*
X4591492Y-15398298D01*
X4591494Y-15398297D01*
X4594764Y-15397071D01*
X4598406Y-15394342D01*
X4707610Y-15312498D01*
X4710404Y-15310404D01*
X4770966Y-15229596D01*
X4794975Y-15197561D01*
X4794976Y-15197560D01*
X4797071Y-15194764D01*
X4814473Y-15148345D01*
X4821640Y-15129226D01*
X4847798Y-15059448D01*
X4849126Y-15047230D01*
X4851027Y-15029727D01*
X4854500Y-14997756D01*
X4854500Y-14002244D01*
X4847798Y-13940552D01*
X4812312Y-13845892D01*
X4798298Y-13808508D01*
X4798297Y-13808506D01*
X4797071Y-13805236D01*
X4710404Y-13689596D01*
X4594764Y-13602929D01*
X4591494Y-13601703D01*
X4591492Y-13601702D01*
X4498800Y-13566954D01*
X4471394Y-13541353D01*
X4467000Y-13521072D01*
X4467000Y-13478928D01*
X4481352Y-13444280D01*
X4498800Y-13433046D01*
X4591492Y-13398298D01*
X4591494Y-13398297D01*
X4594764Y-13397071D01*
X4710404Y-13310404D01*
X4797071Y-13194764D01*
X4847798Y-13059448D01*
X4848470Y-13053267D01*
X4853989Y-13002460D01*
X4854500Y-12997756D01*
X4854500Y-12002244D01*
X4848627Y-11948184D01*
X4848130Y-11943605D01*
X4848129Y-11943602D01*
X4847798Y-11940552D01*
X4815782Y-11855149D01*
X4798298Y-11808508D01*
X4798297Y-11808506D01*
X4797071Y-11805236D01*
X4745871Y-11736919D01*
X4712498Y-11692390D01*
X4710404Y-11689596D01*
X4673353Y-11661828D01*
X4597561Y-11605025D01*
X4597560Y-11605024D01*
X4594764Y-11602929D01*
X4591494Y-11601703D01*
X4591492Y-11601702D01*
X4498800Y-11566954D01*
X4471394Y-11541353D01*
X4467000Y-11521072D01*
X4467000Y-11478928D01*
X4481352Y-11444280D01*
X4498800Y-11433046D01*
X4591492Y-11398298D01*
X4591494Y-11398297D01*
X4594764Y-11397071D01*
X4598801Y-11394046D01*
X4707610Y-11312498D01*
X4710404Y-11310404D01*
X4743736Y-11265929D01*
X4794975Y-11197561D01*
X4794976Y-11197560D01*
X4797071Y-11194764D01*
X4798981Y-11189671D01*
X4819636Y-11134570D01*
X4847798Y-11059448D01*
X4848729Y-11050885D01*
X4852931Y-11012197D01*
X4854500Y-10997756D01*
X4854500Y-10002244D01*
X4847798Y-9940552D01*
X4797071Y-9805236D01*
X4792637Y-9799319D01*
X4712498Y-9692390D01*
X4710404Y-9689596D01*
X4594764Y-9602929D01*
X4591494Y-9601703D01*
X4591492Y-9601702D01*
X4498800Y-9566954D01*
X4471394Y-9541353D01*
X4467000Y-9521072D01*
X4467000Y-9478928D01*
X4481352Y-9444280D01*
X4498800Y-9433046D01*
X4591492Y-9398298D01*
X4591494Y-9398297D01*
X4594764Y-9397071D01*
X4710404Y-9310404D01*
X4797071Y-9194764D01*
X4799441Y-9188444D01*
X4834645Y-9094534D01*
X4847798Y-9059448D01*
X4854500Y-8997756D01*
X4854500Y-8002244D01*
X4847798Y-7940552D01*
X4797071Y-7805236D01*
X4744354Y-7734895D01*
X4735059Y-7698564D01*
X4745322Y-7674874D01*
X4746000Y-7674028D01*
X4746000Y-5204754D01*
X4743145Y-5197862D01*
X4740271Y-5196671D01*
X4667171Y-5217910D01*
X4629895Y-5213795D01*
X4606446Y-5184527D01*
X4604500Y-5170856D01*
X4604500Y-3943166D01*
X4589498Y-3848445D01*
X4560412Y-3791361D01*
X4533076Y-3737711D01*
X4533075Y-3737710D01*
X4531326Y-3734277D01*
X4507853Y-3710804D01*
X4493501Y-3676156D01*
X4502709Y-3647563D01*
X4524154Y-3617719D01*
X4558185Y-3597652D01*
X4566145Y-3596710D01*
X4580841Y-3594970D01*
X4584494Y-3593215D01*
X4588382Y-3592086D01*
X4588429Y-3592248D01*
X4590353Y-3591639D01*
X4590299Y-3591480D01*
X4594128Y-3590169D01*
X4598126Y-3589504D01*
X4644856Y-3564290D01*
X4646853Y-3563272D01*
X4694732Y-3540281D01*
X4697088Y-3538301D01*
X4697090Y-3538299D01*
X4698206Y-3537361D01*
X4698215Y-3537352D01*
X4699008Y-3536686D01*
X4699017Y-3536696D01*
X4702683Y-3534086D01*
X4702550Y-3533915D01*
X4705749Y-3531434D01*
X4709314Y-3529510D01*
X4746931Y-3488816D01*
X4748265Y-3487429D01*
X4841842Y-3393852D01*
X4876490Y-3379500D01*
X8919926Y-3379500D01*
X8954574Y-3393852D01*
G37*
%TD.AperFunction*%
%TD*%
M02*
