M48
; DRILL file {KiCad (6.0.6)} date Thu Dec 29 17:59:43 2022
; FORMAT={-:-/ absolute / inch / decimal}
; #@! TF.CreationDate,2022-12-29T17:59:43-06:00
; #@! TF.GenerationSoftware,Kicad,Pcbnew,(6.0.6)
; #@! TF.FileFunction,Plated,1,2,PTH
FMAT,2
INCH
; #@! TA.AperFunction,Plated,PTH,ViaDrill
T1C0.0157
; #@! TA.AperFunction,Plated,PTH,ComponentDrill
T2C0.0394
%
G90
G05
T1
X0.1181Y-0.4528
X0.1181Y-0.2362
X0.1575Y-0.2362
X0.1622Y-0.1792
X0.187Y-1.3976
X0.1969Y-0.9055
X0.2005Y-0.1703
X0.2212Y-1.0573
X0.2362Y-0.1181
X0.2362Y-1.3976
X0.2554Y-0.9257
X0.2948Y-0.9651
X0.2958Y-0.7672
X0.315Y-1.3976
X0.3236Y-0.7951
X0.3543Y-1.4075
X0.3548Y-1.3194
X0.4134Y-0.2559
X0.4424Y-1.033
X0.4424Y-1.079
X0.4528Y-1.1811
X0.4724Y-0.9843
X0.5315Y-0.8858
X0.5315Y-1.2795
X0.5488Y-1.0827
X0.5488Y-1.4665
X0.6403Y-0.312
X0.6838Y-0.3492
X1.1619Y-0.1767
X1.2023Y-0.1363
X1.2205Y-0.3258
X1.2392Y-0.1772
X1.2795Y-0.374
X1.3189Y-0.3346
X1.3583Y-0.3346
X1.3799Y-0.3878
X1.4188Y-0.4016
X1.4349Y-1.378
X1.4349Y-1.4173
X1.4953Y-1.3026
X1.5157Y-0.2468
X1.562Y-1.0034
X1.5743Y-0.9661
X1.5748Y-1.2008
X1.5993Y-0.3331
X1.6053Y-0.5906
X1.6535Y-1.2598
X1.6764Y-0.4821
X1.7003Y-0.9164
X1.7049Y-0.5392
X1.7323Y-1.0039
X1.7437Y-0.8848
X1.7746Y-0.6693
X1.7851Y-1.2368
X1.811Y-0.4331
X1.8174Y-0.8401
X1.8219Y-1.0138
X1.8548Y-0.7909
X1.9094Y-1.1614
T2
X0.6843Y-0.8811
X0.6843Y-0.9811
X0.6843Y-1.0811
X0.6843Y-1.1811
X0.6843Y-1.2811
X0.6843Y-1.3811
X0.6843Y-1.4811
X1.2843Y-0.8811
X1.2843Y-0.9811
X1.2843Y-1.0811
X1.2843Y-1.1811
X1.2843Y-1.2811
X1.2843Y-1.3811
X1.2843Y-1.4811
T0
M30
