%TF.GenerationSoftware,KiCad,Pcbnew,(6.0.6)*%
%TF.CreationDate,2022-12-20T00:37:19-06:00*%
%TF.ProjectId,Realm Card,5265616c-6d20-4436-9172-642e6b696361,A*%
%TF.SameCoordinates,Original*%
%TF.FileFunction,Copper,L2,Bot*%
%TF.FilePolarity,Positive*%
%FSLAX46Y46*%
G04 Gerber Fmt 4.6, Leading zero omitted, Abs format (unit mm)*
G04 Created by KiCad (PCBNEW (6.0.6)) date 2022-12-20 00:37:19*
%MOMM*%
%LPD*%
G01*
G04 APERTURE LIST*
%TA.AperFunction,ComponentPad*%
%ADD10R,4.000000X1.700000*%
%TD*%
%TA.AperFunction,ViaPad*%
%ADD11C,0.800000*%
%TD*%
%TA.AperFunction,Conductor*%
%ADD12C,0.250000*%
%TD*%
G04 APERTURE END LIST*
D10*
%TO.P,J1,1,Pin_1*%
%TO.N,WR*%
X16380000Y-22380000D03*
%TO.P,J1,2,Pin_2*%
%TO.N,SCK*%
X16380000Y-24920000D03*
%TO.P,J1,3,Pin_3*%
%TO.N,MISO*%
X16380000Y-27460000D03*
%TO.P,J1,4,Pin_4*%
%TO.N,MOSI*%
X16380000Y-30000000D03*
%TO.P,J1,5,Pin_5*%
%TO.N,+3.3V*%
X16380000Y-32540000D03*
%TO.P,J1,6,Pin_6*%
%TO.N,GND*%
X16380000Y-35080000D03*
%TO.P,J1,7,Pin_7*%
%TO.N,+5V*%
X16380000Y-37620000D03*
%TO.P,J1,8,Pin_8*%
%TO.N,BAT CHG*%
X33620000Y-22380000D03*
%TO.P,J1,9,Pin_9*%
%TO.N,LCD_CS*%
X33620000Y-24920000D03*
%TO.P,J1,10,Pin_10*%
%TO.N,SD_CS*%
X33620000Y-27460000D03*
%TO.P,J1,11,Pin_11*%
%TO.N,X+*%
X33620000Y-30000000D03*
%TO.P,J1,12,Pin_12*%
%TO.N,X-*%
X33620000Y-32540000D03*
%TO.P,J1,13,Pin_13*%
%TO.N,Y+*%
X33620000Y-35080000D03*
%TO.P,J1,14,Pin_14*%
%TO.N,Y-*%
X33620000Y-37620000D03*
%TD*%
D11*
%TO.N,GND*%
X6000000Y-3000000D03*
X10500000Y-6500000D03*
%TO.N,+5V*%
X13939502Y-37250000D03*
X45074500Y-17000000D03*
X42000000Y-32000000D03*
X45341779Y-31413878D03*
X6487701Y-23512299D03*
X7512299Y-19487701D03*
%TO.N,VBAT*%
X40000000Y-30500000D03*
X44000000Y-25500000D03*
%TO.N,+3.3V*%
X17369027Y-8869027D03*
X32500000Y-9500000D03*
X31000000Y-8275500D03*
X2987452Y-7037356D03*
X5619301Y-26856100D03*
X9012299Y-33512299D03*
X40775500Y-15000000D03*
X16263175Y-7924975D03*
X5000000Y-23000000D03*
X3000000Y-11500000D03*
X13500000Y-32500000D03*
%TO.N,SD_CS*%
X46162702Y-21337298D03*
X7487701Y-24512299D03*
X8219055Y-20194456D03*
X9000000Y-35750000D03*
%TO.N,MOSI*%
X11500000Y-30000000D03*
X3000497Y-6000000D03*
X11238200Y-27406850D03*
X8000000Y-35500000D03*
%TO.N,SCK*%
X29512299Y-4487701D03*
X30537251Y-3462749D03*
X12000000Y-25000000D03*
X6000000Y-35500000D03*
X4119302Y-4550500D03*
%TO.N,MISO*%
X13939502Y-27500000D03*
X11237700Y-26237700D03*
X4000000Y-6000000D03*
X4750000Y-35500000D03*
%TO.N,Net-(J3-Pad1)*%
X46000000Y-11000000D03*
X37980271Y-33085274D03*
%TO.N,Net-(R5-Pad2)*%
X47112299Y-20087701D03*
X48500000Y-29500000D03*
%TO.N,Y+*%
X36037625Y-10199500D03*
X36445498Y-35000000D03*
%TO.N,X+*%
X35050500Y-9849165D03*
X39986662Y-24537937D03*
%TO.N,Y-*%
X36445498Y-36000000D03*
X34500000Y-8500000D03*
%TO.N,X-*%
X33500000Y-8500000D03*
X39673788Y-25487206D03*
%TO.N,WR*%
X13500000Y-22500000D03*
X5093150Y-4325500D03*
%TO.N,LCD_CS*%
X42579639Y-12245459D03*
X38500000Y-6268131D03*
X31474500Y-4500000D03*
X43188482Y-23275500D03*
X40622438Y-8461908D03*
X43305041Y-13694959D03*
%TO.N,BAT CHG*%
X44289571Y-22474719D03*
X46275500Y-25750000D03*
%TD*%
D12*
%TO.N,SD_CS*%
X8237299Y-20176212D02*
X8219055Y-20194456D01*
X8237299Y-19187396D02*
X8237299Y-20176212D01*
X8000000Y-18950097D02*
X8237299Y-19187396D01*
X8500000Y-10000000D02*
X8000000Y-10500000D01*
X17262652Y-10000000D02*
X8500000Y-10000000D01*
X19262652Y-8000000D02*
X17262652Y-10000000D01*
X29454379Y-8000000D02*
X19262652Y-8000000D01*
X30454379Y-9000000D02*
X29454379Y-8000000D01*
X31803389Y-9000000D02*
X30454379Y-9000000D01*
X33303389Y-7500000D02*
X31803389Y-9000000D01*
X44500000Y-7500000D02*
X33303389Y-7500000D01*
X46725000Y-9725000D02*
X44500000Y-7500000D01*
X46725000Y-11411396D02*
X46725000Y-9725000D01*
X44930041Y-14569959D02*
X44930041Y-13206355D01*
X44350000Y-15150000D02*
X44930041Y-14569959D01*
X44350000Y-19524596D02*
X44350000Y-15150000D01*
X44930041Y-13206355D02*
X46725000Y-11411396D01*
X46162702Y-21337298D02*
X44350000Y-19524596D01*
X8000000Y-10500000D02*
X8000000Y-18950097D01*
%TO.N,+5V*%
X7500000Y-19475402D02*
X7512299Y-19487701D01*
X7500000Y-10363604D02*
X7500000Y-19475402D01*
X8313604Y-9550000D02*
X7500000Y-10363604D01*
X15662749Y-9550000D02*
X8313604Y-9550000D01*
X18220118Y-6992631D02*
X15662749Y-9550000D01*
X44629027Y-6992631D02*
X18220118Y-6992631D01*
X45380041Y-13392751D02*
X47175000Y-11597792D01*
X47175000Y-11597792D02*
X47175000Y-9538604D01*
X47175000Y-9538604D02*
X44629027Y-6992631D01*
X45074500Y-15425500D02*
X45380041Y-15119959D01*
X45380041Y-15119959D02*
X45380041Y-13392751D01*
X45074500Y-17000000D02*
X45074500Y-15425500D01*
X45471795Y-31283862D02*
X45341779Y-31413878D01*
X45471795Y-31252705D02*
X45471795Y-31283862D01*
X48000000Y-28724500D02*
X45471795Y-31252705D01*
X48000000Y-22000000D02*
X48000000Y-28724500D01*
X45074500Y-17000000D02*
X45000000Y-17074500D01*
X45000000Y-17074500D02*
X45000000Y-19000000D01*
X45000000Y-19000000D02*
X48000000Y-22000000D01*
%TO.N,Net-(J3-Pad1)*%
X46000000Y-11500000D02*
X46000000Y-11000000D01*
X44480041Y-13019959D02*
X46000000Y-11500000D01*
X44480041Y-14181660D02*
X44480041Y-13019959D01*
X43900000Y-14761701D02*
X44480041Y-14181660D01*
X43900000Y-20099195D02*
X43900000Y-14761701D01*
X47500000Y-23699195D02*
X43900000Y-20099195D01*
X47500000Y-27500000D02*
X47500000Y-23699195D01*
X43725000Y-31275000D02*
X47500000Y-27500000D01*
X41275000Y-32170498D02*
X41275000Y-31699695D01*
X38565545Y-32500000D02*
X40945498Y-32500000D01*
X37980271Y-33085274D02*
X38565545Y-32500000D01*
X40945498Y-32500000D02*
X41275000Y-32170498D01*
X41275000Y-31699695D02*
X41699695Y-31275000D01*
X41699695Y-31275000D02*
X43725000Y-31275000D01*
%TO.N,Y-*%
X39134680Y-8500000D02*
X34500000Y-8500000D01*
X40364859Y-9730179D02*
X39134680Y-8500000D01*
X40364859Y-11144393D02*
X40364859Y-9730179D01*
X42190425Y-12969959D02*
X40364859Y-11144393D01*
X43605346Y-12969959D02*
X42190425Y-12969959D01*
X44030041Y-13394654D02*
X43605346Y-12969959D01*
X43450000Y-14575305D02*
X44030041Y-13995264D01*
X44030041Y-13995264D02*
X44030041Y-13394654D01*
X43450000Y-20610550D02*
X43450000Y-14575305D01*
X47000000Y-24160550D02*
X43450000Y-20610550D01*
X47000000Y-27000000D02*
X47000000Y-24160550D01*
X43175000Y-30825000D02*
X47000000Y-27000000D01*
X41513299Y-30825000D02*
X43175000Y-30825000D01*
X40825000Y-31972749D02*
X40825000Y-31513299D01*
X40825000Y-31513299D02*
X41513299Y-30825000D01*
X38068198Y-31972749D02*
X40825000Y-31972749D01*
X37170498Y-32870449D02*
X38068198Y-31972749D01*
X37170498Y-35300305D02*
X37170498Y-32870449D01*
X36445498Y-35725000D02*
X36745803Y-35725000D01*
X36745803Y-35725000D02*
X37170498Y-35300305D01*
X36445498Y-36000000D02*
X36445498Y-35725000D01*
%TO.N,LCD_CS*%
X43305041Y-13694959D02*
X43000000Y-14000000D01*
X43000000Y-14000000D02*
X43000000Y-23087018D01*
X43000000Y-23087018D02*
X43188482Y-23275500D01*
%TO.N,BAT CHG*%
X44677773Y-22474719D02*
X44289571Y-22474719D01*
X46275500Y-24072446D02*
X44677773Y-22474719D01*
X46275500Y-25750000D02*
X46275500Y-24072446D01*
%TO.N,VBAT*%
X44000000Y-29363604D02*
X44000000Y-25500000D01*
X42988604Y-30375000D02*
X44000000Y-29363604D01*
X41326903Y-30375000D02*
X42988604Y-30375000D01*
X40000000Y-30500000D02*
X41201903Y-30500000D01*
X41201903Y-30500000D02*
X41326903Y-30375000D01*
%TO.N,MOSI*%
X8000000Y-35500000D02*
X8000000Y-33111091D01*
X8000000Y-33111091D02*
X11111091Y-30000000D01*
X11111091Y-30000000D02*
X11500000Y-30000000D01*
%TO.N,SD_CS*%
X7487701Y-24512299D02*
X7000000Y-25000000D01*
X8000000Y-36750000D02*
X9000000Y-35750000D01*
X7000000Y-30500000D02*
X4000000Y-33500000D01*
X4974695Y-36750000D02*
X8000000Y-36750000D01*
X4000000Y-35775305D02*
X4974695Y-36750000D01*
X4000000Y-33500000D02*
X4000000Y-35775305D01*
X7000000Y-25000000D02*
X7000000Y-30500000D01*
%TO.N,WR*%
X5225000Y-10775000D02*
X5225000Y-18952208D01*
X7400000Y-8600000D02*
X5225000Y-10775000D01*
X7400000Y-6763604D02*
X7400000Y-8600000D01*
X6000000Y-5363604D02*
X7400000Y-6763604D01*
X8772792Y-22500000D02*
X13500000Y-22500000D01*
X6000000Y-5232350D02*
X6000000Y-5363604D01*
X5225000Y-18952208D02*
X8772792Y-22500000D01*
X5093150Y-4325500D02*
X6000000Y-5232350D01*
%TO.N,SCK*%
X5118802Y-5550000D02*
X4119302Y-4550500D01*
X5348097Y-5550000D02*
X5118802Y-5550000D01*
X6625000Y-8375000D02*
X6625000Y-6826903D01*
X4775000Y-19138604D02*
X4775000Y-10225000D01*
X6625000Y-6826903D02*
X5348097Y-5550000D01*
X10636396Y-25000000D02*
X4775000Y-19138604D01*
X4775000Y-10225000D02*
X6625000Y-8375000D01*
X12000000Y-25000000D02*
X10636396Y-25000000D01*
%TO.N,MOSI*%
X3000497Y-6025802D02*
X3000497Y-6000000D01*
X3974695Y-7000000D02*
X3000497Y-6025802D01*
X4474695Y-7000000D02*
X3974695Y-7000000D01*
X4699695Y-6775000D02*
X4474695Y-7000000D01*
X5300305Y-6775000D02*
X4699695Y-6775000D01*
X5725000Y-7199695D02*
X5300305Y-6775000D01*
X3875000Y-9761396D02*
X5725000Y-7911396D01*
X5725000Y-7911396D02*
X5725000Y-7199695D01*
X3875000Y-19511396D02*
X3875000Y-9761396D01*
X10512700Y-26681350D02*
X10512700Y-26149096D01*
X11238200Y-27406850D02*
X10512700Y-26681350D01*
X10512700Y-26149096D02*
X3875000Y-19511396D01*
%TO.N,SCK*%
X11962700Y-27875599D02*
X6000000Y-33838299D01*
X6000000Y-33838299D02*
X6000000Y-35500000D01*
X11962700Y-25037300D02*
X11962700Y-27875599D01*
X12000000Y-25000000D02*
X11962700Y-25037300D01*
%TO.N,+5V*%
X3500000Y-33363604D02*
X6487701Y-30375903D01*
X3500000Y-35911701D02*
X3500000Y-33363604D01*
X4838299Y-37250000D02*
X3500000Y-35911701D01*
X6487701Y-30375903D02*
X6487701Y-23512299D01*
X13939502Y-37250000D02*
X4838299Y-37250000D01*
%TO.N,GND*%
X6000000Y-3000000D02*
X9500000Y-6500000D01*
X9500000Y-6500000D02*
X10500000Y-6500000D01*
%TO.N,+3.3V*%
X5762701Y-23762701D02*
X5000000Y-23000000D01*
X6000000Y-24049903D02*
X5762701Y-23812604D01*
X5762701Y-23812604D02*
X5762701Y-23762701D01*
X6000000Y-26475401D02*
X6000000Y-24049903D01*
X5619301Y-26856100D02*
X6000000Y-26475401D01*
%TO.N,+5V*%
X44755657Y-32000000D02*
X45341779Y-31413878D01*
X42000000Y-32000000D02*
X44755657Y-32000000D01*
%TO.N,+3.3V*%
X8350000Y-9100000D02*
X15088150Y-9100000D01*
X7850000Y-8600000D02*
X8350000Y-9100000D01*
X18738054Y-7500000D02*
X17369027Y-8869027D01*
X13500000Y-32500000D02*
X10024598Y-32500000D01*
X3000000Y-7024808D02*
X2275497Y-6300305D01*
X2275497Y-5369000D02*
X4144497Y-3500000D01*
X31000000Y-8275500D02*
X30224500Y-7500000D01*
X4144497Y-3500000D02*
X5292955Y-3500000D01*
X7850000Y-6577208D02*
X7850000Y-8600000D01*
X30224500Y-7500000D02*
X18738054Y-7500000D01*
X15088150Y-9100000D02*
X16263175Y-7924975D01*
X37500000Y-11000000D02*
X37816302Y-11000000D01*
X6450000Y-4657045D02*
X6450000Y-5177208D01*
X3000000Y-7024808D02*
X2987452Y-7037356D01*
X10024598Y-32500000D02*
X9012299Y-33512299D01*
X5292955Y-3500000D02*
X6450000Y-4657045D01*
X34000000Y-11000000D02*
X37500000Y-11000000D01*
X3000000Y-11500000D02*
X3000000Y-7024808D01*
X32500000Y-9500000D02*
X34000000Y-11000000D01*
X37816302Y-11000000D02*
X40775500Y-13959198D01*
X2275497Y-6300305D02*
X2275497Y-5369000D01*
X6450000Y-5177208D02*
X7850000Y-6577208D01*
X40775500Y-13959198D02*
X40775500Y-15000000D01*
%TO.N,SCK*%
X30537251Y-3462749D02*
X29512299Y-4487701D01*
%TO.N,MISO*%
X7000000Y-33474695D02*
X7000000Y-35525305D01*
X6175000Y-7013299D02*
X6175000Y-8097792D01*
X6175000Y-8097792D02*
X4325000Y-9947792D01*
X4325000Y-19325000D02*
X11237700Y-26237700D01*
X5475000Y-36225000D02*
X4750000Y-35500000D01*
X4000000Y-6000000D02*
X5161701Y-6000000D01*
X13939502Y-27500000D02*
X12974695Y-27500000D01*
X4325000Y-9947792D02*
X4325000Y-19325000D01*
X12974695Y-27500000D02*
X7000000Y-33474695D01*
X7000000Y-35525305D02*
X6300305Y-36225000D01*
X6300305Y-36225000D02*
X5475000Y-36225000D01*
X5161701Y-6000000D02*
X6175000Y-7013299D01*
%TO.N,Net-(R5-Pad2)*%
X48500000Y-21475402D02*
X48500000Y-29500000D01*
X47112299Y-20087701D02*
X48500000Y-21475402D01*
%TO.N,Y+*%
X38904551Y-24594743D02*
X39686357Y-23812937D01*
X39686357Y-23812937D02*
X40075266Y-23812937D01*
X36037625Y-10199500D02*
X36337126Y-9900000D01*
X39114859Y-11662161D02*
X41500000Y-14047302D01*
X36445498Y-32959053D02*
X38904551Y-30500000D01*
X40075266Y-23812937D02*
X41500000Y-22388203D01*
X36445498Y-35000000D02*
X36445498Y-32959053D01*
X36337126Y-9900000D02*
X38766912Y-9900000D01*
X41500000Y-22388203D02*
X41500000Y-14118012D01*
X39114859Y-10247947D02*
X39114859Y-11662161D01*
X38766912Y-9900000D02*
X39114859Y-10247947D01*
X41500000Y-14118012D02*
X41464645Y-14082657D01*
X38904551Y-30500000D02*
X38904551Y-24594743D01*
%TO.N,X+*%
X38932598Y-9500000D02*
X39514859Y-10082261D01*
X42000000Y-14052326D02*
X41964645Y-14016971D01*
X39514859Y-10082261D02*
X39514859Y-11496475D01*
X39514859Y-11496475D02*
X42000000Y-13981616D01*
X35399665Y-9500000D02*
X38932598Y-9500000D01*
X42000000Y-22524599D02*
X42000000Y-14052326D01*
X39986662Y-24537937D02*
X42000000Y-22524599D01*
X35050500Y-9849165D02*
X35399665Y-9500000D01*
%TO.N,X-*%
X34989950Y-9000000D02*
X38998284Y-9000000D01*
X40062698Y-25487206D02*
X39673788Y-25487206D01*
X33500000Y-8500000D02*
X34200000Y-9200000D01*
X34789950Y-9200000D02*
X34989950Y-9000000D01*
X39914859Y-9916575D02*
X39914859Y-11330789D01*
X42500000Y-23049904D02*
X40062698Y-25487206D01*
X39914859Y-11330789D02*
X42500000Y-13915930D01*
X38998284Y-9000000D02*
X39914859Y-9916575D01*
X42500000Y-13915930D02*
X42500000Y-23049904D01*
X34200000Y-9200000D02*
X34789950Y-9200000D01*
%TO.N,LCD_CS*%
X37231869Y-5000000D02*
X38500000Y-6268131D01*
X31974500Y-5000000D02*
X37231869Y-5000000D01*
X42102321Y-12245459D02*
X40814859Y-10957997D01*
X40814859Y-8654329D02*
X40622438Y-8461908D01*
X42579639Y-12245459D02*
X42102321Y-12245459D01*
X31474500Y-4500000D02*
X31974500Y-5000000D01*
X40814859Y-10957997D02*
X40814859Y-8654329D01*
%TD*%
M02*
